  0
SECTION
  2
HEADER
  9
$ANGBASE
  50
0.0
  9
$ANGDIR
  70
1
  9
$MEASUREMENT
  70
1
  9
$INSUNITS
  70
4
  0
ENDSEC
  0
SECTION
  2
TABLES
  0
TABLE
  2
LTYPE
  70
4
  0
LTYPE
  5
40F
  2
CONTINUOUS
  70
0
  3
Solid line
  72
65
  73
0
  40
0.0
  0
LTYPE
  5
410
  2
DASHDOT
 70
0
  3
Dash Dot ____ _ ____ _
 72
65
 73
4
 40
2.0
 49
1.25
 49
-0.25
 49
0.25
 49
-0.25
  0
LTYPE
  5
411
  2
DASHED
 70
0
  3
Dashed __ __ __ __ __
 72
65
 73
2
 40
0.75
 49
0.5
 49
-0.25
  0
LTYPE
  5
43B
  2
DOTTED
 70
0
  3
Dotted .  .  .  .
 72
65
 73
2
 40
0.2
 49
0.0
 49
-0.2
  0
ENDTAB
  0
TABLE
  2
STYLE
  70
4
  0
STYLE
  2
KICAD
  70
0
  40
0
  41
1
  42
1
  50
0
  71
0
  3
isocp.shx
  0
STYLE
  2
KICADB
  70
0
  40
0
  41
1
  42
1
  50
0
  71
0
  3
isocp.shx
  0
STYLE
  2
KICADI
  70
0
  40
0
  41
1
  42
1
  50
15
  71
0
  3
isocp.shx
  0
STYLE
  2
KICADBI
  70
0
  40
0
  41
1
  42
1
  50
15
  71
0
  3
isocp.shx
  0
ENDTAB
  0
TABLE
  2
LAYER
  70
2
  0
LAYER
  2
Edge.Cuts
  70
0
  62
254
  420
13685453
  6
CONTINUOUS
  0
LAYER
  2
User.Eco1
  70
0
  62
254
  420
11852754
  6
CONTINUOUS
  0
ENDTAB
  0
ENDSEC
  0
SECTION
  2
ENTITIES
0
LINE
8
Edge.Cuts
6
CONTINUOUS
10
-18.3900000000000006
20
76.7049999999999983
11
-18.3900000000000006
21
66.7650000000000006
0
ARC
8
Edge.Cuts
10
-17.8900000000000006
20
76.7049999999999983
40
0.5
50
90.00000000
51
180.00000000
0
ARC
8
Edge.Cuts
10
-17.8900000000000006
20
66.7650000000000006
40
0.5
50
-180.00000000
51
-90.00000000
0
LINE
8
Edge.Cuts
6
CONTINUOUS
10
-17.8900000000000006
20
66.2650000000000006
11
-14.8899999999999988
21
66.2650000000000006
0
LINE
8
Edge.Cuts
6
CONTINUOUS
10
-14.8899999999999988
20
77.2049999999999983
11
-17.8900000000000006
21
77.2049999999999983
0
ARC
8
Edge.Cuts
10
-14.8899999999999988
20
65.7650000000000006
40
0.5
50
0.00000000
51
90.00000000
0
LINE
8
Edge.Cuts
6
CONTINUOUS
10
-14.3899999999999988
20
95.5450019999999967
11
-14.3899999999999988
21
77.7049999999999983
0
ARC
8
Edge.Cuts
10
-13.4900000000000002
20
95.5450000000000017
40
0.9000000000022222
50
90.00012732
51
179.99987268
0
ARC
8
Edge.Cuts
10
-14.8899999999999988
20
77.7049999999999983
40
0.5
50
-90.00000000
51
-0.00000000
0
LINE
8
Edge.Cuts
6
CONTINUOUS
10
-14.3899999999999988
20
65.7650000000000006
11
-14.3899999999999988
21
-1.073002
0
ARC
8
Edge.Cuts
10
-13.4900000000000002
20
-1.073
40
0.9000000000022222
50
-179.99987268
51
-90.00012732
0
LINE
8
Edge.Cuts
6
CONTINUOUS
10
-13.4900019999999987
20
-1.9729999999999999
11
126.3800019999999904
21
-1.9729999999999999
0
LINE
8
Edge.Cuts
6
CONTINUOUS
10
102.8799999999999955
20
96.4449999999999932
11
-13.4900019999999987
21
96.4449999999999932
0
LINE
8
Edge.Cuts
6
CONTINUOUS
10
102.8799999999999955
20
96.4449999999999932
11
111.5899999999999892
21
96.4449999999999932
0
ARC
8
Edge.Cuts
10
112.5899999999999892
20
99.9449999999999932
40
0.5
50
90.00000000
51
180.00000000
0
ARC
8
Edge.Cuts
10
111.5899999999999892
20
96.9449999999999932
40
0.5
50
-90.00000000
51
-0.00000000
0
LINE
8
Edge.Cuts
6
CONTINUOUS
10
112.0899999999999892
20
96.9449999999999932
11
112.0899999999999892
21
99.9449999999999932
0
LINE
8
Edge.Cuts
6
CONTINUOUS
10
112.5899999999999892
20
100.4449999999999932
11
122.5899999999999892
21
100.4449999999999932
0
ARC
8
Edge.Cuts
10
122.5899999999999892
20
99.9449999999999932
40
0.5
50
0.00000000
51
90.00000000
0
LINE
8
Edge.Cuts
6
CONTINUOUS
10
123.0899999999999892
20
99.9449999999999932
11
123.0899999999999892
21
96.9449999999999932
0
ARC
8
Edge.Cuts
10
123.5899999999999892
20
96.9449999999999932
40
0.5
50
-180.00000000
51
-90.00000000
0
LINE
8
Edge.Cuts
6
CONTINUOUS
10
123.5899999999999892
20
96.4449999999999932
11
126.3799999999999955
21
96.4449999999999932
0
ARC
8
Edge.Cuts
10
126.3799999999999955
20
95.5450000000000017
40
0.9000000000022222
50
0.00012732
51
89.99987268
0
LINE
8
Edge.Cuts
6
CONTINUOUS
10
127.2800000000000011
20
95.5450019999999967
11
127.2800000000000011
21
-1.073002
0
ARC
8
Edge.Cuts
10
126.3799999999999955
20
-1.073
40
0.9000000000022222
50
-89.99987268
51
-0.00012732
0
LINE
8
Edge.Cuts
6
CONTINUOUS
10
140.390749999999997
20
95.5450019999999967
11
140.390749999999997
21
-1.503085
0
ARC
8
Edge.Cuts
10
141.2906999999999869
20
95.5450000000000017
40
0.8999500000022224
50
89.99694423
51
179.99987267
0
ARC
8
Edge.Cuts
10
141.2905999999999835
20
-1.5031999999999999
40
0.8998240023476812
50
-180.00732215
51
-89.99586116
0
LINE
8
Edge.Cuts
6
CONTINUOUS
10
141.29066499999999
20
-2.4030239999999998
11
305.330001999999979
21
-2.403
0
LINE
8
Edge.Cuts
6
CONTINUOUS
10
141.2907480000000078
20
96.4449999999999932
11
144.0799999999999841
21
96.4449999999999932
0
ARC
8
Edge.Cuts
10
145.0799999999999841
20
99.9449999999999932
40
0.5
50
90.00000000
51
180.00000000
0
ARC
8
Edge.Cuts
10
144.0799999999999841
20
96.9449999999999932
40
0.5
50
-90.00000000
51
-0.00000000
0
LINE
8
Edge.Cuts
6
CONTINUOUS
10
144.5799999999999841
20
96.9449999999999932
11
144.5799999999999841
21
99.9449999999999932
0
LINE
8
Edge.Cuts
6
CONTINUOUS
10
145.0799999999999841
20
100.4449999999999932
11
155.0799999999999841
21
100.4449999999999932
0
ARC
8
Edge.Cuts
10
155.0799999999999841
20
99.9449999999999932
40
0.5
50
0.00000000
51
90.00000000
0
LINE
8
Edge.Cuts
6
CONTINUOUS
10
155.5799999999999841
20
99.9449999999999932
11
155.5799999999999841
21
96.9449999999999932
0
ARC
8
Edge.Cuts
10
156.0799999999999841
20
96.9449999999999932
40
0.5
50
-180.00000000
51
-90.00000000
0
LINE
8
Edge.Cuts
6
CONTINUOUS
10
156.0799999999999841
20
96.4449999999999932
11
166.4909999999999854
21
96.4449999999999932
0
LINE
8
Edge.Cuts
6
CONTINUOUS
10
305.330001999999979
20
96.4449999999999932
11
166.4909999999999854
21
96.4449999999999932
0
ARC
8
Edge.Cuts
10
305.3299999999999841
20
95.5450000000000017
40
0.9000000000022222
50
0.00012732
51
89.99987268
0
LINE
8
Edge.Cuts
6
CONTINUOUS
10
306.2299999999999613
20
95.5450019999999967
11
306.2299999999999613
21
77.7049999999999983
0
ARC
8
Edge.Cuts
10
306.7299999999999613
20
65.7650000000000006
40
0.5
50
90.00000000
51
180.00000000
0
ARC
8
Edge.Cuts
10
305.3299999999999841
20
-1.5029999999999999
40
0.9000000000022222
50
-89.99987268
51
-0.00012732
0
LINE
8
Edge.Cuts
6
CONTINUOUS
10
306.2299999999999613
20
-1.5030019999999999
11
306.2299999999999613
21
65.7650000000000006
0
ARC
8
Edge.Cuts
10
306.7299999999999613
20
77.7049999999999983
40
0.5
50
-180.00000000
51
-90.00000000
0
LINE
8
Edge.Cuts
6
CONTINUOUS
10
306.7299999999999613
20
77.2049999999999983
11
309.7299999999999613
21
77.2049999999999983
0
ARC
8
Edge.Cuts
10
309.7299999999999613
20
76.7049999999999983
40
0.5
50
0.00000000
51
90.00000000
0
LINE
8
Edge.Cuts
6
CONTINUOUS
10
309.7299999999999613
20
66.2650000000000006
11
306.7299999999999613
21
66.2650000000000006
0
LINE
8
Edge.Cuts
6
CONTINUOUS
10
310.2299999999999613
20
76.7049999999999983
11
310.2299999999999613
21
66.7650000000000006
0
ARC
8
Edge.Cuts
10
309.7299999999999613
20
66.7650000000000006
40
0.5
50
-90.00000000
51
-0.00000000
0
LINE
8
Edge.Cuts
6
CONTINUOUS
10
217.4644999999999868
20
92.4500000000000028
11
221.0644999999999811
21
92.4500000000000028
0
LINE
8
Edge.Cuts
6
CONTINUOUS
10
217.4644999999999868
20
89.3499999999999943
11
217.4644999999999868
21
92.4500000000000028
0
LINE
8
Edge.Cuts
6
CONTINUOUS
10
221.0644999999999811
20
92.4500000000000028
11
221.0644999999999811
21
89.3499999999999943
0
LINE
8
Edge.Cuts
6
CONTINUOUS
10
221.0644999999999811
20
89.3499999999999943
11
217.4644999999999868
21
89.3499999999999943
0
LINE
8
Edge.Cuts
6
CONTINUOUS
10
179.3644999999999925
20
92.4500000000000028
11
182.9644999999999868
21
92.4500000000000028
0
LINE
8
Edge.Cuts
6
CONTINUOUS
10
179.3644999999999925
20
89.3499999999999943
11
179.3644999999999925
21
92.4500000000000028
0
LINE
8
Edge.Cuts
6
CONTINUOUS
10
182.9644999999999868
20
92.4500000000000028
11
182.9644999999999868
21
89.3499999999999943
0
LINE
8
Edge.Cuts
6
CONTINUOUS
10
182.9644999999999868
20
89.3499999999999943
11
179.3644999999999925
21
89.3499999999999943
0
LINE
8
Edge.Cuts
6
CONTINUOUS
10
236.5144999999999982
20
92.4500000000000028
11
240.1144999999999925
21
92.4500000000000028
0
LINE
8
Edge.Cuts
6
CONTINUOUS
10
236.5144999999999982
20
89.3499999999999943
11
236.5144999999999982
21
92.4500000000000028
0
LINE
8
Edge.Cuts
6
CONTINUOUS
10
240.1144999999999925
20
92.4500000000000028
11
240.1144999999999925
21
89.3499999999999943
0
LINE
8
Edge.Cuts
6
CONTINUOUS
10
240.1144999999999925
20
89.3499999999999943
11
236.5144999999999982
21
89.3499999999999943
0
LINE
8
Edge.Cuts
6
CONTINUOUS
10
255.5644999999999811
20
92.4500000000000028
11
259.1644999999999754
21
92.4500000000000028
0
LINE
8
Edge.Cuts
6
CONTINUOUS
10
255.5644999999999811
20
89.3499999999999943
11
255.5644999999999811
21
92.4500000000000028
0
LINE
8
Edge.Cuts
6
CONTINUOUS
10
259.1644999999999754
20
92.4500000000000028
11
259.1644999999999754
21
89.3499999999999943
0
LINE
8
Edge.Cuts
6
CONTINUOUS
10
259.1644999999999754
20
89.3499999999999943
11
255.5644999999999811
21
89.3499999999999943
0
LINE
8
Edge.Cuts
6
CONTINUOUS
10
184.1269999999999811
20
35.2999999999999972
11
187.7270000000000039
21
35.2999999999999972
0
LINE
8
Edge.Cuts
6
CONTINUOUS
10
184.1269999999999811
20
32.1999999999999957
11
184.1269999999999811
21
35.2999999999999972
0
LINE
8
Edge.Cuts
6
CONTINUOUS
10
187.7270000000000039
20
35.2999999999999972
11
187.7270000000000039
21
32.1999999999999957
0
LINE
8
Edge.Cuts
6
CONTINUOUS
10
187.7270000000000039
20
32.1999999999999957
11
184.1269999999999811
21
32.1999999999999957
0
LINE
8
Edge.Cuts
6
CONTINUOUS
10
284.1394999999999982
20
92.4500000000000028
11
287.7394999999999641
21
92.4500000000000028
0
LINE
8
Edge.Cuts
6
CONTINUOUS
10
284.1394999999999982
20
89.3499999999999943
11
284.1394999999999982
21
92.4500000000000028
0
LINE
8
Edge.Cuts
6
CONTINUOUS
10
287.7394999999999641
20
92.4500000000000028
11
287.7394999999999641
21
89.3499999999999943
0
LINE
8
Edge.Cuts
6
CONTINUOUS
10
287.7394999999999641
20
89.3499999999999943
11
284.1394999999999982
21
89.3499999999999943
0
LINE
8
Edge.Cuts
6
CONTINUOUS
10
207.9394999999999811
20
73.3999999999999915
11
211.5395000000000039
21
73.3999999999999915
0
LINE
8
Edge.Cuts
6
CONTINUOUS
10
207.9394999999999811
20
70.2999999999999972
11
207.9394999999999811
21
73.3999999999999915
0
LINE
8
Edge.Cuts
6
CONTINUOUS
10
211.5395000000000039
20
73.3999999999999915
11
211.5395000000000039
21
70.2999999999999972
0
LINE
8
Edge.Cuts
6
CONTINUOUS
10
211.5395000000000039
20
70.2999999999999972
11
207.9394999999999811
21
70.2999999999999972
0
LINE
8
Edge.Cuts
6
CONTINUOUS
10
246.0394999999999754
20
73.3999999999999915
11
249.6394999999999982
21
73.3999999999999915
0
LINE
8
Edge.Cuts
6
CONTINUOUS
10
246.0394999999999754
20
70.2999999999999972
11
246.0394999999999754
21
73.3999999999999915
0
LINE
8
Edge.Cuts
6
CONTINUOUS
10
249.6394999999999982
20
73.3999999999999915
11
249.6394999999999982
21
70.2999999999999972
0
LINE
8
Edge.Cuts
6
CONTINUOUS
10
249.6394999999999982
20
70.2999999999999972
11
246.0394999999999754
21
70.2999999999999972
0
LINE
8
Edge.Cuts
6
CONTINUOUS
10
181.7456999999999994
20
16.25
11
185.3456999999999937
21
16.25
0
LINE
8
Edge.Cuts
6
CONTINUOUS
10
181.7456999999999994
20
13.1499999999999986
11
181.7456999999999994
21
16.25
0
LINE
8
Edge.Cuts
6
CONTINUOUS
10
185.3456999999999937
20
16.25
11
185.3456999999999937
21
13.1499999999999986
0
LINE
8
Edge.Cuts
6
CONTINUOUS
10
185.3456999999999937
20
13.1499999999999986
11
181.7456999999999994
21
13.1499999999999986
0
LINE
8
Edge.Cuts
6
CONTINUOUS
10
222.2270000000000039
20
35.2999999999999972
11
225.8269999999999982
21
35.2999999999999972
0
LINE
8
Edge.Cuts
6
CONTINUOUS
10
222.2270000000000039
20
32.1999999999999957
11
222.2270000000000039
21
35.2999999999999972
0
LINE
8
Edge.Cuts
6
CONTINUOUS
10
225.8269999999999982
20
35.2999999999999972
11
225.8269999999999982
21
32.1999999999999957
0
LINE
8
Edge.Cuts
6
CONTINUOUS
10
225.8269999999999982
20
32.1999999999999957
11
222.2270000000000039
21
32.1999999999999957
0
LINE
8
Edge.Cuts
6
CONTINUOUS
10
226.9894999999999925
20
73.3999999999999915
11
230.5894999999999868
21
73.3999999999999915
0
LINE
8
Edge.Cuts
6
CONTINUOUS
10
226.9894999999999925
20
70.2999999999999972
11
226.9894999999999925
21
73.3999999999999915
0
LINE
8
Edge.Cuts
6
CONTINUOUS
10
230.5894999999999868
20
73.3999999999999915
11
230.5894999999999868
21
70.2999999999999972
0
LINE
8
Edge.Cuts
6
CONTINUOUS
10
230.5894999999999868
20
70.2999999999999972
11
226.9894999999999925
21
70.2999999999999972
0
LINE
8
Edge.Cuts
6
CONTINUOUS
10
241.2769999999999868
20
35.2999999999999972
11
244.8769999999999811
21
35.2999999999999972
0
LINE
8
Edge.Cuts
6
CONTINUOUS
10
241.2769999999999868
20
32.1999999999999957
11
241.2769999999999868
21
35.2999999999999972
0
LINE
8
Edge.Cuts
6
CONTINUOUS
10
244.8769999999999811
20
35.2999999999999972
11
244.8769999999999811
21
32.1999999999999957
0
LINE
8
Edge.Cuts
6
CONTINUOUS
10
244.8769999999999811
20
32.1999999999999957
11
241.2769999999999868
21
32.1999999999999957
0
LINE
8
Edge.Cuts
6
CONTINUOUS
10
188.8894999999999982
20
73.3999999999999915
11
192.4894999999999925
21
73.3999999999999915
0
LINE
8
Edge.Cuts
6
CONTINUOUS
10
188.8894999999999982
20
70.2999999999999972
11
188.8894999999999982
21
73.3999999999999915
0
LINE
8
Edge.Cuts
6
CONTINUOUS
10
192.4894999999999925
20
73.3999999999999915
11
192.4894999999999925
21
70.2999999999999972
0
LINE
8
Edge.Cuts
6
CONTINUOUS
10
192.4894999999999925
20
70.2999999999999972
11
188.8894999999999982
21
70.2999999999999972
0
LINE
8
Edge.Cuts
6
CONTINUOUS
10
168.2957499999999982
20
14.2749999999999986
11
174.7957499999999982
21
14.2749999999999986
0
LINE
8
Edge.Cuts
6
CONTINUOUS
10
174.7957499999999982
20
14.2749999999999986
11
174.7957499999999982
21
4.7749999999999995
0
LINE
8
Edge.Cuts
6
CONTINUOUS
10
174.7957499999999982
20
4.7749999999999995
11
168.2957499999999982
21
4.7749999999999995
0
LINE
8
Edge.Cuts
6
CONTINUOUS
10
168.2957499999999982
20
4.7749999999999995
11
168.2957499999999982
21
14.2749999999999986
0
LINE
8
Edge.Cuts
6
CONTINUOUS
10
192.2957499999999982
20
14.2749999999999986
11
198.7957499999999982
21
14.2749999999999986
0
LINE
8
Edge.Cuts
6
CONTINUOUS
10
198.7957499999999982
20
14.2749999999999986
11
198.7957499999999982
21
4.7749999999999995
0
LINE
8
Edge.Cuts
6
CONTINUOUS
10
198.7957499999999982
20
4.7749999999999995
11
192.2957499999999982
21
4.7749999999999995
0
LINE
8
Edge.Cuts
6
CONTINUOUS
10
192.2957499999999982
20
4.7749999999999995
11
192.2957499999999982
21
14.2749999999999986
0
LINE
8
Edge.Cuts
6
CONTINUOUS
10
263.5457499999999982
20
33.3249999999999957
11
270.0457499999999982
21
33.3249999999999957
0
LINE
8
Edge.Cuts
6
CONTINUOUS
10
270.0457499999999982
20
33.3249999999999957
11
270.0457499999999982
21
23.8249999999999993
0
LINE
8
Edge.Cuts
6
CONTINUOUS
10
270.0457499999999982
20
23.8249999999999993
11
263.5457499999999982
21
23.8249999999999993
0
LINE
8
Edge.Cuts
6
CONTINUOUS
10
263.5457499999999982
20
23.8249999999999993
11
263.5457499999999982
21
33.3249999999999957
0
LINE
8
Edge.Cuts
6
CONTINUOUS
10
287.5457499999999982
20
33.3249999999999957
11
294.0457499999999982
21
33.3249999999999957
0
LINE
8
Edge.Cuts
6
CONTINUOUS
10
294.0457499999999982
20
33.3249999999999957
11
294.0457499999999982
21
23.8249999999999993
0
LINE
8
Edge.Cuts
6
CONTINUOUS
10
294.0457499999999982
20
23.8249999999999993
11
287.5457499999999982
21
23.8249999999999993
0
LINE
8
Edge.Cuts
6
CONTINUOUS
10
287.5457499999999982
20
23.8249999999999993
11
287.5457499999999982
21
33.3249999999999957
0
LINE
8
Edge.Cuts
6
CONTINUOUS
10
155.5519999999999925
20
54.3499999999999943
11
159.1519999999999868
21
54.3499999999999943
0
LINE
8
Edge.Cuts
6
CONTINUOUS
10
155.5519999999999925
20
51.25
11
155.5519999999999925
21
54.3499999999999943
0
LINE
8
Edge.Cuts
6
CONTINUOUS
10
159.1519999999999868
20
54.3499999999999943
11
159.1519999999999868
21
51.25
0
LINE
8
Edge.Cuts
6
CONTINUOUS
10
159.1519999999999868
20
51.25
11
155.5519999999999925
21
51.25
0
LINE
8
Edge.Cuts
6
CONTINUOUS
10
212.7019999999999982
20
54.3499999999999943
11
216.3019999999999925
21
54.3499999999999943
0
LINE
8
Edge.Cuts
6
CONTINUOUS
10
212.7019999999999982
20
51.25
11
212.7019999999999982
21
54.3499999999999943
0
LINE
8
Edge.Cuts
6
CONTINUOUS
10
216.3019999999999925
20
54.3499999999999943
11
216.3019999999999925
21
51.25
0
LINE
8
Edge.Cuts
6
CONTINUOUS
10
216.3019999999999925
20
51.25
11
212.7019999999999982
21
51.25
0
LINE
8
Edge.Cuts
6
CONTINUOUS
10
265.0894999999999868
20
73.3999999999999915
11
268.6895000000000095
21
73.3999999999999915
0
LINE
8
Edge.Cuts
6
CONTINUOUS
10
265.0894999999999868
20
70.2999999999999972
11
265.0894999999999868
21
73.3999999999999915
0
LINE
8
Edge.Cuts
6
CONTINUOUS
10
268.6895000000000095
20
73.3999999999999915
11
268.6895000000000095
21
70.2999999999999972
0
LINE
8
Edge.Cuts
6
CONTINUOUS
10
268.6895000000000095
20
70.2999999999999972
11
265.0894999999999868
21
70.2999999999999972
0
LINE
8
Edge.Cuts
6
CONTINUOUS
10
160.3144999999999811
20
92.4500000000000028
11
163.9145000000000039
21
92.4500000000000028
0
LINE
8
Edge.Cuts
6
CONTINUOUS
10
160.3144999999999811
20
89.3499999999999943
11
160.3144999999999811
21
92.4500000000000028
0
LINE
8
Edge.Cuts
6
CONTINUOUS
10
163.9145000000000039
20
92.4500000000000028
11
163.9145000000000039
21
89.3499999999999943
0
LINE
8
Edge.Cuts
6
CONTINUOUS
10
163.9145000000000039
20
89.3499999999999943
11
160.3144999999999811
21
89.3499999999999943
0
LINE
8
Edge.Cuts
6
CONTINUOUS
10
169.8394999999999868
20
73.3999999999999915
11
173.4394999999999811
21
73.3999999999999915
0
LINE
8
Edge.Cuts
6
CONTINUOUS
10
169.8394999999999868
20
70.2999999999999972
11
169.8394999999999868
21
73.3999999999999915
0
LINE
8
Edge.Cuts
6
CONTINUOUS
10
173.4394999999999811
20
73.3999999999999915
11
173.4394999999999811
21
70.2999999999999972
0
LINE
8
Edge.Cuts
6
CONTINUOUS
10
173.4394999999999811
20
70.2999999999999972
11
169.8394999999999868
21
70.2999999999999972
0
LINE
8
Edge.Cuts
6
CONTINUOUS
10
198.4145000000000039
20
92.4500000000000028
11
202.0144999999999982
21
92.4500000000000028
0
LINE
8
Edge.Cuts
6
CONTINUOUS
10
198.4145000000000039
20
89.3499999999999943
11
198.4145000000000039
21
92.4500000000000028
0
LINE
8
Edge.Cuts
6
CONTINUOUS
10
202.0144999999999982
20
92.4500000000000028
11
202.0144999999999982
21
89.3499999999999943
0
LINE
8
Edge.Cuts
6
CONTINUOUS
10
202.0144999999999982
20
89.3499999999999943
11
198.4145000000000039
21
89.3499999999999943
0
LINE
8
Edge.Cuts
6
CONTINUOUS
10
150.7895000000000039
20
73.3999999999999915
11
154.3894999999999982
21
73.3999999999999915
0
LINE
8
Edge.Cuts
6
CONTINUOUS
10
150.7895000000000039
20
70.2999999999999972
11
150.7895000000000039
21
73.3999999999999915
0
LINE
8
Edge.Cuts
6
CONTINUOUS
10
154.3894999999999982
20
73.3999999999999915
11
154.3894999999999982
21
70.2999999999999972
0
LINE
8
Edge.Cuts
6
CONTINUOUS
10
154.3894999999999982
20
70.2999999999999972
11
150.7895000000000039
21
70.2999999999999972
0
LINE
8
Edge.Cuts
6
CONTINUOUS
10
288.9019999999999868
20
73.3999999999999915
11
292.5020000000000095
21
73.3999999999999915
0
LINE
8
Edge.Cuts
6
CONTINUOUS
10
288.9019999999999868
20
70.2999999999999972
11
288.9019999999999868
21
73.3999999999999915
0
LINE
8
Edge.Cuts
6
CONTINUOUS
10
292.5020000000000095
20
73.3999999999999915
11
292.5020000000000095
21
70.2999999999999972
0
LINE
8
Edge.Cuts
6
CONTINUOUS
10
292.5020000000000095
20
70.2999999999999972
11
288.9019999999999868
21
70.2999999999999972
0
LINE
8
Edge.Cuts
6
CONTINUOUS
10
174.6020000000000039
20
54.3499999999999943
11
178.2019999999999982
21
54.3499999999999943
0
LINE
8
Edge.Cuts
6
CONTINUOUS
10
174.6020000000000039
20
51.25
11
174.6020000000000039
21
54.3499999999999943
0
LINE
8
Edge.Cuts
6
CONTINUOUS
10
178.2019999999999982
20
54.3499999999999943
11
178.2019999999999982
21
51.25
0
LINE
8
Edge.Cuts
6
CONTINUOUS
10
178.2019999999999982
20
51.25
11
174.6020000000000039
21
51.25
0
LINE
8
Edge.Cuts
6
CONTINUOUS
10
193.6519999999999868
20
54.3499999999999943
11
197.2519999999999811
21
54.3499999999999943
0
LINE
8
Edge.Cuts
6
CONTINUOUS
10
193.6519999999999868
20
51.25
11
193.6519999999999868
21
54.3499999999999943
0
LINE
8
Edge.Cuts
6
CONTINUOUS
10
197.2519999999999811
20
54.3499999999999943
11
197.2519999999999811
21
51.25
0
LINE
8
Edge.Cuts
6
CONTINUOUS
10
197.2519999999999811
20
51.25
11
193.6519999999999868
21
51.25
0
LINE
8
Edge.Cuts
6
CONTINUOUS
10
231.7519999999999811
20
54.3499999999999943
11
235.3519999999999754
21
54.3499999999999943
0
LINE
8
Edge.Cuts
6
CONTINUOUS
10
231.7519999999999811
20
51.25
11
231.7519999999999811
21
54.3499999999999943
0
LINE
8
Edge.Cuts
6
CONTINUOUS
10
235.3519999999999754
20
54.3499999999999943
11
235.3519999999999754
21
51.25
0
LINE
8
Edge.Cuts
6
CONTINUOUS
10
235.3519999999999754
20
51.25
11
231.7519999999999811
21
51.25
0
LINE
8
Edge.Cuts
6
CONTINUOUS
10
268.3082499999999868
20
52.375
11
274.8082499999999868
21
52.375
0
LINE
8
Edge.Cuts
6
CONTINUOUS
10
274.8082499999999868
20
52.375
11
274.8082499999999868
21
42.875
0
LINE
8
Edge.Cuts
6
CONTINUOUS
10
274.8082499999999868
20
42.875
11
268.3082499999999868
21
42.875
0
LINE
8
Edge.Cuts
6
CONTINUOUS
10
268.3082499999999868
20
42.875
11
268.3082499999999868
21
52.375
0
LINE
8
Edge.Cuts
6
CONTINUOUS
10
292.3082499999999868
20
52.375
11
298.8082499999999868
21
52.375
0
LINE
8
Edge.Cuts
6
CONTINUOUS
10
298.8082499999999868
20
52.375
11
298.8082499999999868
21
42.875
0
LINE
8
Edge.Cuts
6
CONTINUOUS
10
298.8082499999999868
20
42.875
11
292.3082499999999868
21
42.875
0
LINE
8
Edge.Cuts
6
CONTINUOUS
10
292.3082499999999868
20
42.875
11
292.3082499999999868
21
52.375
0
LINE
8
Edge.Cuts
6
CONTINUOUS
10
250.8019999999999925
20
54.3499999999999943
11
254.4019999999999868
21
54.3499999999999943
0
LINE
8
Edge.Cuts
6
CONTINUOUS
10
250.8019999999999925
20
51.25
11
250.8019999999999925
21
54.3499999999999943
0
LINE
8
Edge.Cuts
6
CONTINUOUS
10
254.4019999999999868
20
54.3499999999999943
11
254.4019999999999868
21
51.25
0
LINE
8
Edge.Cuts
6
CONTINUOUS
10
254.4019999999999868
20
51.25
11
250.8019999999999925
21
51.25
0
LINE
8
Edge.Cuts
6
CONTINUOUS
10
281.7582999999999629
20
54.3499999999999943
11
285.3582999999999856
21
54.3499999999999943
0
LINE
8
Edge.Cuts
6
CONTINUOUS
10
281.7582999999999629
20
51.25
11
281.7582999999999629
21
54.3499999999999943
0
LINE
8
Edge.Cuts
6
CONTINUOUS
10
285.3582999999999856
20
54.3499999999999943
11
285.3582999999999856
21
51.25
0
LINE
8
Edge.Cuts
6
CONTINUOUS
10
285.3582999999999856
20
51.25
11
281.7582999999999629
21
51.25
0
LINE
8
Edge.Cuts
6
CONTINUOUS
10
165.0769999999999982
20
35.2999999999999972
11
168.6769999999999925
21
35.2999999999999972
0
LINE
8
Edge.Cuts
6
CONTINUOUS
10
165.0769999999999982
20
32.1999999999999957
11
165.0769999999999982
21
35.2999999999999972
0
LINE
8
Edge.Cuts
6
CONTINUOUS
10
168.6769999999999925
20
35.2999999999999972
11
168.6769999999999925
21
32.1999999999999957
0
LINE
8
Edge.Cuts
6
CONTINUOUS
10
168.6769999999999925
20
32.1999999999999957
11
165.0769999999999982
21
32.1999999999999957
0
LINE
8
Edge.Cuts
6
CONTINUOUS
10
203.1769999999999925
20
35.2999999999999972
11
206.7769999999999868
21
35.2999999999999972
0
LINE
8
Edge.Cuts
6
CONTINUOUS
10
203.1769999999999925
20
32.1999999999999957
11
203.1769999999999925
21
35.2999999999999972
0
LINE
8
Edge.Cuts
6
CONTINUOUS
10
206.7769999999999868
20
35.2999999999999972
11
206.7769999999999868
21
32.1999999999999957
0
LINE
8
Edge.Cuts
6
CONTINUOUS
10
206.7769999999999868
20
32.1999999999999957
11
203.1769999999999925
21
32.1999999999999957
0
LINE
8
Edge.Cuts
6
CONTINUOUS
10
243.6581999999999937
20
16.25
11
247.258199999999988
21
16.25
0
LINE
8
Edge.Cuts
6
CONTINUOUS
10
243.6581999999999937
20
13.1499999999999986
11
243.6581999999999937
21
16.25
0
LINE
8
Edge.Cuts
6
CONTINUOUS
10
247.258199999999988
20
16.25
11
247.258199999999988
21
13.1499999999999986
0
LINE
8
Edge.Cuts
6
CONTINUOUS
10
247.258199999999988
20
13.1499999999999986
11
243.6581999999999937
21
13.1499999999999986
0
LINE
8
Edge.Cuts
6
CONTINUOUS
10
267.4706999999999653
20
16.25
11
271.070699999999988
21
16.25
0
LINE
8
Edge.Cuts
6
CONTINUOUS
10
267.4706999999999653
20
13.1499999999999986
11
267.4706999999999653
21
16.25
0
LINE
8
Edge.Cuts
6
CONTINUOUS
10
271.070699999999988
20
16.25
11
271.070699999999988
21
13.1499999999999986
0
LINE
8
Edge.Cuts
6
CONTINUOUS
10
271.070699999999988
20
13.1499999999999986
11
267.4706999999999653
21
13.1499999999999986
0
LINE
8
Edge.Cuts
6
CONTINUOUS
10
291.2831999999999653
20
16.25
11
294.883199999999988
21
16.25
0
LINE
8
Edge.Cuts
6
CONTINUOUS
10
291.2831999999999653
20
13.1499999999999986
11
291.2831999999999653
21
16.25
0
LINE
8
Edge.Cuts
6
CONTINUOUS
10
294.883199999999988
20
16.25
11
294.883199999999988
21
13.1499999999999986
0
LINE
8
Edge.Cuts
6
CONTINUOUS
10
294.883199999999988
20
13.1499999999999986
11
291.2831999999999653
21
13.1499999999999986
0
LINE
8
Edge.Cuts
6
CONTINUOUS
10
276.9957999999999743
20
35.2999999999999972
11
280.595799999999997
21
35.2999999999999972
0
LINE
8
Edge.Cuts
6
CONTINUOUS
10
276.9957999999999743
20
32.1999999999999957
11
276.9957999999999743
21
35.2999999999999972
0
LINE
8
Edge.Cuts
6
CONTINUOUS
10
280.595799999999997
20
35.2999999999999972
11
280.595799999999997
21
32.1999999999999957
0
LINE
8
Edge.Cuts
6
CONTINUOUS
10
280.595799999999997
20
32.1999999999999957
11
276.9957999999999743
21
32.1999999999999957
0
LINE
8
Edge.Cuts
6
CONTINUOUS
10
219.8456999999999937
20
16.25
11
223.445699999999988
21
16.25
0
LINE
8
Edge.Cuts
6
CONTINUOUS
10
219.8456999999999937
20
13.1499999999999986
11
219.8456999999999937
21
16.25
0
LINE
8
Edge.Cuts
6
CONTINUOUS
10
223.445699999999988
20
16.25
11
223.445699999999988
21
13.1499999999999986
0
LINE
8
Edge.Cuts
6
CONTINUOUS
10
223.445699999999988
20
13.1499999999999986
11
219.8456999999999937
21
13.1499999999999986
0
LINE
8
Edge.Cuts
6
CONTINUOUS
10
53.1550000000000011
20
92.4569999999999936
11
56.7549999999999955
21
92.4569999999999936
0
LINE
8
Edge.Cuts
6
CONTINUOUS
10
53.1550000000000011
20
89.3569999999999993
11
53.1550000000000011
21
92.4569999999999936
0
LINE
8
Edge.Cuts
6
CONTINUOUS
10
56.7549999999999955
20
92.4569999999999936
11
56.7549999999999955
21
89.3569999999999993
0
LINE
8
Edge.Cuts
6
CONTINUOUS
10
56.7549999999999955
20
89.3569999999999993
11
53.1550000000000011
21
89.3569999999999993
0
LINE
8
Edge.Cuts
6
CONTINUOUS
10
43.6299999999999955
20
73.4069999999999965
11
47.2299999999999969
21
73.4069999999999965
0
LINE
8
Edge.Cuts
6
CONTINUOUS
10
43.6299999999999955
20
70.3070000000000022
11
43.6299999999999955
21
73.4069999999999965
0
LINE
8
Edge.Cuts
6
CONTINUOUS
10
47.2299999999999969
20
73.4069999999999965
11
47.2299999999999969
21
70.3070000000000022
0
LINE
8
Edge.Cuts
6
CONTINUOUS
10
47.2299999999999969
20
70.3070000000000022
11
43.6299999999999955
21
70.3070000000000022
0
LINE
8
Edge.Cuts
6
CONTINUOUS
10
62.6799999999999997
20
73.4069999999999965
11
66.2800000000000011
21
73.4069999999999965
0
LINE
8
Edge.Cuts
6
CONTINUOUS
10
62.6799999999999997
20
70.3070000000000022
11
62.6799999999999997
21
73.4069999999999965
0
LINE
8
Edge.Cuts
6
CONTINUOUS
10
66.2800000000000011
20
73.4069999999999965
11
66.2800000000000011
21
70.3070000000000022
0
LINE
8
Edge.Cuts
6
CONTINUOUS
10
66.2800000000000011
20
70.3070000000000022
11
62.6799999999999997
21
70.3070000000000022
0
LINE
8
Edge.Cuts
6
CONTINUOUS
10
-1.6136999999999999
20
16.2569999999999979
11
1.9863
21
16.2569999999999979
0
LINE
8
Edge.Cuts
6
CONTINUOUS
10
-1.6136999999999999
20
13.157
11
-1.6136999999999999
21
16.2569999999999979
0
LINE
8
Edge.Cuts
6
CONTINUOUS
10
1.9863
20
16.2569999999999979
11
1.9863
21
13.157
0
LINE
8
Edge.Cuts
6
CONTINUOUS
10
1.9863
20
13.157
11
-1.6136999999999999
21
13.157
0
LINE
8
Edge.Cuts
6
CONTINUOUS
10
100.7800000000000011
20
73.4069999999999965
11
104.3799999999999955
21
73.4069999999999965
0
LINE
8
Edge.Cuts
6
CONTINUOUS
10
100.7800000000000011
20
70.3070000000000022
11
100.7800000000000011
21
73.4069999999999965
0
LINE
8
Edge.Cuts
6
CONTINUOUS
10
104.3799999999999955
20
73.4069999999999965
11
104.3799999999999955
21
70.3070000000000022
0
LINE
8
Edge.Cuts
6
CONTINUOUS
10
104.3799999999999955
20
70.3070000000000022
11
100.7800000000000011
21
70.3070000000000022
0
LINE
8
Edge.Cuts
6
CONTINUOUS
10
86.4924999999999926
20
54.3569999999999993
11
90.0925000000000011
21
54.3569999999999993
0
LINE
8
Edge.Cuts
6
CONTINUOUS
10
86.4924999999999926
20
51.2569999999999979
11
86.4924999999999926
21
54.3569999999999993
0
LINE
8
Edge.Cuts
6
CONTINUOUS
10
90.0925000000000011
20
54.3569999999999993
11
90.0925000000000011
21
51.2569999999999979
0
LINE
8
Edge.Cuts
6
CONTINUOUS
10
90.0925000000000011
20
51.2569999999999979
11
86.4924999999999926
21
51.2569999999999979
0
LINE
8
Edge.Cuts
6
CONTINUOUS
10
67.4424999999999955
20
54.3569999999999993
11
71.0424999999999898
21
54.3569999999999993
0
LINE
8
Edge.Cuts
6
CONTINUOUS
10
67.4424999999999955
20
51.2569999999999979
11
67.4424999999999955
21
54.3569999999999993
0
LINE
8
Edge.Cuts
6
CONTINUOUS
10
71.0424999999999898
20
54.3569999999999993
11
71.0424999999999898
21
51.2569999999999979
0
LINE
8
Edge.Cuts
6
CONTINUOUS
10
71.0424999999999898
20
51.2569999999999979
11
67.4424999999999955
21
51.2569999999999979
0
LINE
8
Edge.Cuts
6
CONTINUOUS
10
22.1987999999999985
20
16.2569999999999979
11
25.7988
21
16.2569999999999979
0
LINE
8
Edge.Cuts
6
CONTINUOUS
10
22.1987999999999985
20
13.157
11
22.1987999999999985
21
16.2569999999999979
0
LINE
8
Edge.Cuts
6
CONTINUOUS
10
25.7988
20
16.2569999999999979
11
25.7988
21
13.157
0
LINE
8
Edge.Cuts
6
CONTINUOUS
10
25.7988
20
13.157
11
22.1987999999999985
21
13.157
0
LINE
8
Edge.Cuts
6
CONTINUOUS
10
29.3424999999999976
20
54.3569999999999993
11
32.9424999999999955
21
54.3569999999999993
0
LINE
8
Edge.Cuts
6
CONTINUOUS
10
29.3424999999999976
20
51.2569999999999979
11
29.3424999999999976
21
54.3569999999999993
0
LINE
8
Edge.Cuts
6
CONTINUOUS
10
32.9424999999999955
20
54.3569999999999993
11
32.9424999999999955
21
51.2569999999999979
0
LINE
8
Edge.Cuts
6
CONTINUOUS
10
32.9424999999999955
20
51.2569999999999979
11
29.3424999999999976
21
51.2569999999999979
0
LINE
8
Edge.Cuts
6
CONTINUOUS
10
46.0747999999999962
20
16.2569999999999979
11
49.6747999999999976
21
16.2569999999999979
0
LINE
8
Edge.Cuts
6
CONTINUOUS
10
46.0747999999999962
20
13.157
11
46.0747999999999962
21
16.2569999999999979
0
LINE
8
Edge.Cuts
6
CONTINUOUS
10
49.6747999999999976
20
16.2569999999999979
11
49.6747999999999976
21
13.157
0
LINE
8
Edge.Cuts
6
CONTINUOUS
10
49.6747999999999976
20
13.157
11
46.0747999999999962
21
13.157
0
LINE
8
Edge.Cuts
6
CONTINUOUS
10
72.2049999999999983
20
92.4569999999999936
11
75.8049999999999926
21
92.4569999999999936
0
LINE
8
Edge.Cuts
6
CONTINUOUS
10
72.2049999999999983
20
89.3569999999999993
11
72.2049999999999983
21
92.4569999999999936
0
LINE
8
Edge.Cuts
6
CONTINUOUS
10
75.8049999999999926
20
92.4569999999999936
11
75.8049999999999926
21
89.3569999999999993
0
LINE
8
Edge.Cuts
6
CONTINUOUS
10
75.8049999999999926
20
89.3569999999999993
11
72.2049999999999983
21
89.3569999999999993
0
LINE
8
Edge.Cuts
6
CONTINUOUS
10
91.2549999999999955
20
92.4569999999999936
11
94.8549999999999898
21
92.4569999999999936
0
LINE
8
Edge.Cuts
6
CONTINUOUS
10
91.2549999999999955
20
89.3569999999999993
11
91.2549999999999955
21
92.4569999999999936
0
LINE
8
Edge.Cuts
6
CONTINUOUS
10
94.8549999999999898
20
92.4569999999999936
11
94.8549999999999898
21
89.3569999999999993
0
LINE
8
Edge.Cuts
6
CONTINUOUS
10
94.8549999999999898
20
89.3569999999999993
11
91.2549999999999955
21
89.3569999999999993
0
LINE
8
Edge.Cuts
6
CONTINUOUS
10
81.7299999999999898
20
73.4069999999999965
11
85.3299999999999983
21
73.4069999999999965
0
LINE
8
Edge.Cuts
6
CONTINUOUS
10
81.7299999999999898
20
70.3070000000000022
11
81.7299999999999898
21
73.4069999999999965
0
LINE
8
Edge.Cuts
6
CONTINUOUS
10
85.3299999999999983
20
73.4069999999999965
11
85.3299999999999983
21
70.3070000000000022
0
LINE
8
Edge.Cuts
6
CONTINUOUS
10
85.3299999999999983
20
70.3070000000000022
11
81.7299999999999898
21
70.3070000000000022
0
LINE
8
Edge.Cuts
6
CONTINUOUS
10
3.1488
20
54.3569999999999993
11
6.7488000000000001
21
54.3569999999999993
0
LINE
8
Edge.Cuts
6
CONTINUOUS
10
3.1488
20
51.2569999999999979
11
3.1488
21
54.3569999999999993
0
LINE
8
Edge.Cuts
6
CONTINUOUS
10
6.7488000000000001
20
54.3569999999999993
11
6.7488000000000001
21
51.2569999999999979
0
LINE
8
Edge.Cuts
6
CONTINUOUS
10
6.7488000000000001
20
51.2569999999999979
11
3.1488
21
51.2569999999999979
0
LINE
8
Edge.Cuts
6
CONTINUOUS
10
105.5424999999999898
20
54.3569999999999993
11
109.1424999999999983
21
54.3569999999999993
0
LINE
8
Edge.Cuts
6
CONTINUOUS
10
105.5424999999999898
20
51.2569999999999979
11
105.5424999999999898
21
54.3569999999999993
0
LINE
8
Edge.Cuts
6
CONTINUOUS
10
109.1424999999999983
20
54.3569999999999993
11
109.1424999999999983
21
51.2569999999999979
0
LINE
8
Edge.Cuts
6
CONTINUOUS
10
109.1424999999999983
20
51.2569999999999979
11
105.5424999999999898
21
51.2569999999999979
0
LINE
8
Edge.Cuts
6
CONTINUOUS
10
57.9174999999999969
20
35.3069999999999951
11
61.5174999999999983
21
35.3069999999999951
0
LINE
8
Edge.Cuts
6
CONTINUOUS
10
57.9174999999999969
20
32.2070000000000007
11
57.9174999999999969
21
35.3069999999999951
0
LINE
8
Edge.Cuts
6
CONTINUOUS
10
61.5174999999999983
20
35.3069999999999951
11
61.5174999999999983
21
32.2070000000000007
0
LINE
8
Edge.Cuts
6
CONTINUOUS
10
61.5174999999999983
20
32.2070000000000007
11
57.9174999999999969
21
32.2070000000000007
0
LINE
8
Edge.Cuts
6
CONTINUOUS
10
0.7675
20
73.4069999999999965
11
4.3674999999999997
21
73.4069999999999965
0
LINE
8
Edge.Cuts
6
CONTINUOUS
10
0.7675
20
70.3070000000000022
11
0.7675
21
73.4069999999999965
0
LINE
8
Edge.Cuts
6
CONTINUOUS
10
4.3674999999999997
20
73.4069999999999965
11
4.3674999999999997
21
70.3070000000000022
0
LINE
8
Edge.Cuts
6
CONTINUOUS
10
4.3674999999999997
20
70.3070000000000022
11
0.7675
21
70.3070000000000022
0
LINE
8
Edge.Cuts
6
CONTINUOUS
10
24.5799999999999983
20
73.4069999999999965
11
28.1799999999999997
21
73.4069999999999965
0
LINE
8
Edge.Cuts
6
CONTINUOUS
10
24.5799999999999983
20
70.3070000000000022
11
24.5799999999999983
21
73.4069999999999965
0
LINE
8
Edge.Cuts
6
CONTINUOUS
10
28.1799999999999997
20
73.4069999999999965
11
28.1799999999999997
21
70.3070000000000022
0
LINE
8
Edge.Cuts
6
CONTINUOUS
10
28.1799999999999997
20
70.3070000000000022
11
24.5799999999999983
21
70.3070000000000022
0
LINE
8
Edge.Cuts
6
CONTINUOUS
10
48.3924999999999983
20
54.3569999999999993
11
51.9924999999999997
21
54.3569999999999993
0
LINE
8
Edge.Cuts
6
CONTINUOUS
10
48.3924999999999983
20
51.2569999999999979
11
48.3924999999999983
21
54.3569999999999993
0
LINE
8
Edge.Cuts
6
CONTINUOUS
10
51.9924999999999997
20
54.3569999999999993
11
51.9924999999999997
21
51.2569999999999979
0
LINE
8
Edge.Cuts
6
CONTINUOUS
10
51.9924999999999997
20
51.2569999999999979
11
48.3924999999999983
21
51.2569999999999979
0
LINE
8
Edge.Cuts
6
CONTINUOUS
10
96.0174999999999983
20
35.3069999999999951
11
99.6174999999999926
21
35.3069999999999951
0
LINE
8
Edge.Cuts
6
CONTINUOUS
10
96.0174999999999983
20
32.2070000000000007
11
96.0174999999999983
21
35.3069999999999951
0
LINE
8
Edge.Cuts
6
CONTINUOUS
10
99.6174999999999926
20
35.3069999999999951
11
99.6174999999999926
21
32.2070000000000007
0
LINE
8
Edge.Cuts
6
CONTINUOUS
10
99.6174999999999926
20
32.2070000000000007
11
96.0174999999999983
21
32.2070000000000007
0
LINE
8
Edge.Cuts
6
CONTINUOUS
10
103.1612999999999971
20
16.2569999999999979
11
106.7612999999999914
21
16.2569999999999979
0
LINE
8
Edge.Cuts
6
CONTINUOUS
10
103.1612999999999971
20
13.157
11
103.1612999999999971
21
16.2569999999999979
0
LINE
8
Edge.Cuts
6
CONTINUOUS
10
106.7612999999999914
20
16.2569999999999979
11
106.7612999999999914
21
13.157
0
LINE
8
Edge.Cuts
6
CONTINUOUS
10
106.7612999999999914
20
13.157
11
103.1612999999999971
21
13.157
0
LINE
8
Edge.Cuts
6
CONTINUOUS
10
38.8674999999999997
20
35.3069999999999951
11
42.4675000000000011
21
35.3069999999999951
0
LINE
8
Edge.Cuts
6
CONTINUOUS
10
38.8674999999999997
20
32.2070000000000007
11
38.8674999999999997
21
35.3069999999999951
0
LINE
8
Edge.Cuts
6
CONTINUOUS
10
42.4675000000000011
20
35.3069999999999951
11
42.4675000000000011
21
32.2070000000000007
0
LINE
8
Edge.Cuts
6
CONTINUOUS
10
42.4675000000000011
20
32.2070000000000007
11
38.8674999999999997
21
32.2070000000000007
0
LINE
8
Edge.Cuts
6
CONTINUOUS
10
69.8872999999999962
20
16.2569999999999979
11
73.4872999999999905
21
16.2569999999999979
0
LINE
8
Edge.Cuts
6
CONTINUOUS
10
69.8872999999999962
20
13.157
11
69.8872999999999962
21
16.2569999999999979
0
LINE
8
Edge.Cuts
6
CONTINUOUS
10
73.4872999999999905
20
16.2569999999999979
11
73.4872999999999905
21
13.157
0
LINE
8
Edge.Cuts
6
CONTINUOUS
10
73.4872999999999905
20
13.157
11
69.8872999999999962
21
13.157
0
LINE
8
Edge.Cuts
6
CONTINUOUS
10
34.1049999999999969
20
92.4569999999999936
11
37.7049999999999983
21
92.4569999999999936
0
LINE
8
Edge.Cuts
6
CONTINUOUS
10
34.1049999999999969
20
89.3569999999999993
11
34.1049999999999969
21
92.4569999999999936
0
LINE
8
Edge.Cuts
6
CONTINUOUS
10
37.7049999999999983
20
92.4569999999999936
11
37.7049999999999983
21
89.3569999999999993
0
LINE
8
Edge.Cuts
6
CONTINUOUS
10
37.7049999999999983
20
89.3569999999999993
11
34.1049999999999969
21
89.3569999999999993
0
LINE
8
Edge.Cuts
6
CONTINUOUS
10
-3.9949999999999997
20
92.4569999999999936
11
-0.395
21
92.4569999999999936
0
LINE
8
Edge.Cuts
6
CONTINUOUS
10
-3.9949999999999997
20
89.3569999999999993
11
-3.9949999999999997
21
92.4569999999999936
0
LINE
8
Edge.Cuts
6
CONTINUOUS
10
-0.395
20
92.4569999999999936
11
-0.395
21
89.3569999999999993
0
LINE
8
Edge.Cuts
6
CONTINUOUS
10
-0.395
20
89.3569999999999993
11
-3.9949999999999997
21
89.3569999999999993
0
LINE
8
Edge.Cuts
6
CONTINUOUS
10
15.0549999999999997
20
92.4569999999999936
11
18.6549999999999976
21
92.4569999999999936
0
LINE
8
Edge.Cuts
6
CONTINUOUS
10
15.0549999999999997
20
89.3569999999999993
11
15.0549999999999997
21
92.4569999999999936
0
LINE
8
Edge.Cuts
6
CONTINUOUS
10
18.6549999999999976
20
92.4569999999999936
11
18.6549999999999976
21
89.3569999999999993
0
LINE
8
Edge.Cuts
6
CONTINUOUS
10
18.6549999999999976
20
89.3569999999999993
11
15.0549999999999997
21
89.3569999999999993
0
LINE
8
Edge.Cuts
6
CONTINUOUS
10
110.3049999999999926
20
92.4569999999999936
11
113.9050000000000011
21
92.4569999999999936
0
LINE
8
Edge.Cuts
6
CONTINUOUS
10
110.3049999999999926
20
89.3569999999999993
11
110.3049999999999926
21
92.4569999999999936
0
LINE
8
Edge.Cuts
6
CONTINUOUS
10
113.9050000000000011
20
92.4569999999999936
11
113.9050000000000011
21
89.3569999999999993
0
LINE
8
Edge.Cuts
6
CONTINUOUS
10
113.9050000000000011
20
89.3569999999999993
11
110.3049999999999926
21
89.3569999999999993
0
LINE
8
Edge.Cuts
6
CONTINUOUS
10
89.7112949999999927
20
14.282
11
96.2112949999999927
21
14.282
0
LINE
8
Edge.Cuts
6
CONTINUOUS
10
96.2112949999999927
20
14.282
11
96.2112949999999927
21
4.782
0
LINE
8
Edge.Cuts
6
CONTINUOUS
10
96.2112949999999927
20
4.782
11
89.7112949999999927
21
4.782
0
LINE
8
Edge.Cuts
6
CONTINUOUS
10
89.7112949999999927
20
4.782
11
89.7112949999999927
21
14.282
0
LINE
8
Edge.Cuts
6
CONTINUOUS
10
113.7112949999999927
20
14.282
11
120.2112949999999927
21
14.282
0
LINE
8
Edge.Cuts
6
CONTINUOUS
10
120.2112949999999927
20
14.282
11
120.2112949999999927
21
4.782
0
LINE
8
Edge.Cuts
6
CONTINUOUS
10
120.2112949999999927
20
4.782
11
113.7112949999999927
21
4.782
0
LINE
8
Edge.Cuts
6
CONTINUOUS
10
113.7112949999999927
20
4.782
11
113.7112949999999927
21
14.282
0
LINE
8
Edge.Cuts
6
CONTINUOUS
10
76.9675000000000011
20
35.3069999999999951
11
80.5674999999999955
21
35.3069999999999951
0
LINE
8
Edge.Cuts
6
CONTINUOUS
10
76.9675000000000011
20
32.2070000000000007
11
76.9675000000000011
21
35.3069999999999951
0
LINE
8
Edge.Cuts
6
CONTINUOUS
10
80.5674999999999955
20
35.3069999999999951
11
80.5674999999999955
21
32.2070000000000007
0
LINE
8
Edge.Cuts
6
CONTINUOUS
10
80.5674999999999955
20
32.2070000000000007
11
76.9675000000000011
21
32.2070000000000007
0
LINE
8
Edge.Cuts
6
CONTINUOUS
10
7.9112999999999998
20
35.3069999999999951
11
11.5113000000000003
21
35.3069999999999951
0
LINE
8
Edge.Cuts
6
CONTINUOUS
10
7.9112999999999998
20
32.2070000000000007
11
7.9112999999999998
21
35.3069999999999951
0
LINE
8
Edge.Cuts
6
CONTINUOUS
10
11.5113000000000003
20
35.3069999999999951
11
11.5113000000000003
21
32.2070000000000007
0
LINE
8
Edge.Cuts
6
CONTINUOUS
10
11.5113000000000003
20
32.2070000000000007
11
7.9112999999999998
21
32.2070000000000007
0
LINE
8
Edge.Cuts
6
CONTINUOUS
10
115.0674999999999955
20
35.3069999999999951
11
118.6674999999999898
21
35.3069999999999951
0
LINE
8
Edge.Cuts
6
CONTINUOUS
10
115.0674999999999955
20
32.2070000000000007
11
115.0674999999999955
21
35.3069999999999951
0
LINE
8
Edge.Cuts
6
CONTINUOUS
10
118.6674999999999898
20
35.3069999999999951
11
118.6674999999999898
21
32.2070000000000007
0
LINE
8
Edge.Cuts
6
CONTINUOUS
10
118.6674999999999898
20
32.2070000000000007
11
115.0674999999999955
21
32.2070000000000007
0
LINE
8
Edge.Cuts
6
CONTINUOUS
10
-5.5387049999999993
20
33.3320000000000007
11
0.961295
21
33.3320000000000007
0
LINE
8
Edge.Cuts
6
CONTINUOUS
10
0.961295
20
33.3320000000000007
11
0.961295
21
23.8319999999999972
0
LINE
8
Edge.Cuts
6
CONTINUOUS
10
0.961295
20
23.8319999999999972
11
-5.5387049999999993
21
23.8319999999999972
0
LINE
8
Edge.Cuts
6
CONTINUOUS
10
-5.5387049999999993
20
23.8319999999999972
11
-5.5387049999999993
21
33.3320000000000007
0
LINE
8
Edge.Cuts
6
CONTINUOUS
10
18.4612949999999998
20
33.3320000000000007
11
24.9612949999999998
21
33.3320000000000007
0
LINE
8
Edge.Cuts
6
CONTINUOUS
10
24.9612949999999998
20
33.3320000000000007
11
24.9612949999999998
21
23.8319999999999972
0
LINE
8
Edge.Cuts
6
CONTINUOUS
10
24.9612949999999998
20
23.8319999999999972
11
18.4612949999999998
21
23.8319999999999972
0
LINE
8
Edge.Cuts
6
CONTINUOUS
10
18.4612949999999998
20
23.8319999999999972
11
18.4612949999999998
21
33.3320000000000007
0
CIRCLE
8
Edge.Cuts
10
155.1894999999999811
20
60.9249999999999972
40
1.4999989999999999
0
CIRCLE
8
Edge.Cuts
10
152.5894999999999868
20
66.6749999999999972
40
2.5499989999999997
0
CIRCLE
8
Edge.Cuts
10
148.1894999999999811
20
61.9749999999999943
40
1.4999989999999999
0
CIRCLE
8
Edge.Cuts
10
183.7644999999999982
20
79.9749999999999943
40
1.4999989999999999
0
CIRCLE
8
Edge.Cuts
10
181.1645000000000039
20
85.7249999999999943
40
2.5499989999999997
0
CIRCLE
8
Edge.Cuts
10
176.7644999999999982
20
81.0249999999999915
40
1.4999989999999999
0
CIRCLE
8
Edge.Cuts
10
269.4894999999999641
20
60.9249999999999972
40
1.4999989999999999
0
CIRCLE
8
Edge.Cuts
10
266.8894999999999982
20
66.6749999999999972
40
2.5499989999999997
0
CIRCLE
8
Edge.Cuts
10
262.4894999999999641
20
61.9749999999999943
40
1.4999989999999999
0
CIRCLE
8
Edge.Cuts
10
221.8644999999999925
20
79.9749999999999943
40
1.4999989999999999
0
CIRCLE
8
Edge.Cuts
10
219.2644999999999982
20
85.7249999999999943
40
2.5499989999999997
0
CIRCLE
8
Edge.Cuts
10
214.8644999999999925
20
81.0249999999999915
40
1.4999989999999999
0
CIRCLE
8
Edge.Cuts
10
179.0019999999999811
20
41.875
40
1.4999989999999999
0
CIRCLE
8
Edge.Cuts
10
176.4019999999999868
20
47.625
40
2.5499989999999997
0
CIRCLE
8
Edge.Cuts
10
172.0019999999999811
20
42.9249999999999972
40
1.4999989999999999
0
CIRCLE
8
Edge.Cuts
10
231.3894999999999982
20
60.9249999999999972
40
1.4999989999999999
0
CIRCLE
8
Edge.Cuts
10
228.7894999999999754
20
66.6749999999999972
40
2.5499989999999997
0
CIRCLE
8
Edge.Cuts
10
224.3894999999999982
20
61.9749999999999943
40
1.4999989999999999
0
CIRCLE
8
Edge.Cuts
10
224.2457499999999868
20
3.7749999999999999
40
1.4999989999999999
0
CIRCLE
8
Edge.Cuts
10
221.6457499999999925
20
9.5250000000000004
40
2.5499989999999997
0
CIRCLE
8
Edge.Cuts
10
217.2457499999999868
20
4.8250000000000002
40
1.4999989999999999
0
CIRCLE
8
Edge.Cuts
10
198.0519999999999925
20
41.875
40
1.4999989999999999
0
CIRCLE
8
Edge.Cuts
10
195.4519999999999982
20
47.625
40
2.5499989999999997
0
CIRCLE
8
Edge.Cuts
10
191.0519999999999925
20
42.9249999999999972
40
1.4999989999999999
0
CIRCLE
8
Edge.Cuts
10
207.5769999999999982
20
22.8249999999999993
40
1.4999989999999999
0
CIRCLE
8
Edge.Cuts
10
204.9770000000000039
20
28.5749999999999993
40
2.5499989999999997
0
CIRCLE
8
Edge.Cuts
10
200.5769999999999982
20
23.875
40
1.4999989999999999
0
CIRCLE
8
Edge.Cuts
10
186.1457499999999925
20
3.7749999999999999
40
1.4999989999999999
0
CIRCLE
8
Edge.Cuts
10
183.5457499999999982
20
9.5250000000000004
40
2.5499989999999997
0
CIRCLE
8
Edge.Cuts
10
179.1457499999999925
20
4.8250000000000002
40
1.4999989999999999
0
CIRCLE
8
Edge.Cuts
10
281.3957499999999641
20
22.8249999999999993
40
1.4999989999999999
0
CIRCLE
8
Edge.Cuts
10
278.7957499999999982
20
28.5749999999999993
40
2.5499989999999997
0
CIRCLE
8
Edge.Cuts
10
274.3957499999999641
20
23.875
40
1.4999989999999999
0
CIRCLE
8
Edge.Cuts
10
212.3394999999999868
20
60.9249999999999972
40
1.4999989999999999
0
CIRCLE
8
Edge.Cuts
10
209.7394999999999925
20
66.6749999999999972
40
2.5499989999999997
0
CIRCLE
8
Edge.Cuts
10
205.3394999999999868
20
61.9749999999999943
40
1.4999989999999999
0
CIRCLE
8
Edge.Cuts
10
250.4394999999999811
20
60.9249999999999972
40
1.4999989999999999
0
CIRCLE
8
Edge.Cuts
10
247.8394999999999868
20
66.6749999999999972
40
2.5499989999999997
0
CIRCLE
8
Edge.Cuts
10
243.4394999999999811
20
61.9749999999999943
40
1.4999989999999999
0
CIRCLE
8
Edge.Cuts
10
202.8144999999999811
20
79.9749999999999943
40
1.4999989999999999
0
CIRCLE
8
Edge.Cuts
10
200.2144999999999868
20
85.7249999999999943
40
2.5499989999999997
0
CIRCLE
8
Edge.Cuts
10
195.8144999999999811
20
81.0249999999999915
40
1.4999989999999999
0
CIRCLE
8
Edge.Cuts
10
259.9644999999999868
20
79.9749999999999943
40
1.4999989999999999
0
CIRCLE
8
Edge.Cuts
10
257.3644999999999641
20
85.7249999999999943
40
2.5499989999999997
0
CIRCLE
8
Edge.Cuts
10
252.9644999999999868
20
81.0249999999999915
40
1.4999989999999999
0
CIRCLE
8
Edge.Cuts
10
240.9144999999999754
20
79.9749999999999943
40
1.4999989999999999
0
CIRCLE
8
Edge.Cuts
10
238.3144999999999811
20
85.7249999999999943
40
2.5499989999999997
0
CIRCLE
8
Edge.Cuts
10
233.9144999999999754
20
81.0249999999999915
40
1.4999989999999999
0
CIRCLE
8
Edge.Cuts
10
174.2394999999999925
20
60.9249999999999972
40
1.4999989999999999
0
CIRCLE
8
Edge.Cuts
10
171.6394999999999982
20
66.6749999999999972
40
2.5499989999999997
0
CIRCLE
8
Edge.Cuts
10
167.2394999999999925
20
61.9749999999999943
40
1.4999989999999999
0
CIRCLE
8
Edge.Cuts
10
193.2895000000000039
20
60.9249999999999972
40
1.4999989999999999
0
CIRCLE
8
Edge.Cuts
10
190.6894999999999811
20
66.6749999999999972
40
2.5499989999999997
0
CIRCLE
8
Edge.Cuts
10
186.2895000000000039
20
61.9749999999999943
40
1.4999989999999999
0
CIRCLE
8
Edge.Cuts
10
271.8707499999999868
20
3.7749999999999999
40
1.4999989999999999
0
CIRCLE
8
Edge.Cuts
10
269.2707499999999641
20
9.5250000000000004
40
2.5499989999999997
0
CIRCLE
8
Edge.Cuts
10
264.8707499999999868
20
4.8250000000000002
40
1.4999989999999999
0
CIRCLE
8
Edge.Cuts
10
188.5269999999999868
20
22.8249999999999993
40
1.4999989999999999
0
CIRCLE
8
Edge.Cuts
10
185.9269999999999925
20
28.5749999999999993
40
2.5499989999999997
0
CIRCLE
8
Edge.Cuts
10
181.5269999999999868
20
23.875
40
1.4999989999999999
0
CIRCLE
8
Edge.Cuts
10
245.6769999999999925
20
22.8249999999999993
40
1.4999989999999999
0
CIRCLE
8
Edge.Cuts
10
243.0769999999999982
20
28.5749999999999993
40
2.5499989999999997
0
CIRCLE
8
Edge.Cuts
10
238.6769999999999925
20
23.875
40
1.4999989999999999
0
CIRCLE
8
Edge.Cuts
10
159.9519999999999982
20
41.875
40
1.4999989999999999
0
CIRCLE
8
Edge.Cuts
10
157.3520000000000039
20
47.625
40
2.5499989999999997
0
CIRCLE
8
Edge.Cuts
10
152.9519999999999982
20
42.9249999999999972
40
1.4999989999999999
0
CIRCLE
8
Edge.Cuts
10
255.2019999999999982
20
41.875
40
1.4999989999999999
0
CIRCLE
8
Edge.Cuts
10
252.6019999999999754
20
47.625
40
2.5499989999999997
0
CIRCLE
8
Edge.Cuts
10
248.2019999999999982
20
42.9249999999999972
40
1.4999989999999999
0
CIRCLE
8
Edge.Cuts
10
169.4770000000000039
20
22.8249999999999993
40
1.4999989999999999
0
CIRCLE
8
Edge.Cuts
10
166.8769999999999811
20
28.5749999999999993
40
2.5499989999999997
0
CIRCLE
8
Edge.Cuts
10
162.4770000000000039
20
23.875
40
1.4999989999999999
0
CIRCLE
8
Edge.Cuts
10
217.1020000000000039
20
41.875
40
1.4999989999999999
0
CIRCLE
8
Edge.Cuts
10
214.5019999999999811
20
47.625
40
2.5499989999999997
0
CIRCLE
8
Edge.Cuts
10
210.1020000000000039
20
42.9249999999999972
40
1.4999989999999999
0
CIRCLE
8
Edge.Cuts
10
226.6269999999999811
20
22.8249999999999993
40
1.4999989999999999
0
CIRCLE
8
Edge.Cuts
10
224.0269999999999868
20
28.5749999999999993
40
2.5499989999999997
0
CIRCLE
8
Edge.Cuts
10
219.6269999999999811
20
23.875
40
1.4999989999999999
0
CIRCLE
8
Edge.Cuts
10
295.6832499999999868
20
3.7749999999999999
40
1.4999989999999999
0
CIRCLE
8
Edge.Cuts
10
293.0832499999999641
20
9.5250000000000004
40
2.5499989999999997
0
CIRCLE
8
Edge.Cuts
10
288.6832499999999868
20
4.8250000000000002
40
1.4999989999999999
0
CIRCLE
8
Edge.Cuts
10
286.1582500000000095
20
41.875
40
1.4999989999999999
0
CIRCLE
8
Edge.Cuts
10
283.5582499999999868
20
47.625
40
2.5499989999999997
0
CIRCLE
8
Edge.Cuts
10
279.1582500000000095
20
42.9249999999999972
40
1.4999989999999999
0
CIRCLE
8
Edge.Cuts
10
293.3019999999999641
20
60.9249999999999972
40
1.4999989999999999
0
CIRCLE
8
Edge.Cuts
10
290.7019999999999982
20
66.6749999999999972
40
2.5499989999999997
0
CIRCLE
8
Edge.Cuts
10
286.3019999999999641
20
61.9749999999999943
40
1.4999989999999999
0
CIRCLE
8
Edge.Cuts
10
236.1519999999999868
20
41.875
40
1.4999989999999999
0
CIRCLE
8
Edge.Cuts
10
233.5519999999999925
20
47.625
40
2.5499989999999997
0
CIRCLE
8
Edge.Cuts
10
229.1519999999999868
20
42.9249999999999972
40
1.4999989999999999
0
CIRCLE
8
Edge.Cuts
10
164.7144999999999868
20
79.9749999999999943
40
1.4999989999999999
0
CIRCLE
8
Edge.Cuts
10
162.1144999999999925
20
85.7249999999999943
40
2.5499989999999997
0
CIRCLE
8
Edge.Cuts
10
157.7144999999999868
20
81.0249999999999915
40
1.4999989999999999
0
CIRCLE
8
Edge.Cuts
10
248.0582499999999868
20
3.7749999999999999
40
1.4999989999999999
0
CIRCLE
8
Edge.Cuts
10
245.4582499999999925
20
9.5250000000000004
40
2.5499989999999997
0
CIRCLE
8
Edge.Cuts
10
241.0582499999999868
20
4.8250000000000002
40
1.4999989999999999
0
CIRCLE
8
Edge.Cuts
10
288.5394999999999754
20
79.9749999999999943
40
1.4999989999999999
0
CIRCLE
8
Edge.Cuts
10
285.9395000000000095
20
85.7249999999999943
40
2.5499989999999997
0
CIRCLE
8
Edge.Cuts
10
281.5394999999999754
20
81.0249999999999915
40
1.4999989999999999
0
CIRCLE
8
Edge.Cuts
10
95.6550450000000012
20
79.9819999999999993
40
1.4999989999999999
0
CIRCLE
8
Edge.Cuts
10
93.0550449999999927
20
85.7319999999999993
40
2.5499989999999997
0
CIRCLE
8
Edge.Cuts
10
88.6550450000000012
20
81.0319999999999965
40
1.4999989999999999
0
CIRCLE
8
Edge.Cuts
10
76.6050449999999898
20
79.9819999999999993
40
1.4999989999999999
0
CIRCLE
8
Edge.Cuts
10
74.0050449999999955
20
85.7319999999999993
40
2.5499989999999997
0
CIRCLE
8
Edge.Cuts
10
69.6050449999999898
20
81.0319999999999965
40
1.4999989999999999
0
CIRCLE
8
Edge.Cuts
10
43.2675449999999984
20
22.8320000000000007
40
1.4999989999999999
0
CIRCLE
8
Edge.Cuts
10
40.6675449999999969
20
28.5819999999999972
40
2.5499989999999997
0
CIRCLE
8
Edge.Cuts
10
36.2675449999999984
20
23.8819999999999979
40
1.4999989999999999
0
CIRCLE
8
Edge.Cuts
10
62.3175449999999955
20
22.8320000000000007
40
1.4999989999999999
0
CIRCLE
8
Edge.Cuts
10
59.7175449999999941
20
28.5819999999999972
40
2.5499989999999997
0
CIRCLE
8
Edge.Cuts
10
55.3175449999999955
20
23.8819999999999979
40
1.4999989999999999
0
CIRCLE
8
Edge.Cuts
10
114.7050449999999984
20
79.9819999999999993
40
1.4999989999999999
0
CIRCLE
8
Edge.Cuts
10
112.1050449999999898
20
85.7319999999999993
40
2.5499989999999997
0
CIRCLE
8
Edge.Cuts
10
107.7050449999999984
20
81.0319999999999965
40
1.4999989999999999
0
CIRCLE
8
Edge.Cuts
10
19.4550449999999984
20
79.9819999999999993
40
1.4999989999999999
0
CIRCLE
8
Edge.Cuts
10
16.8550450000000005
20
85.7319999999999993
40
2.5499989999999997
0
CIRCLE
8
Edge.Cuts
10
12.4550450000000001
20
81.0319999999999965
40
1.4999989999999999
0
CIRCLE
8
Edge.Cuts
10
38.5050449999999955
20
79.9819999999999993
40
1.4999989999999999
0
CIRCLE
8
Edge.Cuts
10
35.9050450000000012
20
85.7319999999999993
40
2.5499989999999997
0
CIRCLE
8
Edge.Cuts
10
31.5050449999999991
20
81.0319999999999965
40
1.4999989999999999
0
CIRCLE
8
Edge.Cuts
10
28.9800449999999969
20
60.9319999999999951
40
1.4999989999999999
0
CIRCLE
8
Edge.Cuts
10
26.3800449999999991
20
66.6820000000000022
40
2.5499989999999997
0
CIRCLE
8
Edge.Cuts
10
21.9800450000000005
20
61.9819999999999993
40
1.4999989999999999
0
CIRCLE
8
Edge.Cuts
10
57.5550449999999998
20
79.9819999999999993
40
1.4999989999999999
0
CIRCLE
8
Edge.Cuts
10
54.9550449999999984
20
85.7319999999999993
40
2.5499989999999997
0
CIRCLE
8
Edge.Cuts
10
50.5550449999999998
20
81.0319999999999965
40
1.4999989999999999
0
CIRCLE
8
Edge.Cuts
10
109.9425449999999955
20
41.8819999999999979
40
1.4999989999999999
0
CIRCLE
8
Edge.Cuts
10
107.3425450000000012
20
47.6319999999999979
40
2.5499989999999997
0
CIRCLE
8
Edge.Cuts
10
102.9425449999999955
20
42.9319999999999951
40
1.4999989999999999
0
CIRCLE
8
Edge.Cuts
10
100.4175449999999898
20
22.8320000000000007
40
1.4999989999999999
0
CIRCLE
8
Edge.Cuts
10
97.8175449999999955
20
28.5819999999999972
40
2.5499989999999997
0
CIRCLE
8
Edge.Cuts
10
93.4175449999999898
20
23.8819999999999979
40
1.4999989999999999
0
CIRCLE
8
Edge.Cuts
10
119.4675450000000012
20
22.8320000000000007
40
1.4999989999999999
0
CIRCLE
8
Edge.Cuts
10
116.8675449999999927
20
28.5819999999999972
40
2.5499989999999997
0
CIRCLE
8
Edge.Cuts
10
112.4675450000000012
20
23.8819999999999979
40
1.4999989999999999
0
CIRCLE
8
Edge.Cuts
10
26.5987949999999991
20
3.782
40
1.4999989999999999
0
CIRCLE
8
Edge.Cuts
10
23.9987949999999977
20
9.532
40
2.5499989999999997
0
CIRCLE
8
Edge.Cuts
10
19.5987949999999991
20
4.8319999999999999
40
1.4999989999999999
0
CIRCLE
8
Edge.Cuts
10
33.7425449999999998
20
41.8819999999999979
40
1.4999989999999999
0
CIRCLE
8
Edge.Cuts
10
31.1425449999999984
20
47.6319999999999979
40
2.5499989999999997
0
CIRCLE
8
Edge.Cuts
10
26.7425449999999998
20
42.9319999999999951
40
1.4999989999999999
0
CIRCLE
8
Edge.Cuts
10
74.2872950000000003
20
3.782
40
1.4999989999999999
0
CIRCLE
8
Edge.Cuts
10
71.6872949999999918
20
9.532
40
2.5499989999999997
0
CIRCLE
8
Edge.Cuts
10
67.2872950000000003
20
4.8319999999999999
40
1.4999989999999999
0
CIRCLE
8
Edge.Cuts
10
48.0300450000000012
20
60.9319999999999951
40
1.4999989999999999
0
CIRCLE
8
Edge.Cuts
10
45.4300449999999998
20
66.6820000000000022
40
2.5499989999999997
0
CIRCLE
8
Edge.Cuts
10
41.0300450000000012
20
61.9819999999999993
40
1.4999989999999999
0
CIRCLE
8
Edge.Cuts
10
67.0800449999999984
20
60.9319999999999951
40
1.4999989999999999
0
CIRCLE
8
Edge.Cuts
10
64.4800450000000041
20
66.6820000000000022
40
2.5499989999999997
0
CIRCLE
8
Edge.Cuts
10
60.0800449999999984
20
61.9819999999999993
40
1.4999989999999999
0
CIRCLE
8
Edge.Cuts
10
90.8925449999999984
20
41.8819999999999979
40
1.4999989999999999
0
CIRCLE
8
Edge.Cuts
10
88.2925449999999898
20
47.6319999999999979
40
2.5499989999999997
0
CIRCLE
8
Edge.Cuts
10
83.8925449999999984
20
42.9319999999999951
40
1.4999989999999999
0
CIRCLE
8
Edge.Cuts
10
2.786295
20
3.782
40
1.4999989999999999
0
CIRCLE
8
Edge.Cuts
10
0.186295
20
9.532
40
2.5499989999999997
0
CIRCLE
8
Edge.Cuts
10
-4.213705
20
4.8319999999999999
40
1.4999989999999999
0
CIRCLE
8
Edge.Cuts
10
50.4747950000000003
20
3.782
40
1.4999989999999999
0
CIRCLE
8
Edge.Cuts
10
47.8747949999999989
20
9.532
40
2.5499989999999997
0
CIRCLE
8
Edge.Cuts
10
43.4747950000000003
20
4.8319999999999999
40
1.4999989999999999
0
CIRCLE
8
Edge.Cuts
10
105.1800449999999927
20
60.9319999999999951
40
1.4999989999999999
0
CIRCLE
8
Edge.Cuts
10
102.5800449999999984
20
66.6820000000000022
40
2.5499989999999997
0
CIRCLE
8
Edge.Cuts
10
98.1800449999999927
20
61.9819999999999993
40
1.4999989999999999
0
CIRCLE
8
Edge.Cuts
10
52.7925449999999969
20
41.8819999999999979
40
1.4999989999999999
0
CIRCLE
8
Edge.Cuts
10
50.1925449999999955
20
47.6319999999999979
40
2.5499989999999997
0
CIRCLE
8
Edge.Cuts
10
45.7925449999999969
20
42.9319999999999951
40
1.4999989999999999
0
CIRCLE
8
Edge.Cuts
10
86.1300449999999955
20
60.9319999999999951
40
1.4999989999999999
0
CIRCLE
8
Edge.Cuts
10
83.5300450000000012
20
66.6820000000000022
40
2.5499989999999997
0
CIRCLE
8
Edge.Cuts
10
79.1300449999999955
20
61.9819999999999993
40
1.4999989999999999
0
CIRCLE
8
Edge.Cuts
10
107.5612950000000012
20
3.782
40
1.4999989999999999
0
CIRCLE
8
Edge.Cuts
10
104.9612949999999927
20
9.532
40
2.5499989999999997
0
CIRCLE
8
Edge.Cuts
10
100.5612950000000012
20
4.8319999999999999
40
1.4999989999999999
0
CIRCLE
8
Edge.Cuts
10
71.8425450000000012
20
41.8819999999999979
40
1.4999989999999999
0
CIRCLE
8
Edge.Cuts
10
69.2425449999999927
20
47.6319999999999979
40
2.5499989999999997
0
CIRCLE
8
Edge.Cuts
10
64.8425450000000012
20
42.9319999999999951
40
1.4999989999999999
0
CIRCLE
8
Edge.Cuts
10
0.405045
20
79.9819999999999993
40
1.4999989999999999
0
CIRCLE
8
Edge.Cuts
10
-2.1949549999999998
20
85.7319999999999993
40
2.5499989999999997
0
CIRCLE
8
Edge.Cuts
10
-6.5949549999999997
20
81.0319999999999965
40
1.4999989999999999
0
CIRCLE
8
Edge.Cuts
10
7.5487949999999993
20
41.8819999999999979
40
1.4999989999999999
0
CIRCLE
8
Edge.Cuts
10
4.9487949999999996
20
47.6319999999999979
40
2.5499989999999997
0
CIRCLE
8
Edge.Cuts
10
0.5487949999999999
20
42.9319999999999951
40
1.4999989999999999
0
CIRCLE
8
Edge.Cuts
10
5.1675449999999996
20
60.9319999999999951
40
1.4999989999999999
0
CIRCLE
8
Edge.Cuts
10
2.567545
20
66.6820000000000022
40
2.5499989999999997
0
CIRCLE
8
Edge.Cuts
10
-1.8324549999999999
20
61.9819999999999993
40
1.4999989999999999
0
CIRCLE
8
Edge.Cuts
10
81.3675449999999927
20
22.8320000000000007
40
1.4999989999999999
0
CIRCLE
8
Edge.Cuts
10
78.7675449999999984
20
28.5819999999999972
40
2.5499989999999997
0
CIRCLE
8
Edge.Cuts
10
74.3675449999999927
20
23.8819999999999979
40
1.4999989999999999
0
CIRCLE
8
Edge.Cuts
10
12.3112949999999994
20
22.8320000000000007
40
1.4999989999999999
0
CIRCLE
8
Edge.Cuts
10
9.7112949999999998
20
28.5819999999999972
40
2.5499989999999997
0
CIRCLE
8
Edge.Cuts
10
5.3112949999999994
20
23.8819999999999979
40
1.4999989999999999
0
CIRCLE
8
Edge.Cuts
10
147.1899999999999977
20
95.1949999999999932
40
0.324999
0
CIRCLE
8
Edge.Cuts
10
152.9699999999999989
20
95.1949999999999932
40
0.324999
0
LINE
8
Edge.Cuts
6
CONTINUOUS
10
154.0999999999999943
20
99.144999999999996
11
154.0999999999999943
21
98.5450000000000017
0
ARC
8
Edge.Cuts
10
154.4000000000000057
20
98.5450000000000017
40
0.3
50
-180.00000000
51
0.00000000
0
LINE
8
Edge.Cuts
6
CONTINUOUS
10
154.6999999999999886
20
98.5450000000000017
11
154.6999999999999886
21
99.144999999999996
0
ARC
8
Edge.Cuts
10
154.4000000000000057
20
99.144999999999996
40
0.3
50
0.00000000
51
180.00000000
0
LINE
8
Edge.Cuts
6
CONTINUOUS
10
154.0999999999999943
20
95.2149999999999892
11
154.0999999999999943
21
94.1149999999999949
0
ARC
8
Edge.Cuts
10
154.4000000000000057
20
94.1149999999999949
40
0.3
50
-180.00000000
51
0.00000000
0
LINE
8
Edge.Cuts
6
CONTINUOUS
10
154.6999999999999886
20
94.1149999999999949
11
154.6999999999999886
21
95.2149999999999892
0
ARC
8
Edge.Cuts
10
154.4000000000000057
20
95.2149999999999892
40
0.3
50
0.00000000
51
180.00000000
0
LINE
8
Edge.Cuts
6
CONTINUOUS
10
145.4599999999999795
20
95.2149999999999892
11
145.4599999999999795
21
94.1149999999999949
0
ARC
8
Edge.Cuts
10
145.7599999999999909
20
94.1149999999999949
40
0.3
50
-180.00000000
51
0.00000000
0
LINE
8
Edge.Cuts
6
CONTINUOUS
10
146.0600000000000023
20
94.1149999999999949
11
146.0600000000000023
21
95.2149999999999892
0
ARC
8
Edge.Cuts
10
145.7599999999999909
20
95.2149999999999892
40
0.3
50
0.00000000
51
180.00000000
0
LINE
8
Edge.Cuts
6
CONTINUOUS
10
145.4599999999999795
20
99.144999999999996
11
145.4599999999999795
21
98.5450000000000017
0
ARC
8
Edge.Cuts
10
145.7599999999999909
20
98.5450000000000017
40
0.3
50
-180.00000000
51
0.00000000
0
LINE
8
Edge.Cuts
6
CONTINUOUS
10
146.0600000000000023
20
98.5450000000000017
11
146.0600000000000023
21
99.144999999999996
0
ARC
8
Edge.Cuts
10
145.7599999999999909
20
99.144999999999996
40
0.3
50
0.00000000
51
180.00000000
0
CIRCLE
8
Edge.Cuts
10
304.9797499999999673
20
74.625
40
0.324999
0
CIRCLE
8
Edge.Cuts
10
304.9797499999999673
20
68.8449999999999989
40
0.324999
0
LINE
8
Edge.Cuts
6
CONTINUOUS
10
308.9297500000000127
20
67.7150000000000034
11
308.32974999999999
21
67.7150000000000034
0
ARC
8
Edge.Cuts
10
308.32974999999999
20
67.414999999999992
40
0.3
50
90.00000000
51
270.00000000
0
LINE
8
Edge.Cuts
6
CONTINUOUS
10
308.32974999999999
20
67.1149999999999949
11
308.9297500000000127
21
67.1149999999999949
0
ARC
8
Edge.Cuts
10
308.9297500000000127
20
67.414999999999992
40
0.3
50
270.00000000
51
450.00000000
0
LINE
8
Edge.Cuts
6
CONTINUOUS
10
304.9997500000000059
20
67.7150000000000034
11
303.8997499999999832
21
67.7150000000000034
0
ARC
8
Edge.Cuts
10
303.8997499999999832
20
67.414999999999992
40
0.3
50
90.00000000
51
270.00000000
0
LINE
8
Edge.Cuts
6
CONTINUOUS
10
303.8997499999999832
20
67.1149999999999949
11
304.9997500000000059
21
67.1149999999999949
0
ARC
8
Edge.Cuts
10
304.9997500000000059
20
67.414999999999992
40
0.3
50
270.00000000
51
450.00000000
0
LINE
8
Edge.Cuts
6
CONTINUOUS
10
304.9997500000000059
20
76.3549999999999898
11
303.8997499999999832
21
76.3549999999999898
0
ARC
8
Edge.Cuts
10
303.8997499999999832
20
76.0549999999999926
40
0.3
50
90.00000000
51
270.00000000
0
LINE
8
Edge.Cuts
6
CONTINUOUS
10
303.8997499999999832
20
75.7549999999999955
11
304.9997500000000059
21
75.7549999999999955
0
ARC
8
Edge.Cuts
10
304.9997500000000059
20
76.0549999999999926
40
0.3
50
270.00000000
51
450.00000000
0
LINE
8
Edge.Cuts
6
CONTINUOUS
10
308.9297500000000127
20
76.3549999999999898
11
308.32974999999999
21
76.3549999999999898
0
ARC
8
Edge.Cuts
10
308.32974999999999
20
76.0549999999999926
40
0.3
50
90.00000000
51
270.00000000
0
LINE
8
Edge.Cuts
6
CONTINUOUS
10
308.32974999999999
20
75.7549999999999955
11
308.9297500000000127
21
75.7549999999999955
0
ARC
8
Edge.Cuts
10
308.9297500000000127
20
76.0549999999999926
40
0.3
50
270.00000000
51
450.00000000
0
CIRCLE
8
Edge.Cuts
10
114.6999999999999886
20
95.1949999999999932
40
0.324999
0
CIRCLE
8
Edge.Cuts
10
120.4799999999999898
20
95.1949999999999932
40
0.324999
0
LINE
8
Edge.Cuts
6
CONTINUOUS
10
121.6099999999999994
20
99.144999999999996
11
121.6099999999999994
21
98.5450000000000017
0
ARC
8
Edge.Cuts
10
121.9099999999999966
20
98.5450000000000017
40
0.3
50
-180.00000000
51
0.00000000
0
LINE
8
Edge.Cuts
6
CONTINUOUS
10
122.2099999999999937
20
98.5450000000000017
11
122.2099999999999937
21
99.144999999999996
0
ARC
8
Edge.Cuts
10
121.9099999999999966
20
99.144999999999996
40
0.3
50
0.00000000
51
180.00000000
0
LINE
8
Edge.Cuts
6
CONTINUOUS
10
121.6099999999999994
20
95.2149999999999892
11
121.6099999999999994
21
94.1149999999999949
0
ARC
8
Edge.Cuts
10
121.9099999999999966
20
94.1149999999999949
40
0.3
50
-180.00000000
51
0.00000000
0
LINE
8
Edge.Cuts
6
CONTINUOUS
10
122.2099999999999937
20
94.1149999999999949
11
122.2099999999999937
21
95.2149999999999892
0
ARC
8
Edge.Cuts
10
121.9099999999999966
20
95.2149999999999892
40
0.3
50
0.00000000
51
180.00000000
0
LINE
8
Edge.Cuts
6
CONTINUOUS
10
112.9699999999999989
20
95.2149999999999892
11
112.9699999999999989
21
94.1149999999999949
0
ARC
8
Edge.Cuts
10
113.269999999999996
20
94.1149999999999949
40
0.3
50
-180.00000000
51
0.00000000
0
LINE
8
Edge.Cuts
6
CONTINUOUS
10
113.5699999999999932
20
94.1149999999999949
11
113.5699999999999932
21
95.2149999999999892
0
ARC
8
Edge.Cuts
10
113.269999999999996
20
95.2149999999999892
40
0.3
50
0.00000000
51
180.00000000
0
LINE
8
Edge.Cuts
6
CONTINUOUS
10
112.9699999999999989
20
99.144999999999996
11
112.9699999999999989
21
98.5450000000000017
0
ARC
8
Edge.Cuts
10
113.269999999999996
20
98.5450000000000017
40
0.3
50
-180.00000000
51
0.00000000
0
LINE
8
Edge.Cuts
6
CONTINUOUS
10
113.5699999999999932
20
98.5450000000000017
11
113.5699999999999932
21
99.144999999999996
0
ARC
8
Edge.Cuts
10
113.269999999999996
20
99.144999999999996
40
0.3
50
0.00000000
51
180.00000000
0
CIRCLE
8
Edge.Cuts
10
-13.1352499999999992
20
68.8449999999999989
40
0.324999
0
CIRCLE
8
Edge.Cuts
10
-13.1352499999999992
20
74.625
40
0.324999
0
LINE
8
Edge.Cuts
6
CONTINUOUS
10
-17.0852499999999985
20
75.7549999999999955
11
-16.4852500000000006
21
75.7549999999999955
0
ARC
8
Edge.Cuts
10
-16.4852500000000006
20
76.0549999999999926
40
0.3
50
-90.00000000
51
90.00000000
0
LINE
8
Edge.Cuts
6
CONTINUOUS
10
-16.4852500000000006
20
76.3549999999999898
11
-17.0852499999999985
21
76.3549999999999898
0
ARC
8
Edge.Cuts
10
-17.0852499999999985
20
76.0549999999999926
40
0.3
50
90.00000000
51
270.00000000
0
LINE
8
Edge.Cuts
6
CONTINUOUS
10
-13.1552499999999988
20
75.7549999999999955
11
-12.0552499999999991
21
75.7549999999999955
0
ARC
8
Edge.Cuts
10
-12.0552499999999991
20
76.0549999999999926
40
0.3
50
-90.00000000
51
90.00000000
0
LINE
8
Edge.Cuts
6
CONTINUOUS
10
-12.0552499999999991
20
76.3549999999999898
11
-13.1552499999999988
21
76.3549999999999898
0
ARC
8
Edge.Cuts
10
-13.1552499999999988
20
76.0549999999999926
40
0.3
50
90.00000000
51
270.00000000
0
LINE
8
Edge.Cuts
6
CONTINUOUS
10
-13.1552499999999988
20
67.1149999999999949
11
-12.0552499999999991
21
67.1149999999999949
0
ARC
8
Edge.Cuts
10
-12.0552499999999991
20
67.414999999999992
40
0.3
50
-90.00000000
51
90.00000000
0
LINE
8
Edge.Cuts
6
CONTINUOUS
10
-12.0552499999999991
20
67.7150000000000034
11
-13.1552499999999988
21
67.7150000000000034
0
ARC
8
Edge.Cuts
10
-13.1552499999999988
20
67.414999999999992
40
0.3
50
90.00000000
51
270.00000000
0
LINE
8
Edge.Cuts
6
CONTINUOUS
10
-17.0852499999999985
20
67.1149999999999949
11
-16.4852500000000006
21
67.1149999999999949
0
ARC
8
Edge.Cuts
10
-16.4852500000000006
20
67.414999999999992
40
0.3
50
-90.00000000
51
90.00000000
0
LINE
8
Edge.Cuts
6
CONTINUOUS
10
-16.4852500000000006
20
67.7150000000000034
11
-17.0852499999999985
21
67.7150000000000034
0
ARC
8
Edge.Cuts
10
-17.0852499999999985
20
67.414999999999992
40
0.3
50
90.00000000
51
270.00000000
0
LINE
8
User.Eco1
6
CONTINUOUS
10
159.5894999999999868
20
59.6749999999999972
11
145.5894999999999868
21
59.6749999999999972
0
LINE
8
User.Eco1
6
CONTINUOUS
10
145.5894999999999868
20
59.6749999999999972
11
145.5894999999999868
21
73.6749999999999972
0
LINE
8
User.Eco1
6
CONTINUOUS
10
145.5894999999999868
20
73.6749999999999972
11
159.5894999999999868
21
73.6749999999999972
0
LINE
8
User.Eco1
6
CONTINUOUS
10
159.5894999999999868
20
73.6749999999999972
11
159.5894999999999868
21
59.6749999999999972
0
LINE
8
User.Eco1
6
CONTINUOUS
10
188.1645000000000039
20
78.7249999999999943
11
174.1645000000000039
21
78.7249999999999943
0
LINE
8
User.Eco1
6
CONTINUOUS
10
174.1645000000000039
20
78.7249999999999943
11
174.1645000000000039
21
92.7249999999999943
0
LINE
8
User.Eco1
6
CONTINUOUS
10
174.1645000000000039
20
92.7249999999999943
11
188.1645000000000039
21
92.7249999999999943
0
LINE
8
User.Eco1
6
CONTINUOUS
10
188.1645000000000039
20
92.7249999999999943
11
188.1645000000000039
21
78.7249999999999943
0
LINE
8
User.Eco1
6
CONTINUOUS
10
273.8894999999999982
20
59.6749999999999972
11
259.8894999999999982
21
59.6749999999999972
0
LINE
8
User.Eco1
6
CONTINUOUS
10
259.8894999999999982
20
59.6749999999999972
11
259.8894999999999982
21
73.6749999999999972
0
LINE
8
User.Eco1
6
CONTINUOUS
10
259.8894999999999982
20
73.6749999999999972
11
273.8894999999999982
21
73.6749999999999972
0
LINE
8
User.Eco1
6
CONTINUOUS
10
273.8894999999999982
20
73.6749999999999972
11
273.8894999999999982
21
59.6749999999999972
0
LINE
8
User.Eco1
6
CONTINUOUS
10
226.2644999999999982
20
78.7249999999999943
11
212.2644999999999982
21
78.7249999999999943
0
LINE
8
User.Eco1
6
CONTINUOUS
10
212.2644999999999982
20
78.7249999999999943
11
212.2644999999999982
21
92.7249999999999943
0
LINE
8
User.Eco1
6
CONTINUOUS
10
212.2644999999999982
20
92.7249999999999943
11
226.2644999999999982
21
92.7249999999999943
0
LINE
8
User.Eco1
6
CONTINUOUS
10
226.2644999999999982
20
92.7249999999999943
11
226.2644999999999982
21
78.7249999999999943
0
LINE
8
User.Eco1
6
CONTINUOUS
10
183.4019999999999868
20
40.625
11
169.4019999999999868
21
40.625
0
LINE
8
User.Eco1
6
CONTINUOUS
10
169.4019999999999868
20
40.625
11
169.4019999999999868
21
54.625
0
LINE
8
User.Eco1
6
CONTINUOUS
10
169.4019999999999868
20
54.625
11
183.4019999999999868
21
54.625
0
LINE
8
User.Eco1
6
CONTINUOUS
10
183.4019999999999868
20
54.625
11
183.4019999999999868
21
40.625
0
LINE
8
User.Eco1
6
CONTINUOUS
10
235.7894999999999754
20
59.6749999999999972
11
221.7895000000000039
21
59.6749999999999972
0
LINE
8
User.Eco1
6
CONTINUOUS
10
221.7895000000000039
20
59.6749999999999972
11
221.7895000000000039
21
73.6749999999999972
0
LINE
8
User.Eco1
6
CONTINUOUS
10
221.7895000000000039
20
73.6749999999999972
11
235.7894999999999754
21
73.6749999999999972
0
LINE
8
User.Eco1
6
CONTINUOUS
10
235.7894999999999754
20
73.6749999999999972
11
235.7894999999999754
21
59.6749999999999972
0
LINE
8
User.Eco1
6
CONTINUOUS
10
228.6457499999999925
20
2.5249999999999999
11
214.6457499999999925
21
2.5249999999999999
0
LINE
8
User.Eco1
6
CONTINUOUS
10
214.6457499999999925
20
2.5249999999999999
11
214.6457499999999925
21
16.5249999999999986
0
LINE
8
User.Eco1
6
CONTINUOUS
10
214.6457499999999925
20
16.5249999999999986
11
228.6457499999999925
21
16.5249999999999986
0
LINE
8
User.Eco1
6
CONTINUOUS
10
228.6457499999999925
20
16.5249999999999986
11
228.6457499999999925
21
2.5249999999999999
0
LINE
8
User.Eco1
6
CONTINUOUS
10
202.4519999999999982
20
40.625
11
188.4519999999999982
21
40.625
0
LINE
8
User.Eco1
6
CONTINUOUS
10
188.4519999999999982
20
40.625
11
188.4519999999999982
21
54.625
0
LINE
8
User.Eco1
6
CONTINUOUS
10
188.4519999999999982
20
54.625
11
202.4519999999999982
21
54.625
0
LINE
8
User.Eco1
6
CONTINUOUS
10
202.4519999999999982
20
54.625
11
202.4519999999999982
21
40.625
0
LINE
8
User.Eco1
6
CONTINUOUS
10
211.9770000000000039
20
21.5749999999999993
11
197.9770000000000039
21
21.5749999999999993
0
LINE
8
User.Eco1
6
CONTINUOUS
10
197.9770000000000039
20
21.5749999999999993
11
197.9770000000000039
21
35.5749999999999957
0
LINE
8
User.Eco1
6
CONTINUOUS
10
197.9770000000000039
20
35.5749999999999957
11
211.9770000000000039
21
35.5749999999999957
0
LINE
8
User.Eco1
6
CONTINUOUS
10
211.9770000000000039
20
35.5749999999999957
11
211.9770000000000039
21
21.5749999999999993
0
LINE
8
User.Eco1
6
CONTINUOUS
10
190.5457499999999982
20
2.5249999999999999
11
176.5457499999999982
21
2.5249999999999999
0
LINE
8
User.Eco1
6
CONTINUOUS
10
176.5457499999999982
20
2.5249999999999999
11
176.5457499999999982
21
16.5249999999999986
0
LINE
8
User.Eco1
6
CONTINUOUS
10
176.5457499999999982
20
16.5249999999999986
11
190.5457499999999982
21
16.5249999999999986
0
LINE
8
User.Eco1
6
CONTINUOUS
10
190.5457499999999982
20
16.5249999999999986
11
190.5457499999999982
21
2.5249999999999999
0
LINE
8
User.Eco1
6
CONTINUOUS
10
173.4182500000000005
20
19.3963000000000001
11
173.5120499999999879
21
19.367799999999999
0
LINE
8
User.Eco1
6
CONTINUOUS
10
173.5120499999999879
20
19.367799999999999
11
173.5985499999999888
21
19.3216000000000001
0
LINE
8
User.Eco1
6
CONTINUOUS
10
173.5985499999999888
20
19.3216000000000001
11
173.674350000000004
21
19.2594999999999992
0
LINE
8
User.Eco1
6
CONTINUOUS
10
173.674350000000004
20
19.2594999999999992
11
173.7364499999999907
21
19.1836999999999982
0
LINE
8
User.Eco1
6
CONTINUOUS
10
173.7364499999999907
20
19.1836999999999982
11
173.7826499999999896
21
19.0972000000000008
0
LINE
8
User.Eco1
6
CONTINUOUS
10
173.7826499999999896
20
19.0972000000000008
11
173.8111499999999978
21
19.0033999999999992
0
LINE
8
User.Eco1
6
CONTINUOUS
10
173.8111499999999978
20
19.0033999999999992
11
173.8207500000000039
21
18.905899999999999
0
LINE
8
User.Eco1
6
CONTINUOUS
10
173.8207500000000039
20
18.905899999999999
11
173.8207500000000039
21
18.5059000000000005
0
LINE
8
User.Eco1
6
CONTINUOUS
10
173.8207500000000039
20
18.5059000000000005
11
193.2707499999999925
21
18.5059000000000005
0
LINE
8
User.Eco1
6
CONTINUOUS
10
193.2707499999999925
20
18.5059000000000005
11
193.2707499999999925
21
18.905899999999999
0
LINE
8
User.Eco1
6
CONTINUOUS
10
193.2707499999999925
20
18.905899999999999
11
193.2803499999999985
21
19.0033999999999992
0
LINE
8
User.Eco1
6
CONTINUOUS
10
193.2803499999999985
20
19.0033999999999992
11
193.3088499999999783
21
19.0972000000000008
0
LINE
8
User.Eco1
6
CONTINUOUS
10
193.3088499999999783
20
19.0972000000000008
11
193.3550499999999772
21
19.1836999999999982
0
LINE
8
User.Eco1
6
CONTINUOUS
10
193.3550499999999772
20
19.1836999999999982
11
193.4171499999999924
21
19.2594999999999992
0
LINE
8
User.Eco1
6
CONTINUOUS
10
193.4171499999999924
20
19.2594999999999992
11
193.4929499999999791
21
19.3216000000000001
0
LINE
8
User.Eco1
6
CONTINUOUS
10
193.4929499999999791
20
19.3216000000000001
11
193.57944999999998
21
19.367799999999999
0
LINE
8
User.Eco1
6
CONTINUOUS
10
193.57944999999998
20
19.367799999999999
11
193.6732499999999959
21
19.3963000000000001
0
LINE
8
User.Eco1
6
CONTINUOUS
10
193.6732499999999959
20
19.3963000000000001
11
193.7707499999999925
21
19.405899999999999
0
LINE
8
User.Eco1
6
CONTINUOUS
10
193.7707499999999925
20
19.405899999999999
11
197.3207500000000039
21
19.405899999999999
0
LINE
8
User.Eco1
6
CONTINUOUS
10
197.3207500000000039
20
19.405899999999999
11
197.4182500000000005
21
19.3963000000000001
0
LINE
8
User.Eco1
6
CONTINUOUS
10
197.4182500000000005
20
19.3963000000000001
11
197.5120499999999879
21
19.367799999999999
0
LINE
8
User.Eco1
6
CONTINUOUS
10
197.5120499999999879
20
19.367799999999999
11
197.5985499999999888
21
19.3216000000000001
0
LINE
8
User.Eco1
6
CONTINUOUS
10
197.5985499999999888
20
19.3216000000000001
11
197.674350000000004
21
19.2594999999999992
0
LINE
8
User.Eco1
6
CONTINUOUS
10
197.674350000000004
20
19.2594999999999992
11
197.7364499999999907
21
19.1836999999999982
0
LINE
8
User.Eco1
6
CONTINUOUS
10
197.7364499999999907
20
19.1836999999999982
11
197.7826499999999896
21
19.0972000000000008
0
LINE
8
User.Eco1
6
CONTINUOUS
10
197.7826499999999896
20
19.0972000000000008
11
197.8111499999999978
21
19.0033999999999992
0
LINE
8
User.Eco1
6
CONTINUOUS
10
197.8111499999999978
20
19.0033999999999992
11
197.8207500000000039
21
18.905899999999999
0
LINE
8
User.Eco1
6
CONTINUOUS
10
197.8207500000000039
20
18.905899999999999
11
197.8207500000000039
21
13.8440999999999992
0
LINE
8
User.Eco1
6
CONTINUOUS
10
197.8207500000000039
20
13.8440999999999992
11
198.0207499999999925
21
13.8440999999999992
0
LINE
8
User.Eco1
6
CONTINUOUS
10
198.0207499999999925
20
13.8440999999999992
11
198.1182499999999891
21
13.8345000000000002
0
LINE
8
User.Eco1
6
CONTINUOUS
10
198.1182499999999891
20
13.8345000000000002
11
198.212050000000005
21
13.8059999999999992
0
LINE
8
User.Eco1
6
CONTINUOUS
10
198.212050000000005
20
13.8059999999999992
11
198.2985499999999774
21
13.7598000000000003
0
LINE
8
User.Eco1
6
CONTINUOUS
10
198.2985499999999774
20
13.7598000000000003
11
198.3743499999999926
21
13.6976999999999993
0
LINE
8
User.Eco1
6
CONTINUOUS
10
198.3743499999999926
20
13.6976999999999993
11
198.4364499999999794
21
13.6219000000000001
0
LINE
8
User.Eco1
6
CONTINUOUS
10
198.4364499999999794
20
13.6219000000000001
11
198.4826499999999783
21
13.5353999999999992
0
LINE
8
User.Eco1
6
CONTINUOUS
10
198.4826499999999783
20
13.5353999999999992
11
198.5111499999999864
21
13.4415999999999993
0
LINE
8
User.Eco1
6
CONTINUOUS
10
198.5111499999999864
20
13.4415999999999993
11
198.5207499999999925
21
13.3440999999999992
0
LINE
8
User.Eco1
6
CONTINUOUS
10
198.5207499999999925
20
13.3440999999999992
11
198.5207499999999925
21
6.3940999999999999
0
LINE
8
User.Eco1
6
CONTINUOUS
10
198.5207499999999925
20
6.3940999999999999
11
198.5111499999999864
21
6.2965999999999998
0
LINE
8
User.Eco1
6
CONTINUOUS
10
198.5111499999999864
20
6.2965999999999998
11
198.4826499999999783
21
6.2027999999999999
0
LINE
8
User.Eco1
6
CONTINUOUS
10
198.4826499999999783
20
6.2027999999999999
11
198.4364499999999794
21
6.1162999999999998
0
LINE
8
User.Eco1
6
CONTINUOUS
10
198.4364499999999794
20
6.1162999999999998
11
198.3743499999999926
21
6.0404999999999998
0
LINE
8
User.Eco1
6
CONTINUOUS
10
198.3743499999999926
20
6.0404999999999998
11
198.2985499999999774
21
5.9783999999999997
0
LINE
8
User.Eco1
6
CONTINUOUS
10
198.2985499999999774
20
5.9783999999999997
11
198.212050000000005
21
5.9321999999999999
0
LINE
8
User.Eco1
6
CONTINUOUS
10
198.212050000000005
20
5.9321999999999999
11
198.1182499999999891
21
5.9036999999999997
0
LINE
8
User.Eco1
6
CONTINUOUS
10
198.1182499999999891
20
5.9036999999999997
11
198.0207499999999925
21
5.8940999999999999
0
LINE
8
User.Eco1
6
CONTINUOUS
10
198.0207499999999925
20
5.8940999999999999
11
193.0707500000000039
21
5.8940999999999999
0
LINE
8
User.Eco1
6
CONTINUOUS
10
193.0707500000000039
20
5.8940999999999999
11
192.9732499999999789
21
5.9036999999999997
0
LINE
8
User.Eco1
6
CONTINUOUS
10
192.9732499999999789
20
5.9036999999999997
11
192.8794499999999914
21
5.9321999999999999
0
LINE
8
User.Eco1
6
CONTINUOUS
10
192.8794499999999914
20
5.9321999999999999
11
192.7929499999999905
21
5.9783999999999997
0
LINE
8
User.Eco1
6
CONTINUOUS
10
192.7929499999999905
20
5.9783999999999997
11
192.7171500000000037
21
6.0404999999999998
0
LINE
8
User.Eco1
6
CONTINUOUS
10
192.7171500000000037
20
6.0404999999999998
11
192.6550499999999886
21
6.1162999999999998
0
LINE
8
User.Eco1
6
CONTINUOUS
10
192.6550499999999886
20
6.1162999999999998
11
192.6088499999999897
21
6.2027999999999999
0
LINE
8
User.Eco1
6
CONTINUOUS
10
192.6088499999999897
20
6.2027999999999999
11
192.5803499999999815
21
6.2965999999999998
0
LINE
8
User.Eco1
6
CONTINUOUS
10
192.5803499999999815
20
6.2965999999999998
11
192.5707500000000039
21
6.3940999999999999
0
LINE
8
User.Eco1
6
CONTINUOUS
10
192.5707500000000039
20
6.3940999999999999
11
192.5707500000000039
21
13.3440999999999992
0
LINE
8
User.Eco1
6
CONTINUOUS
10
192.5707500000000039
20
13.3440999999999992
11
192.5803499999999815
21
13.4415999999999993
0
LINE
8
User.Eco1
6
CONTINUOUS
10
192.5803499999999815
20
13.4415999999999993
11
192.6088499999999897
21
13.5353999999999992
0
LINE
8
User.Eco1
6
CONTINUOUS
10
192.6088499999999897
20
13.5353999999999992
11
192.6550499999999886
21
13.6219000000000001
0
LINE
8
User.Eco1
6
CONTINUOUS
10
192.6550499999999886
20
13.6219000000000001
11
192.7171500000000037
21
13.6976999999999993
0
LINE
8
User.Eco1
6
CONTINUOUS
10
192.7171500000000037
20
13.6976999999999993
11
192.7929499999999905
21
13.7598000000000003
0
LINE
8
User.Eco1
6
CONTINUOUS
10
192.7929499999999905
20
13.7598000000000003
11
192.8794499999999914
21
13.8059999999999992
0
LINE
8
User.Eco1
6
CONTINUOUS
10
192.8794499999999914
20
13.8059999999999992
11
192.9732499999999789
21
13.8345000000000002
0
LINE
8
User.Eco1
6
CONTINUOUS
10
192.9732499999999789
20
13.8345000000000002
11
193.0707500000000039
21
13.8440999999999992
0
LINE
8
User.Eco1
6
CONTINUOUS
10
193.0707500000000039
20
13.8440999999999992
11
193.2707499999999925
21
13.8440999999999992
0
LINE
8
User.Eco1
6
CONTINUOUS
10
193.2707499999999925
20
13.8440999999999992
11
193.2707499999999925
21
17.1058999999999983
0
LINE
8
User.Eco1
6
CONTINUOUS
10
193.2707499999999925
20
17.1058999999999983
11
173.8207500000000039
21
17.1058999999999983
0
LINE
8
User.Eco1
6
CONTINUOUS
10
173.8207500000000039
20
17.1058999999999983
11
173.8207500000000039
21
13.8440999999999992
0
LINE
8
User.Eco1
6
CONTINUOUS
10
173.8207500000000039
20
13.8440999999999992
11
174.0207499999999925
21
13.8440999999999992
0
LINE
8
User.Eco1
6
CONTINUOUS
10
174.0207499999999925
20
13.8440999999999992
11
174.1182499999999891
21
13.8345000000000002
0
LINE
8
User.Eco1
6
CONTINUOUS
10
174.1182499999999891
20
13.8345000000000002
11
174.212050000000005
21
13.8059999999999992
0
LINE
8
User.Eco1
6
CONTINUOUS
10
174.212050000000005
20
13.8059999999999992
11
174.2985500000000059
21
13.7598000000000003
0
LINE
8
User.Eco1
6
CONTINUOUS
10
174.2985500000000059
20
13.7598000000000003
11
174.3743499999999926
21
13.6976999999999993
0
LINE
8
User.Eco1
6
CONTINUOUS
10
174.3743499999999926
20
13.6976999999999993
11
174.4364499999999794
21
13.6219000000000001
0
LINE
8
User.Eco1
6
CONTINUOUS
10
174.4364499999999794
20
13.6219000000000001
11
174.4826499999999783
21
13.5353999999999992
0
LINE
8
User.Eco1
6
CONTINUOUS
10
174.4826499999999783
20
13.5353999999999992
11
174.5111499999999864
21
13.4415999999999993
0
LINE
8
User.Eco1
6
CONTINUOUS
10
174.5111499999999864
20
13.4415999999999993
11
174.5207499999999925
21
13.3440999999999992
0
LINE
8
User.Eco1
6
CONTINUOUS
10
174.5207499999999925
20
13.3440999999999992
11
174.5207499999999925
21
6.3940999999999999
0
LINE
8
User.Eco1
6
CONTINUOUS
10
174.5207499999999925
20
6.3940999999999999
11
174.5111499999999864
21
6.2965999999999998
0
LINE
8
User.Eco1
6
CONTINUOUS
10
174.5111499999999864
20
6.2965999999999998
11
174.4826499999999783
21
6.2027999999999999
0
LINE
8
User.Eco1
6
CONTINUOUS
10
174.4826499999999783
20
6.2027999999999999
11
174.4364499999999794
21
6.1162999999999998
0
LINE
8
User.Eco1
6
CONTINUOUS
10
174.4364499999999794
20
6.1162999999999998
11
174.3743499999999926
21
6.0404999999999998
0
LINE
8
User.Eco1
6
CONTINUOUS
10
174.3743499999999926
20
6.0404999999999998
11
174.2985500000000059
21
5.9783999999999997
0
LINE
8
User.Eco1
6
CONTINUOUS
10
174.2985500000000059
20
5.9783999999999997
11
174.212050000000005
21
5.9321999999999999
0
LINE
8
User.Eco1
6
CONTINUOUS
10
174.212050000000005
20
5.9321999999999999
11
174.1182499999999891
21
5.9036999999999997
0
LINE
8
User.Eco1
6
CONTINUOUS
10
174.1182499999999891
20
5.9036999999999997
11
174.0207499999999925
21
5.8940999999999999
0
LINE
8
User.Eco1
6
CONTINUOUS
10
174.0207499999999925
20
5.8940999999999999
11
169.0707500000000039
21
5.8940999999999999
0
LINE
8
User.Eco1
6
CONTINUOUS
10
169.0707500000000039
20
5.8940999999999999
11
168.9732499999999789
21
5.9036999999999997
0
LINE
8
User.Eco1
6
CONTINUOUS
10
168.9732499999999789
20
5.9036999999999997
11
168.8794499999999914
21
5.9321999999999999
0
LINE
8
User.Eco1
6
CONTINUOUS
10
168.8794499999999914
20
5.9321999999999999
11
168.7929499999999905
21
5.9783999999999997
0
LINE
8
User.Eco1
6
CONTINUOUS
10
168.7929499999999905
20
5.9783999999999997
11
168.7171500000000037
21
6.0404999999999998
0
LINE
8
User.Eco1
6
CONTINUOUS
10
168.7171500000000037
20
6.0404999999999998
11
168.6550499999999886
21
6.1162999999999998
0
LINE
8
User.Eco1
6
CONTINUOUS
10
168.6550499999999886
20
6.1162999999999998
11
168.6088499999999897
21
6.2027999999999999
0
LINE
8
User.Eco1
6
CONTINUOUS
10
168.6088499999999897
20
6.2027999999999999
11
168.5803499999999815
21
6.2965999999999998
0
LINE
8
User.Eco1
6
CONTINUOUS
10
168.5803499999999815
20
6.2965999999999998
11
168.5707500000000039
21
6.3940999999999999
0
LINE
8
User.Eco1
6
CONTINUOUS
10
168.5707500000000039
20
6.3940999999999999
11
168.5707500000000039
21
13.3440999999999992
0
LINE
8
User.Eco1
6
CONTINUOUS
10
168.5707500000000039
20
13.3440999999999992
11
168.5803499999999815
21
13.4415999999999993
0
LINE
8
User.Eco1
6
CONTINUOUS
10
168.5803499999999815
20
13.4415999999999993
11
168.6088499999999897
21
13.5353999999999992
0
LINE
8
User.Eco1
6
CONTINUOUS
10
168.6088499999999897
20
13.5353999999999992
11
168.6550499999999886
21
13.6219000000000001
0
LINE
8
User.Eco1
6
CONTINUOUS
10
168.6550499999999886
20
13.6219000000000001
11
168.7171500000000037
21
13.6976999999999993
0
LINE
8
User.Eco1
6
CONTINUOUS
10
168.7171500000000037
20
13.6976999999999993
11
168.7929499999999905
21
13.7598000000000003
0
LINE
8
User.Eco1
6
CONTINUOUS
10
168.7929499999999905
20
13.7598000000000003
11
168.8794499999999914
21
13.8059999999999992
0
LINE
8
User.Eco1
6
CONTINUOUS
10
168.8794499999999914
20
13.8059999999999992
11
168.9732499999999789
21
13.8345000000000002
0
LINE
8
User.Eco1
6
CONTINUOUS
10
168.9732499999999789
20
13.8345000000000002
11
169.0707500000000039
21
13.8440999999999992
0
LINE
8
User.Eco1
6
CONTINUOUS
10
169.0707500000000039
20
13.8440999999999992
11
169.2707499999999925
21
13.8440999999999992
0
LINE
8
User.Eco1
6
CONTINUOUS
10
169.2707499999999925
20
13.8440999999999992
11
169.2707499999999925
21
18.905899999999999
0
LINE
8
User.Eco1
6
CONTINUOUS
10
169.2707499999999925
20
18.905899999999999
11
169.2803499999999985
21
19.0033999999999992
0
LINE
8
User.Eco1
6
CONTINUOUS
10
169.2803499999999985
20
19.0033999999999992
11
169.3088499999999783
21
19.0972000000000008
0
LINE
8
User.Eco1
6
CONTINUOUS
10
169.3088499999999783
20
19.0972000000000008
11
169.3550500000000056
21
19.1836999999999982
0
LINE
8
User.Eco1
6
CONTINUOUS
10
169.3550500000000056
20
19.1836999999999982
11
169.4171499999999924
21
19.2594999999999992
0
LINE
8
User.Eco1
6
CONTINUOUS
10
169.4171499999999924
20
19.2594999999999992
11
169.4929499999999791
21
19.3216000000000001
0
LINE
8
User.Eco1
6
CONTINUOUS
10
169.4929499999999791
20
19.3216000000000001
11
169.57944999999998
21
19.367799999999999
0
LINE
8
User.Eco1
6
CONTINUOUS
10
169.57944999999998
20
19.367799999999999
11
169.6732499999999959
21
19.3963000000000001
0
LINE
8
User.Eco1
6
CONTINUOUS
10
169.6732499999999959
20
19.3963000000000001
11
169.7707499999999925
21
19.405899999999999
0
LINE
8
User.Eco1
6
CONTINUOUS
10
169.7707499999999925
20
19.405899999999999
11
173.3207500000000039
21
19.405899999999999
0
LINE
8
User.Eco1
6
CONTINUOUS
10
173.3207500000000039
20
19.405899999999999
11
173.4182500000000005
21
19.3963000000000001
0
LINE
8
User.Eco1
6
CONTINUOUS
10
285.7957499999999982
20
21.5749999999999993
11
271.7957499999999982
21
21.5749999999999993
0
LINE
8
User.Eco1
6
CONTINUOUS
10
271.7957499999999982
20
21.5749999999999993
11
271.7957499999999982
21
35.5749999999999957
0
LINE
8
User.Eco1
6
CONTINUOUS
10
271.7957499999999982
20
35.5749999999999957
11
285.7957499999999982
21
35.5749999999999957
0
LINE
8
User.Eco1
6
CONTINUOUS
10
285.7957499999999982
20
35.5749999999999957
11
285.7957499999999982
21
21.5749999999999993
0
LINE
8
User.Eco1
6
CONTINUOUS
10
269.3682499999999891
20
32.1963000000000008
11
269.4620499999999765
21
32.1677999999999997
0
LINE
8
User.Eco1
6
CONTINUOUS
10
269.4620499999999765
20
32.1677999999999997
11
269.5485499999999774
21
32.1216000000000008
0
LINE
8
User.Eco1
6
CONTINUOUS
10
269.5485499999999774
20
32.1216000000000008
11
269.6243499999999926
21
32.0594999999999999
0
LINE
8
User.Eco1
6
CONTINUOUS
10
269.6243499999999926
20
32.0594999999999999
11
269.6864499999999794
21
31.9836999999999989
0
LINE
8
User.Eco1
6
CONTINUOUS
10
269.6864499999999794
20
31.9836999999999989
11
269.7326499999999783
21
31.897199999999998
0
LINE
8
User.Eco1
6
CONTINUOUS
10
269.7326499999999783
20
31.897199999999998
11
269.7611499999999864
21
31.8033999999999999
0
LINE
8
User.Eco1
6
CONTINUOUS
10
269.7611499999999864
20
31.8033999999999999
11
269.7707499999999641
21
31.7058999999999997
0
LINE
8
User.Eco1
6
CONTINUOUS
10
269.7707499999999641
20
31.7058999999999997
11
269.7707499999999641
21
24.7559000000000005
0
LINE
8
User.Eco1
6
CONTINUOUS
10
269.7707499999999641
20
24.7559000000000005
11
269.7611499999999864
21
24.6584000000000003
0
LINE
8
User.Eco1
6
CONTINUOUS
10
269.7611499999999864
20
24.6584000000000003
11
269.7326499999999783
21
24.5645999999999987
0
LINE
8
User.Eco1
6
CONTINUOUS
10
269.7326499999999783
20
24.5645999999999987
11
269.6864499999999794
21
24.4780999999999977
0
LINE
8
User.Eco1
6
CONTINUOUS
10
269.6864499999999794
20
24.4780999999999977
11
269.6243499999999926
21
24.4023000000000003
0
LINE
8
User.Eco1
6
CONTINUOUS
10
269.6243499999999926
20
24.4023000000000003
11
269.5485499999999774
21
24.3401999999999994
0
LINE
8
User.Eco1
6
CONTINUOUS
10
269.5485499999999774
20
24.3401999999999994
11
269.4620499999999765
21
24.2940000000000005
0
LINE
8
User.Eco1
6
CONTINUOUS
10
269.4620499999999765
20
24.2940000000000005
11
269.3682499999999891
21
24.2654999999999994
0
LINE
8
User.Eco1
6
CONTINUOUS
10
269.3682499999999891
20
24.2654999999999994
11
269.2707499999999641
21
24.2559000000000005
0
LINE
8
User.Eco1
6
CONTINUOUS
10
269.2707499999999641
20
24.2559000000000005
11
269.0707499999999754
21
24.2559000000000005
0
LINE
8
User.Eco1
6
CONTINUOUS
10
269.0707499999999754
20
24.2559000000000005
11
269.0707499999999754
21
20.9940999999999995
0
LINE
8
User.Eco1
6
CONTINUOUS
10
269.0707499999999754
20
20.9940999999999995
11
288.5207499999999641
21
20.9940999999999995
0
LINE
8
User.Eco1
6
CONTINUOUS
10
288.5207499999999641
20
20.9940999999999995
11
288.5207499999999641
21
24.2559000000000005
0
LINE
8
User.Eco1
6
CONTINUOUS
10
288.5207499999999641
20
24.2559000000000005
11
288.3207499999999754
21
24.2559000000000005
0
LINE
8
User.Eco1
6
CONTINUOUS
10
288.3207499999999754
20
24.2559000000000005
11
288.2232500000000073
21
24.2654999999999994
0
LINE
8
User.Eco1
6
CONTINUOUS
10
288.2232500000000073
20
24.2654999999999994
11
288.129449999999963
21
24.2940000000000005
0
LINE
8
User.Eco1
6
CONTINUOUS
10
288.129449999999963
20
24.2940000000000005
11
288.0429499999999621
21
24.3401999999999994
0
LINE
8
User.Eco1
6
CONTINUOUS
10
288.0429499999999621
20
24.3401999999999994
11
287.9671500000000037
21
24.4023000000000003
0
LINE
8
User.Eco1
6
CONTINUOUS
10
287.9671500000000037
20
24.4023000000000003
11
287.9050499999999602
21
24.4780999999999977
0
LINE
8
User.Eco1
6
CONTINUOUS
10
287.9050499999999602
20
24.4780999999999977
11
287.8588499999999613
21
24.5645999999999987
0
LINE
8
User.Eco1
6
CONTINUOUS
10
287.8588499999999613
20
24.5645999999999987
11
287.8303500000000099
21
24.6584000000000003
0
LINE
8
User.Eco1
6
CONTINUOUS
10
287.8303500000000099
20
24.6584000000000003
11
287.8207499999999754
21
24.7559000000000005
0
LINE
8
User.Eco1
6
CONTINUOUS
10
287.8207499999999754
20
24.7559000000000005
11
287.8207499999999754
21
31.7058999999999997
0
LINE
8
User.Eco1
6
CONTINUOUS
10
287.8207499999999754
20
31.7058999999999997
11
287.8303500000000099
21
31.8033999999999999
0
LINE
8
User.Eco1
6
CONTINUOUS
10
287.8303500000000099
20
31.8033999999999999
11
287.8588499999999613
21
31.897199999999998
0
LINE
8
User.Eco1
6
CONTINUOUS
10
287.8588499999999613
20
31.897199999999998
11
287.9050499999999602
21
31.9836999999999989
0
LINE
8
User.Eco1
6
CONTINUOUS
10
287.9050499999999602
20
31.9836999999999989
11
287.9671500000000037
21
32.0594999999999999
0
LINE
8
User.Eco1
6
CONTINUOUS
10
287.9671500000000037
20
32.0594999999999999
11
288.0429499999999621
21
32.1216000000000008
0
LINE
8
User.Eco1
6
CONTINUOUS
10
288.0429499999999621
20
32.1216000000000008
11
288.129449999999963
21
32.1677999999999997
0
LINE
8
User.Eco1
6
CONTINUOUS
10
288.129449999999963
20
32.1677999999999997
11
288.2232500000000073
21
32.1963000000000008
0
LINE
8
User.Eco1
6
CONTINUOUS
10
288.2232500000000073
20
32.1963000000000008
11
288.3207499999999754
21
32.2058999999999997
0
LINE
8
User.Eco1
6
CONTINUOUS
10
288.3207499999999754
20
32.2058999999999997
11
293.2707499999999641
21
32.2058999999999997
0
LINE
8
User.Eco1
6
CONTINUOUS
10
293.2707499999999641
20
32.2058999999999997
11
293.3682499999999891
21
32.1963000000000008
0
LINE
8
User.Eco1
6
CONTINUOUS
10
293.3682499999999891
20
32.1963000000000008
11
293.4620499999999765
21
32.1677999999999997
0
LINE
8
User.Eco1
6
CONTINUOUS
10
293.4620499999999765
20
32.1677999999999997
11
293.5485499999999774
21
32.1216000000000008
0
LINE
8
User.Eco1
6
CONTINUOUS
10
293.5485499999999774
20
32.1216000000000008
11
293.6243499999999926
21
32.0594999999999999
0
LINE
8
User.Eco1
6
CONTINUOUS
10
293.6243499999999926
20
32.0594999999999999
11
293.6864499999999794
21
31.9836999999999989
0
LINE
8
User.Eco1
6
CONTINUOUS
10
293.6864499999999794
20
31.9836999999999989
11
293.7326499999999783
21
31.897199999999998
0
LINE
8
User.Eco1
6
CONTINUOUS
10
293.7326499999999783
20
31.897199999999998
11
293.7611499999999864
21
31.8033999999999999
0
LINE
8
User.Eco1
6
CONTINUOUS
10
293.7611499999999864
20
31.8033999999999999
11
293.7707499999999641
21
31.7058999999999997
0
LINE
8
User.Eco1
6
CONTINUOUS
10
293.7707499999999641
20
31.7058999999999997
11
293.7707499999999641
21
24.7559000000000005
0
LINE
8
User.Eco1
6
CONTINUOUS
10
293.7707499999999641
20
24.7559000000000005
11
293.7611499999999864
21
24.6584000000000003
0
LINE
8
User.Eco1
6
CONTINUOUS
10
293.7611499999999864
20
24.6584000000000003
11
293.7326499999999783
21
24.5645999999999987
0
LINE
8
User.Eco1
6
CONTINUOUS
10
293.7326499999999783
20
24.5645999999999987
11
293.6864499999999794
21
24.4780999999999977
0
LINE
8
User.Eco1
6
CONTINUOUS
10
293.6864499999999794
20
24.4780999999999977
11
293.6243499999999926
21
24.4023000000000003
0
LINE
8
User.Eco1
6
CONTINUOUS
10
293.6243499999999926
20
24.4023000000000003
11
293.5485499999999774
21
24.3401999999999994
0
LINE
8
User.Eco1
6
CONTINUOUS
10
293.5485499999999774
20
24.3401999999999994
11
293.4620499999999765
21
24.2940000000000005
0
LINE
8
User.Eco1
6
CONTINUOUS
10
293.4620499999999765
20
24.2940000000000005
11
293.3682499999999891
21
24.2654999999999994
0
LINE
8
User.Eco1
6
CONTINUOUS
10
293.3682499999999891
20
24.2654999999999994
11
293.2707499999999641
21
24.2559000000000005
0
LINE
8
User.Eco1
6
CONTINUOUS
10
293.2707499999999641
20
24.2559000000000005
11
293.0707499999999754
21
24.2559000000000005
0
LINE
8
User.Eco1
6
CONTINUOUS
10
293.0707499999999754
20
24.2559000000000005
11
293.0707499999999754
21
19.1940999999999988
0
LINE
8
User.Eco1
6
CONTINUOUS
10
293.0707499999999754
20
19.1940999999999988
11
293.0611499999999978
21
19.0965999999999987
0
LINE
8
User.Eco1
6
CONTINUOUS
10
293.0611499999999978
20
19.0965999999999987
11
293.0326499999999896
21
19.0028000000000006
0
LINE
8
User.Eco1
6
CONTINUOUS
10
293.0326499999999896
20
19.0028000000000006
11
292.9864499999999907
21
18.9162999999999997
0
LINE
8
User.Eco1
6
CONTINUOUS
10
292.9864499999999907
20
18.9162999999999997
11
292.924350000000004
21
18.8404999999999987
0
LINE
8
User.Eco1
6
CONTINUOUS
10
292.924350000000004
20
18.8404999999999987
11
292.8485499999999888
21
18.7783999999999978
0
LINE
8
User.Eco1
6
CONTINUOUS
10
292.8485499999999888
20
18.7783999999999978
11
292.7620499999999879
21
18.7321999999999989
0
LINE
8
User.Eco1
6
CONTINUOUS
10
292.7620499999999879
20
18.7321999999999989
11
292.6682500000000005
21
18.7036999999999978
0
LINE
8
User.Eco1
6
CONTINUOUS
10
292.6682500000000005
20
18.7036999999999978
11
292.5707499999999754
21
18.6940999999999988
0
LINE
8
User.Eco1
6
CONTINUOUS
10
292.5707499999999754
20
18.6940999999999988
11
289.0207499999999641
21
18.6940999999999988
0
LINE
8
User.Eco1
6
CONTINUOUS
10
289.0207499999999641
20
18.6940999999999988
11
288.9232499999999959
21
18.7036999999999978
0
LINE
8
User.Eco1
6
CONTINUOUS
10
288.9232499999999959
20
18.7036999999999978
11
288.8294500000000085
21
18.7321999999999989
0
LINE
8
User.Eco1
6
CONTINUOUS
10
288.8294500000000085
20
18.7321999999999989
11
288.7429500000000075
21
18.7783999999999978
0
LINE
8
User.Eco1
6
CONTINUOUS
10
288.7429500000000075
20
18.7783999999999978
11
288.6671499999999924
21
18.8404999999999987
0
LINE
8
User.Eco1
6
CONTINUOUS
10
288.6671499999999924
20
18.8404999999999987
11
288.6050500000000056
21
18.9162999999999997
0
LINE
8
User.Eco1
6
CONTINUOUS
10
288.6050500000000056
20
18.9162999999999997
11
288.5588500000000067
21
19.0028000000000006
0
LINE
8
User.Eco1
6
CONTINUOUS
10
288.5588500000000067
20
19.0028000000000006
11
288.5303499999999985
21
19.0965999999999987
0
LINE
8
User.Eco1
6
CONTINUOUS
10
288.5303499999999985
20
19.0965999999999987
11
288.5207499999999641
21
19.1940999999999988
0
LINE
8
User.Eco1
6
CONTINUOUS
10
288.5207499999999641
20
19.1940999999999988
11
288.5207499999999641
21
19.5940999999999974
0
LINE
8
User.Eco1
6
CONTINUOUS
10
288.5207499999999641
20
19.5940999999999974
11
269.0707499999999754
21
19.5940999999999974
0
LINE
8
User.Eco1
6
CONTINUOUS
10
269.0707499999999754
20
19.5940999999999974
11
269.0707499999999754
21
19.1940999999999988
0
LINE
8
User.Eco1
6
CONTINUOUS
10
269.0707499999999754
20
19.1940999999999988
11
269.0611499999999978
21
19.0965999999999987
0
LINE
8
User.Eco1
6
CONTINUOUS
10
269.0611499999999978
20
19.0965999999999987
11
269.0326499999999896
21
19.0028000000000006
0
LINE
8
User.Eco1
6
CONTINUOUS
10
269.0326499999999896
20
19.0028000000000006
11
268.9864499999999907
21
18.9162999999999997
0
LINE
8
User.Eco1
6
CONTINUOUS
10
268.9864499999999907
20
18.9162999999999997
11
268.924350000000004
21
18.8404999999999987
0
LINE
8
User.Eco1
6
CONTINUOUS
10
268.924350000000004
20
18.8404999999999987
11
268.8485499999999888
21
18.7783999999999978
0
LINE
8
User.Eco1
6
CONTINUOUS
10
268.8485499999999888
20
18.7783999999999978
11
268.7620499999999879
21
18.7321999999999989
0
LINE
8
User.Eco1
6
CONTINUOUS
10
268.7620499999999879
20
18.7321999999999989
11
268.6682500000000005
21
18.7036999999999978
0
LINE
8
User.Eco1
6
CONTINUOUS
10
268.6682500000000005
20
18.7036999999999978
11
268.5707499999999754
21
18.6940999999999988
0
LINE
8
User.Eco1
6
CONTINUOUS
10
268.5707499999999754
20
18.6940999999999988
11
265.0207499999999641
21
18.6940999999999988
0
LINE
8
User.Eco1
6
CONTINUOUS
10
265.0207499999999641
20
18.6940999999999988
11
264.9232499999999959
21
18.7036999999999978
0
LINE
8
User.Eco1
6
CONTINUOUS
10
264.9232499999999959
20
18.7036999999999978
11
264.8294500000000085
21
18.7321999999999989
0
LINE
8
User.Eco1
6
CONTINUOUS
10
264.8294500000000085
20
18.7321999999999989
11
264.7429500000000075
21
18.7783999999999978
0
LINE
8
User.Eco1
6
CONTINUOUS
10
264.7429500000000075
20
18.7783999999999978
11
264.6671499999999924
21
18.8404999999999987
0
LINE
8
User.Eco1
6
CONTINUOUS
10
264.6671499999999924
20
18.8404999999999987
11
264.6050500000000056
21
18.9162999999999997
0
LINE
8
User.Eco1
6
CONTINUOUS
10
264.6050500000000056
20
18.9162999999999997
11
264.5588500000000067
21
19.0028000000000006
0
LINE
8
User.Eco1
6
CONTINUOUS
10
264.5588500000000067
20
19.0028000000000006
11
264.5303499999999985
21
19.0965999999999987
0
LINE
8
User.Eco1
6
CONTINUOUS
10
264.5303499999999985
20
19.0965999999999987
11
264.5207499999999641
21
19.1940999999999988
0
LINE
8
User.Eco1
6
CONTINUOUS
10
264.5207499999999641
20
19.1940999999999988
11
264.5207499999999641
21
24.2559000000000005
0
LINE
8
User.Eco1
6
CONTINUOUS
10
264.5207499999999641
20
24.2559000000000005
11
264.3207499999999754
21
24.2559000000000005
0
LINE
8
User.Eco1
6
CONTINUOUS
10
264.3207499999999754
20
24.2559000000000005
11
264.2232500000000073
21
24.2654999999999994
0
LINE
8
User.Eco1
6
CONTINUOUS
10
264.2232500000000073
20
24.2654999999999994
11
264.129449999999963
21
24.2940000000000005
0
LINE
8
User.Eco1
6
CONTINUOUS
10
264.129449999999963
20
24.2940000000000005
11
264.0429499999999621
21
24.3401999999999994
0
LINE
8
User.Eco1
6
CONTINUOUS
10
264.0429499999999621
20
24.3401999999999994
11
263.9671500000000037
21
24.4023000000000003
0
LINE
8
User.Eco1
6
CONTINUOUS
10
263.9671500000000037
20
24.4023000000000003
11
263.9050499999999602
21
24.4780999999999977
0
LINE
8
User.Eco1
6
CONTINUOUS
10
263.9050499999999602
20
24.4780999999999977
11
263.8588499999999613
21
24.5645999999999987
0
LINE
8
User.Eco1
6
CONTINUOUS
10
263.8588499999999613
20
24.5645999999999987
11
263.8303500000000099
21
24.6584000000000003
0
LINE
8
User.Eco1
6
CONTINUOUS
10
263.8303500000000099
20
24.6584000000000003
11
263.8207499999999754
21
24.7559000000000005
0
LINE
8
User.Eco1
6
CONTINUOUS
10
263.8207499999999754
20
24.7559000000000005
11
263.8207499999999754
21
31.7058999999999997
0
LINE
8
User.Eco1
6
CONTINUOUS
10
263.8207499999999754
20
31.7058999999999997
11
263.8303500000000099
21
31.8033999999999999
0
LINE
8
User.Eco1
6
CONTINUOUS
10
263.8303500000000099
20
31.8033999999999999
11
263.8588499999999613
21
31.897199999999998
0
LINE
8
User.Eco1
6
CONTINUOUS
10
263.8588499999999613
20
31.897199999999998
11
263.9050499999999602
21
31.9836999999999989
0
LINE
8
User.Eco1
6
CONTINUOUS
10
263.9050499999999602
20
31.9836999999999989
11
263.9671500000000037
21
32.0594999999999999
0
LINE
8
User.Eco1
6
CONTINUOUS
10
263.9671500000000037
20
32.0594999999999999
11
264.0429499999999621
21
32.1216000000000008
0
LINE
8
User.Eco1
6
CONTINUOUS
10
264.0429499999999621
20
32.1216000000000008
11
264.129449999999963
21
32.1677999999999997
0
LINE
8
User.Eco1
6
CONTINUOUS
10
264.129449999999963
20
32.1677999999999997
11
264.2232500000000073
21
32.1963000000000008
0
LINE
8
User.Eco1
6
CONTINUOUS
10
264.2232500000000073
20
32.1963000000000008
11
264.3207499999999754
21
32.2058999999999997
0
LINE
8
User.Eco1
6
CONTINUOUS
10
264.3207499999999754
20
32.2058999999999997
11
269.2707499999999641
21
32.2058999999999997
0
LINE
8
User.Eco1
6
CONTINUOUS
10
269.2707499999999641
20
32.2058999999999997
11
269.3682499999999891
21
32.1963000000000008
0
LINE
8
User.Eco1
6
CONTINUOUS
10
216.7394999999999925
20
59.6749999999999972
11
202.7394999999999925
21
59.6749999999999972
0
LINE
8
User.Eco1
6
CONTINUOUS
10
202.7394999999999925
20
59.6749999999999972
11
202.7394999999999925
21
73.6749999999999972
0
LINE
8
User.Eco1
6
CONTINUOUS
10
202.7394999999999925
20
73.6749999999999972
11
216.7394999999999925
21
73.6749999999999972
0
LINE
8
User.Eco1
6
CONTINUOUS
10
216.7394999999999925
20
73.6749999999999972
11
216.7394999999999925
21
59.6749999999999972
0
LINE
8
User.Eco1
6
CONTINUOUS
10
254.8394999999999868
20
59.6749999999999972
11
240.8394999999999868
21
59.6749999999999972
0
LINE
8
User.Eco1
6
CONTINUOUS
10
240.8394999999999868
20
59.6749999999999972
11
240.8394999999999868
21
73.6749999999999972
0
LINE
8
User.Eco1
6
CONTINUOUS
10
240.8394999999999868
20
73.6749999999999972
11
254.8394999999999868
21
73.6749999999999972
0
LINE
8
User.Eco1
6
CONTINUOUS
10
254.8394999999999868
20
73.6749999999999972
11
254.8394999999999868
21
59.6749999999999972
0
LINE
8
User.Eco1
6
CONTINUOUS
10
207.2144999999999868
20
78.7249999999999943
11
193.2144999999999868
21
78.7249999999999943
0
LINE
8
User.Eco1
6
CONTINUOUS
10
193.2144999999999868
20
78.7249999999999943
11
193.2144999999999868
21
92.7249999999999943
0
LINE
8
User.Eco1
6
CONTINUOUS
10
193.2144999999999868
20
92.7249999999999943
11
207.2144999999999868
21
92.7249999999999943
0
LINE
8
User.Eco1
6
CONTINUOUS
10
207.2144999999999868
20
92.7249999999999943
11
207.2144999999999868
21
78.7249999999999943
0
LINE
8
User.Eco1
6
CONTINUOUS
10
264.3644999999999641
20
78.7249999999999943
11
250.3644999999999925
21
78.7249999999999943
0
LINE
8
User.Eco1
6
CONTINUOUS
10
250.3644999999999925
20
78.7249999999999943
11
250.3644999999999925
21
92.7249999999999943
0
LINE
8
User.Eco1
6
CONTINUOUS
10
250.3644999999999925
20
92.7249999999999943
11
264.3644999999999641
21
92.7249999999999943
0
LINE
8
User.Eco1
6
CONTINUOUS
10
264.3644999999999641
20
92.7249999999999943
11
264.3644999999999641
21
78.7249999999999943
0
LINE
8
User.Eco1
6
CONTINUOUS
10
245.3144999999999811
20
78.7249999999999943
11
231.3144999999999811
21
78.7249999999999943
0
LINE
8
User.Eco1
6
CONTINUOUS
10
231.3144999999999811
20
78.7249999999999943
11
231.3144999999999811
21
92.7249999999999943
0
LINE
8
User.Eco1
6
CONTINUOUS
10
231.3144999999999811
20
92.7249999999999943
11
245.3144999999999811
21
92.7249999999999943
0
LINE
8
User.Eco1
6
CONTINUOUS
10
245.3144999999999811
20
92.7249999999999943
11
245.3144999999999811
21
78.7249999999999943
0
LINE
8
User.Eco1
6
CONTINUOUS
10
178.6394999999999982
20
59.6749999999999972
11
164.6394999999999982
21
59.6749999999999972
0
LINE
8
User.Eco1
6
CONTINUOUS
10
164.6394999999999982
20
59.6749999999999972
11
164.6394999999999982
21
73.6749999999999972
0
LINE
8
User.Eco1
6
CONTINUOUS
10
164.6394999999999982
20
73.6749999999999972
11
178.6394999999999982
21
73.6749999999999972
0
LINE
8
User.Eco1
6
CONTINUOUS
10
178.6394999999999982
20
73.6749999999999972
11
178.6394999999999982
21
59.6749999999999972
0
LINE
8
User.Eco1
6
CONTINUOUS
10
197.6894999999999811
20
59.6749999999999972
11
183.6894999999999811
21
59.6749999999999972
0
LINE
8
User.Eco1
6
CONTINUOUS
10
183.6894999999999811
20
59.6749999999999972
11
183.6894999999999811
21
73.6749999999999972
0
LINE
8
User.Eco1
6
CONTINUOUS
10
183.6894999999999811
20
73.6749999999999972
11
197.6894999999999811
21
73.6749999999999972
0
LINE
8
User.Eco1
6
CONTINUOUS
10
197.6894999999999811
20
73.6749999999999972
11
197.6894999999999811
21
59.6749999999999972
0
LINE
8
User.Eco1
6
CONTINUOUS
10
276.2707499999999641
20
2.5249999999999999
11
262.2707499999999641
21
2.5249999999999999
0
LINE
8
User.Eco1
6
CONTINUOUS
10
262.2707499999999641
20
2.5249999999999999
11
262.2707499999999641
21
16.5249999999999986
0
LINE
8
User.Eco1
6
CONTINUOUS
10
262.2707499999999641
20
16.5249999999999986
11
276.2707499999999641
21
16.5249999999999986
0
LINE
8
User.Eco1
6
CONTINUOUS
10
276.2707499999999641
20
16.5249999999999986
11
276.2707499999999641
21
2.5249999999999999
0
LINE
8
User.Eco1
6
CONTINUOUS
10
192.9269999999999925
20
21.5749999999999993
11
178.9269999999999925
21
21.5749999999999993
0
LINE
8
User.Eco1
6
CONTINUOUS
10
178.9269999999999925
20
21.5749999999999993
11
178.9269999999999925
21
35.5749999999999957
0
LINE
8
User.Eco1
6
CONTINUOUS
10
178.9269999999999925
20
35.5749999999999957
11
192.9269999999999925
21
35.5749999999999957
0
LINE
8
User.Eco1
6
CONTINUOUS
10
192.9269999999999925
20
35.5749999999999957
11
192.9269999999999925
21
21.5749999999999993
0
LINE
8
User.Eco1
6
CONTINUOUS
10
250.0769999999999982
20
21.5749999999999993
11
236.0769999999999982
21
21.5749999999999993
0
LINE
8
User.Eco1
6
CONTINUOUS
10
236.0769999999999982
20
21.5749999999999993
11
236.0769999999999982
21
35.5749999999999957
0
LINE
8
User.Eco1
6
CONTINUOUS
10
236.0769999999999982
20
35.5749999999999957
11
250.0769999999999982
21
35.5749999999999957
0
LINE
8
User.Eco1
6
CONTINUOUS
10
250.0769999999999982
20
35.5749999999999957
11
250.0769999999999982
21
21.5749999999999993
0
LINE
8
User.Eco1
6
CONTINUOUS
10
164.3520000000000039
20
40.625
11
150.3520000000000039
21
40.625
0
LINE
8
User.Eco1
6
CONTINUOUS
10
150.3520000000000039
20
40.625
11
150.3520000000000039
21
54.625
0
LINE
8
User.Eco1
6
CONTINUOUS
10
150.3520000000000039
20
54.625
11
164.3520000000000039
21
54.625
0
LINE
8
User.Eco1
6
CONTINUOUS
10
164.3520000000000039
20
54.625
11
164.3520000000000039
21
40.625
0
LINE
8
User.Eco1
6
CONTINUOUS
10
259.6019999999999754
20
40.625
11
245.6019999999999754
21
40.625
0
LINE
8
User.Eco1
6
CONTINUOUS
10
245.6019999999999754
20
40.625
11
245.6019999999999754
21
54.625
0
LINE
8
User.Eco1
6
CONTINUOUS
10
245.6019999999999754
20
54.625
11
259.6019999999999754
21
54.625
0
LINE
8
User.Eco1
6
CONTINUOUS
10
259.6019999999999754
20
54.625
11
259.6019999999999754
21
40.625
0
LINE
8
User.Eco1
6
CONTINUOUS
10
173.8769999999999811
20
21.5749999999999993
11
159.8769999999999811
21
21.5749999999999993
0
LINE
8
User.Eco1
6
CONTINUOUS
10
159.8769999999999811
20
21.5749999999999993
11
159.8769999999999811
21
35.5749999999999957
0
LINE
8
User.Eco1
6
CONTINUOUS
10
159.8769999999999811
20
35.5749999999999957
11
173.8769999999999811
21
35.5749999999999957
0
LINE
8
User.Eco1
6
CONTINUOUS
10
173.8769999999999811
20
35.5749999999999957
11
173.8769999999999811
21
21.5749999999999993
0
LINE
8
User.Eco1
6
CONTINUOUS
10
221.5019999999999811
20
40.625
11
207.5019999999999811
21
40.625
0
LINE
8
User.Eco1
6
CONTINUOUS
10
207.5019999999999811
20
40.625
11
207.5019999999999811
21
54.625
0
LINE
8
User.Eco1
6
CONTINUOUS
10
207.5019999999999811
20
54.625
11
221.5019999999999811
21
54.625
0
LINE
8
User.Eco1
6
CONTINUOUS
10
221.5019999999999811
20
54.625
11
221.5019999999999811
21
40.625
0
LINE
8
User.Eco1
6
CONTINUOUS
10
231.0269999999999868
20
21.5749999999999993
11
217.0269999999999868
21
21.5749999999999993
0
LINE
8
User.Eco1
6
CONTINUOUS
10
217.0269999999999868
20
21.5749999999999993
11
217.0269999999999868
21
35.5749999999999957
0
LINE
8
User.Eco1
6
CONTINUOUS
10
217.0269999999999868
20
35.5749999999999957
11
231.0269999999999868
21
35.5749999999999957
0
LINE
8
User.Eco1
6
CONTINUOUS
10
231.0269999999999868
20
35.5749999999999957
11
231.0269999999999868
21
21.5749999999999993
0
LINE
8
User.Eco1
6
CONTINUOUS
10
300.0832499999999641
20
2.5249999999999999
11
286.0832499999999641
21
2.5249999999999999
0
LINE
8
User.Eco1
6
CONTINUOUS
10
286.0832499999999641
20
2.5249999999999999
11
286.0832499999999641
21
16.5249999999999986
0
LINE
8
User.Eco1
6
CONTINUOUS
10
286.0832499999999641
20
16.5249999999999986
11
300.0832499999999641
21
16.5249999999999986
0
LINE
8
User.Eco1
6
CONTINUOUS
10
300.0832499999999641
20
16.5249999999999986
11
300.0832499999999641
21
2.5249999999999999
0
LINE
8
User.Eco1
6
CONTINUOUS
10
290.5582499999999868
20
40.625
11
276.5582499999999868
21
40.625
0
LINE
8
User.Eco1
6
CONTINUOUS
10
276.5582499999999868
20
40.625
11
276.5582499999999868
21
54.625
0
LINE
8
User.Eco1
6
CONTINUOUS
10
276.5582499999999868
20
54.625
11
290.5582499999999868
21
54.625
0
LINE
8
User.Eco1
6
CONTINUOUS
10
290.5582499999999868
20
54.625
11
290.5582499999999868
21
40.625
0
LINE
8
User.Eco1
6
CONTINUOUS
10
274.1307499999999777
20
51.246299999999998
11
274.2245499999999652
21
51.2177999999999969
0
LINE
8
User.Eco1
6
CONTINUOUS
10
274.2245499999999652
20
51.2177999999999969
11
274.3110499999999661
21
51.171599999999998
0
LINE
8
User.Eco1
6
CONTINUOUS
10
274.3110499999999661
20
51.171599999999998
11
274.3868499999999813
21
51.109499999999997
0
LINE
8
User.Eco1
6
CONTINUOUS
10
274.3868499999999813
20
51.109499999999997
11
274.448949999999968
21
51.0336999999999961
0
LINE
8
User.Eco1
6
CONTINUOUS
10
274.448949999999968
20
51.0336999999999961
11
274.4951499999999669
21
50.9471999999999952
0
LINE
8
User.Eco1
6
CONTINUOUS
10
274.4951499999999669
20
50.9471999999999952
11
274.5236499999999751
21
50.8534000000000006
0
LINE
8
User.Eco1
6
CONTINUOUS
10
274.5236499999999751
20
50.8534000000000006
11
274.5332500000000095
21
50.7558999999999969
0
LINE
8
User.Eco1
6
CONTINUOUS
10
274.5332500000000095
20
50.7558999999999969
11
274.5332500000000095
21
43.8059000000000012
0
LINE
8
User.Eco1
6
CONTINUOUS
10
274.5332500000000095
20
43.8059000000000012
11
274.5236499999999751
21
43.7083999999999975
0
LINE
8
User.Eco1
6
CONTINUOUS
10
274.5236499999999751
20
43.7083999999999975
11
274.4951499999999669
21
43.6145999999999958
0
LINE
8
User.Eco1
6
CONTINUOUS
10
274.4951499999999669
20
43.6145999999999958
11
274.448949999999968
21
43.5280999999999949
0
LINE
8
User.Eco1
6
CONTINUOUS
10
274.448949999999968
20
43.5280999999999949
11
274.3868499999999813
21
43.452300000000001
0
LINE
8
User.Eco1
6
CONTINUOUS
10
274.3868499999999813
20
43.452300000000001
11
274.3110499999999661
21
43.3902000000000001
0
LINE
8
User.Eco1
6
CONTINUOUS
10
274.3110499999999661
20
43.3902000000000001
11
274.2245499999999652
21
43.3440000000000012
0
LINE
8
User.Eco1
6
CONTINUOUS
10
274.2245499999999652
20
43.3440000000000012
11
274.1307499999999777
21
43.3155000000000001
0
LINE
8
User.Eco1
6
CONTINUOUS
10
274.1307499999999777
20
43.3155000000000001
11
274.0332500000000095
21
43.3059000000000012
0
LINE
8
User.Eco1
6
CONTINUOUS
10
274.0332500000000095
20
43.3059000000000012
11
273.8332499999999641
21
43.3059000000000012
0
LINE
8
User.Eco1
6
CONTINUOUS
10
273.8332499999999641
20
43.3059000000000012
11
273.8332499999999641
21
40.0441000000000003
0
LINE
8
User.Eco1
6
CONTINUOUS
10
273.8332499999999641
20
40.0441000000000003
11
293.2832500000000095
21
40.0441000000000003
0
LINE
8
User.Eco1
6
CONTINUOUS
10
293.2832500000000095
20
40.0441000000000003
11
293.2832500000000095
21
43.3059000000000012
0
LINE
8
User.Eco1
6
CONTINUOUS
10
293.2832500000000095
20
43.3059000000000012
11
293.0832499999999641
21
43.3059000000000012
0
LINE
8
User.Eco1
6
CONTINUOUS
10
293.0832499999999641
20
43.3059000000000012
11
292.9857499999999959
21
43.3155000000000001
0
LINE
8
User.Eco1
6
CONTINUOUS
10
292.9857499999999959
20
43.3155000000000001
11
292.8919500000000085
21
43.3440000000000012
0
LINE
8
User.Eco1
6
CONTINUOUS
10
292.8919500000000085
20
43.3440000000000012
11
292.8054500000000075
21
43.3902000000000001
0
LINE
8
User.Eco1
6
CONTINUOUS
10
292.8054500000000075
20
43.3902000000000001
11
292.7296499999999924
21
43.452300000000001
0
LINE
8
User.Eco1
6
CONTINUOUS
10
292.7296499999999924
20
43.452300000000001
11
292.6675500000000056
21
43.5280999999999949
0
LINE
8
User.Eco1
6
CONTINUOUS
10
292.6675500000000056
20
43.5280999999999949
11
292.6213500000000067
21
43.6145999999999958
0
LINE
8
User.Eco1
6
CONTINUOUS
10
292.6213500000000067
20
43.6145999999999958
11
292.5928499999999985
21
43.7083999999999975
0
LINE
8
User.Eco1
6
CONTINUOUS
10
292.5928499999999985
20
43.7083999999999975
11
292.5832499999999641
21
43.8059000000000012
0
LINE
8
User.Eco1
6
CONTINUOUS
10
292.5832499999999641
20
43.8059000000000012
11
292.5832499999999641
21
50.7558999999999969
0
LINE
8
User.Eco1
6
CONTINUOUS
10
292.5832499999999641
20
50.7558999999999969
11
292.5928499999999985
21
50.8534000000000006
0
LINE
8
User.Eco1
6
CONTINUOUS
10
292.5928499999999985
20
50.8534000000000006
11
292.6213500000000067
21
50.9471999999999952
0
LINE
8
User.Eco1
6
CONTINUOUS
10
292.6213500000000067
20
50.9471999999999952
11
292.6675500000000056
21
51.0336999999999961
0
LINE
8
User.Eco1
6
CONTINUOUS
10
292.6675500000000056
20
51.0336999999999961
11
292.7296499999999924
21
51.109499999999997
0
LINE
8
User.Eco1
6
CONTINUOUS
10
292.7296499999999924
20
51.109499999999997
11
292.8054500000000075
21
51.171599999999998
0
LINE
8
User.Eco1
6
CONTINUOUS
10
292.8054500000000075
20
51.171599999999998
11
292.8919500000000085
21
51.2177999999999969
0
LINE
8
User.Eco1
6
CONTINUOUS
10
292.8919500000000085
20
51.2177999999999969
11
292.9857499999999959
21
51.246299999999998
0
LINE
8
User.Eco1
6
CONTINUOUS
10
292.9857499999999959
20
51.246299999999998
11
293.0832499999999641
21
51.2558999999999969
0
LINE
8
User.Eco1
6
CONTINUOUS
10
293.0832499999999641
20
51.2558999999999969
11
298.0332500000000095
21
51.2558999999999969
0
LINE
8
User.Eco1
6
CONTINUOUS
10
298.0332500000000095
20
51.2558999999999969
11
298.1307499999999777
21
51.246299999999998
0
LINE
8
User.Eco1
6
CONTINUOUS
10
298.1307499999999777
20
51.246299999999998
11
298.2245499999999652
21
51.2177999999999969
0
LINE
8
User.Eco1
6
CONTINUOUS
10
298.2245499999999652
20
51.2177999999999969
11
298.3110499999999661
21
51.171599999999998
0
LINE
8
User.Eco1
6
CONTINUOUS
10
298.3110499999999661
20
51.171599999999998
11
298.3868499999999813
21
51.109499999999997
0
LINE
8
User.Eco1
6
CONTINUOUS
10
298.3868499999999813
20
51.109499999999997
11
298.448949999999968
21
51.0336999999999961
0
LINE
8
User.Eco1
6
CONTINUOUS
10
298.448949999999968
20
51.0336999999999961
11
298.4951499999999669
21
50.9471999999999952
0
LINE
8
User.Eco1
6
CONTINUOUS
10
298.4951499999999669
20
50.9471999999999952
11
298.5236499999999751
21
50.8534000000000006
0
LINE
8
User.Eco1
6
CONTINUOUS
10
298.5236499999999751
20
50.8534000000000006
11
298.5332500000000095
21
50.7558999999999969
0
LINE
8
User.Eco1
6
CONTINUOUS
10
298.5332500000000095
20
50.7558999999999969
11
298.5332500000000095
21
43.8059000000000012
0
LINE
8
User.Eco1
6
CONTINUOUS
10
298.5332500000000095
20
43.8059000000000012
11
298.5236499999999751
21
43.7083999999999975
0
LINE
8
User.Eco1
6
CONTINUOUS
10
298.5236499999999751
20
43.7083999999999975
11
298.4951499999999669
21
43.6145999999999958
0
LINE
8
User.Eco1
6
CONTINUOUS
10
298.4951499999999669
20
43.6145999999999958
11
298.448949999999968
21
43.5280999999999949
0
LINE
8
User.Eco1
6
CONTINUOUS
10
298.448949999999968
20
43.5280999999999949
11
298.3868499999999813
21
43.452300000000001
0
LINE
8
User.Eco1
6
CONTINUOUS
10
298.3868499999999813
20
43.452300000000001
11
298.3110499999999661
21
43.3902000000000001
0
LINE
8
User.Eco1
6
CONTINUOUS
10
298.3110499999999661
20
43.3902000000000001
11
298.2245499999999652
21
43.3440000000000012
0
LINE
8
User.Eco1
6
CONTINUOUS
10
298.2245499999999652
20
43.3440000000000012
11
298.1307499999999777
21
43.3155000000000001
0
LINE
8
User.Eco1
6
CONTINUOUS
10
298.1307499999999777
20
43.3155000000000001
11
298.0332500000000095
21
43.3059000000000012
0
LINE
8
User.Eco1
6
CONTINUOUS
10
298.0332500000000095
20
43.3059000000000012
11
297.8332499999999641
21
43.3059000000000012
0
LINE
8
User.Eco1
6
CONTINUOUS
10
297.8332499999999641
20
43.3059000000000012
11
297.8332499999999641
21
38.244099999999996
0
LINE
8
User.Eco1
6
CONTINUOUS
10
297.8332499999999641
20
38.244099999999996
11
297.8236499999999864
21
38.1465999999999994
0
LINE
8
User.Eco1
6
CONTINUOUS
10
297.8236499999999864
20
38.1465999999999994
11
297.7951499999999783
21
38.0527999999999977
0
LINE
8
User.Eco1
6
CONTINUOUS
10
297.7951499999999783
20
38.0527999999999977
11
297.7489499999999794
21
37.9662999999999968
0
LINE
8
User.Eco1
6
CONTINUOUS
10
297.7489499999999794
20
37.9662999999999968
11
297.6868499999999926
21
37.8904999999999959
0
LINE
8
User.Eco1
6
CONTINUOUS
10
297.6868499999999926
20
37.8904999999999959
11
297.6110499999999774
21
37.8283999999999949
0
LINE
8
User.Eco1
6
CONTINUOUS
10
297.6110499999999774
20
37.8283999999999949
11
297.5245499999999765
21
37.782199999999996
0
LINE
8
User.Eco1
6
CONTINUOUS
10
297.5245499999999765
20
37.782199999999996
11
297.4307499999999891
21
37.7536999999999949
0
LINE
8
User.Eco1
6
CONTINUOUS
10
297.4307499999999891
20
37.7536999999999949
11
297.3332499999999641
21
37.744099999999996
0
LINE
8
User.Eco1
6
CONTINUOUS
10
297.3332499999999641
20
37.744099999999996
11
293.7832500000000095
21
37.744099999999996
0
LINE
8
User.Eco1
6
CONTINUOUS
10
293.7832500000000095
20
37.744099999999996
11
293.6857499999999845
21
37.7536999999999949
0
LINE
8
User.Eco1
6
CONTINUOUS
10
293.6857499999999845
20
37.7536999999999949
11
293.5919499999999971
21
37.782199999999996
0
LINE
8
User.Eco1
6
CONTINUOUS
10
293.5919499999999971
20
37.782199999999996
11
293.5054499999999962
21
37.8283999999999949
0
LINE
8
User.Eco1
6
CONTINUOUS
10
293.5054499999999962
20
37.8283999999999949
11
293.429649999999981
21
37.8904999999999959
0
LINE
8
User.Eco1
6
CONTINUOUS
10
293.429649999999981
20
37.8904999999999959
11
293.3675499999999943
21
37.9662999999999968
0
LINE
8
User.Eco1
6
CONTINUOUS
10
293.3675499999999943
20
37.9662999999999968
11
293.3213499999999954
21
38.0527999999999977
0
LINE
8
User.Eco1
6
CONTINUOUS
10
293.3213499999999954
20
38.0527999999999977
11
293.2928499999999872
21
38.1465999999999994
0
LINE
8
User.Eco1
6
CONTINUOUS
10
293.2928499999999872
20
38.1465999999999994
11
293.2832500000000095
21
38.244099999999996
0
LINE
8
User.Eco1
6
CONTINUOUS
10
293.2832500000000095
20
38.244099999999996
11
293.2832500000000095
21
38.6441000000000017
0
LINE
8
User.Eco1
6
CONTINUOUS
10
293.2832500000000095
20
38.6441000000000017
11
273.8332499999999641
21
38.6441000000000017
0
LINE
8
User.Eco1
6
CONTINUOUS
10
273.8332499999999641
20
38.6441000000000017
11
273.8332499999999641
21
38.244099999999996
0
LINE
8
User.Eco1
6
CONTINUOUS
10
273.8332499999999641
20
38.244099999999996
11
273.8236499999999864
21
38.1465999999999994
0
LINE
8
User.Eco1
6
CONTINUOUS
10
273.8236499999999864
20
38.1465999999999994
11
273.7951499999999783
21
38.0527999999999977
0
LINE
8
User.Eco1
6
CONTINUOUS
10
273.7951499999999783
20
38.0527999999999977
11
273.7489499999999794
21
37.9662999999999968
0
LINE
8
User.Eco1
6
CONTINUOUS
10
273.7489499999999794
20
37.9662999999999968
11
273.6868499999999926
21
37.8904999999999959
0
LINE
8
User.Eco1
6
CONTINUOUS
10
273.6868499999999926
20
37.8904999999999959
11
273.6110499999999774
21
37.8283999999999949
0
LINE
8
User.Eco1
6
CONTINUOUS
10
273.6110499999999774
20
37.8283999999999949
11
273.5245499999999765
21
37.782199999999996
0
LINE
8
User.Eco1
6
CONTINUOUS
10
273.5245499999999765
20
37.782199999999996
11
273.4307499999999891
21
37.7536999999999949
0
LINE
8
User.Eco1
6
CONTINUOUS
10
273.4307499999999891
20
37.7536999999999949
11
273.3332499999999641
21
37.744099999999996
0
LINE
8
User.Eco1
6
CONTINUOUS
10
273.3332499999999641
20
37.744099999999996
11
269.7832500000000095
21
37.744099999999996
0
LINE
8
User.Eco1
6
CONTINUOUS
10
269.7832500000000095
20
37.744099999999996
11
269.6857499999999845
21
37.7536999999999949
0
LINE
8
User.Eco1
6
CONTINUOUS
10
269.6857499999999845
20
37.7536999999999949
11
269.5919499999999971
21
37.782199999999996
0
LINE
8
User.Eco1
6
CONTINUOUS
10
269.5919499999999971
20
37.782199999999996
11
269.5054499999999962
21
37.8283999999999949
0
LINE
8
User.Eco1
6
CONTINUOUS
10
269.5054499999999962
20
37.8283999999999949
11
269.429649999999981
21
37.8904999999999959
0
LINE
8
User.Eco1
6
CONTINUOUS
10
269.429649999999981
20
37.8904999999999959
11
269.3675499999999943
21
37.9662999999999968
0
LINE
8
User.Eco1
6
CONTINUOUS
10
269.3675499999999943
20
37.9662999999999968
11
269.3213499999999954
21
38.0527999999999977
0
LINE
8
User.Eco1
6
CONTINUOUS
10
269.3213499999999954
20
38.0527999999999977
11
269.2928499999999872
21
38.1465999999999994
0
LINE
8
User.Eco1
6
CONTINUOUS
10
269.2928499999999872
20
38.1465999999999994
11
269.2832500000000095
21
38.244099999999996
0
LINE
8
User.Eco1
6
CONTINUOUS
10
269.2832500000000095
20
38.244099999999996
11
269.2832500000000095
21
43.3059000000000012
0
LINE
8
User.Eco1
6
CONTINUOUS
10
269.2832500000000095
20
43.3059000000000012
11
269.0832499999999641
21
43.3059000000000012
0
LINE
8
User.Eco1
6
CONTINUOUS
10
269.0832499999999641
20
43.3059000000000012
11
268.9857499999999959
21
43.3155000000000001
0
LINE
8
User.Eco1
6
CONTINUOUS
10
268.9857499999999959
20
43.3155000000000001
11
268.8919500000000085
21
43.3440000000000012
0
LINE
8
User.Eco1
6
CONTINUOUS
10
268.8919500000000085
20
43.3440000000000012
11
268.8054500000000075
21
43.3902000000000001
0
LINE
8
User.Eco1
6
CONTINUOUS
10
268.8054500000000075
20
43.3902000000000001
11
268.7296499999999924
21
43.452300000000001
0
LINE
8
User.Eco1
6
CONTINUOUS
10
268.7296499999999924
20
43.452300000000001
11
268.6675500000000056
21
43.5280999999999949
0
LINE
8
User.Eco1
6
CONTINUOUS
10
268.6675500000000056
20
43.5280999999999949
11
268.6213500000000067
21
43.6145999999999958
0
LINE
8
User.Eco1
6
CONTINUOUS
10
268.6213500000000067
20
43.6145999999999958
11
268.5928499999999985
21
43.7083999999999975
0
LINE
8
User.Eco1
6
CONTINUOUS
10
268.5928499999999985
20
43.7083999999999975
11
268.5832499999999641
21
43.8059000000000012
0
LINE
8
User.Eco1
6
CONTINUOUS
10
268.5832499999999641
20
43.8059000000000012
11
268.5832499999999641
21
50.7558999999999969
0
LINE
8
User.Eco1
6
CONTINUOUS
10
268.5832499999999641
20
50.7558999999999969
11
268.5928499999999985
21
50.8534000000000006
0
LINE
8
User.Eco1
6
CONTINUOUS
10
268.5928499999999985
20
50.8534000000000006
11
268.6213500000000067
21
50.9471999999999952
0
LINE
8
User.Eco1
6
CONTINUOUS
10
268.6213500000000067
20
50.9471999999999952
11
268.6675500000000056
21
51.0336999999999961
0
LINE
8
User.Eco1
6
CONTINUOUS
10
268.6675500000000056
20
51.0336999999999961
11
268.7296499999999924
21
51.109499999999997
0
LINE
8
User.Eco1
6
CONTINUOUS
10
268.7296499999999924
20
51.109499999999997
11
268.8054500000000075
21
51.171599999999998
0
LINE
8
User.Eco1
6
CONTINUOUS
10
268.8054500000000075
20
51.171599999999998
11
268.8919500000000085
21
51.2177999999999969
0
LINE
8
User.Eco1
6
CONTINUOUS
10
268.8919500000000085
20
51.2177999999999969
11
268.9857499999999959
21
51.246299999999998
0
LINE
8
User.Eco1
6
CONTINUOUS
10
268.9857499999999959
20
51.246299999999998
11
269.0832499999999641
21
51.2558999999999969
0
LINE
8
User.Eco1
6
CONTINUOUS
10
269.0832499999999641
20
51.2558999999999969
11
274.0332500000000095
21
51.2558999999999969
0
LINE
8
User.Eco1
6
CONTINUOUS
10
274.0332500000000095
20
51.2558999999999969
11
274.1307499999999777
21
51.246299999999998
0
LINE
8
User.Eco1
6
CONTINUOUS
10
297.7019999999999982
20
59.6749999999999972
11
283.7019999999999982
21
59.6749999999999972
0
LINE
8
User.Eco1
6
CONTINUOUS
10
283.7019999999999982
20
59.6749999999999972
11
283.7019999999999982
21
73.6749999999999972
0
LINE
8
User.Eco1
6
CONTINUOUS
10
283.7019999999999982
20
73.6749999999999972
11
297.7019999999999982
21
73.6749999999999972
0
LINE
8
User.Eco1
6
CONTINUOUS
10
297.7019999999999982
20
73.6749999999999972
11
297.7019999999999982
21
59.6749999999999972
0
LINE
8
User.Eco1
6
CONTINUOUS
10
240.5519999999999925
20
40.625
11
226.5519999999999925
21
40.625
0
LINE
8
User.Eco1
6
CONTINUOUS
10
226.5519999999999925
20
40.625
11
226.5519999999999925
21
54.625
0
LINE
8
User.Eco1
6
CONTINUOUS
10
226.5519999999999925
20
54.625
11
240.5519999999999925
21
54.625
0
LINE
8
User.Eco1
6
CONTINUOUS
10
240.5519999999999925
20
54.625
11
240.5519999999999925
21
40.625
0
LINE
8
User.Eco1
6
CONTINUOUS
10
169.1144999999999925
20
78.7249999999999943
11
155.1144999999999925
21
78.7249999999999943
0
LINE
8
User.Eco1
6
CONTINUOUS
10
155.1144999999999925
20
78.7249999999999943
11
155.1144999999999925
21
92.7249999999999943
0
LINE
8
User.Eco1
6
CONTINUOUS
10
155.1144999999999925
20
92.7249999999999943
11
169.1144999999999925
21
92.7249999999999943
0
LINE
8
User.Eco1
6
CONTINUOUS
10
169.1144999999999925
20
92.7249999999999943
11
169.1144999999999925
21
78.7249999999999943
0
LINE
8
User.Eco1
6
CONTINUOUS
10
252.4582499999999925
20
2.5249999999999999
11
238.4582499999999925
21
2.5249999999999999
0
LINE
8
User.Eco1
6
CONTINUOUS
10
238.4582499999999925
20
2.5249999999999999
11
238.4582499999999925
21
16.5249999999999986
0
LINE
8
User.Eco1
6
CONTINUOUS
10
238.4582499999999925
20
16.5249999999999986
11
252.4582499999999925
21
16.5249999999999986
0
LINE
8
User.Eco1
6
CONTINUOUS
10
252.4582499999999925
20
16.5249999999999986
11
252.4582499999999925
21
2.5249999999999999
0
LINE
8
User.Eco1
6
CONTINUOUS
10
292.9395000000000095
20
78.7249999999999943
11
278.9395000000000095
21
78.7249999999999943
0
LINE
8
User.Eco1
6
CONTINUOUS
10
278.9395000000000095
20
78.7249999999999943
11
278.9395000000000095
21
92.7249999999999943
0
LINE
8
User.Eco1
6
CONTINUOUS
10
278.9395000000000095
20
92.7249999999999943
11
292.9395000000000095
21
92.7249999999999943
0
LINE
8
User.Eco1
6
CONTINUOUS
10
292.9395000000000095
20
92.7249999999999943
11
292.9395000000000095
21
78.7249999999999943
0
LINE
8
User.Eco1
6
CONTINUOUS
10
100.0550449999999927
20
78.7319999999999993
11
86.0550449999999927
21
78.7319999999999993
0
LINE
8
User.Eco1
6
CONTINUOUS
10
86.0550449999999927
20
78.7319999999999993
11
86.0550449999999927
21
92.7319999999999993
0
LINE
8
User.Eco1
6
CONTINUOUS
10
86.0550449999999927
20
92.7319999999999993
11
100.0550449999999927
21
92.7319999999999993
0
LINE
8
User.Eco1
6
CONTINUOUS
10
100.0550449999999927
20
92.7319999999999993
11
100.0550449999999927
21
78.7319999999999993
0
LINE
8
User.Eco1
6
CONTINUOUS
10
81.0050449999999955
20
78.7319999999999993
11
67.0050449999999955
21
78.7319999999999993
0
LINE
8
User.Eco1
6
CONTINUOUS
10
67.0050449999999955
20
78.7319999999999993
11
67.0050449999999955
21
92.7319999999999993
0
LINE
8
User.Eco1
6
CONTINUOUS
10
67.0050449999999955
20
92.7319999999999993
11
81.0050449999999955
21
92.7319999999999993
0
LINE
8
User.Eco1
6
CONTINUOUS
10
81.0050449999999955
20
92.7319999999999993
11
81.0050449999999955
21
78.7319999999999993
0
LINE
8
User.Eco1
6
CONTINUOUS
10
47.6675449999999969
20
21.5820000000000007
11
33.6675449999999969
21
21.5820000000000007
0
LINE
8
User.Eco1
6
CONTINUOUS
10
33.6675449999999969
20
21.5820000000000007
11
33.6675449999999969
21
35.5820000000000007
0
LINE
8
User.Eco1
6
CONTINUOUS
10
33.6675449999999969
20
35.5820000000000007
11
47.6675449999999969
21
35.5820000000000007
0
LINE
8
User.Eco1
6
CONTINUOUS
10
47.6675449999999969
20
35.5820000000000007
11
47.6675449999999969
21
21.5820000000000007
0
LINE
8
User.Eco1
6
CONTINUOUS
10
66.7175450000000012
20
21.5820000000000007
11
52.7175449999999941
21
21.5820000000000007
0
LINE
8
User.Eco1
6
CONTINUOUS
10
52.7175449999999941
20
21.5820000000000007
11
52.7175449999999941
21
35.5820000000000007
0
LINE
8
User.Eco1
6
CONTINUOUS
10
52.7175449999999941
20
35.5820000000000007
11
66.7175450000000012
21
35.5820000000000007
0
LINE
8
User.Eco1
6
CONTINUOUS
10
66.7175450000000012
20
35.5820000000000007
11
66.7175450000000012
21
21.5820000000000007
0
LINE
8
User.Eco1
6
CONTINUOUS
10
119.1050449999999898
20
78.7319999999999993
11
105.1050449999999898
21
78.7319999999999993
0
LINE
8
User.Eco1
6
CONTINUOUS
10
105.1050449999999898
20
78.7319999999999993
11
105.1050449999999898
21
92.7319999999999993
0
LINE
8
User.Eco1
6
CONTINUOUS
10
105.1050449999999898
20
92.7319999999999993
11
119.1050449999999898
21
92.7319999999999993
0
LINE
8
User.Eco1
6
CONTINUOUS
10
119.1050449999999898
20
92.7319999999999993
11
119.1050449999999898
21
78.7319999999999993
0
LINE
8
User.Eco1
6
CONTINUOUS
10
23.8550450000000005
20
78.7319999999999993
11
9.8550449999999987
21
78.7319999999999993
0
LINE
8
User.Eco1
6
CONTINUOUS
10
9.8550449999999987
20
78.7319999999999993
11
9.8550449999999987
21
92.7319999999999993
0
LINE
8
User.Eco1
6
CONTINUOUS
10
9.8550449999999987
20
92.7319999999999993
11
23.8550450000000005
21
92.7319999999999993
0
LINE
8
User.Eco1
6
CONTINUOUS
10
23.8550450000000005
20
92.7319999999999993
11
23.8550450000000005
21
78.7319999999999993
0
LINE
8
User.Eco1
6
CONTINUOUS
10
42.9050450000000012
20
78.7319999999999993
11
28.9050449999999977
21
78.7319999999999993
0
LINE
8
User.Eco1
6
CONTINUOUS
10
28.9050449999999977
20
78.7319999999999993
11
28.9050449999999977
21
92.7319999999999993
0
LINE
8
User.Eco1
6
CONTINUOUS
10
28.9050449999999977
20
92.7319999999999993
11
42.9050450000000012
21
92.7319999999999993
0
LINE
8
User.Eco1
6
CONTINUOUS
10
42.9050450000000012
20
92.7319999999999993
11
42.9050450000000012
21
78.7319999999999993
0
LINE
8
User.Eco1
6
CONTINUOUS
10
33.3800449999999955
20
59.6819999999999951
11
19.3800449999999991
21
59.6819999999999951
0
LINE
8
User.Eco1
6
CONTINUOUS
10
19.3800449999999991
20
59.6819999999999951
11
19.3800449999999991
21
73.6820000000000022
0
LINE
8
User.Eco1
6
CONTINUOUS
10
19.3800449999999991
20
73.6820000000000022
11
33.3800449999999955
21
73.6820000000000022
0
LINE
8
User.Eco1
6
CONTINUOUS
10
33.3800449999999955
20
73.6820000000000022
11
33.3800449999999955
21
59.6819999999999951
0
LINE
8
User.Eco1
6
CONTINUOUS
10
61.9550449999999984
20
78.7319999999999993
11
47.9550449999999984
21
78.7319999999999993
0
LINE
8
User.Eco1
6
CONTINUOUS
10
47.9550449999999984
20
78.7319999999999993
11
47.9550449999999984
21
92.7319999999999993
0
LINE
8
User.Eco1
6
CONTINUOUS
10
47.9550449999999984
20
92.7319999999999993
11
61.9550449999999984
21
92.7319999999999993
0
LINE
8
User.Eco1
6
CONTINUOUS
10
61.9550449999999984
20
92.7319999999999993
11
61.9550449999999984
21
78.7319999999999993
0
LINE
8
User.Eco1
6
CONTINUOUS
10
114.3425450000000012
20
40.6319999999999979
11
100.3425450000000012
21
40.6319999999999979
0
LINE
8
User.Eco1
6
CONTINUOUS
10
100.3425450000000012
20
40.6319999999999979
11
100.3425450000000012
21
54.6319999999999979
0
LINE
8
User.Eco1
6
CONTINUOUS
10
100.3425450000000012
20
54.6319999999999979
11
114.3425450000000012
21
54.6319999999999979
0
LINE
8
User.Eco1
6
CONTINUOUS
10
114.3425450000000012
20
54.6319999999999979
11
114.3425450000000012
21
40.6319999999999979
0
LINE
8
User.Eco1
6
CONTINUOUS
10
104.8175449999999955
20
21.5820000000000007
11
90.8175449999999955
21
21.5820000000000007
0
LINE
8
User.Eco1
6
CONTINUOUS
10
90.8175449999999955
20
21.5820000000000007
11
90.8175449999999955
21
35.5820000000000007
0
LINE
8
User.Eco1
6
CONTINUOUS
10
90.8175449999999955
20
35.5820000000000007
11
104.8175449999999955
21
35.5820000000000007
0
LINE
8
User.Eco1
6
CONTINUOUS
10
104.8175449999999955
20
35.5820000000000007
11
104.8175449999999955
21
21.5820000000000007
0
LINE
8
User.Eco1
6
CONTINUOUS
10
123.8675449999999927
20
21.5820000000000007
11
109.8675449999999927
21
21.5820000000000007
0
LINE
8
User.Eco1
6
CONTINUOUS
10
109.8675449999999927
20
21.5820000000000007
11
109.8675449999999927
21
35.5820000000000007
0
LINE
8
User.Eco1
6
CONTINUOUS
10
109.8675449999999927
20
35.5820000000000007
11
123.8675449999999927
21
35.5820000000000007
0
LINE
8
User.Eco1
6
CONTINUOUS
10
123.8675449999999927
20
35.5820000000000007
11
123.8675449999999927
21
21.5820000000000007
0
LINE
8
User.Eco1
6
CONTINUOUS
10
30.9987949999999977
20
2.532
11
16.9987949999999977
21
2.532
0
LINE
8
User.Eco1
6
CONTINUOUS
10
16.9987949999999977
20
2.532
11
16.9987949999999977
21
16.532
0
LINE
8
User.Eco1
6
CONTINUOUS
10
16.9987949999999977
20
16.532
11
30.9987949999999977
21
16.532
0
LINE
8
User.Eco1
6
CONTINUOUS
10
30.9987949999999977
20
16.532
11
30.9987949999999977
21
2.532
0
LINE
8
User.Eco1
6
CONTINUOUS
10
38.1425449999999984
20
40.6319999999999979
11
24.1425449999999984
21
40.6319999999999979
0
LINE
8
User.Eco1
6
CONTINUOUS
10
24.1425449999999984
20
40.6319999999999979
11
24.1425449999999984
21
54.6319999999999979
0
LINE
8
User.Eco1
6
CONTINUOUS
10
24.1425449999999984
20
54.6319999999999979
11
38.1425449999999984
21
54.6319999999999979
0
LINE
8
User.Eco1
6
CONTINUOUS
10
38.1425449999999984
20
54.6319999999999979
11
38.1425449999999984
21
40.6319999999999979
0
LINE
8
User.Eco1
6
CONTINUOUS
10
78.6872949999999918
20
2.532
11
64.6872949999999918
21
2.532
0
LINE
8
User.Eco1
6
CONTINUOUS
10
64.6872949999999918
20
2.532
11
64.6872949999999918
21
16.532
0
LINE
8
User.Eco1
6
CONTINUOUS
10
64.6872949999999918
20
16.532
11
78.6872949999999918
21
16.532
0
LINE
8
User.Eco1
6
CONTINUOUS
10
78.6872949999999918
20
16.532
11
78.6872949999999918
21
2.532
0
LINE
8
User.Eco1
6
CONTINUOUS
10
52.4300449999999998
20
59.6819999999999951
11
38.4300449999999998
21
59.6819999999999951
0
LINE
8
User.Eco1
6
CONTINUOUS
10
38.4300449999999998
20
59.6819999999999951
11
38.4300449999999998
21
73.6820000000000022
0
LINE
8
User.Eco1
6
CONTINUOUS
10
38.4300449999999998
20
73.6820000000000022
11
52.4300449999999998
21
73.6820000000000022
0
LINE
8
User.Eco1
6
CONTINUOUS
10
52.4300449999999998
20
73.6820000000000022
11
52.4300449999999998
21
59.6819999999999951
0
LINE
8
User.Eco1
6
CONTINUOUS
10
71.4800449999999898
20
59.6819999999999951
11
57.4800449999999969
21
59.6819999999999951
0
LINE
8
User.Eco1
6
CONTINUOUS
10
57.4800449999999969
20
59.6819999999999951
11
57.4800449999999969
21
73.6820000000000022
0
LINE
8
User.Eco1
6
CONTINUOUS
10
57.4800449999999969
20
73.6820000000000022
11
71.4800449999999898
21
73.6820000000000022
0
LINE
8
User.Eco1
6
CONTINUOUS
10
71.4800449999999898
20
73.6820000000000022
11
71.4800449999999898
21
59.6819999999999951
0
LINE
8
User.Eco1
6
CONTINUOUS
10
95.2925449999999898
20
40.6319999999999979
11
81.2925449999999898
21
40.6319999999999979
0
LINE
8
User.Eco1
6
CONTINUOUS
10
81.2925449999999898
20
40.6319999999999979
11
81.2925449999999898
21
54.6319999999999979
0
LINE
8
User.Eco1
6
CONTINUOUS
10
81.2925449999999898
20
54.6319999999999979
11
95.2925449999999898
21
54.6319999999999979
0
LINE
8
User.Eco1
6
CONTINUOUS
10
95.2925449999999898
20
54.6319999999999979
11
95.2925449999999898
21
40.6319999999999979
0
LINE
8
User.Eco1
6
CONTINUOUS
10
7.1862949999999994
20
2.532
11
-6.8137049999999997
21
2.532
0
LINE
8
User.Eco1
6
CONTINUOUS
10
-6.8137049999999997
20
2.532
11
-6.8137049999999997
21
16.532
0
LINE
8
User.Eco1
6
CONTINUOUS
10
-6.8137049999999997
20
16.532
11
7.1862949999999994
21
16.532
0
LINE
8
User.Eco1
6
CONTINUOUS
10
7.1862949999999994
20
16.532
11
7.1862949999999994
21
2.532
0
LINE
8
User.Eco1
6
CONTINUOUS
10
54.8747949999999989
20
2.532
11
40.8747949999999989
21
2.532
0
LINE
8
User.Eco1
6
CONTINUOUS
10
40.8747949999999989
20
2.532
11
40.8747949999999989
21
16.532
0
LINE
8
User.Eco1
6
CONTINUOUS
10
40.8747949999999989
20
16.532
11
54.8747949999999989
21
16.532
0
LINE
8
User.Eco1
6
CONTINUOUS
10
54.8747949999999989
20
16.532
11
54.8747949999999989
21
2.532
0
LINE
8
User.Eco1
6
CONTINUOUS
10
109.5800449999999984
20
59.6819999999999951
11
95.5800449999999984
21
59.6819999999999951
0
LINE
8
User.Eco1
6
CONTINUOUS
10
95.5800449999999984
20
59.6819999999999951
11
95.5800449999999984
21
73.6820000000000022
0
LINE
8
User.Eco1
6
CONTINUOUS
10
95.5800449999999984
20
73.6820000000000022
11
109.5800449999999984
21
73.6820000000000022
0
LINE
8
User.Eco1
6
CONTINUOUS
10
109.5800449999999984
20
73.6820000000000022
11
109.5800449999999984
21
59.6819999999999951
0
LINE
8
User.Eco1
6
CONTINUOUS
10
57.1925449999999955
20
40.6319999999999979
11
43.1925449999999955
21
40.6319999999999979
0
LINE
8
User.Eco1
6
CONTINUOUS
10
43.1925449999999955
20
40.6319999999999979
11
43.1925449999999955
21
54.6319999999999979
0
LINE
8
User.Eco1
6
CONTINUOUS
10
43.1925449999999955
20
54.6319999999999979
11
57.1925449999999955
21
54.6319999999999979
0
LINE
8
User.Eco1
6
CONTINUOUS
10
57.1925449999999955
20
54.6319999999999979
11
57.1925449999999955
21
40.6319999999999979
0
LINE
8
User.Eco1
6
CONTINUOUS
10
90.5300450000000012
20
59.6819999999999951
11
76.5300450000000012
21
59.6819999999999951
0
LINE
8
User.Eco1
6
CONTINUOUS
10
76.5300450000000012
20
59.6819999999999951
11
76.5300450000000012
21
73.6820000000000022
0
LINE
8
User.Eco1
6
CONTINUOUS
10
76.5300450000000012
20
73.6820000000000022
11
90.5300450000000012
21
73.6820000000000022
0
LINE
8
User.Eco1
6
CONTINUOUS
10
90.5300450000000012
20
73.6820000000000022
11
90.5300450000000012
21
59.6819999999999951
0
LINE
8
User.Eco1
6
CONTINUOUS
10
111.9612949999999927
20
2.532
11
97.9612949999999927
21
2.532
0
LINE
8
User.Eco1
6
CONTINUOUS
10
97.9612949999999927
20
2.532
11
97.9612949999999927
21
16.532
0
LINE
8
User.Eco1
6
CONTINUOUS
10
97.9612949999999927
20
16.532
11
111.9612949999999927
21
16.532
0
LINE
8
User.Eco1
6
CONTINUOUS
10
111.9612949999999927
20
16.532
11
111.9612949999999927
21
2.532
0
LINE
8
User.Eco1
6
CONTINUOUS
10
94.833794999999995
20
19.403299999999998
11
94.9275949999999966
21
19.3748000000000005
0
LINE
8
User.Eco1
6
CONTINUOUS
10
94.9275949999999966
20
19.3748000000000005
11
95.0140949999999975
21
19.328599999999998
0
LINE
8
User.Eco1
6
CONTINUOUS
10
95.0140949999999975
20
19.328599999999998
11
95.0898949999999985
21
19.2665000000000006
0
LINE
8
User.Eco1
6
CONTINUOUS
10
95.0898949999999985
20
19.2665000000000006
11
95.1519949999999994
21
19.1906999999999996
0
LINE
8
User.Eco1
6
CONTINUOUS
10
95.1519949999999994
20
19.1906999999999996
11
95.1981949999999983
21
19.1041999999999987
0
LINE
8
User.Eco1
6
CONTINUOUS
10
95.1981949999999983
20
19.1041999999999987
11
95.2266949999999923
21
19.0104000000000006
0
LINE
8
User.Eco1
6
CONTINUOUS
10
95.2266949999999923
20
19.0104000000000006
11
95.2362949999999984
21
18.9129000000000005
0
LINE
8
User.Eco1
6
CONTINUOUS
10
95.2362949999999984
20
18.9129000000000005
11
95.2362949999999984
21
18.5128999999999984
0
LINE
8
User.Eco1
6
CONTINUOUS
10
95.2362949999999984
20
18.5128999999999984
11
114.6862950000000012
21
18.5128999999999984
0
LINE
8
User.Eco1
6
CONTINUOUS
10
114.6862950000000012
20
18.5128999999999984
11
114.6862950000000012
21
18.9129000000000005
0
LINE
8
User.Eco1
6
CONTINUOUS
10
114.6862950000000012
20
18.9129000000000005
11
114.695894999999993
21
19.0104000000000006
0
LINE
8
User.Eco1
6
CONTINUOUS
10
114.695894999999993
20
19.0104000000000006
11
114.7243950000000012
21
19.1041999999999987
0
LINE
8
User.Eco1
6
CONTINUOUS
10
114.7243950000000012
20
19.1041999999999987
11
114.7705950000000001
21
19.1906999999999996
0
LINE
8
User.Eco1
6
CONTINUOUS
10
114.7705950000000001
20
19.1906999999999996
11
114.8326950000000011
21
19.2665000000000006
0
LINE
8
User.Eco1
6
CONTINUOUS
10
114.8326950000000011
20
19.2665000000000006
11
114.9084949999999878
21
19.328599999999998
0
LINE
8
User.Eco1
6
CONTINUOUS
10
114.9084949999999878
20
19.328599999999998
11
114.9949949999999887
21
19.3748000000000005
0
LINE
8
User.Eco1
6
CONTINUOUS
10
114.9949949999999887
20
19.3748000000000005
11
115.0887949999999904
21
19.403299999999998
0
LINE
8
User.Eco1
6
CONTINUOUS
10
115.0887949999999904
20
19.403299999999998
11
115.1862950000000012
21
19.4129000000000005
0
LINE
8
User.Eco1
6
CONTINUOUS
10
115.1862950000000012
20
19.4129000000000005
11
118.7362949999999984
21
19.4129000000000005
0
LINE
8
User.Eco1
6
CONTINUOUS
10
118.7362949999999984
20
19.4129000000000005
11
118.833794999999995
21
19.403299999999998
0
LINE
8
User.Eco1
6
CONTINUOUS
10
118.833794999999995
20
19.403299999999998
11
118.9275949999999966
21
19.3748000000000005
0
LINE
8
User.Eco1
6
CONTINUOUS
10
118.9275949999999966
20
19.3748000000000005
11
119.0140949999999975
21
19.328599999999998
0
LINE
8
User.Eco1
6
CONTINUOUS
10
119.0140949999999975
20
19.328599999999998
11
119.0898949999999985
21
19.2665000000000006
0
LINE
8
User.Eco1
6
CONTINUOUS
10
119.0898949999999985
20
19.2665000000000006
11
119.1519949999999994
21
19.1906999999999996
0
LINE
8
User.Eco1
6
CONTINUOUS
10
119.1519949999999994
20
19.1906999999999996
11
119.1981949999999983
21
19.1041999999999987
0
LINE
8
User.Eco1
6
CONTINUOUS
10
119.1981949999999983
20
19.1041999999999987
11
119.2266949999999923
21
19.0104000000000006
0
LINE
8
User.Eco1
6
CONTINUOUS
10
119.2266949999999923
20
19.0104000000000006
11
119.2362949999999984
21
18.9129000000000005
0
LINE
8
User.Eco1
6
CONTINUOUS
10
119.2362949999999984
20
18.9129000000000005
11
119.2362949999999984
21
13.8510999999999989
0
LINE
8
User.Eco1
6
CONTINUOUS
10
119.2362949999999984
20
13.8510999999999989
11
119.4362950000000012
21
13.8510999999999989
0
LINE
8
User.Eco1
6
CONTINUOUS
10
119.4362950000000012
20
13.8510999999999989
11
119.5337949999999978
21
13.8414999999999999
0
LINE
8
User.Eco1
6
CONTINUOUS
10
119.5337949999999978
20
13.8414999999999999
11
119.6275949999999995
21
13.8129999999999988
0
LINE
8
User.Eco1
6
CONTINUOUS
10
119.6275949999999995
20
13.8129999999999988
11
119.7140950000000004
21
13.7667999999999999
0
LINE
8
User.Eco1
6
CONTINUOUS
10
119.7140950000000004
20
13.7667999999999999
11
119.7898950000000013
21
13.704699999999999
0
LINE
8
User.Eco1
6
CONTINUOUS
10
119.7898950000000013
20
13.704699999999999
11
119.8519949999999881
21
13.6288999999999998
0
LINE
8
User.Eco1
6
CONTINUOUS
10
119.8519949999999881
20
13.6288999999999998
11
119.8981950000000012
21
13.5423999999999989
0
LINE
8
User.Eco1
6
CONTINUOUS
10
119.8981950000000012
20
13.5423999999999989
11
119.9266949999999952
21
13.448599999999999
0
LINE
8
User.Eco1
6
CONTINUOUS
10
119.9266949999999952
20
13.448599999999999
11
119.9362950000000012
21
13.3510999999999989
0
LINE
8
User.Eco1
6
CONTINUOUS
10
119.9362950000000012
20
13.3510999999999989
11
119.9362950000000012
21
6.4010999999999996
0
LINE
8
User.Eco1
6
CONTINUOUS
10
119.9362950000000012
20
6.4010999999999996
11
119.9266949999999952
21
6.3035999999999994
0
LINE
8
User.Eco1
6
CONTINUOUS
10
119.9266949999999952
20
6.3035999999999994
11
119.8981950000000012
21
6.2097999999999995
0
LINE
8
User.Eco1
6
CONTINUOUS
10
119.8981950000000012
20
6.2097999999999995
11
119.8519949999999881
21
6.1232999999999995
0
LINE
8
User.Eco1
6
CONTINUOUS
10
119.8519949999999881
20
6.1232999999999995
11
119.7898950000000013
21
6.0474999999999994
0
LINE
8
User.Eco1
6
CONTINUOUS
10
119.7898950000000013
20
6.0474999999999994
11
119.7140950000000004
21
5.9853999999999994
0
LINE
8
User.Eco1
6
CONTINUOUS
10
119.7140950000000004
20
5.9853999999999994
11
119.6275949999999995
21
5.9391999999999996
0
LINE
8
User.Eco1
6
CONTINUOUS
10
119.6275949999999995
20
5.9391999999999996
11
119.5337949999999978
21
5.9106999999999994
0
LINE
8
User.Eco1
6
CONTINUOUS
10
119.5337949999999978
20
5.9106999999999994
11
119.4362950000000012
21
5.9010999999999996
0
LINE
8
User.Eco1
6
CONTINUOUS
10
119.4362950000000012
20
5.9010999999999996
11
114.4862949999999984
21
5.9010999999999996
0
LINE
8
User.Eco1
6
CONTINUOUS
10
114.4862949999999984
20
5.9010999999999996
11
114.3887950000000018
21
5.9106999999999994
0
LINE
8
User.Eco1
6
CONTINUOUS
10
114.3887950000000018
20
5.9106999999999994
11
114.2949950000000001
21
5.9391999999999996
0
LINE
8
User.Eco1
6
CONTINUOUS
10
114.2949950000000001
20
5.9391999999999996
11
114.2084949999999992
21
5.9853999999999994
0
LINE
8
User.Eco1
6
CONTINUOUS
10
114.2084949999999992
20
5.9853999999999994
11
114.1326949999999982
21
6.0474999999999994
0
LINE
8
User.Eco1
6
CONTINUOUS
10
114.1326949999999982
20
6.0474999999999994
11
114.0705949999999973
21
6.1232999999999995
0
LINE
8
User.Eco1
6
CONTINUOUS
10
114.0705949999999973
20
6.1232999999999995
11
114.0243949999999984
21
6.2097999999999995
0
LINE
8
User.Eco1
6
CONTINUOUS
10
114.0243949999999984
20
6.2097999999999995
11
113.9958949999999902
21
6.3035999999999994
0
LINE
8
User.Eco1
6
CONTINUOUS
10
113.9958949999999902
20
6.3035999999999994
11
113.9862949999999984
21
6.4010999999999996
0
LINE
8
User.Eco1
6
CONTINUOUS
10
113.9862949999999984
20
6.4010999999999996
11
113.9862949999999984
21
13.3510999999999989
0
LINE
8
User.Eco1
6
CONTINUOUS
10
113.9862949999999984
20
13.3510999999999989
11
113.9958949999999902
21
13.448599999999999
0
LINE
8
User.Eco1
6
CONTINUOUS
10
113.9958949999999902
20
13.448599999999999
11
114.0243949999999984
21
13.5423999999999989
0
LINE
8
User.Eco1
6
CONTINUOUS
10
114.0243949999999984
20
13.5423999999999989
11
114.0705949999999973
21
13.6288999999999998
0
LINE
8
User.Eco1
6
CONTINUOUS
10
114.0705949999999973
20
13.6288999999999998
11
114.1326949999999982
21
13.704699999999999
0
LINE
8
User.Eco1
6
CONTINUOUS
10
114.1326949999999982
20
13.704699999999999
11
114.2084949999999992
21
13.7667999999999999
0
LINE
8
User.Eco1
6
CONTINUOUS
10
114.2084949999999992
20
13.7667999999999999
11
114.2949950000000001
21
13.8129999999999988
0
LINE
8
User.Eco1
6
CONTINUOUS
10
114.2949950000000001
20
13.8129999999999988
11
114.3887950000000018
21
13.8414999999999999
0
LINE
8
User.Eco1
6
CONTINUOUS
10
114.3887950000000018
20
13.8414999999999999
11
114.4862949999999984
21
13.8510999999999989
0
LINE
8
User.Eco1
6
CONTINUOUS
10
114.4862949999999984
20
13.8510999999999989
11
114.6862950000000012
21
13.8510999999999989
0
LINE
8
User.Eco1
6
CONTINUOUS
10
114.6862950000000012
20
13.8510999999999989
11
114.6862950000000012
21
17.1128999999999998
0
LINE
8
User.Eco1
6
CONTINUOUS
10
114.6862950000000012
20
17.1128999999999998
11
95.2362949999999984
21
17.1128999999999998
0
LINE
8
User.Eco1
6
CONTINUOUS
10
95.2362949999999984
20
17.1128999999999998
11
95.2362949999999984
21
13.8510999999999989
0
LINE
8
User.Eco1
6
CONTINUOUS
10
95.2362949999999984
20
13.8510999999999989
11
95.4362950000000012
21
13.8510999999999989
0
LINE
8
User.Eco1
6
CONTINUOUS
10
95.4362950000000012
20
13.8510999999999989
11
95.5337949999999978
21
13.8414999999999999
0
LINE
8
User.Eco1
6
CONTINUOUS
10
95.5337949999999978
20
13.8414999999999999
11
95.6275949999999995
21
13.8129999999999988
0
LINE
8
User.Eco1
6
CONTINUOUS
10
95.6275949999999995
20
13.8129999999999988
11
95.7140950000000004
21
13.7667999999999999
0
LINE
8
User.Eco1
6
CONTINUOUS
10
95.7140950000000004
20
13.7667999999999999
11
95.7898950000000013
21
13.704699999999999
0
LINE
8
User.Eco1
6
CONTINUOUS
10
95.7898950000000013
20
13.704699999999999
11
95.8519950000000023
21
13.6288999999999998
0
LINE
8
User.Eco1
6
CONTINUOUS
10
95.8519950000000023
20
13.6288999999999998
11
95.8981950000000012
21
13.5423999999999989
0
LINE
8
User.Eco1
6
CONTINUOUS
10
95.8981950000000012
20
13.5423999999999989
11
95.9266949999999952
21
13.448599999999999
0
LINE
8
User.Eco1
6
CONTINUOUS
10
95.9266949999999952
20
13.448599999999999
11
95.9362950000000012
21
13.3510999999999989
0
LINE
8
User.Eco1
6
CONTINUOUS
10
95.9362950000000012
20
13.3510999999999989
11
95.9362950000000012
21
6.4010999999999996
0
LINE
8
User.Eco1
6
CONTINUOUS
10
95.9362950000000012
20
6.4010999999999996
11
95.9266949999999952
21
6.3035999999999994
0
LINE
8
User.Eco1
6
CONTINUOUS
10
95.9266949999999952
20
6.3035999999999994
11
95.8981950000000012
21
6.2097999999999995
0
LINE
8
User.Eco1
6
CONTINUOUS
10
95.8981950000000012
20
6.2097999999999995
11
95.8519950000000023
21
6.1232999999999995
0
LINE
8
User.Eco1
6
CONTINUOUS
10
95.8519950000000023
20
6.1232999999999995
11
95.7898950000000013
21
6.0474999999999994
0
LINE
8
User.Eco1
6
CONTINUOUS
10
95.7898950000000013
20
6.0474999999999994
11
95.7140950000000004
21
5.9853999999999994
0
LINE
8
User.Eco1
6
CONTINUOUS
10
95.7140950000000004
20
5.9853999999999994
11
95.6275949999999995
21
5.9391999999999996
0
LINE
8
User.Eco1
6
CONTINUOUS
10
95.6275949999999995
20
5.9391999999999996
11
95.5337949999999978
21
5.9106999999999994
0
LINE
8
User.Eco1
6
CONTINUOUS
10
95.5337949999999978
20
5.9106999999999994
11
95.4362950000000012
21
5.9010999999999996
0
LINE
8
User.Eco1
6
CONTINUOUS
10
95.4362950000000012
20
5.9010999999999996
11
90.4862949999999984
21
5.9010999999999996
0
LINE
8
User.Eco1
6
CONTINUOUS
10
90.4862949999999984
20
5.9010999999999996
11
90.3887950000000018
21
5.9106999999999994
0
LINE
8
User.Eco1
6
CONTINUOUS
10
90.3887950000000018
20
5.9106999999999994
11
90.2949950000000001
21
5.9391999999999996
0
LINE
8
User.Eco1
6
CONTINUOUS
10
90.2949950000000001
20
5.9391999999999996
11
90.2084949999999992
21
5.9853999999999994
0
LINE
8
User.Eco1
6
CONTINUOUS
10
90.2084949999999992
20
5.9853999999999994
11
90.1326949999999982
21
6.0474999999999994
0
LINE
8
User.Eco1
6
CONTINUOUS
10
90.1326949999999982
20
6.0474999999999994
11
90.0705949999999973
21
6.1232999999999995
0
LINE
8
User.Eco1
6
CONTINUOUS
10
90.0705949999999973
20
6.1232999999999995
11
90.0243949999999984
21
6.2097999999999995
0
LINE
8
User.Eco1
6
CONTINUOUS
10
90.0243949999999984
20
6.2097999999999995
11
89.9958949999999902
21
6.3035999999999994
0
LINE
8
User.Eco1
6
CONTINUOUS
10
89.9958949999999902
20
6.3035999999999994
11
89.9862949999999984
21
6.4010999999999996
0
LINE
8
User.Eco1
6
CONTINUOUS
10
89.9862949999999984
20
6.4010999999999996
11
89.9862949999999984
21
13.3510999999999989
0
LINE
8
User.Eco1
6
CONTINUOUS
10
89.9862949999999984
20
13.3510999999999989
11
89.9958949999999902
21
13.448599999999999
0
LINE
8
User.Eco1
6
CONTINUOUS
10
89.9958949999999902
20
13.448599999999999
11
90.0243949999999984
21
13.5423999999999989
0
LINE
8
User.Eco1
6
CONTINUOUS
10
90.0243949999999984
20
13.5423999999999989
11
90.0705949999999973
21
13.6288999999999998
0
LINE
8
User.Eco1
6
CONTINUOUS
10
90.0705949999999973
20
13.6288999999999998
11
90.1326949999999982
21
13.704699999999999
0
LINE
8
User.Eco1
6
CONTINUOUS
10
90.1326949999999982
20
13.704699999999999
11
90.2084949999999992
21
13.7667999999999999
0
LINE
8
User.Eco1
6
CONTINUOUS
10
90.2084949999999992
20
13.7667999999999999
11
90.2949950000000001
21
13.8129999999999988
0
LINE
8
User.Eco1
6
CONTINUOUS
10
90.2949950000000001
20
13.8129999999999988
11
90.3887950000000018
21
13.8414999999999999
0
LINE
8
User.Eco1
6
CONTINUOUS
10
90.3887950000000018
20
13.8414999999999999
11
90.4862949999999984
21
13.8510999999999989
0
LINE
8
User.Eco1
6
CONTINUOUS
10
90.4862949999999984
20
13.8510999999999989
11
90.6862950000000012
21
13.8510999999999989
0
LINE
8
User.Eco1
6
CONTINUOUS
10
90.6862950000000012
20
13.8510999999999989
11
90.6862950000000012
21
18.9129000000000005
0
LINE
8
User.Eco1
6
CONTINUOUS
10
90.6862950000000012
20
18.9129000000000005
11
90.695894999999993
21
19.0104000000000006
0
LINE
8
User.Eco1
6
CONTINUOUS
10
90.695894999999993
20
19.0104000000000006
11
90.7243950000000012
21
19.1041999999999987
0
LINE
8
User.Eco1
6
CONTINUOUS
10
90.7243950000000012
20
19.1041999999999987
11
90.7705950000000001
21
19.1906999999999996
0
LINE
8
User.Eco1
6
CONTINUOUS
10
90.7705950000000001
20
19.1906999999999996
11
90.8326950000000011
21
19.2665000000000006
0
LINE
8
User.Eco1
6
CONTINUOUS
10
90.8326950000000011
20
19.2665000000000006
11
90.9084950000000021
21
19.328599999999998
0
LINE
8
User.Eco1
6
CONTINUOUS
10
90.9084950000000021
20
19.328599999999998
11
90.994995000000003
21
19.3748000000000005
0
LINE
8
User.Eco1
6
CONTINUOUS
10
90.994995000000003
20
19.3748000000000005
11
91.0887949999999904
21
19.403299999999998
0
LINE
8
User.Eco1
6
CONTINUOUS
10
91.0887949999999904
20
19.403299999999998
11
91.1862950000000012
21
19.4129000000000005
0
LINE
8
User.Eco1
6
CONTINUOUS
10
91.1862950000000012
20
19.4129000000000005
11
94.7362949999999984
21
19.4129000000000005
0
LINE
8
User.Eco1
6
CONTINUOUS
10
94.7362949999999984
20
19.4129000000000005
11
94.833794999999995
21
19.403299999999998
0
LINE
8
User.Eco1
6
CONTINUOUS
10
76.2425449999999927
20
40.6319999999999979
11
62.2425449999999998
21
40.6319999999999979
0
LINE
8
User.Eco1
6
CONTINUOUS
10
62.2425449999999998
20
40.6319999999999979
11
62.2425449999999998
21
54.6319999999999979
0
LINE
8
User.Eco1
6
CONTINUOUS
10
62.2425449999999998
20
54.6319999999999979
11
76.2425449999999927
21
54.6319999999999979
0
LINE
8
User.Eco1
6
CONTINUOUS
10
76.2425449999999927
20
54.6319999999999979
11
76.2425449999999927
21
40.6319999999999979
0
LINE
8
User.Eco1
6
CONTINUOUS
10
4.8050449999999998
20
78.7319999999999993
11
-9.1949550000000002
21
78.7319999999999993
0
LINE
8
User.Eco1
6
CONTINUOUS
10
-9.1949550000000002
20
78.7319999999999993
11
-9.1949550000000002
21
92.7319999999999993
0
LINE
8
User.Eco1
6
CONTINUOUS
10
-9.1949550000000002
20
92.7319999999999993
11
4.8050449999999998
21
92.7319999999999993
0
LINE
8
User.Eco1
6
CONTINUOUS
10
4.8050449999999998
20
92.7319999999999993
11
4.8050449999999998
21
78.7319999999999993
0
LINE
8
User.Eco1
6
CONTINUOUS
10
11.9487949999999987
20
40.6319999999999979
11
-2.0512049999999999
21
40.6319999999999979
0
LINE
8
User.Eco1
6
CONTINUOUS
10
-2.0512049999999999
20
40.6319999999999979
11
-2.0512049999999999
21
54.6319999999999979
0
LINE
8
User.Eco1
6
CONTINUOUS
10
-2.0512049999999999
20
54.6319999999999979
11
11.9487949999999987
21
54.6319999999999979
0
LINE
8
User.Eco1
6
CONTINUOUS
10
11.9487949999999987
20
54.6319999999999979
11
11.9487949999999987
21
40.6319999999999979
0
LINE
8
User.Eco1
6
CONTINUOUS
10
9.5675449999999991
20
59.6819999999999951
11
-4.432455
21
59.6819999999999951
0
LINE
8
User.Eco1
6
CONTINUOUS
10
-4.432455
20
59.6819999999999951
11
-4.432455
21
73.6820000000000022
0
LINE
8
User.Eco1
6
CONTINUOUS
10
-4.432455
20
73.6820000000000022
11
9.5675449999999991
21
73.6820000000000022
0
LINE
8
User.Eco1
6
CONTINUOUS
10
9.5675449999999991
20
73.6820000000000022
11
9.5675449999999991
21
59.6819999999999951
0
LINE
8
User.Eco1
6
CONTINUOUS
10
85.7675449999999984
20
21.5820000000000007
11
71.7675449999999984
21
21.5820000000000007
0
LINE
8
User.Eco1
6
CONTINUOUS
10
71.7675449999999984
20
21.5820000000000007
11
71.7675449999999984
21
35.5820000000000007
0
LINE
8
User.Eco1
6
CONTINUOUS
10
71.7675449999999984
20
35.5820000000000007
11
85.7675449999999984
21
35.5820000000000007
0
LINE
8
User.Eco1
6
CONTINUOUS
10
85.7675449999999984
20
35.5820000000000007
11
85.7675449999999984
21
21.5820000000000007
0
LINE
8
User.Eco1
6
CONTINUOUS
10
16.7112949999999998
20
21.5820000000000007
11
2.7112949999999998
21
21.5820000000000007
0
LINE
8
User.Eco1
6
CONTINUOUS
10
2.7112949999999998
20
21.5820000000000007
11
2.7112949999999998
21
35.5820000000000007
0
LINE
8
User.Eco1
6
CONTINUOUS
10
2.7112949999999998
20
35.5820000000000007
11
16.7112949999999998
21
35.5820000000000007
0
LINE
8
User.Eco1
6
CONTINUOUS
10
16.7112949999999998
20
35.5820000000000007
11
16.7112949999999998
21
21.5820000000000007
0
LINE
8
User.Eco1
6
CONTINUOUS
10
0.283795
20
32.2032999999999987
11
0.377595
21
32.1747999999999976
0
LINE
8
User.Eco1
6
CONTINUOUS
10
0.377595
20
32.1747999999999976
11
0.464095
21
32.1285999999999987
0
LINE
8
User.Eco1
6
CONTINUOUS
10
0.464095
20
32.1285999999999987
11
0.539895
21
32.0664999999999978
0
LINE
8
User.Eco1
6
CONTINUOUS
10
0.539895
20
32.0664999999999978
11
0.6019949999999999
21
31.9906999999999968
0
LINE
8
User.Eco1
6
CONTINUOUS
10
0.6019949999999999
20
31.9906999999999968
11
0.648195
21
31.9041999999999994
0
LINE
8
User.Eco1
6
CONTINUOUS
10
0.648195
20
31.9041999999999994
11
0.6766949999999999
21
31.8103999999999978
0
LINE
8
User.Eco1
6
CONTINUOUS
10
0.6766949999999999
20
31.8103999999999978
11
0.686295
21
31.7128999999999976
0
LINE
8
User.Eco1
6
CONTINUOUS
10
0.686295
20
31.7128999999999976
11
0.686295
21
24.7628999999999984
0
LINE
8
User.Eco1
6
CONTINUOUS
10
0.686295
20
24.7628999999999984
11
0.6766949999999999
21
24.6653999999999982
0
LINE
8
User.Eco1
6
CONTINUOUS
10
0.6766949999999999
20
24.6653999999999982
11
0.648195
21
24.5716000000000001
0
LINE
8
User.Eco1
6
CONTINUOUS
10
0.648195
20
24.5716000000000001
11
0.6019949999999999
21
24.4850999999999992
0
LINE
8
User.Eco1
6
CONTINUOUS
10
0.6019949999999999
20
24.4850999999999992
11
0.539895
21
24.4092999999999982
0
LINE
8
User.Eco1
6
CONTINUOUS
10
0.539895
20
24.4092999999999982
11
0.464095
21
24.3471999999999973
0
LINE
8
User.Eco1
6
CONTINUOUS
10
0.464095
20
24.3471999999999973
11
0.377595
21
24.3009999999999984
0
LINE
8
User.Eco1
6
CONTINUOUS
10
0.377595
20
24.3009999999999984
11
0.283795
21
24.2724999999999973
0
LINE
8
User.Eco1
6
CONTINUOUS
10
0.283795
20
24.2724999999999973
11
0.186295
21
24.2628999999999984
0
LINE
8
User.Eco1
6
CONTINUOUS
10
0.186295
20
24.2628999999999984
11
-0.013705
21
24.2628999999999984
0
LINE
8
User.Eco1
6
CONTINUOUS
10
-0.013705
20
24.2628999999999984
11
-0.013705
21
21.0010999999999974
0
LINE
8
User.Eco1
6
CONTINUOUS
10
-0.013705
20
21.0010999999999974
11
19.4362949999999977
21
21.0010999999999974
0
LINE
8
User.Eco1
6
CONTINUOUS
10
19.4362949999999977
20
21.0010999999999974
11
19.4362949999999977
21
24.2628999999999984
0
LINE
8
User.Eco1
6
CONTINUOUS
10
19.4362949999999977
20
24.2628999999999984
11
19.2362949999999984
21
24.2628999999999984
0
LINE
8
User.Eco1
6
CONTINUOUS
10
19.2362949999999984
20
24.2628999999999984
11
19.1387949999999982
21
24.2724999999999973
0
LINE
8
User.Eco1
6
CONTINUOUS
10
19.1387949999999982
20
24.2724999999999973
11
19.0449950000000001
21
24.3009999999999984
0
LINE
8
User.Eco1
6
CONTINUOUS
10
19.0449950000000001
20
24.3009999999999984
11
18.9584949999999992
21
24.3471999999999973
0
LINE
8
User.Eco1
6
CONTINUOUS
10
18.9584949999999992
20
24.3471999999999973
11
18.8826949999999982
21
24.4092999999999982
0
LINE
8
User.Eco1
6
CONTINUOUS
10
18.8826949999999982
20
24.4092999999999982
11
18.8205950000000009
21
24.4850999999999992
0
LINE
8
User.Eco1
6
CONTINUOUS
10
18.8205950000000009
20
24.4850999999999992
11
18.7743949999999984
21
24.5716000000000001
0
LINE
8
User.Eco1
6
CONTINUOUS
10
18.7743949999999984
20
24.5716000000000001
11
18.7458950000000009
21
24.6653999999999982
0
LINE
8
User.Eco1
6
CONTINUOUS
10
18.7458950000000009
20
24.6653999999999982
11
18.7362949999999984
21
24.7628999999999984
0
LINE
8
User.Eco1
6
CONTINUOUS
10
18.7362949999999984
20
24.7628999999999984
11
18.7362949999999984
21
31.7128999999999976
0
LINE
8
User.Eco1
6
CONTINUOUS
10
18.7362949999999984
20
31.7128999999999976
11
18.7458950000000009
21
31.8103999999999978
0
LINE
8
User.Eco1
6
CONTINUOUS
10
18.7458950000000009
20
31.8103999999999978
11
18.7743949999999984
21
31.9041999999999994
0
LINE
8
User.Eco1
6
CONTINUOUS
10
18.7743949999999984
20
31.9041999999999994
11
18.8205950000000009
21
31.9906999999999968
0
LINE
8
User.Eco1
6
CONTINUOUS
10
18.8205950000000009
20
31.9906999999999968
11
18.8826949999999982
21
32.0664999999999978
0
LINE
8
User.Eco1
6
CONTINUOUS
10
18.8826949999999982
20
32.0664999999999978
11
18.9584949999999992
21
32.1285999999999987
0
LINE
8
User.Eco1
6
CONTINUOUS
10
18.9584949999999992
20
32.1285999999999987
11
19.0449950000000001
21
32.1747999999999976
0
LINE
8
User.Eco1
6
CONTINUOUS
10
19.0449950000000001
20
32.1747999999999976
11
19.1387949999999982
21
32.2032999999999987
0
LINE
8
User.Eco1
6
CONTINUOUS
10
19.1387949999999982
20
32.2032999999999987
11
19.2362949999999984
21
32.2128999999999976
0
LINE
8
User.Eco1
6
CONTINUOUS
10
19.2362949999999984
20
32.2128999999999976
11
24.1862949999999977
21
32.2128999999999976
0
LINE
8
User.Eco1
6
CONTINUOUS
10
24.1862949999999977
20
32.2128999999999976
11
24.2837949999999978
21
32.2032999999999987
0
LINE
8
User.Eco1
6
CONTINUOUS
10
24.2837949999999978
20
32.2032999999999987
11
24.3775949999999995
21
32.1747999999999976
0
LINE
8
User.Eco1
6
CONTINUOUS
10
24.3775949999999995
20
32.1747999999999976
11
24.4640950000000004
21
32.1285999999999987
0
LINE
8
User.Eco1
6
CONTINUOUS
10
24.4640950000000004
20
32.1285999999999987
11
24.5398949999999978
21
32.0664999999999978
0
LINE
8
User.Eco1
6
CONTINUOUS
10
24.5398949999999978
20
32.0664999999999978
11
24.6019949999999987
21
31.9906999999999968
0
LINE
8
User.Eco1
6
CONTINUOUS
10
24.6019949999999987
20
31.9906999999999968
11
24.6481949999999976
21
31.9041999999999994
0
LINE
8
User.Eco1
6
CONTINUOUS
10
24.6481949999999976
20
31.9041999999999994
11
24.6766949999999987
21
31.8103999999999978
0
LINE
8
User.Eco1
6
CONTINUOUS
10
24.6766949999999987
20
31.8103999999999978
11
24.6862949999999977
21
31.7128999999999976
0
LINE
8
User.Eco1
6
CONTINUOUS
10
24.6862949999999977
20
31.7128999999999976
11
24.6862949999999977
21
24.7628999999999984
0
LINE
8
User.Eco1
6
CONTINUOUS
10
24.6862949999999977
20
24.7628999999999984
11
24.6766949999999987
21
24.6653999999999982
0
LINE
8
User.Eco1
6
CONTINUOUS
10
24.6766949999999987
20
24.6653999999999982
11
24.6481949999999976
21
24.5716000000000001
0
LINE
8
User.Eco1
6
CONTINUOUS
10
24.6481949999999976
20
24.5716000000000001
11
24.6019949999999987
21
24.4850999999999992
0
LINE
8
User.Eco1
6
CONTINUOUS
10
24.6019949999999987
20
24.4850999999999992
11
24.5398949999999978
21
24.4092999999999982
0
LINE
8
User.Eco1
6
CONTINUOUS
10
24.5398949999999978
20
24.4092999999999982
11
24.4640950000000004
21
24.3471999999999973
0
LINE
8
User.Eco1
6
CONTINUOUS
10
24.4640950000000004
20
24.3471999999999973
11
24.3775949999999995
21
24.3009999999999984
0
LINE
8
User.Eco1
6
CONTINUOUS
10
24.3775949999999995
20
24.3009999999999984
11
24.2837949999999978
21
24.2724999999999973
0
LINE
8
User.Eco1
6
CONTINUOUS
10
24.2837949999999978
20
24.2724999999999973
11
24.1862949999999977
21
24.2628999999999984
0
LINE
8
User.Eco1
6
CONTINUOUS
10
24.1862949999999977
20
24.2628999999999984
11
23.9862949999999984
21
24.2628999999999984
0
LINE
8
User.Eco1
6
CONTINUOUS
10
23.9862949999999984
20
24.2628999999999984
11
23.9862949999999984
21
19.2011000000000003
0
LINE
8
User.Eco1
6
CONTINUOUS
10
23.9862949999999984
20
19.2011000000000003
11
23.9766949999999994
21
19.1036000000000001
0
LINE
8
User.Eco1
6
CONTINUOUS
10
23.9766949999999994
20
19.1036000000000001
11
23.9481949999999983
21
19.0097999999999985
0
LINE
8
User.Eco1
6
CONTINUOUS
10
23.9481949999999983
20
19.0097999999999985
11
23.9019949999999994
21
18.9232999999999976
0
LINE
8
User.Eco1
6
CONTINUOUS
10
23.9019949999999994
20
18.9232999999999976
11
23.8398949999999985
21
18.8475000000000001
0
LINE
8
User.Eco1
6
CONTINUOUS
10
23.8398949999999985
20
18.8475000000000001
11
23.7640949999999975
21
18.7853999999999992
0
LINE
8
User.Eco1
6
CONTINUOUS
10
23.7640949999999975
20
18.7853999999999992
11
23.6775950000000002
21
18.7392000000000003
0
LINE
8
User.Eco1
6
CONTINUOUS
10
23.6775950000000002
20
18.7392000000000003
11
23.5837949999999985
21
18.7106999999999992
0
LINE
8
User.Eco1
6
CONTINUOUS
10
23.5837949999999985
20
18.7106999999999992
11
23.4862949999999984
21
18.7011000000000003
0
LINE
8
User.Eco1
6
CONTINUOUS
10
23.4862949999999984
20
18.7011000000000003
11
19.9362949999999977
21
18.7011000000000003
0
LINE
8
User.Eco1
6
CONTINUOUS
10
19.9362949999999977
20
18.7011000000000003
11
19.8387949999999975
21
18.7106999999999992
0
LINE
8
User.Eco1
6
CONTINUOUS
10
19.8387949999999975
20
18.7106999999999992
11
19.7449949999999994
21
18.7392000000000003
0
LINE
8
User.Eco1
6
CONTINUOUS
10
19.7449949999999994
20
18.7392000000000003
11
19.6584949999999985
21
18.7853999999999992
0
LINE
8
User.Eco1
6
CONTINUOUS
10
19.6584949999999985
20
18.7853999999999992
11
19.5826949999999975
21
18.8475000000000001
0
LINE
8
User.Eco1
6
CONTINUOUS
10
19.5826949999999975
20
18.8475000000000001
11
19.5205950000000001
21
18.9232999999999976
0
LINE
8
User.Eco1
6
CONTINUOUS
10
19.5205950000000001
20
18.9232999999999976
11
19.4743949999999977
21
19.0097999999999985
0
LINE
8
User.Eco1
6
CONTINUOUS
10
19.4743949999999977
20
19.0097999999999985
11
19.4458950000000002
21
19.1036000000000001
0
LINE
8
User.Eco1
6
CONTINUOUS
10
19.4458950000000002
20
19.1036000000000001
11
19.4362949999999977
21
19.2011000000000003
0
LINE
8
User.Eco1
6
CONTINUOUS
10
19.4362949999999977
20
19.2011000000000003
11
19.4362949999999977
21
19.6010999999999989
0
LINE
8
User.Eco1
6
CONTINUOUS
10
19.4362949999999977
20
19.6010999999999989
11
-0.013705
21
19.6010999999999989
0
LINE
8
User.Eco1
6
CONTINUOUS
10
-0.013705
20
19.6010999999999989
11
-0.013705
21
19.2011000000000003
0
LINE
8
User.Eco1
6
CONTINUOUS
10
-0.013705
20
19.2011000000000003
11
-0.023305
21
19.1036000000000001
0
LINE
8
User.Eco1
6
CONTINUOUS
10
-0.023305
20
19.1036000000000001
11
-0.051805
21
19.0097999999999985
0
LINE
8
User.Eco1
6
CONTINUOUS
10
-0.051805
20
19.0097999999999985
11
-0.098005
21
18.9232999999999976
0
LINE
8
User.Eco1
6
CONTINUOUS
10
-0.098005
20
18.9232999999999976
11
-0.160105
21
18.8475000000000001
0
LINE
8
User.Eco1
6
CONTINUOUS
10
-0.160105
20
18.8475000000000001
11
-0.235905
21
18.7853999999999992
0
LINE
8
User.Eco1
6
CONTINUOUS
10
-0.235905
20
18.7853999999999992
11
-0.322405
21
18.7392000000000003
0
LINE
8
User.Eco1
6
CONTINUOUS
10
-0.322405
20
18.7392000000000003
11
-0.416205
21
18.7106999999999992
0
LINE
8
User.Eco1
6
CONTINUOUS
10
-0.416205
20
18.7106999999999992
11
-0.513705
21
18.7011000000000003
0
LINE
8
User.Eco1
6
CONTINUOUS
10
-0.513705
20
18.7011000000000003
11
-4.0637049999999997
21
18.7011000000000003
0
LINE
8
User.Eco1
6
CONTINUOUS
10
-4.0637049999999997
20
18.7011000000000003
11
-4.1612049999999998
21
18.7106999999999992
0
LINE
8
User.Eco1
6
CONTINUOUS
10
-4.1612049999999998
20
18.7106999999999992
11
-4.2550049999999997
21
18.7392000000000003
0
LINE
8
User.Eco1
6
CONTINUOUS
10
-4.2550049999999997
20
18.7392000000000003
11
-4.3415049999999997
21
18.7853999999999992
0
LINE
8
User.Eco1
6
CONTINUOUS
10
-4.3415049999999997
20
18.7853999999999992
11
-4.4173049999999998
21
18.8475000000000001
0
LINE
8
User.Eco1
6
CONTINUOUS
10
-4.4173049999999998
20
18.8475000000000001
11
-4.4794049999999999
21
18.9232999999999976
0
LINE
8
User.Eco1
6
CONTINUOUS
10
-4.4794049999999999
20
18.9232999999999976
11
-4.5256049999999997
21
19.0097999999999985
0
LINE
8
User.Eco1
6
CONTINUOUS
10
-4.5256049999999997
20
19.0097999999999985
11
-4.5541049999999998
21
19.1036000000000001
0
LINE
8
User.Eco1
6
CONTINUOUS
10
-4.5541049999999998
20
19.1036000000000001
11
-4.5637049999999997
21
19.2011000000000003
0
LINE
8
User.Eco1
6
CONTINUOUS
10
-4.5637049999999997
20
19.2011000000000003
11
-4.5637049999999997
21
24.2628999999999984
0
LINE
8
User.Eco1
6
CONTINUOUS
10
-4.5637049999999997
20
24.2628999999999984
11
-4.7637049999999999
21
24.2628999999999984
0
LINE
8
User.Eco1
6
CONTINUOUS
10
-4.7637049999999999
20
24.2628999999999984
11
-4.861205
21
24.2724999999999973
0
LINE
8
User.Eco1
6
CONTINUOUS
10
-4.861205
20
24.2724999999999973
11
-4.9550049999999999
21
24.3009999999999984
0
LINE
8
User.Eco1
6
CONTINUOUS
10
-4.9550049999999999
20
24.3009999999999984
11
-5.0415049999999999
21
24.3471999999999973
0
LINE
8
User.Eco1
6
CONTINUOUS
10
-5.0415049999999999
20
24.3471999999999973
11
-5.117305
21
24.4092999999999982
0
LINE
8
User.Eco1
6
CONTINUOUS
10
-5.117305
20
24.4092999999999982
11
-5.179405
21
24.4850999999999992
0
LINE
8
User.Eco1
6
CONTINUOUS
10
-5.179405
20
24.4850999999999992
11
-5.2256049999999998
21
24.5716000000000001
0
LINE
8
User.Eco1
6
CONTINUOUS
10
-5.2256049999999998
20
24.5716000000000001
11
-5.254105
21
24.6653999999999982
0
LINE
8
User.Eco1
6
CONTINUOUS
10
-5.254105
20
24.6653999999999982
11
-5.2637049999999999
21
24.7628999999999984
0
LINE
8
User.Eco1
6
CONTINUOUS
10
-5.2637049999999999
20
24.7628999999999984
11
-5.2637049999999999
21
31.7128999999999976
0
LINE
8
User.Eco1
6
CONTINUOUS
10
-5.2637049999999999
20
31.7128999999999976
11
-5.254105
21
31.8103999999999978
0
LINE
8
User.Eco1
6
CONTINUOUS
10
-5.254105
20
31.8103999999999978
11
-5.2256049999999998
21
31.9041999999999994
0
LINE
8
User.Eco1
6
CONTINUOUS
10
-5.2256049999999998
20
31.9041999999999994
11
-5.179405
21
31.9906999999999968
0
LINE
8
User.Eco1
6
CONTINUOUS
10
-5.179405
20
31.9906999999999968
11
-5.117305
21
32.0664999999999978
0
LINE
8
User.Eco1
6
CONTINUOUS
10
-5.117305
20
32.0664999999999978
11
-5.0415049999999999
21
32.1285999999999987
0
LINE
8
User.Eco1
6
CONTINUOUS
10
-5.0415049999999999
20
32.1285999999999987
11
-4.9550049999999999
21
32.1747999999999976
0
LINE
8
User.Eco1
6
CONTINUOUS
10
-4.9550049999999999
20
32.1747999999999976
11
-4.861205
21
32.2032999999999987
0
LINE
8
User.Eco1
6
CONTINUOUS
10
-4.861205
20
32.2032999999999987
11
-4.7637049999999999
21
32.2128999999999976
0
LINE
8
User.Eco1
6
CONTINUOUS
10
-4.7637049999999999
20
32.2128999999999976
11
0.186295
21
32.2128999999999976
0
LINE
8
User.Eco1
6
CONTINUOUS
10
0.186295
20
32.2128999999999976
11
0.283795
21
32.2032999999999987
0
LINE
8
User.Eco1
6
CONTINUOUS
10
154.0999999999999943
20
99.144999999999996
11
154.0999999999999943
21
98.5450000000000017
0
ARC
8
User.Eco1
10
154.4000000000000057
20
98.5450000000000017
40
0.3
50
-180.00000000
51
0.00000000
0
LINE
8
User.Eco1
6
CONTINUOUS
10
154.6999999999999886
20
98.5450000000000017
11
154.6999999999999886
21
99.144999999999996
0
ARC
8
User.Eco1
10
154.4000000000000057
20
99.144999999999996
40
0.3
50
0.00000000
51
180.00000000
0
LINE
8
User.Eco1
6
CONTINUOUS
10
154.0999999999999943
20
95.2149999999999892
11
154.0999999999999943
21
94.1149999999999949
0
ARC
8
User.Eco1
10
154.4000000000000057
20
94.1149999999999949
40
0.3
50
-180.00000000
51
0.00000000
0
LINE
8
User.Eco1
6
CONTINUOUS
10
154.6999999999999886
20
94.1149999999999949
11
154.6999999999999886
21
95.2149999999999892
0
ARC
8
User.Eco1
10
154.4000000000000057
20
95.2149999999999892
40
0.3
50
0.00000000
51
180.00000000
0
LINE
8
User.Eco1
6
CONTINUOUS
10
145.4599999999999795
20
95.2149999999999892
11
145.4599999999999795
21
94.1149999999999949
0
ARC
8
User.Eco1
10
145.7599999999999909
20
94.1149999999999949
40
0.3
50
-180.00000000
51
0.00000000
0
LINE
8
User.Eco1
6
CONTINUOUS
10
146.0600000000000023
20
94.1149999999999949
11
146.0600000000000023
21
95.2149999999999892
0
ARC
8
User.Eco1
10
145.7599999999999909
20
95.2149999999999892
40
0.3
50
0.00000000
51
180.00000000
0
LINE
8
User.Eco1
6
CONTINUOUS
10
145.4599999999999795
20
99.144999999999996
11
145.4599999999999795
21
98.5450000000000017
0
ARC
8
User.Eco1
10
145.7599999999999909
20
98.5450000000000017
40
0.3
50
-180.00000000
51
0.00000000
0
LINE
8
User.Eco1
6
CONTINUOUS
10
146.0600000000000023
20
98.5450000000000017
11
146.0600000000000023
21
99.144999999999996
0
ARC
8
User.Eco1
10
145.7599999999999909
20
99.144999999999996
40
0.3
50
0.00000000
51
180.00000000
0
LINE
8
User.Eco1
6
CONTINUOUS
10
308.9297500000000127
20
67.7150000000000034
11
308.32974999999999
21
67.7150000000000034
0
ARC
8
User.Eco1
10
308.32974999999999
20
67.414999999999992
40
0.3
50
90.00000000
51
270.00000000
0
LINE
8
User.Eco1
6
CONTINUOUS
10
308.32974999999999
20
67.1149999999999949
11
308.9297500000000127
21
67.1149999999999949
0
ARC
8
User.Eco1
10
308.9297500000000127
20
67.414999999999992
40
0.3
50
270.00000000
51
450.00000000
0
LINE
8
User.Eco1
6
CONTINUOUS
10
304.9997500000000059
20
67.7150000000000034
11
303.8997499999999832
21
67.7150000000000034
0
ARC
8
User.Eco1
10
303.8997499999999832
20
67.414999999999992
40
0.3
50
90.00000000
51
270.00000000
0
LINE
8
User.Eco1
6
CONTINUOUS
10
303.8997499999999832
20
67.1149999999999949
11
304.9997500000000059
21
67.1149999999999949
0
ARC
8
User.Eco1
10
304.9997500000000059
20
67.414999999999992
40
0.3
50
270.00000000
51
450.00000000
0
LINE
8
User.Eco1
6
CONTINUOUS
10
304.9997500000000059
20
76.3549999999999898
11
303.8997499999999832
21
76.3549999999999898
0
ARC
8
User.Eco1
10
303.8997499999999832
20
76.0549999999999926
40
0.3
50
90.00000000
51
270.00000000
0
LINE
8
User.Eco1
6
CONTINUOUS
10
303.8997499999999832
20
75.7549999999999955
11
304.9997500000000059
21
75.7549999999999955
0
ARC
8
User.Eco1
10
304.9997500000000059
20
76.0549999999999926
40
0.3
50
270.00000000
51
450.00000000
0
LINE
8
User.Eco1
6
CONTINUOUS
10
308.9297500000000127
20
76.3549999999999898
11
308.32974999999999
21
76.3549999999999898
0
ARC
8
User.Eco1
10
308.32974999999999
20
76.0549999999999926
40
0.3
50
90.00000000
51
270.00000000
0
LINE
8
User.Eco1
6
CONTINUOUS
10
308.32974999999999
20
75.7549999999999955
11
308.9297500000000127
21
75.7549999999999955
0
ARC
8
User.Eco1
10
308.9297500000000127
20
76.0549999999999926
40
0.3
50
270.00000000
51
450.00000000
0
LINE
8
User.Eco1
6
CONTINUOUS
10
121.6099999999999994
20
99.144999999999996
11
121.6099999999999994
21
98.5450000000000017
0
ARC
8
User.Eco1
10
121.9099999999999966
20
98.5450000000000017
40
0.3
50
-180.00000000
51
0.00000000
0
LINE
8
User.Eco1
6
CONTINUOUS
10
122.2099999999999937
20
98.5450000000000017
11
122.2099999999999937
21
99.144999999999996
0
ARC
8
User.Eco1
10
121.9099999999999966
20
99.144999999999996
40
0.3
50
0.00000000
51
180.00000000
0
LINE
8
User.Eco1
6
CONTINUOUS
10
121.6099999999999994
20
95.2149999999999892
11
121.6099999999999994
21
94.1149999999999949
0
ARC
8
User.Eco1
10
121.9099999999999966
20
94.1149999999999949
40
0.3
50
-180.00000000
51
0.00000000
0
LINE
8
User.Eco1
6
CONTINUOUS
10
122.2099999999999937
20
94.1149999999999949
11
122.2099999999999937
21
95.2149999999999892
0
ARC
8
User.Eco1
10
121.9099999999999966
20
95.2149999999999892
40
0.3
50
0.00000000
51
180.00000000
0
LINE
8
User.Eco1
6
CONTINUOUS
10
112.9699999999999989
20
95.2149999999999892
11
112.9699999999999989
21
94.1149999999999949
0
ARC
8
User.Eco1
10
113.269999999999996
20
94.1149999999999949
40
0.3
50
-180.00000000
51
0.00000000
0
LINE
8
User.Eco1
6
CONTINUOUS
10
113.5699999999999932
20
94.1149999999999949
11
113.5699999999999932
21
95.2149999999999892
0
ARC
8
User.Eco1
10
113.269999999999996
20
95.2149999999999892
40
0.3
50
0.00000000
51
180.00000000
0
LINE
8
User.Eco1
6
CONTINUOUS
10
112.9699999999999989
20
99.144999999999996
11
112.9699999999999989
21
98.5450000000000017
0
ARC
8
User.Eco1
10
113.269999999999996
20
98.5450000000000017
40
0.3
50
-180.00000000
51
0.00000000
0
LINE
8
User.Eco1
6
CONTINUOUS
10
113.5699999999999932
20
98.5450000000000017
11
113.5699999999999932
21
99.144999999999996
0
ARC
8
User.Eco1
10
113.269999999999996
20
99.144999999999996
40
0.3
50
0.00000000
51
180.00000000
0
LINE
8
User.Eco1
6
CONTINUOUS
10
-17.0852499999999985
20
75.7549999999999955
11
-16.4852500000000006
21
75.7549999999999955
0
ARC
8
User.Eco1
10
-16.4852500000000006
20
76.0549999999999926
40
0.3
50
-90.00000000
51
90.00000000
0
LINE
8
User.Eco1
6
CONTINUOUS
10
-16.4852500000000006
20
76.3549999999999898
11
-17.0852499999999985
21
76.3549999999999898
0
ARC
8
User.Eco1
10
-17.0852499999999985
20
76.0549999999999926
40
0.3
50
90.00000000
51
270.00000000
0
LINE
8
User.Eco1
6
CONTINUOUS
10
-13.1552499999999988
20
75.7549999999999955
11
-12.0552499999999991
21
75.7549999999999955
0
ARC
8
User.Eco1
10
-12.0552499999999991
20
76.0549999999999926
40
0.3
50
-90.00000000
51
90.00000000
0
LINE
8
User.Eco1
6
CONTINUOUS
10
-12.0552499999999991
20
76.3549999999999898
11
-13.1552499999999988
21
76.3549999999999898
0
ARC
8
User.Eco1
10
-13.1552499999999988
20
76.0549999999999926
40
0.3
50
90.00000000
51
270.00000000
0
LINE
8
User.Eco1
6
CONTINUOUS
10
-13.1552499999999988
20
67.1149999999999949
11
-12.0552499999999991
21
67.1149999999999949
0
ARC
8
User.Eco1
10
-12.0552499999999991
20
67.414999999999992
40
0.3
50
-90.00000000
51
90.00000000
0
LINE
8
User.Eco1
6
CONTINUOUS
10
-12.0552499999999991
20
67.7150000000000034
11
-13.1552499999999988
21
67.7150000000000034
0
ARC
8
User.Eco1
10
-13.1552499999999988
20
67.414999999999992
40
0.3
50
90.00000000
51
270.00000000
0
LINE
8
User.Eco1
6
CONTINUOUS
10
-17.0852499999999985
20
67.1149999999999949
11
-16.4852500000000006
21
67.1149999999999949
0
ARC
8
User.Eco1
10
-16.4852500000000006
20
67.414999999999992
40
0.3
50
-90.00000000
51
90.00000000
0
LINE
8
User.Eco1
6
CONTINUOUS
10
-16.4852500000000006
20
67.7150000000000034
11
-17.0852499999999985
21
67.7150000000000034
0
ARC
8
User.Eco1
10
-17.0852499999999985
20
67.414999999999992
40
0.3
50
90.00000000
51
270.00000000
  0
ENDSEC
  0
EOF
