  0
SECTION
  2
HEADER
  9
$ANGBASE
  50
0.0
  9
$ANGDIR
  70
1
  9
$MEASUREMENT
  70
1
  9
$INSUNITS
  70
4
  0
ENDSEC
  0
SECTION
  2
TABLES
  0
TABLE
  2
LTYPE
  70
4
  0
LTYPE
  5
40F
  2
CONTINUOUS
  70
0
  3
Solid line
  72
65
  73
0
  40
0.0
  0
LTYPE
  5
410
  2
DASHDOT
 70
0
  3
Dash Dot ____ _ ____ _
 72
65
 73
4
 40
2.0
 49
1.25
 49
-0.25
 49
0.25
 49
-0.25
  0
LTYPE
  5
411
  2
DASHED
 70
0
  3
Dashed __ __ __ __ __
 72
65
 73
2
 40
0.75
 49
0.5
 49
-0.25
  0
LTYPE
  5
43B
  2
DOTTED
 70
0
  3
Dotted .  .  .  .
 72
65
 73
2
 40
0.2
 49
0.0
 49
-0.2
  0
ENDTAB
  0
TABLE
  2
STYLE
  70
4
  0
STYLE
  2
KICAD
  70
0
  40
0
  41
1
  42
1
  50
0
  71
0
  3
isocp.shx
  0
STYLE
  2
KICADB
  70
0
  40
0
  41
1
  42
1
  50
0
  71
0
  3
isocp.shx
  0
STYLE
  2
KICADI
  70
0
  40
0
  41
1
  42
1
  50
15
  71
0
  3
isocp.shx
  0
STYLE
  2
KICADBI
  70
0
  40
0
  41
1
  42
1
  50
15
  71
0
  3
isocp.shx
  0
ENDTAB
  0
TABLE
  2
LAYER
  70
1
  0
LAYER
  2
Edge.Cuts
  70
0
  62
254
  420
13685453
  6
CONTINUOUS
  0
ENDTAB
  0
ENDSEC
  0
SECTION
  2
ENTITIES
0
LINE
8
Edge.Cuts
6
CONTINUOUS
10
-18.3900000000000006
20
76.7049999999999983
11
-18.3900000000000006
21
66.7650000000000006
0
ARC
8
Edge.Cuts
10
-17.8900000000000006
20
76.7049999999999983
40
0.5
50
90.00000000
51
180.00000000
0
ARC
8
Edge.Cuts
10
-17.8900000000000006
20
66.7650000000000006
40
0.5
50
-180.00000000
51
-90.00000000
0
LINE
8
Edge.Cuts
6
CONTINUOUS
10
-17.8900000000000006
20
66.2650000000000006
11
-14.8899999999999988
21
66.2650000000000006
0
LINE
8
Edge.Cuts
6
CONTINUOUS
10
-14.8899999999999988
20
77.2049999999999983
11
-17.8900000000000006
21
77.2049999999999983
0
ARC
8
Edge.Cuts
10
-14.8899999999999988
20
65.7650000000000006
40
0.5
50
0.00000000
51
90.00000000
0
LINE
8
Edge.Cuts
6
CONTINUOUS
10
-14.3899999999999988
20
95.5450019999999967
11
-14.3899999999999988
21
77.7049999999999983
0
ARC
8
Edge.Cuts
10
-13.4900000000000002
20
95.5450000000000017
40
0.9000000000022222
50
90.00012732
51
179.99987268
0
ARC
8
Edge.Cuts
10
-14.8899999999999988
20
77.7049999999999983
40
0.5
50
-90.00000000
51
-0.00000000
0
LINE
8
Edge.Cuts
6
CONTINUOUS
10
-14.3899999999999988
20
65.7650000000000006
11
-14.3899999999999988
21
-1.073002
0
ARC
8
Edge.Cuts
10
-13.4900000000000002
20
-1.073
40
0.9000000000022222
50
-179.99987268
51
-90.00012732
0
LINE
8
Edge.Cuts
6
CONTINUOUS
10
-13.4900019999999987
20
-1.9729999999999999
11
126.3800019999999904
21
-1.9729999999999999
0
LINE
8
Edge.Cuts
6
CONTINUOUS
10
102.8799999999999955
20
96.4449999999999932
11
-13.4900019999999987
21
96.4449999999999932
0
LINE
8
Edge.Cuts
6
CONTINUOUS
10
102.8799999999999955
20
96.4449999999999932
11
111.5899999999999892
21
96.4449999999999932
0
ARC
8
Edge.Cuts
10
112.5899999999999892
20
99.9449999999999932
40
0.5
50
90.00000000
51
180.00000000
0
ARC
8
Edge.Cuts
10
111.5899999999999892
20
96.9449999999999932
40
0.5
50
-90.00000000
51
-0.00000000
0
LINE
8
Edge.Cuts
6
CONTINUOUS
10
112.0899999999999892
20
96.9449999999999932
11
112.0899999999999892
21
99.9449999999999932
0
LINE
8
Edge.Cuts
6
CONTINUOUS
10
112.5899999999999892
20
100.4449999999999932
11
122.5899999999999892
21
100.4449999999999932
0
ARC
8
Edge.Cuts
10
122.5899999999999892
20
99.9449999999999932
40
0.5
50
0.00000000
51
90.00000000
0
LINE
8
Edge.Cuts
6
CONTINUOUS
10
123.0899999999999892
20
99.9449999999999932
11
123.0899999999999892
21
96.9449999999999932
0
ARC
8
Edge.Cuts
10
123.5899999999999892
20
96.9449999999999932
40
0.5
50
-180.00000000
51
-90.00000000
0
LINE
8
Edge.Cuts
6
CONTINUOUS
10
123.5899999999999892
20
96.4449999999999932
11
126.3799999999999955
21
96.4449999999999932
0
ARC
8
Edge.Cuts
10
126.3799999999999955
20
95.5450000000000017
40
0.9000000000022222
50
0.00012732
51
89.99987268
0
LINE
8
Edge.Cuts
6
CONTINUOUS
10
127.2800000000000011
20
95.5450019999999967
11
127.2800000000000011
21
-1.073002
0
ARC
8
Edge.Cuts
10
126.3799999999999955
20
-1.073
40
0.9000000000022222
50
-89.99987268
51
-0.00012732
0
LINE
8
Edge.Cuts
6
CONTINUOUS
10
140.390749999999997
20
95.5450019999999967
11
140.390749999999997
21
-1.503085
0
ARC
8
Edge.Cuts
10
141.2906999999999869
20
95.5450000000000017
40
0.8999500000022224
50
89.99694423
51
179.99987267
0
ARC
8
Edge.Cuts
10
141.2905999999999835
20
-1.5031999999999999
40
0.8998240023476812
50
-180.00732215
51
-89.99586116
0
LINE
8
Edge.Cuts
6
CONTINUOUS
10
141.29066499999999
20
-2.4030239999999998
11
305.330001999999979
21
-2.403
0
LINE
8
Edge.Cuts
6
CONTINUOUS
10
141.2907480000000078
20
96.4449999999999932
11
144.0799999999999841
21
96.4449999999999932
0
ARC
8
Edge.Cuts
10
145.0799999999999841
20
99.9449999999999932
40
0.5
50
90.00000000
51
180.00000000
0
ARC
8
Edge.Cuts
10
144.0799999999999841
20
96.9449999999999932
40
0.5
50
-90.00000000
51
-0.00000000
0
LINE
8
Edge.Cuts
6
CONTINUOUS
10
144.5799999999999841
20
96.9449999999999932
11
144.5799999999999841
21
99.9449999999999932
0
LINE
8
Edge.Cuts
6
CONTINUOUS
10
145.0799999999999841
20
100.4449999999999932
11
155.0799999999999841
21
100.4449999999999932
0
ARC
8
Edge.Cuts
10
155.0799999999999841
20
99.9449999999999932
40
0.5
50
0.00000000
51
90.00000000
0
LINE
8
Edge.Cuts
6
CONTINUOUS
10
155.5799999999999841
20
99.9449999999999932
11
155.5799999999999841
21
96.9449999999999932
0
ARC
8
Edge.Cuts
10
156.0799999999999841
20
96.9449999999999932
40
0.5
50
-180.00000000
51
-90.00000000
0
LINE
8
Edge.Cuts
6
CONTINUOUS
10
156.0799999999999841
20
96.4449999999999932
11
166.4909999999999854
21
96.4449999999999932
0
LINE
8
Edge.Cuts
6
CONTINUOUS
10
305.330001999999979
20
96.4449999999999932
11
166.4909999999999854
21
96.4449999999999932
0
ARC
8
Edge.Cuts
10
305.3299999999999841
20
95.5450000000000017
40
0.9000000000022222
50
0.00012732
51
89.99987268
0
LINE
8
Edge.Cuts
6
CONTINUOUS
10
306.2299999999999613
20
95.5450019999999967
11
306.2299999999999613
21
77.7049999999999983
0
ARC
8
Edge.Cuts
10
306.7299999999999613
20
65.7650000000000006
40
0.5
50
90.00000000
51
180.00000000
0
ARC
8
Edge.Cuts
10
305.3299999999999841
20
-1.5029999999999999
40
0.9000000000022222
50
-89.99987268
51
-0.00012732
0
LINE
8
Edge.Cuts
6
CONTINUOUS
10
306.2299999999999613
20
-1.5030019999999999
11
306.2299999999999613
21
65.7650000000000006
0
ARC
8
Edge.Cuts
10
306.7299999999999613
20
77.7049999999999983
40
0.5
50
-180.00000000
51
-90.00000000
0
LINE
8
Edge.Cuts
6
CONTINUOUS
10
306.7299999999999613
20
77.2049999999999983
11
309.7299999999999613
21
77.2049999999999983
0
ARC
8
Edge.Cuts
10
309.7299999999999613
20
76.7049999999999983
40
0.5
50
0.00000000
51
90.00000000
0
LINE
8
Edge.Cuts
6
CONTINUOUS
10
309.7299999999999613
20
66.2650000000000006
11
306.7299999999999613
21
66.2650000000000006
0
LINE
8
Edge.Cuts
6
CONTINUOUS
10
310.2299999999999613
20
76.7049999999999983
11
310.2299999999999613
21
66.7650000000000006
0
ARC
8
Edge.Cuts
10
309.7299999999999613
20
66.7650000000000006
40
0.5
50
-90.00000000
51
-0.00000000
0
LINE
8
Edge.Cuts
6
CONTINUOUS
10
217.4644999999999868
20
92.4500000000000028
11
221.0644999999999811
21
92.4500000000000028
0
LINE
8
Edge.Cuts
6
CONTINUOUS
10
217.4644999999999868
20
89.3499999999999943
11
217.4644999999999868
21
92.4500000000000028
0
LINE
8
Edge.Cuts
6
CONTINUOUS
10
221.0644999999999811
20
92.4500000000000028
11
221.0644999999999811
21
89.3499999999999943
0
LINE
8
Edge.Cuts
6
CONTINUOUS
10
221.0644999999999811
20
89.3499999999999943
11
217.4644999999999868
21
89.3499999999999943
0
LINE
8
Edge.Cuts
6
CONTINUOUS
10
179.3644999999999925
20
92.4500000000000028
11
182.9644999999999868
21
92.4500000000000028
0
LINE
8
Edge.Cuts
6
CONTINUOUS
10
179.3644999999999925
20
89.3499999999999943
11
179.3644999999999925
21
92.4500000000000028
0
LINE
8
Edge.Cuts
6
CONTINUOUS
10
182.9644999999999868
20
92.4500000000000028
11
182.9644999999999868
21
89.3499999999999943
0
LINE
8
Edge.Cuts
6
CONTINUOUS
10
182.9644999999999868
20
89.3499999999999943
11
179.3644999999999925
21
89.3499999999999943
0
LINE
8
Edge.Cuts
6
CONTINUOUS
10
236.5144999999999982
20
92.4500000000000028
11
240.1144999999999925
21
92.4500000000000028
0
LINE
8
Edge.Cuts
6
CONTINUOUS
10
236.5144999999999982
20
89.3499999999999943
11
236.5144999999999982
21
92.4500000000000028
0
LINE
8
Edge.Cuts
6
CONTINUOUS
10
240.1144999999999925
20
92.4500000000000028
11
240.1144999999999925
21
89.3499999999999943
0
LINE
8
Edge.Cuts
6
CONTINUOUS
10
240.1144999999999925
20
89.3499999999999943
11
236.5144999999999982
21
89.3499999999999943
0
LINE
8
Edge.Cuts
6
CONTINUOUS
10
255.5644999999999811
20
92.4500000000000028
11
259.1644999999999754
21
92.4500000000000028
0
LINE
8
Edge.Cuts
6
CONTINUOUS
10
255.5644999999999811
20
89.3499999999999943
11
255.5644999999999811
21
92.4500000000000028
0
LINE
8
Edge.Cuts
6
CONTINUOUS
10
259.1644999999999754
20
92.4500000000000028
11
259.1644999999999754
21
89.3499999999999943
0
LINE
8
Edge.Cuts
6
CONTINUOUS
10
259.1644999999999754
20
89.3499999999999943
11
255.5644999999999811
21
89.3499999999999943
0
LINE
8
Edge.Cuts
6
CONTINUOUS
10
184.1269999999999811
20
35.2999999999999972
11
187.7270000000000039
21
35.2999999999999972
0
LINE
8
Edge.Cuts
6
CONTINUOUS
10
184.1269999999999811
20
32.1999999999999957
11
184.1269999999999811
21
35.2999999999999972
0
LINE
8
Edge.Cuts
6
CONTINUOUS
10
187.7270000000000039
20
35.2999999999999972
11
187.7270000000000039
21
32.1999999999999957
0
LINE
8
Edge.Cuts
6
CONTINUOUS
10
187.7270000000000039
20
32.1999999999999957
11
184.1269999999999811
21
32.1999999999999957
0
LINE
8
Edge.Cuts
6
CONTINUOUS
10
284.1394999999999982
20
92.4500000000000028
11
287.7394999999999641
21
92.4500000000000028
0
LINE
8
Edge.Cuts
6
CONTINUOUS
10
284.1394999999999982
20
89.3499999999999943
11
284.1394999999999982
21
92.4500000000000028
0
LINE
8
Edge.Cuts
6
CONTINUOUS
10
287.7394999999999641
20
92.4500000000000028
11
287.7394999999999641
21
89.3499999999999943
0
LINE
8
Edge.Cuts
6
CONTINUOUS
10
287.7394999999999641
20
89.3499999999999943
11
284.1394999999999982
21
89.3499999999999943
0
LINE
8
Edge.Cuts
6
CONTINUOUS
10
207.9394999999999811
20
73.3999999999999915
11
211.5395000000000039
21
73.3999999999999915
0
LINE
8
Edge.Cuts
6
CONTINUOUS
10
207.9394999999999811
20
70.2999999999999972
11
207.9394999999999811
21
73.3999999999999915
0
LINE
8
Edge.Cuts
6
CONTINUOUS
10
211.5395000000000039
20
73.3999999999999915
11
211.5395000000000039
21
70.2999999999999972
0
LINE
8
Edge.Cuts
6
CONTINUOUS
10
211.5395000000000039
20
70.2999999999999972
11
207.9394999999999811
21
70.2999999999999972
0
LINE
8
Edge.Cuts
6
CONTINUOUS
10
246.0394999999999754
20
73.3999999999999915
11
249.6394999999999982
21
73.3999999999999915
0
LINE
8
Edge.Cuts
6
CONTINUOUS
10
246.0394999999999754
20
70.2999999999999972
11
246.0394999999999754
21
73.3999999999999915
0
LINE
8
Edge.Cuts
6
CONTINUOUS
10
249.6394999999999982
20
73.3999999999999915
11
249.6394999999999982
21
70.2999999999999972
0
LINE
8
Edge.Cuts
6
CONTINUOUS
10
249.6394999999999982
20
70.2999999999999972
11
246.0394999999999754
21
70.2999999999999972
0
LINE
8
Edge.Cuts
6
CONTINUOUS
10
181.7456999999999994
20
16.25
11
185.3456999999999937
21
16.25
0
LINE
8
Edge.Cuts
6
CONTINUOUS
10
181.7456999999999994
20
13.1499999999999986
11
181.7456999999999994
21
16.25
0
LINE
8
Edge.Cuts
6
CONTINUOUS
10
185.3456999999999937
20
16.25
11
185.3456999999999937
21
13.1499999999999986
0
LINE
8
Edge.Cuts
6
CONTINUOUS
10
185.3456999999999937
20
13.1499999999999986
11
181.7456999999999994
21
13.1499999999999986
0
LINE
8
Edge.Cuts
6
CONTINUOUS
10
222.2270000000000039
20
35.2999999999999972
11
225.8269999999999982
21
35.2999999999999972
0
LINE
8
Edge.Cuts
6
CONTINUOUS
10
222.2270000000000039
20
32.1999999999999957
11
222.2270000000000039
21
35.2999999999999972
0
LINE
8
Edge.Cuts
6
CONTINUOUS
10
225.8269999999999982
20
35.2999999999999972
11
225.8269999999999982
21
32.1999999999999957
0
LINE
8
Edge.Cuts
6
CONTINUOUS
10
225.8269999999999982
20
32.1999999999999957
11
222.2270000000000039
21
32.1999999999999957
0
LINE
8
Edge.Cuts
6
CONTINUOUS
10
226.9894999999999925
20
73.3999999999999915
11
230.5894999999999868
21
73.3999999999999915
0
LINE
8
Edge.Cuts
6
CONTINUOUS
10
226.9894999999999925
20
70.2999999999999972
11
226.9894999999999925
21
73.3999999999999915
0
LINE
8
Edge.Cuts
6
CONTINUOUS
10
230.5894999999999868
20
73.3999999999999915
11
230.5894999999999868
21
70.2999999999999972
0
LINE
8
Edge.Cuts
6
CONTINUOUS
10
230.5894999999999868
20
70.2999999999999972
11
226.9894999999999925
21
70.2999999999999972
0
LINE
8
Edge.Cuts
6
CONTINUOUS
10
241.2769999999999868
20
35.2999999999999972
11
244.8769999999999811
21
35.2999999999999972
0
LINE
8
Edge.Cuts
6
CONTINUOUS
10
241.2769999999999868
20
32.1999999999999957
11
241.2769999999999868
21
35.2999999999999972
0
LINE
8
Edge.Cuts
6
CONTINUOUS
10
244.8769999999999811
20
35.2999999999999972
11
244.8769999999999811
21
32.1999999999999957
0
LINE
8
Edge.Cuts
6
CONTINUOUS
10
244.8769999999999811
20
32.1999999999999957
11
241.2769999999999868
21
32.1999999999999957
0
LINE
8
Edge.Cuts
6
CONTINUOUS
10
188.8894999999999982
20
73.3999999999999915
11
192.4894999999999925
21
73.3999999999999915
0
LINE
8
Edge.Cuts
6
CONTINUOUS
10
188.8894999999999982
20
70.2999999999999972
11
188.8894999999999982
21
73.3999999999999915
0
LINE
8
Edge.Cuts
6
CONTINUOUS
10
192.4894999999999925
20
73.3999999999999915
11
192.4894999999999925
21
70.2999999999999972
0
LINE
8
Edge.Cuts
6
CONTINUOUS
10
192.4894999999999925
20
70.2999999999999972
11
188.8894999999999982
21
70.2999999999999972
0
LINE
8
Edge.Cuts
6
CONTINUOUS
10
168.2957499999999982
20
14.2749999999999986
11
174.7957499999999982
21
14.2749999999999986
0
LINE
8
Edge.Cuts
6
CONTINUOUS
10
174.7957499999999982
20
14.2749999999999986
11
174.7957499999999982
21
4.7749999999999995
0
LINE
8
Edge.Cuts
6
CONTINUOUS
10
174.7957499999999982
20
4.7749999999999995
11
168.2957499999999982
21
4.7749999999999995
0
LINE
8
Edge.Cuts
6
CONTINUOUS
10
168.2957499999999982
20
4.7749999999999995
11
168.2957499999999982
21
14.2749999999999986
0
LINE
8
Edge.Cuts
6
CONTINUOUS
10
192.2957499999999982
20
14.2749999999999986
11
198.7957499999999982
21
14.2749999999999986
0
LINE
8
Edge.Cuts
6
CONTINUOUS
10
198.7957499999999982
20
14.2749999999999986
11
198.7957499999999982
21
4.7749999999999995
0
LINE
8
Edge.Cuts
6
CONTINUOUS
10
198.7957499999999982
20
4.7749999999999995
11
192.2957499999999982
21
4.7749999999999995
0
LINE
8
Edge.Cuts
6
CONTINUOUS
10
192.2957499999999982
20
4.7749999999999995
11
192.2957499999999982
21
14.2749999999999986
0
LINE
8
Edge.Cuts
6
CONTINUOUS
10
263.5457499999999982
20
33.3249999999999957
11
270.0457499999999982
21
33.3249999999999957
0
LINE
8
Edge.Cuts
6
CONTINUOUS
10
270.0457499999999982
20
33.3249999999999957
11
270.0457499999999982
21
23.8249999999999993
0
LINE
8
Edge.Cuts
6
CONTINUOUS
10
270.0457499999999982
20
23.8249999999999993
11
263.5457499999999982
21
23.8249999999999993
0
LINE
8
Edge.Cuts
6
CONTINUOUS
10
263.5457499999999982
20
23.8249999999999993
11
263.5457499999999982
21
33.3249999999999957
0
LINE
8
Edge.Cuts
6
CONTINUOUS
10
287.5457499999999982
20
33.3249999999999957
11
294.0457499999999982
21
33.3249999999999957
0
LINE
8
Edge.Cuts
6
CONTINUOUS
10
294.0457499999999982
20
33.3249999999999957
11
294.0457499999999982
21
23.8249999999999993
0
LINE
8
Edge.Cuts
6
CONTINUOUS
10
294.0457499999999982
20
23.8249999999999993
11
287.5457499999999982
21
23.8249999999999993
0
LINE
8
Edge.Cuts
6
CONTINUOUS
10
287.5457499999999982
20
23.8249999999999993
11
287.5457499999999982
21
33.3249999999999957
0
LINE
8
Edge.Cuts
6
CONTINUOUS
10
155.5519999999999925
20
54.3499999999999943
11
159.1519999999999868
21
54.3499999999999943
0
LINE
8
Edge.Cuts
6
CONTINUOUS
10
155.5519999999999925
20
51.25
11
155.5519999999999925
21
54.3499999999999943
0
LINE
8
Edge.Cuts
6
CONTINUOUS
10
159.1519999999999868
20
54.3499999999999943
11
159.1519999999999868
21
51.25
0
LINE
8
Edge.Cuts
6
CONTINUOUS
10
159.1519999999999868
20
51.25
11
155.5519999999999925
21
51.25
0
LINE
8
Edge.Cuts
6
CONTINUOUS
10
212.7019999999999982
20
54.3499999999999943
11
216.3019999999999925
21
54.3499999999999943
0
LINE
8
Edge.Cuts
6
CONTINUOUS
10
212.7019999999999982
20
51.25
11
212.7019999999999982
21
54.3499999999999943
0
LINE
8
Edge.Cuts
6
CONTINUOUS
10
216.3019999999999925
20
54.3499999999999943
11
216.3019999999999925
21
51.25
0
LINE
8
Edge.Cuts
6
CONTINUOUS
10
216.3019999999999925
20
51.25
11
212.7019999999999982
21
51.25
0
LINE
8
Edge.Cuts
6
CONTINUOUS
10
265.0894999999999868
20
73.3999999999999915
11
268.6895000000000095
21
73.3999999999999915
0
LINE
8
Edge.Cuts
6
CONTINUOUS
10
265.0894999999999868
20
70.2999999999999972
11
265.0894999999999868
21
73.3999999999999915
0
LINE
8
Edge.Cuts
6
CONTINUOUS
10
268.6895000000000095
20
73.3999999999999915
11
268.6895000000000095
21
70.2999999999999972
0
LINE
8
Edge.Cuts
6
CONTINUOUS
10
268.6895000000000095
20
70.2999999999999972
11
265.0894999999999868
21
70.2999999999999972
0
LINE
8
Edge.Cuts
6
CONTINUOUS
10
160.3144999999999811
20
92.4500000000000028
11
163.9145000000000039
21
92.4500000000000028
0
LINE
8
Edge.Cuts
6
CONTINUOUS
10
160.3144999999999811
20
89.3499999999999943
11
160.3144999999999811
21
92.4500000000000028
0
LINE
8
Edge.Cuts
6
CONTINUOUS
10
163.9145000000000039
20
92.4500000000000028
11
163.9145000000000039
21
89.3499999999999943
0
LINE
8
Edge.Cuts
6
CONTINUOUS
10
163.9145000000000039
20
89.3499999999999943
11
160.3144999999999811
21
89.3499999999999943
0
LINE
8
Edge.Cuts
6
CONTINUOUS
10
169.8394999999999868
20
73.3999999999999915
11
173.4394999999999811
21
73.3999999999999915
0
LINE
8
Edge.Cuts
6
CONTINUOUS
10
169.8394999999999868
20
70.2999999999999972
11
169.8394999999999868
21
73.3999999999999915
0
LINE
8
Edge.Cuts
6
CONTINUOUS
10
173.4394999999999811
20
73.3999999999999915
11
173.4394999999999811
21
70.2999999999999972
0
LINE
8
Edge.Cuts
6
CONTINUOUS
10
173.4394999999999811
20
70.2999999999999972
11
169.8394999999999868
21
70.2999999999999972
0
LINE
8
Edge.Cuts
6
CONTINUOUS
10
198.4145000000000039
20
92.4500000000000028
11
202.0144999999999982
21
92.4500000000000028
0
LINE
8
Edge.Cuts
6
CONTINUOUS
10
198.4145000000000039
20
89.3499999999999943
11
198.4145000000000039
21
92.4500000000000028
0
LINE
8
Edge.Cuts
6
CONTINUOUS
10
202.0144999999999982
20
92.4500000000000028
11
202.0144999999999982
21
89.3499999999999943
0
LINE
8
Edge.Cuts
6
CONTINUOUS
10
202.0144999999999982
20
89.3499999999999943
11
198.4145000000000039
21
89.3499999999999943
0
LINE
8
Edge.Cuts
6
CONTINUOUS
10
150.7895000000000039
20
73.3999999999999915
11
154.3894999999999982
21
73.3999999999999915
0
LINE
8
Edge.Cuts
6
CONTINUOUS
10
150.7895000000000039
20
70.2999999999999972
11
150.7895000000000039
21
73.3999999999999915
0
LINE
8
Edge.Cuts
6
CONTINUOUS
10
154.3894999999999982
20
73.3999999999999915
11
154.3894999999999982
21
70.2999999999999972
0
LINE
8
Edge.Cuts
6
CONTINUOUS
10
154.3894999999999982
20
70.2999999999999972
11
150.7895000000000039
21
70.2999999999999972
0
LINE
8
Edge.Cuts
6
CONTINUOUS
10
288.9019999999999868
20
73.3999999999999915
11
292.5020000000000095
21
73.3999999999999915
0
LINE
8
Edge.Cuts
6
CONTINUOUS
10
288.9019999999999868
20
70.2999999999999972
11
288.9019999999999868
21
73.3999999999999915
0
LINE
8
Edge.Cuts
6
CONTINUOUS
10
292.5020000000000095
20
73.3999999999999915
11
292.5020000000000095
21
70.2999999999999972
0
LINE
8
Edge.Cuts
6
CONTINUOUS
10
292.5020000000000095
20
70.2999999999999972
11
288.9019999999999868
21
70.2999999999999972
0
LINE
8
Edge.Cuts
6
CONTINUOUS
10
174.6020000000000039
20
54.3499999999999943
11
178.2019999999999982
21
54.3499999999999943
0
LINE
8
Edge.Cuts
6
CONTINUOUS
10
174.6020000000000039
20
51.25
11
174.6020000000000039
21
54.3499999999999943
0
LINE
8
Edge.Cuts
6
CONTINUOUS
10
178.2019999999999982
20
54.3499999999999943
11
178.2019999999999982
21
51.25
0
LINE
8
Edge.Cuts
6
CONTINUOUS
10
178.2019999999999982
20
51.25
11
174.6020000000000039
21
51.25
0
LINE
8
Edge.Cuts
6
CONTINUOUS
10
193.6519999999999868
20
54.3499999999999943
11
197.2519999999999811
21
54.3499999999999943
0
LINE
8
Edge.Cuts
6
CONTINUOUS
10
193.6519999999999868
20
51.25
11
193.6519999999999868
21
54.3499999999999943
0
LINE
8
Edge.Cuts
6
CONTINUOUS
10
197.2519999999999811
20
54.3499999999999943
11
197.2519999999999811
21
51.25
0
LINE
8
Edge.Cuts
6
CONTINUOUS
10
197.2519999999999811
20
51.25
11
193.6519999999999868
21
51.25
0
LINE
8
Edge.Cuts
6
CONTINUOUS
10
231.7519999999999811
20
54.3499999999999943
11
235.3519999999999754
21
54.3499999999999943
0
LINE
8
Edge.Cuts
6
CONTINUOUS
10
231.7519999999999811
20
51.25
11
231.7519999999999811
21
54.3499999999999943
0
LINE
8
Edge.Cuts
6
CONTINUOUS
10
235.3519999999999754
20
54.3499999999999943
11
235.3519999999999754
21
51.25
0
LINE
8
Edge.Cuts
6
CONTINUOUS
10
235.3519999999999754
20
51.25
11
231.7519999999999811
21
51.25
0
LINE
8
Edge.Cuts
6
CONTINUOUS
10
268.3082499999999868
20
52.375
11
274.8082499999999868
21
52.375
0
LINE
8
Edge.Cuts
6
CONTINUOUS
10
274.8082499999999868
20
52.375
11
274.8082499999999868
21
42.875
0
LINE
8
Edge.Cuts
6
CONTINUOUS
10
274.8082499999999868
20
42.875
11
268.3082499999999868
21
42.875
0
LINE
8
Edge.Cuts
6
CONTINUOUS
10
268.3082499999999868
20
42.875
11
268.3082499999999868
21
52.375
0
LINE
8
Edge.Cuts
6
CONTINUOUS
10
292.3082499999999868
20
52.375
11
298.8082499999999868
21
52.375
0
LINE
8
Edge.Cuts
6
CONTINUOUS
10
298.8082499999999868
20
52.375
11
298.8082499999999868
21
42.875
0
LINE
8
Edge.Cuts
6
CONTINUOUS
10
298.8082499999999868
20
42.875
11
292.3082499999999868
21
42.875
0
LINE
8
Edge.Cuts
6
CONTINUOUS
10
292.3082499999999868
20
42.875
11
292.3082499999999868
21
52.375
0
LINE
8
Edge.Cuts
6
CONTINUOUS
10
250.8019999999999925
20
54.3499999999999943
11
254.4019999999999868
21
54.3499999999999943
0
LINE
8
Edge.Cuts
6
CONTINUOUS
10
250.8019999999999925
20
51.25
11
250.8019999999999925
21
54.3499999999999943
0
LINE
8
Edge.Cuts
6
CONTINUOUS
10
254.4019999999999868
20
54.3499999999999943
11
254.4019999999999868
21
51.25
0
LINE
8
Edge.Cuts
6
CONTINUOUS
10
254.4019999999999868
20
51.25
11
250.8019999999999925
21
51.25
0
LINE
8
Edge.Cuts
6
CONTINUOUS
10
281.7582999999999629
20
54.3499999999999943
11
285.3582999999999856
21
54.3499999999999943
0
LINE
8
Edge.Cuts
6
CONTINUOUS
10
281.7582999999999629
20
51.25
11
281.7582999999999629
21
54.3499999999999943
0
LINE
8
Edge.Cuts
6
CONTINUOUS
10
285.3582999999999856
20
54.3499999999999943
11
285.3582999999999856
21
51.25
0
LINE
8
Edge.Cuts
6
CONTINUOUS
10
285.3582999999999856
20
51.25
11
281.7582999999999629
21
51.25
0
LINE
8
Edge.Cuts
6
CONTINUOUS
10
165.0769999999999982
20
35.2999999999999972
11
168.6769999999999925
21
35.2999999999999972
0
LINE
8
Edge.Cuts
6
CONTINUOUS
10
165.0769999999999982
20
32.1999999999999957
11
165.0769999999999982
21
35.2999999999999972
0
LINE
8
Edge.Cuts
6
CONTINUOUS
10
168.6769999999999925
20
35.2999999999999972
11
168.6769999999999925
21
32.1999999999999957
0
LINE
8
Edge.Cuts
6
CONTINUOUS
10
168.6769999999999925
20
32.1999999999999957
11
165.0769999999999982
21
32.1999999999999957
0
LINE
8
Edge.Cuts
6
CONTINUOUS
10
203.1769999999999925
20
35.2999999999999972
11
206.7769999999999868
21
35.2999999999999972
0
LINE
8
Edge.Cuts
6
CONTINUOUS
10
203.1769999999999925
20
32.1999999999999957
11
203.1769999999999925
21
35.2999999999999972
0
LINE
8
Edge.Cuts
6
CONTINUOUS
10
206.7769999999999868
20
35.2999999999999972
11
206.7769999999999868
21
32.1999999999999957
0
LINE
8
Edge.Cuts
6
CONTINUOUS
10
206.7769999999999868
20
32.1999999999999957
11
203.1769999999999925
21
32.1999999999999957
0
LINE
8
Edge.Cuts
6
CONTINUOUS
10
243.6581999999999937
20
16.25
11
247.258199999999988
21
16.25
0
LINE
8
Edge.Cuts
6
CONTINUOUS
10
243.6581999999999937
20
13.1499999999999986
11
243.6581999999999937
21
16.25
0
LINE
8
Edge.Cuts
6
CONTINUOUS
10
247.258199999999988
20
16.25
11
247.258199999999988
21
13.1499999999999986
0
LINE
8
Edge.Cuts
6
CONTINUOUS
10
247.258199999999988
20
13.1499999999999986
11
243.6581999999999937
21
13.1499999999999986
0
LINE
8
Edge.Cuts
6
CONTINUOUS
10
267.4706999999999653
20
16.25
11
271.070699999999988
21
16.25
0
LINE
8
Edge.Cuts
6
CONTINUOUS
10
267.4706999999999653
20
13.1499999999999986
11
267.4706999999999653
21
16.25
0
LINE
8
Edge.Cuts
6
CONTINUOUS
10
271.070699999999988
20
16.25
11
271.070699999999988
21
13.1499999999999986
0
LINE
8
Edge.Cuts
6
CONTINUOUS
10
271.070699999999988
20
13.1499999999999986
11
267.4706999999999653
21
13.1499999999999986
0
LINE
8
Edge.Cuts
6
CONTINUOUS
10
291.2831999999999653
20
16.25
11
294.883199999999988
21
16.25
0
LINE
8
Edge.Cuts
6
CONTINUOUS
10
291.2831999999999653
20
13.1499999999999986
11
291.2831999999999653
21
16.25
0
LINE
8
Edge.Cuts
6
CONTINUOUS
10
294.883199999999988
20
16.25
11
294.883199999999988
21
13.1499999999999986
0
LINE
8
Edge.Cuts
6
CONTINUOUS
10
294.883199999999988
20
13.1499999999999986
11
291.2831999999999653
21
13.1499999999999986
0
LINE
8
Edge.Cuts
6
CONTINUOUS
10
276.9957999999999743
20
35.2999999999999972
11
280.595799999999997
21
35.2999999999999972
0
LINE
8
Edge.Cuts
6
CONTINUOUS
10
276.9957999999999743
20
32.1999999999999957
11
276.9957999999999743
21
35.2999999999999972
0
LINE
8
Edge.Cuts
6
CONTINUOUS
10
280.595799999999997
20
35.2999999999999972
11
280.595799999999997
21
32.1999999999999957
0
LINE
8
Edge.Cuts
6
CONTINUOUS
10
280.595799999999997
20
32.1999999999999957
11
276.9957999999999743
21
32.1999999999999957
0
LINE
8
Edge.Cuts
6
CONTINUOUS
10
219.8456999999999937
20
16.25
11
223.445699999999988
21
16.25
0
LINE
8
Edge.Cuts
6
CONTINUOUS
10
219.8456999999999937
20
13.1499999999999986
11
219.8456999999999937
21
16.25
0
LINE
8
Edge.Cuts
6
CONTINUOUS
10
223.445699999999988
20
16.25
11
223.445699999999988
21
13.1499999999999986
0
LINE
8
Edge.Cuts
6
CONTINUOUS
10
223.445699999999988
20
13.1499999999999986
11
219.8456999999999937
21
13.1499999999999986
0
LINE
8
Edge.Cuts
6
CONTINUOUS
10
53.1550000000000011
20
92.4569999999999936
11
56.7549999999999955
21
92.4569999999999936
0
LINE
8
Edge.Cuts
6
CONTINUOUS
10
53.1550000000000011
20
89.3569999999999993
11
53.1550000000000011
21
92.4569999999999936
0
LINE
8
Edge.Cuts
6
CONTINUOUS
10
56.7549999999999955
20
92.4569999999999936
11
56.7549999999999955
21
89.3569999999999993
0
LINE
8
Edge.Cuts
6
CONTINUOUS
10
56.7549999999999955
20
89.3569999999999993
11
53.1550000000000011
21
89.3569999999999993
0
LINE
8
Edge.Cuts
6
CONTINUOUS
10
43.6299999999999955
20
73.4069999999999965
11
47.2299999999999969
21
73.4069999999999965
0
LINE
8
Edge.Cuts
6
CONTINUOUS
10
43.6299999999999955
20
70.3070000000000022
11
43.6299999999999955
21
73.4069999999999965
0
LINE
8
Edge.Cuts
6
CONTINUOUS
10
47.2299999999999969
20
73.4069999999999965
11
47.2299999999999969
21
70.3070000000000022
0
LINE
8
Edge.Cuts
6
CONTINUOUS
10
47.2299999999999969
20
70.3070000000000022
11
43.6299999999999955
21
70.3070000000000022
0
LINE
8
Edge.Cuts
6
CONTINUOUS
10
62.6799999999999997
20
73.4069999999999965
11
66.2800000000000011
21
73.4069999999999965
0
LINE
8
Edge.Cuts
6
CONTINUOUS
10
62.6799999999999997
20
70.3070000000000022
11
62.6799999999999997
21
73.4069999999999965
0
LINE
8
Edge.Cuts
6
CONTINUOUS
10
66.2800000000000011
20
73.4069999999999965
11
66.2800000000000011
21
70.3070000000000022
0
LINE
8
Edge.Cuts
6
CONTINUOUS
10
66.2800000000000011
20
70.3070000000000022
11
62.6799999999999997
21
70.3070000000000022
0
LINE
8
Edge.Cuts
6
CONTINUOUS
10
-1.6136999999999999
20
16.2569999999999979
11
1.9863
21
16.2569999999999979
0
LINE
8
Edge.Cuts
6
CONTINUOUS
10
-1.6136999999999999
20
13.157
11
-1.6136999999999999
21
16.2569999999999979
0
LINE
8
Edge.Cuts
6
CONTINUOUS
10
1.9863
20
16.2569999999999979
11
1.9863
21
13.157
0
LINE
8
Edge.Cuts
6
CONTINUOUS
10
1.9863
20
13.157
11
-1.6136999999999999
21
13.157
0
LINE
8
Edge.Cuts
6
CONTINUOUS
10
100.7800000000000011
20
73.4069999999999965
11
104.3799999999999955
21
73.4069999999999965
0
LINE
8
Edge.Cuts
6
CONTINUOUS
10
100.7800000000000011
20
70.3070000000000022
11
100.7800000000000011
21
73.4069999999999965
0
LINE
8
Edge.Cuts
6
CONTINUOUS
10
104.3799999999999955
20
73.4069999999999965
11
104.3799999999999955
21
70.3070000000000022
0
LINE
8
Edge.Cuts
6
CONTINUOUS
10
104.3799999999999955
20
70.3070000000000022
11
100.7800000000000011
21
70.3070000000000022
0
LINE
8
Edge.Cuts
6
CONTINUOUS
10
86.4924999999999926
20
54.3569999999999993
11
90.0925000000000011
21
54.3569999999999993
0
LINE
8
Edge.Cuts
6
CONTINUOUS
10
86.4924999999999926
20
51.2569999999999979
11
86.4924999999999926
21
54.3569999999999993
0
LINE
8
Edge.Cuts
6
CONTINUOUS
10
90.0925000000000011
20
54.3569999999999993
11
90.0925000000000011
21
51.2569999999999979
0
LINE
8
Edge.Cuts
6
CONTINUOUS
10
90.0925000000000011
20
51.2569999999999979
11
86.4924999999999926
21
51.2569999999999979
0
LINE
8
Edge.Cuts
6
CONTINUOUS
10
67.4424999999999955
20
54.3569999999999993
11
71.0424999999999898
21
54.3569999999999993
0
LINE
8
Edge.Cuts
6
CONTINUOUS
10
67.4424999999999955
20
51.2569999999999979
11
67.4424999999999955
21
54.3569999999999993
0
LINE
8
Edge.Cuts
6
CONTINUOUS
10
71.0424999999999898
20
54.3569999999999993
11
71.0424999999999898
21
51.2569999999999979
0
LINE
8
Edge.Cuts
6
CONTINUOUS
10
71.0424999999999898
20
51.2569999999999979
11
67.4424999999999955
21
51.2569999999999979
0
LINE
8
Edge.Cuts
6
CONTINUOUS
10
22.1987999999999985
20
16.2569999999999979
11
25.7988
21
16.2569999999999979
0
LINE
8
Edge.Cuts
6
CONTINUOUS
10
22.1987999999999985
20
13.157
11
22.1987999999999985
21
16.2569999999999979
0
LINE
8
Edge.Cuts
6
CONTINUOUS
10
25.7988
20
16.2569999999999979
11
25.7988
21
13.157
0
LINE
8
Edge.Cuts
6
CONTINUOUS
10
25.7988
20
13.157
11
22.1987999999999985
21
13.157
0
LINE
8
Edge.Cuts
6
CONTINUOUS
10
29.3424999999999976
20
54.3569999999999993
11
32.9424999999999955
21
54.3569999999999993
0
LINE
8
Edge.Cuts
6
CONTINUOUS
10
29.3424999999999976
20
51.2569999999999979
11
29.3424999999999976
21
54.3569999999999993
0
LINE
8
Edge.Cuts
6
CONTINUOUS
10
32.9424999999999955
20
54.3569999999999993
11
32.9424999999999955
21
51.2569999999999979
0
LINE
8
Edge.Cuts
6
CONTINUOUS
10
32.9424999999999955
20
51.2569999999999979
11
29.3424999999999976
21
51.2569999999999979
0
LINE
8
Edge.Cuts
6
CONTINUOUS
10
46.0747999999999962
20
16.2569999999999979
11
49.6747999999999976
21
16.2569999999999979
0
LINE
8
Edge.Cuts
6
CONTINUOUS
10
46.0747999999999962
20
13.157
11
46.0747999999999962
21
16.2569999999999979
0
LINE
8
Edge.Cuts
6
CONTINUOUS
10
49.6747999999999976
20
16.2569999999999979
11
49.6747999999999976
21
13.157
0
LINE
8
Edge.Cuts
6
CONTINUOUS
10
49.6747999999999976
20
13.157
11
46.0747999999999962
21
13.157
0
LINE
8
Edge.Cuts
6
CONTINUOUS
10
72.2049999999999983
20
92.4569999999999936
11
75.8049999999999926
21
92.4569999999999936
0
LINE
8
Edge.Cuts
6
CONTINUOUS
10
72.2049999999999983
20
89.3569999999999993
11
72.2049999999999983
21
92.4569999999999936
0
LINE
8
Edge.Cuts
6
CONTINUOUS
10
75.8049999999999926
20
92.4569999999999936
11
75.8049999999999926
21
89.3569999999999993
0
LINE
8
Edge.Cuts
6
CONTINUOUS
10
75.8049999999999926
20
89.3569999999999993
11
72.2049999999999983
21
89.3569999999999993
0
LINE
8
Edge.Cuts
6
CONTINUOUS
10
91.2549999999999955
20
92.4569999999999936
11
94.8549999999999898
21
92.4569999999999936
0
LINE
8
Edge.Cuts
6
CONTINUOUS
10
91.2549999999999955
20
89.3569999999999993
11
91.2549999999999955
21
92.4569999999999936
0
LINE
8
Edge.Cuts
6
CONTINUOUS
10
94.8549999999999898
20
92.4569999999999936
11
94.8549999999999898
21
89.3569999999999993
0
LINE
8
Edge.Cuts
6
CONTINUOUS
10
94.8549999999999898
20
89.3569999999999993
11
91.2549999999999955
21
89.3569999999999993
0
LINE
8
Edge.Cuts
6
CONTINUOUS
10
81.7299999999999898
20
73.4069999999999965
11
85.3299999999999983
21
73.4069999999999965
0
LINE
8
Edge.Cuts
6
CONTINUOUS
10
81.7299999999999898
20
70.3070000000000022
11
81.7299999999999898
21
73.4069999999999965
0
LINE
8
Edge.Cuts
6
CONTINUOUS
10
85.3299999999999983
20
73.4069999999999965
11
85.3299999999999983
21
70.3070000000000022
0
LINE
8
Edge.Cuts
6
CONTINUOUS
10
85.3299999999999983
20
70.3070000000000022
11
81.7299999999999898
21
70.3070000000000022
0
LINE
8
Edge.Cuts
6
CONTINUOUS
10
3.1488
20
54.3569999999999993
11
6.7488000000000001
21
54.3569999999999993
0
LINE
8
Edge.Cuts
6
CONTINUOUS
10
3.1488
20
51.2569999999999979
11
3.1488
21
54.3569999999999993
0
LINE
8
Edge.Cuts
6
CONTINUOUS
10
6.7488000000000001
20
54.3569999999999993
11
6.7488000000000001
21
51.2569999999999979
0
LINE
8
Edge.Cuts
6
CONTINUOUS
10
6.7488000000000001
20
51.2569999999999979
11
3.1488
21
51.2569999999999979
0
LINE
8
Edge.Cuts
6
CONTINUOUS
10
105.5424999999999898
20
54.3569999999999993
11
109.1424999999999983
21
54.3569999999999993
0
LINE
8
Edge.Cuts
6
CONTINUOUS
10
105.5424999999999898
20
51.2569999999999979
11
105.5424999999999898
21
54.3569999999999993
0
LINE
8
Edge.Cuts
6
CONTINUOUS
10
109.1424999999999983
20
54.3569999999999993
11
109.1424999999999983
21
51.2569999999999979
0
LINE
8
Edge.Cuts
6
CONTINUOUS
10
109.1424999999999983
20
51.2569999999999979
11
105.5424999999999898
21
51.2569999999999979
0
LINE
8
Edge.Cuts
6
CONTINUOUS
10
57.9174999999999969
20
35.3069999999999951
11
61.5174999999999983
21
35.3069999999999951
0
LINE
8
Edge.Cuts
6
CONTINUOUS
10
57.9174999999999969
20
32.2070000000000007
11
57.9174999999999969
21
35.3069999999999951
0
LINE
8
Edge.Cuts
6
CONTINUOUS
10
61.5174999999999983
20
35.3069999999999951
11
61.5174999999999983
21
32.2070000000000007
0
LINE
8
Edge.Cuts
6
CONTINUOUS
10
61.5174999999999983
20
32.2070000000000007
11
57.9174999999999969
21
32.2070000000000007
0
LINE
8
Edge.Cuts
6
CONTINUOUS
10
0.7675
20
73.4069999999999965
11
4.3674999999999997
21
73.4069999999999965
0
LINE
8
Edge.Cuts
6
CONTINUOUS
10
0.7675
20
70.3070000000000022
11
0.7675
21
73.4069999999999965
0
LINE
8
Edge.Cuts
6
CONTINUOUS
10
4.3674999999999997
20
73.4069999999999965
11
4.3674999999999997
21
70.3070000000000022
0
LINE
8
Edge.Cuts
6
CONTINUOUS
10
4.3674999999999997
20
70.3070000000000022
11
0.7675
21
70.3070000000000022
0
LINE
8
Edge.Cuts
6
CONTINUOUS
10
24.5799999999999983
20
73.4069999999999965
11
28.1799999999999997
21
73.4069999999999965
0
LINE
8
Edge.Cuts
6
CONTINUOUS
10
24.5799999999999983
20
70.3070000000000022
11
24.5799999999999983
21
73.4069999999999965
0
LINE
8
Edge.Cuts
6
CONTINUOUS
10
28.1799999999999997
20
73.4069999999999965
11
28.1799999999999997
21
70.3070000000000022
0
LINE
8
Edge.Cuts
6
CONTINUOUS
10
28.1799999999999997
20
70.3070000000000022
11
24.5799999999999983
21
70.3070000000000022
0
LINE
8
Edge.Cuts
6
CONTINUOUS
10
48.3924999999999983
20
54.3569999999999993
11
51.9924999999999997
21
54.3569999999999993
0
LINE
8
Edge.Cuts
6
CONTINUOUS
10
48.3924999999999983
20
51.2569999999999979
11
48.3924999999999983
21
54.3569999999999993
0
LINE
8
Edge.Cuts
6
CONTINUOUS
10
51.9924999999999997
20
54.3569999999999993
11
51.9924999999999997
21
51.2569999999999979
0
LINE
8
Edge.Cuts
6
CONTINUOUS
10
51.9924999999999997
20
51.2569999999999979
11
48.3924999999999983
21
51.2569999999999979
0
LINE
8
Edge.Cuts
6
CONTINUOUS
10
96.0174999999999983
20
35.3069999999999951
11
99.6174999999999926
21
35.3069999999999951
0
LINE
8
Edge.Cuts
6
CONTINUOUS
10
96.0174999999999983
20
32.2070000000000007
11
96.0174999999999983
21
35.3069999999999951
0
LINE
8
Edge.Cuts
6
CONTINUOUS
10
99.6174999999999926
20
35.3069999999999951
11
99.6174999999999926
21
32.2070000000000007
0
LINE
8
Edge.Cuts
6
CONTINUOUS
10
99.6174999999999926
20
32.2070000000000007
11
96.0174999999999983
21
32.2070000000000007
0
LINE
8
Edge.Cuts
6
CONTINUOUS
10
103.1612999999999971
20
16.2569999999999979
11
106.7612999999999914
21
16.2569999999999979
0
LINE
8
Edge.Cuts
6
CONTINUOUS
10
103.1612999999999971
20
13.157
11
103.1612999999999971
21
16.2569999999999979
0
LINE
8
Edge.Cuts
6
CONTINUOUS
10
106.7612999999999914
20
16.2569999999999979
11
106.7612999999999914
21
13.157
0
LINE
8
Edge.Cuts
6
CONTINUOUS
10
106.7612999999999914
20
13.157
11
103.1612999999999971
21
13.157
0
LINE
8
Edge.Cuts
6
CONTINUOUS
10
38.8674999999999997
20
35.3069999999999951
11
42.4675000000000011
21
35.3069999999999951
0
LINE
8
Edge.Cuts
6
CONTINUOUS
10
38.8674999999999997
20
32.2070000000000007
11
38.8674999999999997
21
35.3069999999999951
0
LINE
8
Edge.Cuts
6
CONTINUOUS
10
42.4675000000000011
20
35.3069999999999951
11
42.4675000000000011
21
32.2070000000000007
0
LINE
8
Edge.Cuts
6
CONTINUOUS
10
42.4675000000000011
20
32.2070000000000007
11
38.8674999999999997
21
32.2070000000000007
0
LINE
8
Edge.Cuts
6
CONTINUOUS
10
69.8872999999999962
20
16.2569999999999979
11
73.4872999999999905
21
16.2569999999999979
0
LINE
8
Edge.Cuts
6
CONTINUOUS
10
69.8872999999999962
20
13.157
11
69.8872999999999962
21
16.2569999999999979
0
LINE
8
Edge.Cuts
6
CONTINUOUS
10
73.4872999999999905
20
16.2569999999999979
11
73.4872999999999905
21
13.157
0
LINE
8
Edge.Cuts
6
CONTINUOUS
10
73.4872999999999905
20
13.157
11
69.8872999999999962
21
13.157
0
LINE
8
Edge.Cuts
6
CONTINUOUS
10
34.1049999999999969
20
92.4569999999999936
11
37.7049999999999983
21
92.4569999999999936
0
LINE
8
Edge.Cuts
6
CONTINUOUS
10
34.1049999999999969
20
89.3569999999999993
11
34.1049999999999969
21
92.4569999999999936
0
LINE
8
Edge.Cuts
6
CONTINUOUS
10
37.7049999999999983
20
92.4569999999999936
11
37.7049999999999983
21
89.3569999999999993
0
LINE
8
Edge.Cuts
6
CONTINUOUS
10
37.7049999999999983
20
89.3569999999999993
11
34.1049999999999969
21
89.3569999999999993
0
LINE
8
Edge.Cuts
6
CONTINUOUS
10
-3.9949999999999997
20
92.4569999999999936
11
-0.395
21
92.4569999999999936
0
LINE
8
Edge.Cuts
6
CONTINUOUS
10
-3.9949999999999997
20
89.3569999999999993
11
-3.9949999999999997
21
92.4569999999999936
0
LINE
8
Edge.Cuts
6
CONTINUOUS
10
-0.395
20
92.4569999999999936
11
-0.395
21
89.3569999999999993
0
LINE
8
Edge.Cuts
6
CONTINUOUS
10
-0.395
20
89.3569999999999993
11
-3.9949999999999997
21
89.3569999999999993
0
LINE
8
Edge.Cuts
6
CONTINUOUS
10
15.0549999999999997
20
92.4569999999999936
11
18.6549999999999976
21
92.4569999999999936
0
LINE
8
Edge.Cuts
6
CONTINUOUS
10
15.0549999999999997
20
89.3569999999999993
11
15.0549999999999997
21
92.4569999999999936
0
LINE
8
Edge.Cuts
6
CONTINUOUS
10
18.6549999999999976
20
92.4569999999999936
11
18.6549999999999976
21
89.3569999999999993
0
LINE
8
Edge.Cuts
6
CONTINUOUS
10
18.6549999999999976
20
89.3569999999999993
11
15.0549999999999997
21
89.3569999999999993
0
LINE
8
Edge.Cuts
6
CONTINUOUS
10
110.3049999999999926
20
92.4569999999999936
11
113.9050000000000011
21
92.4569999999999936
0
LINE
8
Edge.Cuts
6
CONTINUOUS
10
110.3049999999999926
20
89.3569999999999993
11
110.3049999999999926
21
92.4569999999999936
0
LINE
8
Edge.Cuts
6
CONTINUOUS
10
113.9050000000000011
20
92.4569999999999936
11
113.9050000000000011
21
89.3569999999999993
0
LINE
8
Edge.Cuts
6
CONTINUOUS
10
113.9050000000000011
20
89.3569999999999993
11
110.3049999999999926
21
89.3569999999999993
0
LINE
8
Edge.Cuts
6
CONTINUOUS
10
89.7112949999999927
20
14.282
11
96.2112949999999927
21
14.282
0
LINE
8
Edge.Cuts
6
CONTINUOUS
10
96.2112949999999927
20
14.282
11
96.2112949999999927
21
4.782
0
LINE
8
Edge.Cuts
6
CONTINUOUS
10
96.2112949999999927
20
4.782
11
89.7112949999999927
21
4.782
0
LINE
8
Edge.Cuts
6
CONTINUOUS
10
89.7112949999999927
20
4.782
11
89.7112949999999927
21
14.282
0
LINE
8
Edge.Cuts
6
CONTINUOUS
10
113.7112949999999927
20
14.282
11
120.2112949999999927
21
14.282
0
LINE
8
Edge.Cuts
6
CONTINUOUS
10
120.2112949999999927
20
14.282
11
120.2112949999999927
21
4.782
0
LINE
8
Edge.Cuts
6
CONTINUOUS
10
120.2112949999999927
20
4.782
11
113.7112949999999927
21
4.782
0
LINE
8
Edge.Cuts
6
CONTINUOUS
10
113.7112949999999927
20
4.782
11
113.7112949999999927
21
14.282
0
LINE
8
Edge.Cuts
6
CONTINUOUS
10
76.9675000000000011
20
35.3069999999999951
11
80.5674999999999955
21
35.3069999999999951
0
LINE
8
Edge.Cuts
6
CONTINUOUS
10
76.9675000000000011
20
32.2070000000000007
11
76.9675000000000011
21
35.3069999999999951
0
LINE
8
Edge.Cuts
6
CONTINUOUS
10
80.5674999999999955
20
35.3069999999999951
11
80.5674999999999955
21
32.2070000000000007
0
LINE
8
Edge.Cuts
6
CONTINUOUS
10
80.5674999999999955
20
32.2070000000000007
11
76.9675000000000011
21
32.2070000000000007
0
LINE
8
Edge.Cuts
6
CONTINUOUS
10
7.9112999999999998
20
35.3069999999999951
11
11.5113000000000003
21
35.3069999999999951
0
LINE
8
Edge.Cuts
6
CONTINUOUS
10
7.9112999999999998
20
32.2070000000000007
11
7.9112999999999998
21
35.3069999999999951
0
LINE
8
Edge.Cuts
6
CONTINUOUS
10
11.5113000000000003
20
35.3069999999999951
11
11.5113000000000003
21
32.2070000000000007
0
LINE
8
Edge.Cuts
6
CONTINUOUS
10
11.5113000000000003
20
32.2070000000000007
11
7.9112999999999998
21
32.2070000000000007
0
LINE
8
Edge.Cuts
6
CONTINUOUS
10
115.0674999999999955
20
35.3069999999999951
11
118.6674999999999898
21
35.3069999999999951
0
LINE
8
Edge.Cuts
6
CONTINUOUS
10
115.0674999999999955
20
32.2070000000000007
11
115.0674999999999955
21
35.3069999999999951
0
LINE
8
Edge.Cuts
6
CONTINUOUS
10
118.6674999999999898
20
35.3069999999999951
11
118.6674999999999898
21
32.2070000000000007
0
LINE
8
Edge.Cuts
6
CONTINUOUS
10
118.6674999999999898
20
32.2070000000000007
11
115.0674999999999955
21
32.2070000000000007
0
LINE
8
Edge.Cuts
6
CONTINUOUS
10
-5.5387049999999993
20
33.3320000000000007
11
0.961295
21
33.3320000000000007
0
LINE
8
Edge.Cuts
6
CONTINUOUS
10
0.961295
20
33.3320000000000007
11
0.961295
21
23.8319999999999972
0
LINE
8
Edge.Cuts
6
CONTINUOUS
10
0.961295
20
23.8319999999999972
11
-5.5387049999999993
21
23.8319999999999972
0
LINE
8
Edge.Cuts
6
CONTINUOUS
10
-5.5387049999999993
20
23.8319999999999972
11
-5.5387049999999993
21
33.3320000000000007
0
LINE
8
Edge.Cuts
6
CONTINUOUS
10
18.4612949999999998
20
33.3320000000000007
11
24.9612949999999998
21
33.3320000000000007
0
LINE
8
Edge.Cuts
6
CONTINUOUS
10
24.9612949999999998
20
33.3320000000000007
11
24.9612949999999998
21
23.8319999999999972
0
LINE
8
Edge.Cuts
6
CONTINUOUS
10
24.9612949999999998
20
23.8319999999999972
11
18.4612949999999998
21
23.8319999999999972
0
LINE
8
Edge.Cuts
6
CONTINUOUS
10
18.4612949999999998
20
23.8319999999999972
11
18.4612949999999998
21
33.3320000000000007
0
CIRCLE
8
Edge.Cuts
10
155.1894999999999811
20
60.9249999999999972
40
1.4999989999999999
0
CIRCLE
8
Edge.Cuts
10
152.5894999999999868
20
66.6749999999999972
40
2.5499989999999997
0
CIRCLE
8
Edge.Cuts
10
148.1894999999999811
20
61.9749999999999943
40
1.4999989999999999
0
CIRCLE
8
Edge.Cuts
10
183.7644999999999982
20
79.9749999999999943
40
1.4999989999999999
0
CIRCLE
8
Edge.Cuts
10
181.1645000000000039
20
85.7249999999999943
40
2.5499989999999997
0
CIRCLE
8
Edge.Cuts
10
176.7644999999999982
20
81.0249999999999915
40
1.4999989999999999
0
CIRCLE
8
Edge.Cuts
10
269.4894999999999641
20
60.9249999999999972
40
1.4999989999999999
0
CIRCLE
8
Edge.Cuts
10
266.8894999999999982
20
66.6749999999999972
40
2.5499989999999997
0
CIRCLE
8
Edge.Cuts
10
262.4894999999999641
20
61.9749999999999943
40
1.4999989999999999
0
CIRCLE
8
Edge.Cuts
10
221.8644999999999925
20
79.9749999999999943
40
1.4999989999999999
0
CIRCLE
8
Edge.Cuts
10
219.2644999999999982
20
85.7249999999999943
40
2.5499989999999997
0
CIRCLE
8
Edge.Cuts
10
214.8644999999999925
20
81.0249999999999915
40
1.4999989999999999
0
CIRCLE
8
Edge.Cuts
10
179.0019999999999811
20
41.875
40
1.4999989999999999
0
CIRCLE
8
Edge.Cuts
10
176.4019999999999868
20
47.625
40
2.5499989999999997
0
CIRCLE
8
Edge.Cuts
10
172.0019999999999811
20
42.9249999999999972
40
1.4999989999999999
0
CIRCLE
8
Edge.Cuts
10
231.3894999999999982
20
60.9249999999999972
40
1.4999989999999999
0
CIRCLE
8
Edge.Cuts
10
228.7894999999999754
20
66.6749999999999972
40
2.5499989999999997
0
CIRCLE
8
Edge.Cuts
10
224.3894999999999982
20
61.9749999999999943
40
1.4999989999999999
0
CIRCLE
8
Edge.Cuts
10
224.2457499999999868
20
3.7749999999999999
40
1.4999989999999999
0
CIRCLE
8
Edge.Cuts
10
221.6457499999999925
20
9.5250000000000004
40
2.5499989999999997
0
CIRCLE
8
Edge.Cuts
10
217.2457499999999868
20
4.8250000000000002
40
1.4999989999999999
0
CIRCLE
8
Edge.Cuts
10
198.0519999999999925
20
41.875
40
1.4999989999999999
0
CIRCLE
8
Edge.Cuts
10
195.4519999999999982
20
47.625
40
2.5499989999999997
0
CIRCLE
8
Edge.Cuts
10
191.0519999999999925
20
42.9249999999999972
40
1.4999989999999999
0
CIRCLE
8
Edge.Cuts
10
207.5769999999999982
20
22.8249999999999993
40
1.4999989999999999
0
CIRCLE
8
Edge.Cuts
10
204.9770000000000039
20
28.5749999999999993
40
2.5499989999999997
0
CIRCLE
8
Edge.Cuts
10
200.5769999999999982
20
23.875
40
1.4999989999999999
0
CIRCLE
8
Edge.Cuts
10
186.1457499999999925
20
3.7749999999999999
40
1.4999989999999999
0
CIRCLE
8
Edge.Cuts
10
183.5457499999999982
20
9.5250000000000004
40
2.5499989999999997
0
CIRCLE
8
Edge.Cuts
10
179.1457499999999925
20
4.8250000000000002
40
1.4999989999999999
0
CIRCLE
8
Edge.Cuts
10
281.3957499999999641
20
22.8249999999999993
40
1.4999989999999999
0
CIRCLE
8
Edge.Cuts
10
278.7957499999999982
20
28.5749999999999993
40
2.5499989999999997
0
CIRCLE
8
Edge.Cuts
10
274.3957499999999641
20
23.875
40
1.4999989999999999
0
CIRCLE
8
Edge.Cuts
10
212.3394999999999868
20
60.9249999999999972
40
1.4999989999999999
0
CIRCLE
8
Edge.Cuts
10
209.7394999999999925
20
66.6749999999999972
40
2.5499989999999997
0
CIRCLE
8
Edge.Cuts
10
205.3394999999999868
20
61.9749999999999943
40
1.4999989999999999
0
CIRCLE
8
Edge.Cuts
10
250.4394999999999811
20
60.9249999999999972
40
1.4999989999999999
0
CIRCLE
8
Edge.Cuts
10
247.8394999999999868
20
66.6749999999999972
40
2.5499989999999997
0
CIRCLE
8
Edge.Cuts
10
243.4394999999999811
20
61.9749999999999943
40
1.4999989999999999
0
CIRCLE
8
Edge.Cuts
10
202.8144999999999811
20
79.9749999999999943
40
1.4999989999999999
0
CIRCLE
8
Edge.Cuts
10
200.2144999999999868
20
85.7249999999999943
40
2.5499989999999997
0
CIRCLE
8
Edge.Cuts
10
195.8144999999999811
20
81.0249999999999915
40
1.4999989999999999
0
CIRCLE
8
Edge.Cuts
10
259.9644999999999868
20
79.9749999999999943
40
1.4999989999999999
0
CIRCLE
8
Edge.Cuts
10
257.3644999999999641
20
85.7249999999999943
40
2.5499989999999997
0
CIRCLE
8
Edge.Cuts
10
252.9644999999999868
20
81.0249999999999915
40
1.4999989999999999
0
CIRCLE
8
Edge.Cuts
10
240.9144999999999754
20
79.9749999999999943
40
1.4999989999999999
0
CIRCLE
8
Edge.Cuts
10
238.3144999999999811
20
85.7249999999999943
40
2.5499989999999997
0
CIRCLE
8
Edge.Cuts
10
233.9144999999999754
20
81.0249999999999915
40
1.4999989999999999
0
CIRCLE
8
Edge.Cuts
10
174.2394999999999925
20
60.9249999999999972
40
1.4999989999999999
0
CIRCLE
8
Edge.Cuts
10
171.6394999999999982
20
66.6749999999999972
40
2.5499989999999997
0
CIRCLE
8
Edge.Cuts
10
167.2394999999999925
20
61.9749999999999943
40
1.4999989999999999
0
CIRCLE
8
Edge.Cuts
10
193.2895000000000039
20
60.9249999999999972
40
1.4999989999999999
0
CIRCLE
8
Edge.Cuts
10
190.6894999999999811
20
66.6749999999999972
40
2.5499989999999997
0
CIRCLE
8
Edge.Cuts
10
186.2895000000000039
20
61.9749999999999943
40
1.4999989999999999
0
CIRCLE
8
Edge.Cuts
10
271.8707499999999868
20
3.7749999999999999
40
1.4999989999999999
0
CIRCLE
8
Edge.Cuts
10
269.2707499999999641
20
9.5250000000000004
40
2.5499989999999997
0
CIRCLE
8
Edge.Cuts
10
264.8707499999999868
20
4.8250000000000002
40
1.4999989999999999
0
CIRCLE
8
Edge.Cuts
10
188.5269999999999868
20
22.8249999999999993
40
1.4999989999999999
0
CIRCLE
8
Edge.Cuts
10
185.9269999999999925
20
28.5749999999999993
40
2.5499989999999997
0
CIRCLE
8
Edge.Cuts
10
181.5269999999999868
20
23.875
40
1.4999989999999999
0
CIRCLE
8
Edge.Cuts
10
245.6769999999999925
20
22.8249999999999993
40
1.4999989999999999
0
CIRCLE
8
Edge.Cuts
10
243.0769999999999982
20
28.5749999999999993
40
2.5499989999999997
0
CIRCLE
8
Edge.Cuts
10
238.6769999999999925
20
23.875
40
1.4999989999999999
0
CIRCLE
8
Edge.Cuts
10
159.9519999999999982
20
41.875
40
1.4999989999999999
0
CIRCLE
8
Edge.Cuts
10
157.3520000000000039
20
47.625
40
2.5499989999999997
0
CIRCLE
8
Edge.Cuts
10
152.9519999999999982
20
42.9249999999999972
40
1.4999989999999999
0
CIRCLE
8
Edge.Cuts
10
255.2019999999999982
20
41.875
40
1.4999989999999999
0
CIRCLE
8
Edge.Cuts
10
252.6019999999999754
20
47.625
40
2.5499989999999997
0
CIRCLE
8
Edge.Cuts
10
248.2019999999999982
20
42.9249999999999972
40
1.4999989999999999
0
CIRCLE
8
Edge.Cuts
10
169.4770000000000039
20
22.8249999999999993
40
1.4999989999999999
0
CIRCLE
8
Edge.Cuts
10
166.8769999999999811
20
28.5749999999999993
40
2.5499989999999997
0
CIRCLE
8
Edge.Cuts
10
162.4770000000000039
20
23.875
40
1.4999989999999999
0
CIRCLE
8
Edge.Cuts
10
217.1020000000000039
20
41.875
40
1.4999989999999999
0
CIRCLE
8
Edge.Cuts
10
214.5019999999999811
20
47.625
40
2.5499989999999997
0
CIRCLE
8
Edge.Cuts
10
210.1020000000000039
20
42.9249999999999972
40
1.4999989999999999
0
CIRCLE
8
Edge.Cuts
10
226.6269999999999811
20
22.8249999999999993
40
1.4999989999999999
0
CIRCLE
8
Edge.Cuts
10
224.0269999999999868
20
28.5749999999999993
40
2.5499989999999997
0
CIRCLE
8
Edge.Cuts
10
219.6269999999999811
20
23.875
40
1.4999989999999999
0
CIRCLE
8
Edge.Cuts
10
295.6832499999999868
20
3.7749999999999999
40
1.4999989999999999
0
CIRCLE
8
Edge.Cuts
10
293.0832499999999641
20
9.5250000000000004
40
2.5499989999999997
0
CIRCLE
8
Edge.Cuts
10
288.6832499999999868
20
4.8250000000000002
40
1.4999989999999999
0
CIRCLE
8
Edge.Cuts
10
286.1582500000000095
20
41.875
40
1.4999989999999999
0
CIRCLE
8
Edge.Cuts
10
283.5582499999999868
20
47.625
40
2.5499989999999997
0
CIRCLE
8
Edge.Cuts
10
279.1582500000000095
20
42.9249999999999972
40
1.4999989999999999
0
CIRCLE
8
Edge.Cuts
10
293.3019999999999641
20
60.9249999999999972
40
1.4999989999999999
0
CIRCLE
8
Edge.Cuts
10
290.7019999999999982
20
66.6749999999999972
40
2.5499989999999997
0
CIRCLE
8
Edge.Cuts
10
286.3019999999999641
20
61.9749999999999943
40
1.4999989999999999
0
CIRCLE
8
Edge.Cuts
10
236.1519999999999868
20
41.875
40
1.4999989999999999
0
CIRCLE
8
Edge.Cuts
10
233.5519999999999925
20
47.625
40
2.5499989999999997
0
CIRCLE
8
Edge.Cuts
10
229.1519999999999868
20
42.9249999999999972
40
1.4999989999999999
0
CIRCLE
8
Edge.Cuts
10
164.7144999999999868
20
79.9749999999999943
40
1.4999989999999999
0
CIRCLE
8
Edge.Cuts
10
162.1144999999999925
20
85.7249999999999943
40
2.5499989999999997
0
CIRCLE
8
Edge.Cuts
10
157.7144999999999868
20
81.0249999999999915
40
1.4999989999999999
0
CIRCLE
8
Edge.Cuts
10
248.0582499999999868
20
3.7749999999999999
40
1.4999989999999999
0
CIRCLE
8
Edge.Cuts
10
245.4582499999999925
20
9.5250000000000004
40
2.5499989999999997
0
CIRCLE
8
Edge.Cuts
10
241.0582499999999868
20
4.8250000000000002
40
1.4999989999999999
0
CIRCLE
8
Edge.Cuts
10
288.5394999999999754
20
79.9749999999999943
40
1.4999989999999999
0
CIRCLE
8
Edge.Cuts
10
285.9395000000000095
20
85.7249999999999943
40
2.5499989999999997
0
CIRCLE
8
Edge.Cuts
10
281.5394999999999754
20
81.0249999999999915
40
1.4999989999999999
0
CIRCLE
8
Edge.Cuts
10
95.6550450000000012
20
79.9819999999999993
40
1.4999989999999999
0
CIRCLE
8
Edge.Cuts
10
93.0550449999999927
20
85.7319999999999993
40
2.5499989999999997
0
CIRCLE
8
Edge.Cuts
10
88.6550450000000012
20
81.0319999999999965
40
1.4999989999999999
0
CIRCLE
8
Edge.Cuts
10
76.6050449999999898
20
79.9819999999999993
40
1.4999989999999999
0
CIRCLE
8
Edge.Cuts
10
74.0050449999999955
20
85.7319999999999993
40
2.5499989999999997
0
CIRCLE
8
Edge.Cuts
10
69.6050449999999898
20
81.0319999999999965
40
1.4999989999999999
0
CIRCLE
8
Edge.Cuts
10
43.2675449999999984
20
22.8320000000000007
40
1.4999989999999999
0
CIRCLE
8
Edge.Cuts
10
40.6675449999999969
20
28.5819999999999972
40
2.5499989999999997
0
CIRCLE
8
Edge.Cuts
10
36.2675449999999984
20
23.8819999999999979
40
1.4999989999999999
0
CIRCLE
8
Edge.Cuts
10
62.3175449999999955
20
22.8320000000000007
40
1.4999989999999999
0
CIRCLE
8
Edge.Cuts
10
59.7175449999999941
20
28.5819999999999972
40
2.5499989999999997
0
CIRCLE
8
Edge.Cuts
10
55.3175449999999955
20
23.8819999999999979
40
1.4999989999999999
0
CIRCLE
8
Edge.Cuts
10
114.7050449999999984
20
79.9819999999999993
40
1.4999989999999999
0
CIRCLE
8
Edge.Cuts
10
112.1050449999999898
20
85.7319999999999993
40
2.5499989999999997
0
CIRCLE
8
Edge.Cuts
10
107.7050449999999984
20
81.0319999999999965
40
1.4999989999999999
0
CIRCLE
8
Edge.Cuts
10
19.4550449999999984
20
79.9819999999999993
40
1.4999989999999999
0
CIRCLE
8
Edge.Cuts
10
16.8550450000000005
20
85.7319999999999993
40
2.5499989999999997
0
CIRCLE
8
Edge.Cuts
10
12.4550450000000001
20
81.0319999999999965
40
1.4999989999999999
0
CIRCLE
8
Edge.Cuts
10
38.5050449999999955
20
79.9819999999999993
40
1.4999989999999999
0
CIRCLE
8
Edge.Cuts
10
35.9050450000000012
20
85.7319999999999993
40
2.5499989999999997
0
CIRCLE
8
Edge.Cuts
10
31.5050449999999991
20
81.0319999999999965
40
1.4999989999999999
0
CIRCLE
8
Edge.Cuts
10
28.9800449999999969
20
60.9319999999999951
40
1.4999989999999999
0
CIRCLE
8
Edge.Cuts
10
26.3800449999999991
20
66.6820000000000022
40
2.5499989999999997
0
CIRCLE
8
Edge.Cuts
10
21.9800450000000005
20
61.9819999999999993
40
1.4999989999999999
0
CIRCLE
8
Edge.Cuts
10
57.5550449999999998
20
79.9819999999999993
40
1.4999989999999999
0
CIRCLE
8
Edge.Cuts
10
54.9550449999999984
20
85.7319999999999993
40
2.5499989999999997
0
CIRCLE
8
Edge.Cuts
10
50.5550449999999998
20
81.0319999999999965
40
1.4999989999999999
0
CIRCLE
8
Edge.Cuts
10
109.9425449999999955
20
41.8819999999999979
40
1.4999989999999999
0
CIRCLE
8
Edge.Cuts
10
107.3425450000000012
20
47.6319999999999979
40
2.5499989999999997
0
CIRCLE
8
Edge.Cuts
10
102.9425449999999955
20
42.9319999999999951
40
1.4999989999999999
0
CIRCLE
8
Edge.Cuts
10
100.4175449999999898
20
22.8320000000000007
40
1.4999989999999999
0
CIRCLE
8
Edge.Cuts
10
97.8175449999999955
20
28.5819999999999972
40
2.5499989999999997
0
CIRCLE
8
Edge.Cuts
10
93.4175449999999898
20
23.8819999999999979
40
1.4999989999999999
0
CIRCLE
8
Edge.Cuts
10
119.4675450000000012
20
22.8320000000000007
40
1.4999989999999999
0
CIRCLE
8
Edge.Cuts
10
116.8675449999999927
20
28.5819999999999972
40
2.5499989999999997
0
CIRCLE
8
Edge.Cuts
10
112.4675450000000012
20
23.8819999999999979
40
1.4999989999999999
0
CIRCLE
8
Edge.Cuts
10
26.5987949999999991
20
3.782
40
1.4999989999999999
0
CIRCLE
8
Edge.Cuts
10
23.9987949999999977
20
9.532
40
2.5499989999999997
0
CIRCLE
8
Edge.Cuts
10
19.5987949999999991
20
4.8319999999999999
40
1.4999989999999999
0
CIRCLE
8
Edge.Cuts
10
33.7425449999999998
20
41.8819999999999979
40
1.4999989999999999
0
CIRCLE
8
Edge.Cuts
10
31.1425449999999984
20
47.6319999999999979
40
2.5499989999999997
0
CIRCLE
8
Edge.Cuts
10
26.7425449999999998
20
42.9319999999999951
40
1.4999989999999999
0
CIRCLE
8
Edge.Cuts
10
74.2872950000000003
20
3.782
40
1.4999989999999999
0
CIRCLE
8
Edge.Cuts
10
71.6872949999999918
20
9.532
40
2.5499989999999997
0
CIRCLE
8
Edge.Cuts
10
67.2872950000000003
20
4.8319999999999999
40
1.4999989999999999
0
CIRCLE
8
Edge.Cuts
10
48.0300450000000012
20
60.9319999999999951
40
1.4999989999999999
0
CIRCLE
8
Edge.Cuts
10
45.4300449999999998
20
66.6820000000000022
40
2.5499989999999997
0
CIRCLE
8
Edge.Cuts
10
41.0300450000000012
20
61.9819999999999993
40
1.4999989999999999
0
CIRCLE
8
Edge.Cuts
10
67.0800449999999984
20
60.9319999999999951
40
1.4999989999999999
0
CIRCLE
8
Edge.Cuts
10
64.4800450000000041
20
66.6820000000000022
40
2.5499989999999997
0
CIRCLE
8
Edge.Cuts
10
60.0800449999999984
20
61.9819999999999993
40
1.4999989999999999
0
CIRCLE
8
Edge.Cuts
10
90.8925449999999984
20
41.8819999999999979
40
1.4999989999999999
0
CIRCLE
8
Edge.Cuts
10
88.2925449999999898
20
47.6319999999999979
40
2.5499989999999997
0
CIRCLE
8
Edge.Cuts
10
83.8925449999999984
20
42.9319999999999951
40
1.4999989999999999
0
CIRCLE
8
Edge.Cuts
10
2.786295
20
3.782
40
1.4999989999999999
0
CIRCLE
8
Edge.Cuts
10
0.186295
20
9.532
40
2.5499989999999997
0
CIRCLE
8
Edge.Cuts
10
-4.213705
20
4.8319999999999999
40
1.4999989999999999
0
CIRCLE
8
Edge.Cuts
10
50.4747950000000003
20
3.782
40
1.4999989999999999
0
CIRCLE
8
Edge.Cuts
10
47.8747949999999989
20
9.532
40
2.5499989999999997
0
CIRCLE
8
Edge.Cuts
10
43.4747950000000003
20
4.8319999999999999
40
1.4999989999999999
0
CIRCLE
8
Edge.Cuts
10
105.1800449999999927
20
60.9319999999999951
40
1.4999989999999999
0
CIRCLE
8
Edge.Cuts
10
102.5800449999999984
20
66.6820000000000022
40
2.5499989999999997
0
CIRCLE
8
Edge.Cuts
10
98.1800449999999927
20
61.9819999999999993
40
1.4999989999999999
0
CIRCLE
8
Edge.Cuts
10
52.7925449999999969
20
41.8819999999999979
40
1.4999989999999999
0
CIRCLE
8
Edge.Cuts
10
50.1925449999999955
20
47.6319999999999979
40
2.5499989999999997
0
CIRCLE
8
Edge.Cuts
10
45.7925449999999969
20
42.9319999999999951
40
1.4999989999999999
0
CIRCLE
8
Edge.Cuts
10
86.1300449999999955
20
60.9319999999999951
40
1.4999989999999999
0
CIRCLE
8
Edge.Cuts
10
83.5300450000000012
20
66.6820000000000022
40
2.5499989999999997
0
CIRCLE
8
Edge.Cuts
10
79.1300449999999955
20
61.9819999999999993
40
1.4999989999999999
0
CIRCLE
8
Edge.Cuts
10
107.5612950000000012
20
3.782
40
1.4999989999999999
0
CIRCLE
8
Edge.Cuts
10
104.9612949999999927
20
9.532
40
2.5499989999999997
0
CIRCLE
8
Edge.Cuts
10
100.5612950000000012
20
4.8319999999999999
40
1.4999989999999999
0
CIRCLE
8
Edge.Cuts
10
71.8425450000000012
20
41.8819999999999979
40
1.4999989999999999
0
CIRCLE
8
Edge.Cuts
10
69.2425449999999927
20
47.6319999999999979
40
2.5499989999999997
0
CIRCLE
8
Edge.Cuts
10
64.8425450000000012
20
42.9319999999999951
40
1.4999989999999999
0
CIRCLE
8
Edge.Cuts
10
0.405045
20
79.9819999999999993
40
1.4999989999999999
0
CIRCLE
8
Edge.Cuts
10
-2.1949549999999998
20
85.7319999999999993
40
2.5499989999999997
0
CIRCLE
8
Edge.Cuts
10
-6.5949549999999997
20
81.0319999999999965
40
1.4999989999999999
0
CIRCLE
8
Edge.Cuts
10
7.5487949999999993
20
41.8819999999999979
40
1.4999989999999999
0
CIRCLE
8
Edge.Cuts
10
4.9487949999999996
20
47.6319999999999979
40
2.5499989999999997
0
CIRCLE
8
Edge.Cuts
10
0.5487949999999999
20
42.9319999999999951
40
1.4999989999999999
0
CIRCLE
8
Edge.Cuts
10
5.1675449999999996
20
60.9319999999999951
40
1.4999989999999999
0
CIRCLE
8
Edge.Cuts
10
2.567545
20
66.6820000000000022
40
2.5499989999999997
0
CIRCLE
8
Edge.Cuts
10
-1.8324549999999999
20
61.9819999999999993
40
1.4999989999999999
0
CIRCLE
8
Edge.Cuts
10
81.3675449999999927
20
22.8320000000000007
40
1.4999989999999999
0
CIRCLE
8
Edge.Cuts
10
78.7675449999999984
20
28.5819999999999972
40
2.5499989999999997
0
CIRCLE
8
Edge.Cuts
10
74.3675449999999927
20
23.8819999999999979
40
1.4999989999999999
0
CIRCLE
8
Edge.Cuts
10
12.3112949999999994
20
22.8320000000000007
40
1.4999989999999999
0
CIRCLE
8
Edge.Cuts
10
9.7112949999999998
20
28.5819999999999972
40
2.5499989999999997
0
CIRCLE
8
Edge.Cuts
10
5.3112949999999994
20
23.8819999999999979
40
1.4999989999999999
0
CIRCLE
8
Edge.Cuts
10
147.1899999999999977
20
95.1949999999999932
40
0.324999
0
CIRCLE
8
Edge.Cuts
10
152.9699999999999989
20
95.1949999999999932
40
0.324999
0
LINE
8
Edge.Cuts
6
CONTINUOUS
10
154.0999999999999943
20
99.144999999999996
11
154.0999999999999943
21
98.5450000000000017
0
ARC
8
Edge.Cuts
10
154.4000000000000057
20
98.5450000000000017
40
0.3
50
-180.00000000
51
0.00000000
0
LINE
8
Edge.Cuts
6
CONTINUOUS
10
154.6999999999999886
20
98.5450000000000017
11
154.6999999999999886
21
99.144999999999996
0
ARC
8
Edge.Cuts
10
154.4000000000000057
20
99.144999999999996
40
0.3
50
0.00000000
51
180.00000000
0
LINE
8
Edge.Cuts
6
CONTINUOUS
10
154.0999999999999943
20
95.2149999999999892
11
154.0999999999999943
21
94.1149999999999949
0
ARC
8
Edge.Cuts
10
154.4000000000000057
20
94.1149999999999949
40
0.3
50
-180.00000000
51
0.00000000
0
LINE
8
Edge.Cuts
6
CONTINUOUS
10
154.6999999999999886
20
94.1149999999999949
11
154.6999999999999886
21
95.2149999999999892
0
ARC
8
Edge.Cuts
10
154.4000000000000057
20
95.2149999999999892
40
0.3
50
0.00000000
51
180.00000000
0
LINE
8
Edge.Cuts
6
CONTINUOUS
10
145.4599999999999795
20
95.2149999999999892
11
145.4599999999999795
21
94.1149999999999949
0
ARC
8
Edge.Cuts
10
145.7599999999999909
20
94.1149999999999949
40
0.3
50
-180.00000000
51
0.00000000
0
LINE
8
Edge.Cuts
6
CONTINUOUS
10
146.0600000000000023
20
94.1149999999999949
11
146.0600000000000023
21
95.2149999999999892
0
ARC
8
Edge.Cuts
10
145.7599999999999909
20
95.2149999999999892
40
0.3
50
0.00000000
51
180.00000000
0
LINE
8
Edge.Cuts
6
CONTINUOUS
10
145.4599999999999795
20
99.144999999999996
11
145.4599999999999795
21
98.5450000000000017
0
ARC
8
Edge.Cuts
10
145.7599999999999909
20
98.5450000000000017
40
0.3
50
-180.00000000
51
0.00000000
0
LINE
8
Edge.Cuts
6
CONTINUOUS
10
146.0600000000000023
20
98.5450000000000017
11
146.0600000000000023
21
99.144999999999996
0
ARC
8
Edge.Cuts
10
145.7599999999999909
20
99.144999999999996
40
0.3
50
0.00000000
51
180.00000000
0
CIRCLE
8
Edge.Cuts
10
304.9797499999999673
20
74.625
40
0.324999
0
CIRCLE
8
Edge.Cuts
10
304.9797499999999673
20
68.8449999999999989
40
0.324999
0
LINE
8
Edge.Cuts
6
CONTINUOUS
10
308.9297500000000127
20
67.7150000000000034
11
308.32974999999999
21
67.7150000000000034
0
ARC
8
Edge.Cuts
10
308.32974999999999
20
67.414999999999992
40
0.3
50
90.00000000
51
270.00000000
0
LINE
8
Edge.Cuts
6
CONTINUOUS
10
308.32974999999999
20
67.1149999999999949
11
308.9297500000000127
21
67.1149999999999949
0
ARC
8
Edge.Cuts
10
308.9297500000000127
20
67.414999999999992
40
0.3
50
270.00000000
51
450.00000000
0
LINE
8
Edge.Cuts
6
CONTINUOUS
10
304.9997500000000059
20
67.7150000000000034
11
303.8997499999999832
21
67.7150000000000034
0
ARC
8
Edge.Cuts
10
303.8997499999999832
20
67.414999999999992
40
0.3
50
90.00000000
51
270.00000000
0
LINE
8
Edge.Cuts
6
CONTINUOUS
10
303.8997499999999832
20
67.1149999999999949
11
304.9997500000000059
21
67.1149999999999949
0
ARC
8
Edge.Cuts
10
304.9997500000000059
20
67.414999999999992
40
0.3
50
270.00000000
51
450.00000000
0
LINE
8
Edge.Cuts
6
CONTINUOUS
10
304.9997500000000059
20
76.3549999999999898
11
303.8997499999999832
21
76.3549999999999898
0
ARC
8
Edge.Cuts
10
303.8997499999999832
20
76.0549999999999926
40
0.3
50
90.00000000
51
270.00000000
0
LINE
8
Edge.Cuts
6
CONTINUOUS
10
303.8997499999999832
20
75.7549999999999955
11
304.9997500000000059
21
75.7549999999999955
0
ARC
8
Edge.Cuts
10
304.9997500000000059
20
76.0549999999999926
40
0.3
50
270.00000000
51
450.00000000
0
LINE
8
Edge.Cuts
6
CONTINUOUS
10
308.9297500000000127
20
76.3549999999999898
11
308.32974999999999
21
76.3549999999999898
0
ARC
8
Edge.Cuts
10
308.32974999999999
20
76.0549999999999926
40
0.3
50
90.00000000
51
270.00000000
0
LINE
8
Edge.Cuts
6
CONTINUOUS
10
308.32974999999999
20
75.7549999999999955
11
308.9297500000000127
21
75.7549999999999955
0
ARC
8
Edge.Cuts
10
308.9297500000000127
20
76.0549999999999926
40
0.3
50
270.00000000
51
450.00000000
0
CIRCLE
8
Edge.Cuts
10
114.6999999999999886
20
95.1949999999999932
40
0.324999
0
CIRCLE
8
Edge.Cuts
10
120.4799999999999898
20
95.1949999999999932
40
0.324999
0
LINE
8
Edge.Cuts
6
CONTINUOUS
10
121.6099999999999994
20
99.144999999999996
11
121.6099999999999994
21
98.5450000000000017
0
ARC
8
Edge.Cuts
10
121.9099999999999966
20
98.5450000000000017
40
0.3
50
-180.00000000
51
0.00000000
0
LINE
8
Edge.Cuts
6
CONTINUOUS
10
122.2099999999999937
20
98.5450000000000017
11
122.2099999999999937
21
99.144999999999996
0
ARC
8
Edge.Cuts
10
121.9099999999999966
20
99.144999999999996
40
0.3
50
0.00000000
51
180.00000000
0
LINE
8
Edge.Cuts
6
CONTINUOUS
10
121.6099999999999994
20
95.2149999999999892
11
121.6099999999999994
21
94.1149999999999949
0
ARC
8
Edge.Cuts
10
121.9099999999999966
20
94.1149999999999949
40
0.3
50
-180.00000000
51
0.00000000
0
LINE
8
Edge.Cuts
6
CONTINUOUS
10
122.2099999999999937
20
94.1149999999999949
11
122.2099999999999937
21
95.2149999999999892
0
ARC
8
Edge.Cuts
10
121.9099999999999966
20
95.2149999999999892
40
0.3
50
0.00000000
51
180.00000000
0
LINE
8
Edge.Cuts
6
CONTINUOUS
10
112.9699999999999989
20
95.2149999999999892
11
112.9699999999999989
21
94.1149999999999949
0
ARC
8
Edge.Cuts
10
113.269999999999996
20
94.1149999999999949
40
0.3
50
-180.00000000
51
0.00000000
0
LINE
8
Edge.Cuts
6
CONTINUOUS
10
113.5699999999999932
20
94.1149999999999949
11
113.5699999999999932
21
95.2149999999999892
0
ARC
8
Edge.Cuts
10
113.269999999999996
20
95.2149999999999892
40
0.3
50
0.00000000
51
180.00000000
0
LINE
8
Edge.Cuts
6
CONTINUOUS
10
112.9699999999999989
20
99.144999999999996
11
112.9699999999999989
21
98.5450000000000017
0
ARC
8
Edge.Cuts
10
113.269999999999996
20
98.5450000000000017
40
0.3
50
-180.00000000
51
0.00000000
0
LINE
8
Edge.Cuts
6
CONTINUOUS
10
113.5699999999999932
20
98.5450000000000017
11
113.5699999999999932
21
99.144999999999996
0
ARC
8
Edge.Cuts
10
113.269999999999996
20
99.144999999999996
40
0.3
50
0.00000000
51
180.00000000
0
CIRCLE
8
Edge.Cuts
10
-13.1352499999999992
20
68.8449999999999989
40
0.324999
0
CIRCLE
8
Edge.Cuts
10
-13.1352499999999992
20
74.625
40
0.324999
0
LINE
8
Edge.Cuts
6
CONTINUOUS
10
-17.0852499999999985
20
75.7549999999999955
11
-16.4852500000000006
21
75.7549999999999955
0
ARC
8
Edge.Cuts
10
-16.4852500000000006
20
76.0549999999999926
40
0.3
50
-90.00000000
51
90.00000000
0
LINE
8
Edge.Cuts
6
CONTINUOUS
10
-16.4852500000000006
20
76.3549999999999898
11
-17.0852499999999985
21
76.3549999999999898
0
ARC
8
Edge.Cuts
10
-17.0852499999999985
20
76.0549999999999926
40
0.3
50
90.00000000
51
270.00000000
0
LINE
8
Edge.Cuts
6
CONTINUOUS
10
-13.1552499999999988
20
75.7549999999999955
11
-12.0552499999999991
21
75.7549999999999955
0
ARC
8
Edge.Cuts
10
-12.0552499999999991
20
76.0549999999999926
40
0.3
50
-90.00000000
51
90.00000000
0
LINE
8
Edge.Cuts
6
CONTINUOUS
10
-12.0552499999999991
20
76.3549999999999898
11
-13.1552499999999988
21
76.3549999999999898
0
ARC
8
Edge.Cuts
10
-13.1552499999999988
20
76.0549999999999926
40
0.3
50
90.00000000
51
270.00000000
0
LINE
8
Edge.Cuts
6
CONTINUOUS
10
-13.1552499999999988
20
67.1149999999999949
11
-12.0552499999999991
21
67.1149999999999949
0
ARC
8
Edge.Cuts
10
-12.0552499999999991
20
67.414999999999992
40
0.3
50
-90.00000000
51
90.00000000
0
LINE
8
Edge.Cuts
6
CONTINUOUS
10
-12.0552499999999991
20
67.7150000000000034
11
-13.1552499999999988
21
67.7150000000000034
0
ARC
8
Edge.Cuts
10
-13.1552499999999988
20
67.414999999999992
40
0.3
50
90.00000000
51
270.00000000
0
LINE
8
Edge.Cuts
6
CONTINUOUS
10
-17.0852499999999985
20
67.1149999999999949
11
-16.4852500000000006
21
67.1149999999999949
0
ARC
8
Edge.Cuts
10
-16.4852500000000006
20
67.414999999999992
40
0.3
50
-90.00000000
51
90.00000000
0
LINE
8
Edge.Cuts
6
CONTINUOUS
10
-16.4852500000000006
20
67.7150000000000034
11
-17.0852499999999985
21
67.7150000000000034
0
ARC
8
Edge.Cuts
10
-17.0852499999999985
20
67.414999999999992
40
0.3
50
90.00000000
51
270.00000000
  0
ENDSEC
  0
EOF
