  0
SECTION
  2
HEADER
  9
$ACADVER
  1
AC1006
  9
$EXTMIN
 10
0.000000
 20
0.000000
 30
0.000000
  9
$EXTMAX
 10
1169.000000
 20
525.000000
 30
0.000000
  0
ENDSEC
  0
SECTION
  2
ENTITIES
  0
POLYLINE
  8
0
 66
1
 70
1
  0
VERTEX
  8
0
 10
724.500000
 20
429.000000
 42
-0.048248
  0
VERTEX
  8
0
 10
723.364112
 20
427.242092
 42
-0.141523
  0
VERTEX
  8
0
 10
722.201813
 20
426.413147
 42
-0.076766
  0
VERTEX
  8
0
 10
720.369731
 20
426.070074
 42
-0.007971
  0
VERTEX
  8
0
 10
715.974320
 20
426.000000
 42
0.000000
  0
VERTEX
  8
0
 10
709.000000
 20
426.000000
 42
0.000000
  0
VERTEX
  8
0
 10
709.000000
 20
414.000000
 42
0.000000
  0
VERTEX
  8
0
 10
709.000000
 20
402.000000
 42
0.000000
  0
VERTEX
  8
0
 10
718.906293
 20
402.000000
 42
0.000000
  0
VERTEX
  8
0
 10
728.812585
 20
402.000000
 42
0.000000
  0
VERTEX
  8
0
 10
729.156293
 20
391.918013
 42
0.018764
  0
VERTEX
  8
0
 10
729.742589
 20
383.743625
 42
0.179943
  0
VERTEX
  8
0
 10
731.282637
 20
380.675441
 42
0.172185
  0
VERTEX
  8
0
 10
734.486841
 20
379.288521
 42
0.016869
  0
VERTEX
  8
0
 10
743.036142
 20
379.000000
 42
0.015004
  0
VERTEX
  8
0
 10
749.814066
 20
379.203432
 42
0.091845
  0
VERTEX
  8
0
 10
753.196041
 20
380.042485
 42
0.156339
  0
VERTEX
  8
0
 10
755.168802
 20
381.831274
 42
0.070013
  0
VERTEX
  8
0
 10
756.496350
 20
385.113949
 42
0.033137
  0
VERTEX
  8
0
 10
756.736076
 20
386.444517
 42
0.121802
  0
VERTEX
  8
0
 10
756.625676
 20
387.286314
 42
0.163109
  0
VERTEX
  8
0
 10
756.162762
 20
387.840181
 42
0.074001
  0
VERTEX
  8
0
 10
755.283255
 20
388.215676
 42
-0.128242
  0
VERTEX
  8
0
 10
754.438725
 20
388.689037
 42
-0.048961
  0
VERTEX
  8
0
 10
753.556088
 20
389.722199
 42
-0.041975
  0
VERTEX
  8
0
 10
752.729017
 20
391.149305
 42
-0.030651
  0
VERTEX
  8
0
 10
752.048934
 20
392.851727
 42
0.024686
  0
VERTEX
  8
0
 10
751.324599
 20
394.729603
 42
0.060303
  0
VERTEX
  8
0
 10
750.566405
 20
396.000339
 42
0.089133
  0
VERTEX
  8
0
 10
749.746481
 20
396.740897
 42
0.140102
  0
VERTEX
  8
0
 10
748.839940
 20
397.000000
 42
0.086211
  0
VERTEX
  8
0
 10
748.063395
 20
396.865103
 42
0.121356
  0
VERTEX
  8
0
 10
747.479993
 20
396.478252
 42
0.114800
  0
VERTEX
  8
0
 10
747.122039
 20
395.845967
 42
0.071758
  0
VERTEX
  8
0
 10
747.000000
 20
395.000000
 42
-0.072572
  0
VERTEX
  8
0
 10
746.871108
 20
394.116656
 42
-0.128750
  0
VERTEX
  8
0
 10
746.491577
 20
393.491851
 42
-0.125636
  0
VERTEX
  8
0
 10
745.846845
 20
393.123669
 42
-0.067329
  0
VERTEX
  8
0
 10
744.932612
 20
393.000000
 42
-0.117066
  0
VERTEX
  8
0
 10
743.799550
 20
393.268971
 42
-0.274580
  0
VERTEX
  8
0
 10
743.348203
 20
393.975147
 42
-0.089454
  0
VERTEX
  8
0
 10
743.560655
 20
395.423149
 42
-0.008841
  0
VERTEX
  8
0
 10
744.744216
 20
398.750000
 42
0.131822
  0
VERTEX
  8
0
 10
744.790662
 20
399.225612
 42
0.150788
  0
VERTEX
  8
0
 10
744.586776
 20
399.632918
 42
0.125092
  0
VERTEX
  8
0
 10
744.149509
 20
399.906135
 42
0.077551
  0
VERTEX
  8
0
 10
743.547972
 20
400.000000
 42
-0.061057
  0
VERTEX
  8
0
 10
742.954667
 20
400.072722
 42
-0.130242
  0
VERTEX
  8
0
 10
742.552903
 20
400.293750
 42
-0.191558
  0
VERTEX
  8
0
 10
742.402804
 20
400.620785
 42
-0.152499
  0
VERTEX
  8
0
 10
742.500000
 20
401.000000
 42
-0.159713
  0
VERTEX
  8
0
 10
742.958660
 20
401.386693
 42
-0.035556
  0
VERTEX
  8
0
 10
743.947275
 20
401.706250
 42
-0.033489
  0
VERTEX
  8
0
 10
745.196361
 20
401.926586
 42
-0.026918
  0
VERTEX
  8
0
 10
746.559017
 20
402.000000
 42
0.000000
  0
VERTEX
  8
0
 10
750.000000
 20
402.000000
 42
0.000000
  0
VERTEX
  8
0
 10
750.000000
 20
414.000000
 42
0.000000
  0
VERTEX
  8
0
 10
750.000000
 20
426.000000
 42
0.000000
  0
VERTEX
  8
0
 10
740.500000
 20
426.000000
 42
-0.006843
  0
VERTEX
  8
0
 10
734.395384
 20
426.083551
 42
-0.073288
  0
VERTEX
  8
0
 10
731.961715
 20
426.510545
 42
-0.377281
  0
VERTEX
  8
0
 10
731.439618
 20
427.403136
 42
-0.149377
  0
VERTEX
  8
0
 10
732.162839
 20
428.762839
 42
0.106786
  0
VERTEX
  8
0
 10
732.557292
 20
429.374689
 42
0.249547
  0
VERTEX
  8
0
 10
732.489196
 20
429.898659
 42
0.124796
  0
VERTEX
  8
0
 10
731.903942
 20
430.395776
 42
0.023134
  0
VERTEX
  8
0
 10
730.597740
 20
430.962839
 42
0.021785
  0
VERTEX
  8
0
 10
728.033795
 20
431.811815
 42
0.147970
  0
VERTEX
  8
0
 10
726.714510
 20
431.788575
 42
0.167258
  0
VERTEX
  8
0
 10
725.713395
 20
431.038724
 42
0.029816
  0
SEQEND
  0
POLYLINE
  8
0
 66
1
 70
1
  0
VERTEX
  8
0
 10
726.000000
 20
418.447740
 42
-0.057720
  0
VERTEX
  8
0
 10
725.828337
 20
416.965672
 42
-0.238176
  0
VERTEX
  8
0
 10
725.265357
 20
416.294919
 42
-0.107681
  0
VERTEX
  8
0
 10
724.059192
 20
416.062504
 42
-0.008333
  0
VERTEX
  8
0
 10
720.750000
 20
416.197740
 42
-0.012454
  0
VERTEX
  8
0
 10
717.791678
 20
416.442108
 42
-0.080768
  0
VERTEX
  8
0
 10
716.354483
 20
416.837558
 42
-0.159278
  0
VERTEX
  8
0
 10
715.585982
 20
417.547197
 42
-0.092315
  0
VERTEX
  8
0
 10
715.180449
 20
418.750000
 42
-0.084031
  0
VERTEX
  8
0
 10
715.213971
 20
420.010436
 42
-0.247805
  0
VERTEX
  8
0
 10
715.742044
 20
420.663348
 42
-0.093684
  0
VERTEX
  8
0
 10
717.020869
 20
420.946727
 42
-0.007812
  0
VERTEX
  8
0
 10
720.430449
 20
421.000000
 42
-0.008333
  0
VERTEX
  8
0
 10
723.903527
 20
420.942116
 42
-0.099417
  0
VERTEX
  8
0
 10
725.204449
 20
420.635437
 42
-0.224075
  0
VERTEX
  8
0
 10
725.808117
 20
419.919075
 42
-0.064932
  0
SEQEND
  0
POLYLINE
  8
0
 66
1
 70
1
  0
VERTEX
  8
0
 10
743.819551
 20
418.750000
 42
-0.090247
  0
VERTEX
  8
0
 10
743.414238
 20
417.531363
 42
-0.177009
  0
VERTEX
  8
0
 10
742.655477
 20
416.866798
 42
-0.082119
  0
VERTEX
  8
0
 10
741.209697
 20
416.566106
 42
-0.010297
  0
VERTEX
  8
0
 10
738.000000
 20
416.500000
 42
-0.010297
  0
VERTEX
  8
0
 10
734.790303
 20
416.566106
 42
-0.082119
  0
VERTEX
  8
0
 10
733.344523
 20
416.866798
 42
-0.177009
  0
VERTEX
  8
0
 10
732.585762
 20
417.531363
 42
-0.090247
  0
VERTEX
  8
0
 10
732.180449
 20
418.750000
 42
-0.092091
  0
VERTEX
  8
0
 10
732.234300
 20
420.013786
 42
-0.248860
  0
VERTEX
  8
0
 10
732.804185
 20
420.671387
 42
-0.085803
  0
VERTEX
  8
0
 10
734.191985
 20
420.949442
 42
-0.006638
  0
VERTEX
  8
0
 10
738.000000
 20
421.000000
 42
-0.006638
  0
VERTEX
  8
0
 10
741.808015
 20
420.949442
 42
-0.085803
  0
VERTEX
  8
0
 10
743.195815
 20
420.671387
 42
-0.248860
  0
VERTEX
  8
0
 10
743.765700
 20
420.013786
 42
-0.092091
  0
SEQEND
  0
POLYLINE
  8
0
 66
1
 70
1
  0
VERTEX
  8
0
 10
726.000000
 20
409.500000
 42
-0.067911
  0
VERTEX
  8
0
 10
725.804980
 20
408.070774
 42
-0.221767
  0
VERTEX
  8
0
 10
725.200000
 20
407.363636
 42
-0.098356
  0
VERTEX
  8
0
 10
723.900424
 20
407.058601
 42
-0.008616
  0
VERTEX
  8
0
 10
720.500000
 20
407.000000
 42
-0.010392
  0
VERTEX
  8
0
 10
717.472055
 20
407.062941
 42
-0.070161
  0
VERTEX
  8
0
 10
716.000000
 20
407.333333
 42
-0.170977
  0
VERTEX
  8
0
 10
715.275420
 20
407.896183
 42
-0.143903
  0
VERTEX
  8
0
 10
715.000000
 20
408.833333
 42
-0.082952
  0
VERTEX
  8
0
 10
715.278431
 20
410.500045
 42
-0.193706
  0
VERTEX
  8
0
 10
716.091862
 20
411.439314
 42
-0.103283
  0
VERTEX
  8
0
 10
717.738330
 20
411.892442
 42
-0.015683
  0
VERTEX
  8
0
 10
721.166667
 20
412.000000
 42
-0.011026
  0
VERTEX
  8
0
 10
724.086298
 20
411.935608
 42
-0.108736
  0
VERTEX
  8
0
 10
725.266667
 20
411.620690
 42
-0.215034
  0
VERTEX
  8
0
 10
725.824798
 20
410.915964
 42
-0.061632
  0
SEQEND
  0
POLYLINE
  8
0
 66
1
 70
1
  0
VERTEX
  8
0
 10
743.819551
 20
409.250000
 42
-0.091097
  0
VERTEX
  8
0
 10
743.768210
 20
407.986538
 42
-0.248829
  0
VERTEX
  8
0
 10
743.203415
 20
407.329514
 42
-0.086700
  0
VERTEX
  8
0
 10
741.828905
 20
407.050857
 42
-0.006764
  0
VERTEX
  8
0
 10
738.069551
 20
407.000000
 42
-0.008849
  0
VERTEX
  8
0
 10
734.678347
 20
407.060019
 42
-0.064576
  0
VERTEX
  8
0
 10
733.077666
 20
407.325514
 42
-0.167803
  0
VERTEX
  8
0
 10
732.298716
 20
407.888520
 42
-0.154318
  0
VERTEX
  8
0
 10
732.000000
 20
408.833333
 42
-0.088931
  0
VERTEX
  8
0
 10
732.306243
 20
410.541513
 42
-0.199131
  0
VERTEX
  8
0
 10
733.186535
 20
411.490408
 42
-0.105498
  0
VERTEX
  8
0
 10
734.939111
 20
411.881485
 42
-0.016951
  0
VERTEX
  8
0
 10
738.461588
 20
411.794922
 42
-0.013461
  0
VERTEX
  8
0
 10
741.277150
 20
411.553920
 42
-0.082970
  0
VERTEX
  8
0
 10
742.670699
 20
411.156411
 42
-0.158029
  0
VERTEX
  8
0
 10
743.421930
 20
410.446827
 42
-0.090081
  0
SEQEND
  0
POLYLINE
  8
0
 66
1
 70
1
  0
VERTEX
  8
0
 10
739.580806
 20
397.779968
 42
-0.020373
  0
VERTEX
  8
0
 10
739.244753
 20
396.116220
 42
-0.025464
  0
VERTEX
  8
0
 10
738.792843
 20
394.607128
 42
-0.025101
  0
VERTEX
  8
0
 10
738.297872
 20
393.410025
 42
-0.144739
  0
VERTEX
  8
0
 10
737.845986
 20
392.904814
 42
0.150519
  0
VERTEX
  8
0
 10
737.489883
 20
392.497507
 42
0.070598
  0
VERTEX
  8
0
 10
737.295418
 20
391.817826
 42
0.060336
  0
VERTEX
  8
0
 10
737.281125
 20
390.985899
 42
0.051040
  0
VERTEX
  8
0
 10
737.460625
 20
390.124060
 42
0.084739
  0
VERTEX
  8
0
 10
738.043842
 20
388.993906
 42
0.167073
  0
VERTEX
  8
0
 10
738.871175
 20
388.434879
 42
0.081556
  0
VERTEX
  8
0
 10
740.290813
 20
388.291882
 42
0.010739
  0
VERTEX
  8
0
 10
743.317637
 20
388.546249
 42
-0.018884
  0
VERTEX
  8
0
 10
745.402741
 20
388.687323
 42
-0.022197
  0
VERTEX
  8
0
 10
747.382502
 20
388.658424
 42
-0.021806
  0
VERTEX
  8
0
 10
749.030570
 20
388.488757
 42
-0.112989
  0
VERTEX
  8
0
 10
749.878115
 20
388.158839
 42
-0.219040
  0
VERTEX
  8
0
 10
750.620758
 20
386.929110
 42
-0.324611
  0
VERTEX
  8
0
 10
750.024093
 20
385.876640
 42
-0.085798
  0
VERTEX
  8
0
 10
747.400107
 20
385.189497
 42
-0.021239
  0
VERTEX
  8
0
 10
742.940983
 20
385.000000
 42
0.000000
  0
VERTEX
  8
0
 10
736.000000
 20
385.000000
 42
0.000000
  0
VERTEX
  8
0
 10
736.000000
 20
393.500000
 42
-0.004626
  0
VERTEX
  8
0
 10
736.048688
 20
398.762168
 42
-0.056757
  0
VERTEX
  8
0
 10
736.312583
 20
400.751320
 42
-0.189556
  0
VERTEX
  8
0
 10
736.956083
 20
401.652781
 42
-0.145048
  0
VERTEX
  8
0
 10
738.127808
 20
402.000000
 42
-0.070267
  0
VERTEX
  8
0
 10
739.283264
 20
401.836814
 42
-0.244344
  0
VERTEX
  8
0
 10
739.812956
 20
401.333466
 42
-0.112008
  0
VERTEX
  8
0
 10
739.926239
 20
400.293580
 42
-0.010998
  0
SEQEND
  0
POLYLINE
  8
0
 66
1
 70
1
  0
VERTEX
  8
0
 10
782.489424
 20
430.776261
 42
0.003063
  0
VERTEX
  8
0
 10
781.703877
 20
430.347050
 42
0.003972
  0
VERTEX
  8
0
 10
780.989296
 20
429.943457
 42
0.003003
  0
VERTEX
  8
0
 10
780.395727
 20
429.597204
 42
0.035461
  0
VERTEX
  8
0
 10
780.176264
 20
429.445451
 42
0.312566
  0
VERTEX
  8
0
 10
780.109917
 20
429.222333
 42
0.011685
  0
VERTEX
  8
0
 10
780.417454
 20
428.353567
 42
0.017466
  0
VERTEX
  8
0
 10
780.862220
 20
427.297254
 42
0.010950
  0
VERTEX
  8
0
 10
781.451944
 20
426.092930
 42
0.000000
  0
VERTEX
  8
0
 10
783.051360
 20
423.000000
 42
0.000000
  0
VERTEX
  8
0
 10
779.775680
 20
423.037951
 42
-0.052747
  0
VERTEX
  8
0
 10
777.982417
 20
423.248692
 42
-0.091151
  0
VERTEX
  8
0
 10
776.605993
 20
423.837422
 42
-0.072032
  0
VERTEX
  8
0
 10
775.323363
 20
424.984786
 42
-0.023032
  0
VERTEX
  8
0
 10
773.768701
 20
427.025033
 42
0.013232
  0
VERTEX
  8
0
 10
772.074141
 20
429.341657
 42
0.106047
  0
VERTEX
  8
0
 10
771.070116
 20
430.189894
 42
0.177894
  0
VERTEX
  8
0
 10
770.042180
 20
430.332741
 42
0.053427
  0
VERTEX
  8
0
 10
768.518701
 20
429.826567
 42
0.024677
  0
VERTEX
  8
0
 10
766.713375
 20
428.893865
 42
0.210968
  0
VERTEX
  8
0
 10
766.190541
 20
428.174889
 42
0.196919
  0
VERTEX
  8
0
 10
766.350758
 20
427.273757
 42
0.021248
  0
VERTEX
  8
0
 10
767.583374
 20
425.500000
 42
-0.025627
  0
VERTEX
  8
0
 10
768.422066
 20
424.270276
 42
-0.300190
  0
VERTEX
  8
0
 10
768.402206
 20
423.718073
 42
-0.191388
  0
VERTEX
  8
0
 10
767.841347
 20
423.355899
 42
-0.011220
  0
VERTEX
  8
0
 10
765.801571
 20
423.000000
 42
0.000000
  0
VERTEX
  8
0
 10
762.500000
 20
422.500000
 42
0.000000
  0
VERTEX
  8
0
 10
762.204310
 20
415.750000
 42
0.000000
  0
VERTEX
  8
0
 10
761.908620
 20
409.000000
 42
0.000000
  0
VERTEX
  8
0
 10
764.954310
 20
409.000000
 42
0.032646
  0
VERTEX
  8
0
 10
766.766143
 20
409.118423
 42
0.199976
  0
VERTEX
  8
0
 10
767.559644
 20
409.578333
 42
0.148026
  0
VERTEX
  8
0
 10
767.922969
 20
410.552879
 42
0.015735
  0
VERTEX
  8
0
 10
768.000000
 20
413.000000
 42
0.000000
  0
VERTEX
  8
0
 10
768.000000
 20
417.000000
 42
0.000000
  0
VERTEX
  8
0
 10
786.500000
 20
417.000000
 42
0.000000
  0
VERTEX
  8
0
 10
805.000000
 20
417.000000
 42
0.000000
  0
VERTEX
  8
0
 10
805.000000
 20
413.000000
 42
0.015744
  0
VERTEX
  8
0
 10
805.076799
 20
410.561635
 42
0.146160
  0
VERTEX
  8
0
 10
805.437500
 20
409.583333
 42
0.200505
  0
VERTEX
  8
0
 10
806.224263
 20
409.120733
 42
0.033956
  0
VERTEX
  8
0
 10
808.000000
 20
409.000000
 42
0.000000
  0
VERTEX
  8
0
 10
811.000000
 20
409.000000
 42
0.000000
  0
VERTEX
  8
0
 10
811.000000
 20
416.000000
 42
0.000000
  0
VERTEX
  8
0
 10
811.000000
 20
423.000000
 42
0.000000
  0
VERTEX
  8
0
 10
807.427420
 20
423.000000
 42
0.000000
  0
VERTEX
  8
0
 10
803.854840
 20
423.000000
 42
0.000000
  0
VERTEX
  8
0
 10
806.013098
 20
425.743780
 42
0.000000
  0
VERTEX
  8
0
 10
808.171356
 20
428.487561
 42
0.000000
  0
VERTEX
  8
0
 10
804.849553
 20
429.842997
 42
0.015041
  0
VERTEX
  8
0
 10
802.916824
 20
430.564617
 42
0.102429
  0
VERTEX
  8
0
 10
801.911602
 20
430.689001
 42
0.175017
  0
VERTEX
  8
0
 10
801.201404
 20
430.365386
 42
0.065317
  0
VERTEX
  8
0
 10
800.513875
 20
429.490885
 42
-0.021593
  0
VERTEX
  8
0
 10
798.410204
 20
426.272973
 42
-0.065074
  0
VERTEX
  8
0
 10
796.622590
 20
424.362326
 42
-0.092152
  0
VERTEX
  8
0
 10
794.791589
 20
423.350353
 42
-0.080453
  0
VERTEX
  8
0
 10
792.628308
 20
423.000000
 42
-0.039530
  0
VERTEX
  8
0
 10
790.851196
 20
423.140718
 42
-0.124114
  0
VERTEX
  8
0
 10
789.759119
 20
423.608893
 42
-0.113297
  0
VERTEX
  8
0
 10
788.963182
 20
424.567012
 42
-0.030157
  0
VERTEX
  8
0
 10
788.171668
 20
426.401806
 42
0.031089
  0
VERTEX
  8
0
 10
786.925827
 20
429.275050
 42
0.111312
  0
VERTEX
  8
0
 10
785.655145
 20
430.805261
 42
0.178270
  0
VERTEX
  8
0
 10
784.212932
 20
431.256527
 42
0.111547
  0
SEQEND
  0
POLYLINE
  8
0
 66
1
 70
1
  0
VERTEX
  8
0
 10
1071.449778
 20
430.918740
 42
0.218907
  0
VERTEX
  8
0
 10
1071.373447
 20
430.299048
 42
0.042028
  0
VERTEX
  8
0
 10
1071.817724
 20
429.225750
 42
0.037776
  0
VERTEX
  8
0
 10
1072.594551
 20
427.964341
 42
0.026852
  0
VERTEX
  8
0
 10
1073.640761
 20
426.673735
 42
-0.002158
  0
VERTEX
  8
0
 10
1074.752631
 20
425.432729
 42
-0.003094
  0
VERTEX
  8
0
 10
1075.726437
 20
424.322577
 42
-0.001671
  0
VERTEX
  8
0
 10
1076.540831
 20
423.376110
 42
-0.047668
  0
VERTEX
  8
0
 10
1076.725834
 20
423.112495
 42
0.344101
  0
VERTEX
  8
0
 10
1076.907929
 20
423.037365
 42
0.045905
  0
VERTEX
  8
0
 10
1077.323321
 20
423.195264
 42
0.037489
  0
VERTEX
  8
0
 10
1077.854780
 20
423.506614
 42
0.021963
  0
VERTEX
  8
0
 10
1078.442704
 20
423.952449
 42
0.095599
  0
VERTEX
  8
0
 10
1079.105439
 20
424.759616
 42
0.191021
  0
VERTEX
  8
0
 10
1079.202217
 20
425.566720
 42
0.091247
  0
VERTEX
  8
0
 10
1078.697612
 20
426.638166
 42
0.012832
  0
VERTEX
  8
0
 10
1077.216870
 20
428.594920
 42
0.028597
  0
VERTEX
  8
0
 10
1075.280015
 20
430.756421
 42
0.100318
  0
VERTEX
  8
0
 10
1073.727278
 20
431.780419
 42
0.193362
  0
VERTEX
  8
0
 10
1072.476212
 20
431.781712
 42
0.160417
  0
SEQEND
  0
POLYLINE
  8
0
 66
1
 70
1
  0
VERTEX
  8
0
 10
1063.221893
 20
428.750000
 42
0.179859
  0
VERTEX
  8
0
 10
1062.947490
 20
427.948740
 42
0.099079
  0
VERTEX
  8
0
 10
1063.180079
 20
426.925374
 42
0.056345
  0
VERTEX
  8
0
 10
1063.975848
 20
425.578254
 42
0.017236
  0
VERTEX
  8
0
 10
1065.466434
 20
423.737265
 42
0.011437
  0
VERTEX
  8
0
 10
1067.314792
 20
421.704622
 42
0.084210
  0
VERTEX
  8
0
 10
1068.361907
 20
420.921822
 42
0.212328
  0
VERTEX
  8
0
 10
1069.163847
 20
420.877282
 42
0.129495
  0
VERTEX
  8
0
 10
1069.948740
 20
421.438235
 42
0.114682
  0
VERTEX
  8
0
 10
1070.406814
 20
422.352761
 42
0.137871
  0
VERTEX
  8
0
 10
1070.370373
 20
423.310667
 42
0.074576
  0
VERTEX
  8
0
 10
1069.760953
 20
424.537878
 42
0.015919
  0
VERTEX
  8
0
 10
1068.331754
 20
426.450941
 42
0.010616
  0
VERTEX
  8
0
 10
1066.246274
 20
428.953759
 42
0.108443
  0
VERTEX
  8
0
 10
1065.169020
 20
429.753870
 42
0.254160
  0
VERTEX
  8
0
 10
1064.270638
 20
429.686376
 42
0.078201
  0
SEQEND
  0
POLYLINE
  8
0
 66
1
 70
1
  0
VERTEX
  8
0
 10
818.000000
 20
404.000000
 42
0.000000
  0
VERTEX
  8
0
 10
818.000000
 20
379.000000
 42
0.000000
  0
VERTEX
  8
0
 10
820.440983
 20
379.000000
 42
0.037634
  0
VERTEX
  8
0
 10
821.420660
 20
379.073842
 42
0.041396
  0
VERTEX
  8
0
 10
822.346475
 20
379.293750
 42
0.045439
  0
VERTEX
  8
0
 10
823.093337
 20
379.615492
 42
0.130646
  0
VERTEX
  8
0
 10
823.500000
 20
380.000000
 42
-0.240369
  0
VERTEX
  8
0
 10
824.219445
 20
380.436589
 42
-0.004582
  0
VERTEX
  8
0
 10
828.713946
 20
380.726807
 42
-0.009280
  0
VERTEX
  8
0
 10
834.361517
 20
380.934499
 42
-0.004550
  0
VERTEX
  8
0
 10
841.559017
 20
381.000000
 42
-0.004207
  0
VERTEX
  8
0
 10
848.932212
 20
380.937963
 42
-0.010112
  0
VERTEX
  8
0
 10
854.389754
 20
380.735666
 42
-0.005086
  0
VERTEX
  8
0
 10
858.581297
 20
380.452532
 42
-0.391658
  0
VERTEX
  8
0
 10
859.000000
 20
380.000000
 42
0.277684
  0
VERTEX
  8
0
 10
859.232098
 20
379.614308
 42
0.052312
  0
VERTEX
  8
0
 10
860.028125
 20
379.293750
 42
0.042582
  0
VERTEX
  8
0
 10
861.158889
 20
379.072542
 42
0.027026
  0
VERTEX
  8
0
 10
862.500000
 20
379.000000
 42
0.000000
  0
VERTEX
  8
0
 10
866.000000
 20
379.000000
 42
0.000000
  0
VERTEX
  8
0
 10
866.000000
 20
404.000000
 42
0.000000
  0
VERTEX
  8
0
 10
866.000000
 20
429.000000
 42
0.000000
  0
VERTEX
  8
0
 10
842.000000
 20
429.000000
 42
0.000000
  0
VERTEX
  8
0
 10
818.000000
 20
429.000000
 42
0.000000
  0
SEQEND
  0
POLYLINE
  8
0
 66
1
 70
1
  0
VERTEX
  8
0
 10
859.000000
 20
405.500000
 42
0.000000
  0
VERTEX
  8
0
 10
859.000000
 20
387.000000
 42
0.000000
  0
VERTEX
  8
0
 10
841.500000
 20
387.000000
 42
0.000000
  0
VERTEX
  8
0
 10
824.000000
 20
387.000000
 42
0.000000
  0
VERTEX
  8
0
 10
824.000000
 20
405.500000
 42
0.000000
  0
VERTEX
  8
0
 10
824.000000
 20
424.000000
 42
0.000000
  0
VERTEX
  8
0
 10
841.500000
 20
424.000000
 42
0.000000
  0
VERTEX
  8
0
 10
859.000000
 20
424.000000
 42
0.000000
  0
SEQEND
  0
POLYLINE
  8
0
 66
1
 70
1
  0
VERTEX
  8
0
 10
889.840041
 20
424.096587
 42
-0.033683
  0
VERTEX
  8
0
 10
889.846594
 20
420.609060
 42
-0.223170
  0
VERTEX
  8
0
 10
889.026786
 20
419.124704
 42
-0.121470
  0
VERTEX
  8
0
 10
887.050870
 20
418.323353
 42
-0.007576
  0
VERTEX
  8
0
 10
880.750000
 20
417.509958
 42
0.008750
  0
VERTEX
  8
0
 10
877.092924
 20
417.029124
 42
0.106235
  0
VERTEX
  8
0
 10
875.775849
 20
416.533514
 42
0.205017
  0
VERTEX
  8
0
 10
875.175078
 20
415.645468
 42
0.047625
  0
VERTEX
  8
0
 10
875.000000
 20
413.811547
 42
0.000000
  0
VERTEX
  8
0
 10
875.000000
 20
410.767006
 42
0.000000
  0
VERTEX
  8
0
 10
881.674264
 20
411.481759
 42
0.004661
  0
VERTEX
  8
0
 10
884.320510
 20
411.790122
 42
0.005964
  0
VERTEX
  8
0
 10
886.750859
 20
412.125810
 42
0.004687
  0
VERTEX
  8
0
 10
888.777661
 20
412.449894
 42
0.049660
  0
VERTEX
  8
0
 10
889.583922
 20
412.670577
 42
-0.273115
  0
VERTEX
  8
0
 10
890.498341
 20
412.516606
 42
-0.124940
  0
VERTEX
  8
0
 10
891.229640
 20
411.496917
 42
-0.056197
  0
VERTEX
  8
0
 10
891.786028
 20
409.416257
 42
-0.015147
  0
VERTEX
  8
0
 10
892.191321
 20
406.018672
 42
0.000000
  0
VERTEX
  8
0
 10
892.500000
 20
402.537344
 42
0.000000
  0
VERTEX
  8
0
 10
884.000000
 20
401.356123
 42
-0.001019
  0
VERTEX
  8
0
 10
880.648291
 20
400.897308
 42
-0.001370
  0
VERTEX
  8
0
 10
877.610176
 20
400.496197
 42
-0.000936
  0
VERTEX
  8
0
 10
875.059686
 20
400.171426
 42
-0.014613
  0
VERTEX
  8
0
 10
874.183578
 20
400.087451
 42
0.175375
  0
VERTEX
  8
0
 10
873.656770
 20
399.856256
 42
0.118345
  0
VERTEX
  8
0
 10
873.296586
 20
399.299762
 42
0.077793
  0
VERTEX
  8
0
 10
873.133112
 20
398.419229
 42
0.035727
  0
VERTEX
  8
0
 10
873.183578
 20
397.250000
 42
0.057316
  0
VERTEX
  8
0
 10
873.566378
 20
395.608191
 42
0.229208
  0
VERTEX
  8
0
 10
874.282595
 20
394.904478
 42
0.093061
  0
VERTEX
  8
0
 10
875.715182
 20
394.702051
 42
0.005821
  0
VERTEX
  8
0
 10
880.000000
 20
394.945933
 42
-0.002474
  0
VERTEX
  8
0
 10
882.745216
 20
395.120626
 42
-0.002161
  0
VERTEX
  8
0
 10
885.618750
 20
395.276755
 42
-0.002173
  0
VERTEX
  8
0
 10
888.217365
 20
395.395369
 42
-0.006455
  0
VERTEX
  8
0
 10
890.000000
 20
395.445933
 42
0.000000
  0
VERTEX
  8
0
 10
893.500000
 20
395.500000
 42
0.000000
  0
VERTEX
  8
0
 10
894.369248
 20
387.750000
 42
0.005303
  0
VERTEX
  8
0
 10
894.987785
 20
382.717713
 42
0.078049
  0
VERTEX
  8
0
 10
895.493869
 20
381.013648
 42
0.210164
  0
VERTEX
  8
0
 10
896.375625
 20
380.252644
 42
0.074569
  0
VERTEX
  8
0
 10
898.060231
 20
380.000000
 42
0.033433
  0
VERTEX
  8
0
 10
899.186740
 20
380.075409
 42
0.038601
  0
VERTEX
  8
0
 10
900.238856
 20
380.300589
 42
0.042192
  0
VERTEX
  8
0
 10
901.080076
 20
380.629138
 42
0.141061
  0
VERTEX
  8
0
 10
901.514389
 20
381.023282
 42
0.143355
  0
VERTEX
  8
0
 10
901.713934
 20
381.747657
 42
0.010472
  0
VERTEX
  8
0
 10
901.636843
 20
383.835463
 42
0.013938
  0
VERTEX
  8
0
 10
901.419857
 20
386.360460
 42
0.010083
  0
VERTEX
  8
0
 10
901.043170
 20
389.159713
 42
-0.008405
  0
VERTEX
  8
0
 10
900.661372
 20
391.926678
 42
-0.012662
  0
VERTEX
  8
0
 10
900.430480
 20
394.350131
 42
-0.007476
  0
VERTEX
  8
0
 10
900.320263
 20
396.362549
 42
-0.209267
  0
VERTEX
  8
0
 10
900.507212
 20
396.840545
 42
-0.153024
  0
VERTEX
  8
0
 10
901.000282
 20
397.098312
 42
-0.003567
  0
VERTEX
  8
0
 10
903.614326
 20
397.549396
 42
-0.007582
  0
VERTEX
  8
0
 10
906.715893
 20
398.013652
 42
-0.005030
  0
VERTEX
  8
0
 10
910.287448
 20
398.456479
 42
0.000000
  0
VERTEX
  8
0
 10
919.500000
 20
399.504728
 42
0.000000
  0
VERTEX
  8
0
 10
919.295090
 20
402.373941
 42
0.009036
  0
VERTEX
  8
0
 10
919.195161
 20
403.489149
 42
0.013279
  0
VERTEX
  8
0
 10
919.063690
 20
404.464421
 42
0.008566
  0
VERTEX
  8
0
 10
918.920123
 20
405.263887
 42
0.186946
  0
VERTEX
  8
0
 10
918.795090
 20
405.461364
 42
0.180148
  0
VERTEX
  8
0
 10
918.537646
 20
405.535465
 42
0.000936
  0
VERTEX
  8
0
 10
915.863129
 20
405.326196
 42
0.003975
  0
VERTEX
  8
0
 10
912.803868
 20
405.056569
 42
0.002490
  0
VERTEX
  8
0
 10
909.228328
 20
404.694793
 42
-0.004350
  0
VERTEX
  8
0
 10
905.646415
 20
404.345826
 42
-0.006858
  0
VERTEX
  8
0
 10
902.566546
 20
404.115320
 42
-0.002373
  0
VERTEX
  8
0
 10
899.924431
 20
403.966566
 42
-0.215023
  0
VERTEX
  8
0
 10
899.569714
 20
404.105005
 42
-0.151446
  0
VERTEX
  8
0
 10
899.403232
 20
404.429135
 42
-0.006545
  0
VERTEX
  8
0
 10
899.196154
 20
405.705845
 42
-0.010654
  0
VERTEX
  8
0
 10
899.000286
 20
407.247173
 42
-0.007344
  0
VERTEX
  8
0
 10
898.841386
 20
409.000000
 42
0.000000
  0
VERTEX
  8
0
 10
898.500000
 20
413.500000
 42
0.000000
  0
VERTEX
  8
0
 10
906.000000
 20
414.539629
 42
0.005420
  0
VERTEX
  8
0
 10
910.880778
 20
415.270197
 42
0.082308
  0
VERTEX
  8
0
 10
912.497347
 20
415.812496
 42
0.221052
  0
VERTEX
  8
0
 10
913.175329
 20
416.708466
 42
0.071345
  0
VERTEX
  8
0
 10
913.295090
 20
418.411206
 42
0.012603
  0
VERTEX
  8
0
 10
913.186096
 20
419.526305
 42
0.016680
  0
VERTEX
  8
0
 10
913.027606
 20
420.534035
 42
0.014079
  0
VERTEX
  8
0
 10
912.846472
 20
421.353624
 42
0.135758
  0
VERTEX
  8
0
 10
912.672253
 20
421.661081
 42
0.217529
  0
VERTEX
  8
0
 10
912.307812
 20
421.797016
 42
0.004956
  0
VERTEX
  8
0
 10
910.415320
 20
421.642848
 42
0.010192
  0
VERTEX
  8
0
 10
908.165749
 20
421.390800
 42
0.006613
  0
VERTEX
  8
0
 10
905.575957
 20
421.012134
 42
-0.010005
  0
VERTEX
  8
0
 10
902.948652
 20
420.646165
 42
-0.013871
  0
VERTEX
  8
0
 10
900.580651
 20
420.430905
 42
-0.010348
  0
VERTEX
  8
0
 10
898.622143
 20
420.348170
 42
-0.144773
  0
VERTEX
  8
0
 10
897.948794
 20
420.531647
 42
-0.174769
  0
VERTEX
  8
0
 10
897.580404
 20
420.995512
 42
-0.029648
  0
VERTEX
  8
0
 10
897.278708
 20
422.103447
 42
-0.029296
  0
VERTEX
  8
0
 10
897.069441
 20
423.507046
 42
-0.022361
  0
VERTEX
  8
0
 10
897.000000
 20
425.059017
 42
0.016596
  0
VERTEX
  8
0
 10
896.916804
 20
427.564790
 42
0.175291
  0
VERTEX
  8
0
 10
896.512076
 20
428.487307
 42
0.185608
  0
VERTEX
  8
0
 10
895.621802
 20
428.909986
 42
0.019017
  0
VERTEX
  8
0
 10
893.250000
 20
429.000622
 42
0.000000
  0
VERTEX
  8
0
 10
889.500000
 20
429.001243
 42
0.000000
  0
SEQEND
  0
POLYLINE
  8
0
 66
1
 70
1
  0
VERTEX
  8
0
 10
1049.500000
 20
423.751772
 42
0.000000
  0
VERTEX
  8
0
 10
1049.500000
 20
418.500000
 42
0.000000
  0
VERTEX
  8
0
 10
1040.750000
 20
418.211067
 42
0.000000
  0
VERTEX
  8
0
 10
1032.000000
 20
417.922134
 42
0.000000
  0
VERTEX
  8
0
 10
1032.000000
 20
415.000000
 42
0.000000
  0
VERTEX
  8
0
 10
1032.000000
 20
412.077866
 42
0.000000
  0
VERTEX
  8
0
 10
1040.750000
 20
411.788933
 42
0.000000
  0
VERTEX
  8
0
 10
1049.500000
 20
411.500000
 42
0.000000
  0
VERTEX
  8
0
 10
1049.500000
 20
399.500000
 42
0.000000
  0
VERTEX
  8
0
 10
1049.500000
 20
387.500000
 42
0.000000
  0
VERTEX
  8
0
 10
1045.137598
 20
387.187010
 42
0.011042
  0
VERTEX
  8
0
 10
1042.326814
 20
386.922847
 42
0.157799
  0
VERTEX
  8
0
 10
1041.423378
 20
386.509819
 42
0.233837
  0
VERTEX
  8
0
 10
1041.115328
 20
385.714551
 42
0.026890
  0
VERTEX
  8
0
 10
1041.398015
 20
383.759927
 42
0.021917
  0
VERTEX
  8
0
 10
1042.036386
 20
381.165057
 42
0.195487
  0
VERTEX
  8
0
 10
1042.752633
 20
380.263137
 42
0.154437
  0
VERTEX
  8
0
 10
1043.983691
 20
380.004497
 42
0.012371
  0
VERTEX
  8
0
 10
1047.318779
 20
380.420553
 42
0.048248
  0
VERTEX
  8
0
 10
1052.164607
 20
381.633522
 42
0.193034
  0
VERTEX
  8
0
 10
1054.413787
 20
383.618458
 42
0.099539
  0
VERTEX
  8
0
 10
1055.458566
 20
387.424224
 42
0.008343
  0
VERTEX
  8
0
 10
1056.000000
 20
397.666357
 42
0.000000
  0
VERTEX
  8
0
 10
1056.500000
 20
411.500000
 42
0.000000
  0
VERTEX
  8
0
 10
1065.250000
 20
411.788933
 42
0.000000
  0
VERTEX
  8
0
 10
1074.000000
 20
412.077866
 42
0.000000
  0
VERTEX
  8
0
 10
1074.000000
 20
415.038933
 42
0.000000
  0
VERTEX
  8
0
 10
1074.000000
 20
418.000000
 42
0.000000
  0
VERTEX
  8
0
 10
1064.907450
 20
418.000000
 42
0.000000
  0
VERTEX
  8
0
 10
1055.814901
 20
418.000000
 42
0.000000
  0
VERTEX
  8
0
 10
1056.157450
 20
423.501363
 42
0.000000
  0
VERTEX
  8
0
 10
1056.500000
 20
429.002727
 42
0.000000
  0
VERTEX
  8
0
 10
1053.000000
 20
429.003136
 42
0.000000
  0
VERTEX
  8
0
 10
1049.500000
 20
429.003545
 42
0.000000
  0
SEQEND
  0
POLYLINE
  8
0
 66
1
 70
1
  0
VERTEX
  8
0
 10
986.000000
 20
425.000000
 42
0.000000
  0
VERTEX
  8
0
 10
986.000000
 20
422.000000
 42
0.000000
  0
VERTEX
  8
0
 10
1001.500000
 20
422.000000
 42
0.000000
  0
VERTEX
  8
0
 10
1017.000000
 20
422.000000
 42
0.000000
  0
VERTEX
  8
0
 10
1017.000000
 20
425.000000
 42
0.000000
  0
VERTEX
  8
0
 10
1017.000000
 20
428.000000
 42
0.000000
  0
VERTEX
  8
0
 10
1001.500000
 20
428.000000
 42
0.000000
  0
VERTEX
  8
0
 10
986.000000
 20
428.000000
 42
0.000000
  0
SEQEND
  0
POLYLINE
  8
0
 66
1
 70
1
  0
VERTEX
  8
0
 10
980.666667
 20
413.333333
 42
0.124310
  0
VERTEX
  8
0
 10
980.408273
 20
412.900353
 42
0.025624
  0
VERTEX
  8
0
 10
980.195833
 20
412.030208
 42
0.025482
  0
VERTEX
  8
0
 10
980.048954
 20
410.966930
 42
0.021582
  0
VERTEX
  8
0
 10
980.000000
 20
409.833333
 42
0.000000
  0
VERTEX
  8
0
 10
980.000000
 20
407.000000
 42
0.000000
  0
VERTEX
  8
0
 10
997.000000
 20
407.000000
 42
-0.002976
  0
VERTEX
  8
0
 10
1003.518603
 20
406.961203
 42
-0.004960
  0
VERTEX
  8
0
 10
1009.006250
 20
406.841423
 42
-0.000989
  0
VERTEX
  8
0
 10
1013.787757
 20
406.680121
 42
-0.403796
  0
VERTEX
  8
0
 10
1014.000000
 20
406.460162
 42
-0.128559
  0
VERTEX
  8
0
 10
1013.492289
 20
404.518176
 42
-0.019167
  0
VERTEX
  8
0
 10
1011.363000
 20
401.043351
 42
-0.022719
  0
VERTEX
  8
0
 10
1008.795291
 20
397.547589
 42
-0.042854
  0
VERTEX
  8
0
 10
1006.374310
 20
395.023786
 42
-0.039413
  0
VERTEX
  8
0
 10
1003.038215
 20
392.530843
 42
-0.018522
  0
VERTEX
  8
0
 10
998.378791
 20
389.826270
 42
-0.015421
  0
VERTEX
  8
0
 10
993.770262
 20
387.554214
 42
-0.105134
  0
VERTEX
  8
0
 10
991.309017
 20
387.009769
 42
0.142995
  0
VERTEX
  8
0
 10
990.079107
 20
386.639711
 42
0.205805
  0
VERTEX
  8
0
 10
989.456271
 20
385.706512
 42
0.152986
  0
VERTEX
  8
0
 10
989.619036
 20
384.368323
 42
0.077884
  0
VERTEX
  8
0
 10
990.557026
 20
382.936987
 42
0.079191
  0
VERTEX
  8
0
 10
992.288628
 20
381.544764
 42
0.165188
  0
VERTEX
  8
0
 10
993.967415
 20
381.218923
 42
0.074404
  0
VERTEX
  8
0
 10
996.359581
 20
381.917807
 42
0.007858
  0
VERTEX
  8
0
 10
1001.615643
 20
384.447025
 42
0.033333
  0
VERTEX
  8
0
 10
1007.281132
 20
387.773018
 42
0.045989
  0
VERTEX
  8
0
 10
1011.830294
 20
391.523073
 42
0.046630
  0
VERTEX
  8
0
 10
1015.571354
 20
395.998278
 42
0.035658
  0
VERTEX
  8
0
 10
1018.808246
 20
401.500000
 42
0.006891
  0
VERTEX
  8
0
 10
1021.746708
 20
407.634121
 42
0.071800
  0
VERTEX
  8
0
 10
1022.542503
 20
410.304780
 42
0.214384
  0
VERTEX
  8
0
 10
1022.100938
 20
411.863045
 42
0.127934
  0
VERTEX
  8
0
 10
1020.502042
 20
412.999224
 42
0.086372
  0
VERTEX
  8
0
 10
1016.598316
 20
413.754052
 42
0.002575
  0
VERTEX
  8
0
 10
999.898341
 20
413.980130
 42
0.001328
  0
VERTEX
  8
0
 10
982.477129
 20
414.079990
 42
0.199712
  0
SEQEND
  0
POLYLINE
  8
0
 66
1
 70
1
  0
VERTEX
  8
0
 10
771.183578
 20
409.250000
 42
0.075906
  0
VERTEX
  8
0
 10
771.627037
 20
407.622885
 42
0.206081
  0
VERTEX
  8
0
 10
772.485954
 20
406.827963
 42
0.074297
  0
VERTEX
  8
0
 10
774.256864
 20
406.483838
 42
0.004836
  0
VERTEX
  8
0
 10
779.500000
 20
406.305832
 42
-0.000402
  0
VERTEX
  8
0
 10
782.628375
 20
406.227385
 42
-0.000574
  0
VERTEX
  8
0
 10
785.406281
 20
406.152301
 42
-0.000313
  0
VERTEX
  8
0
 10
787.755979
 20
406.084621
 42
-0.008622
  0
VERTEX
  8
0
 10
788.372445
 20
406.055832
 42
-0.514568
  0
VERTEX
  8
0
 10
788.698151
 20
405.532167
 42
-0.110806
  0
VERTEX
  8
0
 10
787.961243
 20
404.488423
 42
-0.056539
  0
VERTEX
  8
0
 10
786.395145
 20
403.364756
 42
-0.128047
  0
VERTEX
  8
0
 10
784.994187
 20
403.000000
 42
0.104485
  0
VERTEX
  8
0
 10
784.282013
 20
402.849535
 42
0.075842
  0
VERTEX
  8
0
 10
783.596899
 20
402.412500
 42
0.072043
  0
VERTEX
  8
0
 10
783.042301
 20
401.764312
 42
0.077185
  0
VERTEX
  8
0
 10
782.710251
 20
401.000000
 42
-0.167698
  0
VERTEX
  8
0
 10
781.981267
 20
399.906711
 42
-0.118916
  0
VERTEX
  8
0
 10
780.620207
 20
399.309170
 42
-0.040272
  0
VERTEX
  8
0
 10
777.955791
 20
399.051332
 42
-0.003992
  0
VERTEX
  8
0
 10
771.527197
 20
399.000000
 42
0.000000
  0
VERTEX
  8
0
 10
760.867155
 20
399.000000
 42
0.000000
  0
VERTEX
  8
0
 10
761.183578
 20
396.393149
 42
0.000000
  0
VERTEX
  8
0
 10
761.500000
 20
393.786298
 42
0.000000
  0
VERTEX
  8
0
 10
772.000000
 20
393.643149
 42
0.000000
  0
VERTEX
  8
0
 10
782.500000
 20
393.500000
 42
0.000000
  0
VERTEX
  8
0
 10
782.500000
 20
389.500000
 42
0.000000
  0
VERTEX
  8
0
 10
782.500000
 20
385.500000
 42
0.000000
  0
VERTEX
  8
0
 10
777.750000
 20
385.195209
 42
0.007471
  0
VERTEX
  8
0
 10
775.928805
 20
385.050996
 42
0.012310
  0
VERTEX
  8
0
 10
774.395313
 20
384.868293
 42
0.005946
  0
VERTEX
  8
0
 10
773.136244
 20
384.671438
 42
0.366109
  0
VERTEX
  8
0
 10
773.000000
 20
384.510308
 42
0.075989
  0
VERTEX
  8
0
 10
773.038532
 20
384.258238
 42
0.004098
  0
VERTEX
  8
0
 10
773.286479
 20
383.488358
 42
0.006324
  0
VERTEX
  8
0
 10
773.601660
 20
382.575385
 42
0.004565
  0
VERTEX
  8
0
 10
773.975249
 20
381.565100
 42
0.060030
  0
VERTEX
  8
0
 10
774.703470
 20
380.177307
 42
0.138834
  0
VERTEX
  8
0
 10
775.601975
 20
379.433111
 42
0.088572
  0
VERTEX
  8
0
 10
777.024778
 20
379.086210
 42
0.015618
  0
VERTEX
  8
0
 10
779.784120
 20
379.000000
 42
0.044364
  0
VERTEX
  8
0
 10
784.159285
 20
379.388963
 42
0.145451
  0
VERTEX
  8
0
 10
786.724672
 20
380.679896
 42
0.141535
  0
VERTEX
  8
0
 10
788.208890
 20
383.187094
 42
0.041181
  0
VERTEX
  8
0
 10
788.980372
 20
387.655037
 42
0.000000
  0
VERTEX
  8
0
 10
789.500000
 20
393.500000
 42
0.000000
  0
VERTEX
  8
0
 10
800.500000
 20
393.646465
 42
0.000000
  0
VERTEX
  8
0
 10
811.500000
 20
393.792930
 42
0.000000
  0
VERTEX
  8
0
 10
811.816422
 20
396.396465
 42
0.000000
  0
VERTEX
  8
0
 10
812.132845
 20
399.000000
 42
0.000000
  0
VERTEX
  8
0
 10
801.566422
 20
399.000000
 42
-0.007536
  0
VERTEX
  8
0
 10
797.234527
 20
399.065292
 42
-0.016055
  0
VERTEX
  8
0
 10
793.891606
 20
399.273660
 42
-0.011470
  0
VERTEX
  8
0
 10
791.373195
 20
399.570424
 42
-0.373711
  0
VERTEX
  8
0
 10
791.000000
 20
400.000000
 42
-0.073278
  0
VERTEX
  8
0
 10
791.056375
 20
400.382599
 42
-0.087176
  0
VERTEX
  8
0
 10
791.220312
 20
400.708147
 42
-0.099602
  0
VERTEX
  8
0
 10
791.463968
 20
400.927003
 42
-0.131926
  0
VERTEX
  8
0
 10
791.750000
 20
401.006456
 42
0.152806
  0
VERTEX
  8
0
 10
792.223624
 20
401.159151
 42
0.006092
  0
VERTEX
  8
0
 10
793.709378
 20
402.236360
 42
0.010248
  0
VERTEX
  8
0
 10
795.447762
 20
403.585542
 42
0.007021
  0
VERTEX
  8
0
 10
797.367031
 20
405.184297
 42
0.006718
  0
VERTEX
  8
0
 10
800.288696
 20
407.757260
 42
0.082003
  0
VERTEX
  8
0
 10
801.212976
 20
408.919843
 42
0.258467
  0
VERTEX
  8
0
 10
801.214866
 20
409.781093
 42
0.109372
  0
VERTEX
  8
0
 10
800.425901
 20
410.677841
 42
0.117505
  0
VERTEX
  8
0
 10
798.926670
 20
411.307175
 42
0.019850
  0
VERTEX
  8
0
 10
795.821269
 20
411.693599
 42
0.015747
  0
VERTEX
  8
0
 10
791.322635
 20
411.930504
 42
0.005281
  0
VERTEX
  8
0
 10
784.742448
 20
412.000000
 42
0.000000
  0
VERTEX
  8
0
 10
770.867155
 20
412.000000
 42
0.000000
  0
SEQEND
  0
POLYLINE
  8
0
 66
1
 70
1
  0
VERTEX
  8
0
 10
927.000000
 20
405.383369
 42
0.014831
  0
VERTEX
  8
0
 10
927.062596
 20
403.273562
 42
0.146536
  0
VERTEX
  8
0
 10
927.363851
 20
402.449096
 42
0.253734
  0
VERTEX
  8
0
 10
927.986410
 20
402.161696
 42
0.049378
  0
VERTEX
  8
0
 10
929.250000
 20
402.369714
 42
-0.056891
  0
VERTEX
  8
0
 10
930.864286
 20
402.610680
 42
-0.002071
  0
VERTEX
  8
0
 10
937.081250
 20
402.799577
 42
-0.003766
  0
VERTEX
  8
0
 10
944.445064
 20
402.937302
 42
-0.002631
  0
VERTEX
  8
0
 10
952.750000
 20
402.986345
 42
0.000000
  0
VERTEX
  8
0
 10
974.000000
 20
403.000000
 42
0.000000
  0
VERTEX
  8
0
 10
974.000000
 20
406.000000
 42
0.000000
  0
VERTEX
  8
0
 10
974.000000
 20
409.000000
 42
0.000000
  0
VERTEX
  8
0
 10
950.500000
 20
409.000000
 42
0.000000
  0
VERTEX
  8
0
 10
927.000000
 20
409.000000
 42
0.000000
  0
SEQEND
  0
POLYLINE
  8
0
 66
1
 70
1
  0
VERTEX
  8
0
 10
1063.360736
 20
404.828917
 42
0.129286
  0
VERTEX
  8
0
 10
1062.334752
 20
403.950560
 42
0.233389
  0
VERTEX
  8
0
 10
1062.176290
 20
402.880734
 42
0.060235
  0
VERTEX
  8
0
 10
1063.019986
 20
401.050009
 42
0.003665
  0
VERTEX
  8
0
 10
1066.226042
 20
395.930544
 42
0.000000
  0
VERTEX
  8
0
 10
1071.230611
 20
388.067893
 42
0.000000
  0
VERTEX
  8
0
 10
1074.148002
 20
389.576535
 42
0.063441
  0
VERTEX
  8
0
 10
1075.939120
 20
390.812352
 42
0.285812
  0
VERTEX
  8
0
 10
1076.279059
 20
391.979828
 42
0.081847
  0
VERTEX
  8
0
 10
1075.443228
 20
393.770223
 42
0.003212
  0
VERTEX
  8
0
 10
1071.294698
 20
399.750000
 42
0.005961
  0
VERTEX
  8
0
 10
1068.144018
 20
404.118114
 42
0.091399
  0
VERTEX
  8
0
 10
1066.791736
 20
405.382223
 42
0.206985
  0
VERTEX
  8
0
 10
1065.471600
 20
405.596909
 42
0.051017
  0
SEQEND
  0
POLYLINE
  8
0
 66
1
 70
1
  0
VERTEX
  8
0
 10
1036.608665
 20
402.576933
 42
-0.055365
  0
VERTEX
  8
0
 10
1036.151630
 20
401.349790
 42
-0.015374
  0
VERTEX
  8
0
 10
1035.169441
 20
399.542841
 42
-0.015323
  0
VERTEX
  8
0
 10
1033.923642
 20
397.552562
 42
-0.015514
  0
VERTEX
  8
0
 10
1032.563180
 20
395.650714
 42
0.000000
  0
VERTEX
  8
0
 10
1029.125847
 20
391.147562
 42
0.000000
  0
VERTEX
  8
0
 10
1031.647485
 20
389.495321
 42
0.019592
  0
VERTEX
  8
0
 10
1033.185638
 20
388.571504
 42
0.125029
  0
VERTEX
  8
0
 10
1034.059679
 20
388.345608
 42
0.152480
  0
VERTEX
  8
0
 10
1034.849246
 20
388.588535
 42
0.033626
  0
VERTEX
  8
0
 10
1035.974993
 20
389.477369
 42
0.052747
  0
VERTEX
  8
0
 10
1036.872049
 20
390.480090
 42
0.011231
  0
VERTEX
  8
0
 10
1038.199275
 20
392.411878
 42
0.011629
  0
VERTEX
  8
0
 10
1039.641911
 20
394.732153
 42
0.010828
  0
VERTEX
  8
0
 10
1041.011112
 20
397.172227
 42
0.008881
  0
VERTEX
  8
0
 10
1042.647229
 20
400.377800
 42
0.048029
  0
VERTEX
  8
0
 10
1043.331640
 20
402.206149
 42
0.111273
  0
VERTEX
  8
0
 10
1043.378035
 20
403.349203
 42
0.209241
  0
VERTEX
  8
0
 10
1042.870681
 20
404.101085
 42
0.084002
  0
VERTEX
  8
0
 10
1040.883060
 20
404.934554
 42
0.117588
  0
VERTEX
  8
0
 10
1038.964682
 20
404.925627
 42
0.137359
  0
VERTEX
  8
0
 10
1037.462203
 20
404.081721
 42
0.135856
  0
SEQEND
  0
POLYLINE
  8
0
 66
1
 70
1
  0
VERTEX
  8
0
 10
716.548737
 20
396.408100
 42
-0.045925
  0
VERTEX
  8
0
 10
715.510513
 20
392.759566
 42
-0.081436
  0
VERTEX
  8
0
 10
713.929590
 20
390.070810
 42
-0.078256
  0
VERTEX
  8
0
 10
711.524783
 20
387.959257
 42
-0.039547
  0
VERTEX
  8
0
 10
707.948430
 20
386.073161
 42
0.007160
  0
VERTEX
  8
0
 10
704.700257
 20
384.620371
 42
0.127826
  0
VERTEX
  8
0
 10
703.823939
 20
383.898338
 42
0.269702
  0
VERTEX
  8
0
 10
703.738930
 20
383.055209
 42
0.038433
  0
VERTEX
  8
0
 10
704.611235
 20
381.470578
 42
0.088726
  0
VERTEX
  8
0
 10
706.274045
 20
379.710638
 42
0.173272
  0
VERTEX
  8
0
 10
708.098129
 20
379.159062
 42
0.106325
  0
VERTEX
  8
0
 10
710.501580
 20
379.801901
 42
0.022997
  0
VERTEX
  8
0
 10
714.257565
 20
381.948389
 42
0.056078
  0
VERTEX
  8
0
 10
717.703696
 20
384.719291
 42
0.054763
  0
VERTEX
  8
0
 10
720.479136
 20
388.207228
 42
0.056048
  0
VERTEX
  8
0
 10
722.377782
 20
392.130377
 42
0.065018
  0
VERTEX
  8
0
 10
723.237457
 20
396.185576
 42
0.024470
  0
VERTEX
  8
0
 10
723.296162
 20
398.134283
 42
0.164208
  0
VERTEX
  8
0
 10
722.973879
 20
399.032982
 42
0.174373
  0
VERTEX
  8
0
 10
722.183862
 20
399.523547
 42
0.028370
  0
VERTEX
  8
0
 10
720.371477
 20
399.804298
 42
0.032754
  0
VERTEX
  8
0
 10
718.533199
 20
399.862178
 42
0.174842
  0
VERTEX
  8
0
 10
717.615634
 20
399.495483
 42
0.145291
  0
VERTEX
  8
0
 10
717.050143
 20
398.585144
 42
0.020464
  0
SEQEND
  0
POLYLINE
  8
0
 66
1
 70
1
  0
VERTEX
  8
0
 10
151.554629
 20
393.250000
 42
-0.026371
  0
VERTEX
  8
0
 10
144.467907
 20
372.012664
 42
-0.021412
  0
VERTEX
  8
0
 10
134.732083
 20
350.071454
 42
-0.022007
  0
VERTEX
  8
0
 10
123.829966
 20
330.324458
 42
-0.044372
  0
VERTEX
  8
0
 10
113.260162
 20
316.042947
 42
0.000000
  0
VERTEX
  8
0
 10
109.340113
 20
311.625605
 42
0.000000
  0
VERTEX
  8
0
 10
116.420057
 20
305.869243
 42
-0.002351
  0
VERTEX
  8
0
 10
119.460195
 20
303.373614
 42
-0.001832
  0
VERTEX
  8
0
 10
122.742142
 20
300.633210
 42
-0.001851
  0
VERTEX
  8
0
 10
125.781694
 20
298.056970
 42
-0.004499
  0
VERTEX
  8
0
 10
128.000000
 20
296.127854
 42
0.000000
  0
VERTEX
  8
0
 10
132.500000
 20
292.142828
 42
0.000000
  0
VERTEX
  8
0
 10
134.836421
 20
294.321414
 42
0.028630
  0
VERTEX
  8
0
 10
136.054233
 20
295.594789
 42
0.006345
  0
VERTEX
  8
0
 10
137.982635
 20
297.916290
 42
0.006574
  0
VERTEX
  8
0
 10
140.144699
 20
300.660323
 42
0.006294
  0
VERTEX
  8
0
 10
142.266008
 20
303.500000
 42
-0.000625
  0
VERTEX
  8
0
 10
144.261672
 20
306.235625
 42
-0.000890
  0
VERTEX
  8
0
 10
146.042424
 20
308.661183
 42
-0.000491
  0
VERTEX
  8
0
 10
147.553644
 20
310.707746
 42
-0.013183
  0
VERTEX
  8
0
 10
147.969784
 20
311.240197
 42
-0.722691
  0
VERTEX
  8
0
 10
148.333805
 20
311.098777
 42
-0.004335
  0
VERTEX
  8
0
 10
148.021733
 20
305.904464
 42
-0.004779
  0
VERTEX
  8
0
 10
147.366508
 20
297.546466
 42
-0.000767
  0
VERTEX
  8
0
 10
145.906904
 20
281.250000
 42
0.000000
  0
VERTEX
  8
0
 10
144.699661
 20
268.000000
 42
0.000000
  0
VERTEX
  8
0
 10
129.849831
 20
268.000000
 42
0.000000
  0
VERTEX
  8
0
 10
115.000000
 20
268.000000
 42
0.000000
  0
VERTEX
  8
0
 10
115.000000
 20
253.000000
 42
0.000000
  0
VERTEX
  8
0
 10
115.000000
 20
238.000000
 42
0.000000
  0
VERTEX
  8
0
 10
128.093838
 20
238.000000
 42
0.000000
  0
VERTEX
  8
0
 10
141.187676
 20
238.000000
 42
0.000000
  0
VERTEX
  8
0
 10
140.525921
 20
232.750000
 42
-0.003800
  0
VERTEX
  8
0
 10
139.395085
 20
224.296833
 42
-0.000345
  0
VERTEX
  8
0
 10
136.400603
 20
203.242299
 42
-0.000240
  0
VERTEX
  8
0
 10
133.293632
 20
181.578797
 42
-0.006491
  0
VERTEX
  8
0
 10
132.393847
 20
175.854470
 42
0.017733
  0
VERTEX
  8
0
 10
132.097620
 20
173.647576
 42
0.148441
  0
VERTEX
  8
0
 10
132.292151
 20
172.671708
 42
0.191947
  0
VERTEX
  8
0
 10
132.973952
 20
172.097408
 42
0.033336
  0
VERTEX
  8
0
 10
134.636111
 20
171.665730
 42
0.024147
  0
VERTEX
  8
0
 10
136.394842
 20
171.419386
 42
0.003017
  0
VERTEX
  8
0
 10
140.235500
 20
171.092741
 42
0.003547
  0
VERTEX
  8
0
 10
144.804253
 20
170.764519
 42
0.002933
  0
VERTEX
  8
0
 10
149.676231
 20
170.477932
 42
0.000000
  0
VERTEX
  8
0
 10
161.852462
 20
169.833343
 42
0.000000
  0
VERTEX
  8
0
 10
162.510290
 20
174.666671
 42
-0.070016
  0
VERTEX
  8
0
 10
164.039618
 20
180.085399
 42
-0.242371
  0
VERTEX
  8
0
 10
166.786570
 20
182.308326
 42
-0.050179
  0
VERTEX
  8
0
 10
172.779643
 20
182.936900
 42
-0.001057
  0
VERTEX
  8
0
 10
202.634775
 20
183.000000
 42
0.000000
  0
VERTEX
  8
0
 10
241.134775
 20
183.000000
 42
0.000000
  0
VERTEX
  8
0
 10
240.440702
 20
180.750000
 42
-0.062288
  0
VERTEX
  8
0
 10
237.681842
 20
174.631896
 42
-0.157592
  0
VERTEX
  8
0
 10
234.024816
 20
171.487696
 42
-0.096312
  0
VERTEX
  8
0
 10
228.006551
 20
170.233269
 42
-0.015258
  0
VERTEX
  8
0
 10
215.885967
 20
170.439953
 42
0.000000
  0
VERTEX
  8
0
 10
201.175873
 20
171.140152
 42
0.000000
  0
VERTEX
  8
0
 10
203.670633
 20
164.963749
 42
-0.015950
  0
VERTEX
  8
0
 10
204.715641
 20
162.118453
 42
-0.009325
  0
VERTEX
  8
0
 10
205.793986
 20
158.650085
 42
-0.009319
  0
VERTEX
  8
0
 10
206.744674
 20
155.135106
 42
-0.015598
  0
VERTEX
  8
0
 10
207.395788
 20
152.143673
 42
0.000000
  0
VERTEX
  8
0
 10
208.626182
 20
145.500000
 42
0.000000
  0
VERTEX
  8
0
 10
226.063091
 20
145.523793
 42
0.010907
  0
VERTEX
  8
0
 10
239.362776
 20
145.832094
 42
0.042225
  0
VERTEX
  8
0
 10
247.536887
 20
146.895670
 42
0.064802
  0
VERTEX
  8
0
 10
253.487810
 20
149.022249
 42
0.058896
  0
VERTEX
  8
0
 10
258.910108
 20
152.655051
 42
0.060187
  0
VERTEX
  8
0
 10
262.700915
 20
156.784880
 42
0.042001
  0
VERTEX
  8
0
 10
265.947052
 20
162.219457
 42
0.038696
  0
VERTEX
  8
0
 10
268.485795
 20
168.628888
 42
0.033339
  0
VERTEX
  8
0
 10
270.159962
 20
175.679619
 42
0.000000
  0
VERTEX
  8
0
 10
271.390003
 20
183.000000
 42
0.000000
  0
VERTEX
  8
0
 10
284.695002
 20
183.000000
 42
0.000000
  0
VERTEX
  8
0
 10
298.000000
 20
183.000000
 42
0.000000
  0
VERTEX
  8
0
 10
298.000000
 20
196.500000
 42
0.000000
  0
VERTEX
  8
0
 10
298.000000
 20
210.000000
 42
0.000000
  0
VERTEX
  8
0
 10
286.349177
 20
210.000000
 42
0.000000
  0
VERTEX
  8
0
 10
274.698354
 20
210.000000
 42
0.000000
  0
VERTEX
  8
0
 10
275.344003
 20
219.750000
 42
0.002498
  0
VERTEX
  8
0
 10
275.591547
 20
223.794530
 42
0.002420
  0
VERTEX
  8
0
 10
275.801513
 20
227.884375
 42
0.002389
  0
VERTEX
  8
0
 10
275.951646
 20
231.484595
 42
0.008921
  0
VERTEX
  8
0
 10
275.994826
 20
233.750000
 42
0.000000
  0
VERTEX
  8
0
 10
276.000000
 20
238.000000
 42
0.000000
  0
VERTEX
  8
0
 10
287.500000
 20
238.000000
 42
0.000000
  0
VERTEX
  8
0
 10
299.000000
 20
238.000000
 42
0.000000
  0
VERTEX
  8
0
 10
299.000000
 20
253.000000
 42
0.000000
  0
VERTEX
  8
0
 10
299.000000
 20
268.000000
 42
0.000000
  0
VERTEX
  8
0
 10
288.341009
 20
268.000000
 42
0.000000
  0
VERTEX
  8
0
 10
277.682019
 20
268.000000
 42
0.000000
  0
VERTEX
  8
0
 10
278.416535
 20
291.750000
 42
-0.000380
  0
VERTEX
  8
0
 10
278.710626
 20
301.030976
 42
-0.000544
  0
VERTEX
  8
0
 10
278.986539
 20
309.257812
 42
-0.000290
  0
VERTEX
  8
0
 10
279.231819
 20
316.224385
 42
-0.008476
  0
VERTEX
  8
0
 10
279.325525
 20
318.000000
 42
0.083756
  0
VERTEX
  8
0
 10
279.184800
 20
319.439584
 42
0.214800
  0
VERTEX
  8
0
 10
278.535304
 20
320.230170
 42
0.083826
  0
VERTEX
  8
0
 10
277.033674
 20
320.682580
 42
0.007068
  0
VERTEX
  8
0
 10
273.000000
 20
321.133116
 42
0.020430
  0
VERTEX
  8
0
 10
268.448395
 20
321.389380
 42
0.000835
  0
VERTEX
  8
0
 10
252.032813
 20
321.614588
 42
0.001456
  0
VERTEX
  8
0
 10
232.580704
 20
321.792299
 42
0.001032
  0
VERTEX
  8
0
 10
210.750000
 20
321.883116
 42
-0.001052
  0
VERTEX
  8
0
 10
189.372642
 20
321.972922
 42
-0.001755
  0
VERTEX
  8
0
 10
171.376562
 20
322.149563
 42
-0.000124
  0
VERTEX
  8
0
 10
155.254082
 20
322.368416
 42
-0.410171
  0
VERTEX
  8
0
 10
155.000000
 20
322.626034
 42
-0.114579
  0
VERTEX
  8
0
 10
155.102738
 20
323.068474
 42
-0.001842
  0
VERTEX
  8
0
 10
156.248437
 20
325.380859
 42
-0.004723
  0
VERTEX
  8
0
 10
157.621215
 20
328.062474
 42
-0.003102
  0
VERTEX
  8
0
 10
159.250000
 20
331.125049
 42
0.000000
  0
VERTEX
  8
0
 10
163.500000
 20
338.998030
 42
0.000000
  0
VERTEX
  8
0
 10
229.750000
 20
338.999015
 42
0.000000
  0
VERTEX
  8
0
 10
296.000000
 20
339.000000
 42
0.000000
  0
VERTEX
  8
0
 10
296.000000
 20
353.500000
 42
0.000000
  0
VERTEX
  8
0
 10
296.000000
 20
368.000000
 42
0.000000
  0
VERTEX
  8
0
 10
235.893011
 20
368.000000
 42
-0.000809
  0
VERTEX
  8
0
 10
204.836728
 20
368.050249
 42
-0.004431
  0
VERTEX
  8
0
 10
188.058644
 20
368.253227
 42
-0.002032
  0
VERTEX
  8
0
 10
176.737408
 20
368.536569
 42
-0.515616
  0
VERTEX
  8
0
 10
176.260154
 20
369.250000
 42
0.010229
  0
VERTEX
  8
0
 10
176.553163
 20
370.072872
 42
0.000782
  0
VERTEX
  8
0
 10
177.293925
 20
372.307735
 42
0.001074
  0
VERTEX
  8
0
 10
178.167713
 20
374.977069
 42
0.000818
  0
VERTEX
  8
0
 10
179.113572
 20
377.903991
 42
-0.010633
  0
VERTEX
  8
0
 10
180.552822
 20
382.075996
 42
-0.054508
  0
VERTEX
  8
0
 10
181.643740
 20
384.264834
 42
-0.090069
  0
VERTEX
  8
0
 10
182.908555
 20
385.619997
 42
-0.061185
  0
VERTEX
  8
0
 10
184.746430
 20
386.667411
 42
0.020521
  0
VERTEX
  8
0
 10
185.992677
 20
387.249280
 42
0.029110
  0
VERTEX
  8
0
 10
187.044264
 20
387.874008
 42
0.028808
  0
VERTEX
  8
0
 10
187.814202
 20
388.461582
 42
0.218725
  0
VERTEX
  8
0
 10
188.000000
 20
388.865990
 42
0.331422
  0
VERTEX
  8
0
 10
187.513874
 20
389.518830
 42
0.000454
  0
VERTEX
  8
0
 10
171.701166
 20
394.233629
 42
0.001320
  0
VERTEX
  8
0
 10
156.618655
 20
398.672497
 42
0.079606
  0
VERTEX
  8
0
 10
153.820958
 20
399.023211
 42
0.288115
  0
VERTEX
  8
0
 10
153.492125
 20
398.800551
 42
0.010121
  0
VERTEX
  8
0
 10
152.875120
 20
397.317756
 42
0.016007
  0
VERTEX
  8
0
 10
152.212085
 20
395.455617
 42
0.010178
  0
SEQEND
  0
POLYLINE
  8
0
 66
1
 70
1
  0
VERTEX
  8
0
 10
197.459497
 20
285.250000
 42
-0.002462
  0
VERTEX
  8
0
 10
197.210316
 20
281.588313
 42
-0.002258
  0
VERTEX
  8
0
 10
196.918264
 20
277.821875
 42
-0.002255
  0
VERTEX
  8
0
 10
196.627308
 20
274.463194
 42
-0.007413
  0
VERTEX
  8
0
 10
196.392390
 20
272.250000
 42
0.000000
  0
VERTEX
  8
0
 10
195.877454
 20
268.000000
 42
0.000000
  0
VERTEX
  8
0
 10
184.809602
 20
268.000000
 42
0.000000
  0
VERTEX
  8
0
 10
173.741749
 20
268.000000
 42
0.000000
  0
VERTEX
  8
0
 10
174.415727
 20
276.250000
 42
-0.002032
  0
VERTEX
  8
0
 10
174.716562
 20
279.756768
 42
-0.001706
  0
VERTEX
  8
0
 10
175.063268
 20
283.471875
 42
-0.001721
  0
VERTEX
  8
0
 10
175.403239
 20
286.863439
 42
-0.004745
  0
VERTEX
  8
0
 10
175.673683
 20
289.250000
 42
0.000000
  0
VERTEX
  8
0
 10
176.257661
 20
294.000000
 42
0.000000
  0
VERTEX
  8
0
 10
187.134665
 20
294.000000
 42
0.000000
  0
VERTEX
  8
0
 10
198.011669
 20
294.000000
 42
0.000000
  0
SEQEND
  0
POLYLINE
  8
0
 66
1
 70
1
  0
VERTEX
  8
0
 10
248.992891
 20
287.750000
 42
-0.007800
  0
VERTEX
  8
0
 10
248.944695
 20
284.870647
 42
-0.004302
  0
VERTEX
  8
0
 10
248.800606
 20
281.353125
 42
-0.004288
  0
VERTEX
  8
0
 10
248.593183
 20
277.788279
 42
-0.006867
  0
VERTEX
  8
0
 10
248.348286
 20
274.750000
 42
0.000000
  0
VERTEX
  8
0
 10
247.710790
 20
268.000000
 42
0.000000
  0
VERTEX
  8
0
 10
235.855395
 20
268.000000
 42
0.000000
  0
VERTEX
  8
0
 10
224.000000
 20
268.000000
 42
0.000000
  0
VERTEX
  8
0
 10
224.005994
 20
272.750000
 42
-0.008925
  0
VERTEX
  8
0
 10
224.051603
 20
275.136147
 42
-0.003215
  0
VERTEX
  8
0
 10
224.198880
 20
278.528125
 42
-0.003188
  0
VERTEX
  8
0
 10
224.407876
 20
282.243214
 42
-0.003779
  0
VERTEX
  8
0
 10
224.654211
 20
285.750000
 42
0.000000
  0
VERTEX
  8
0
 10
225.296435
 20
294.000000
 42
0.000000
  0
VERTEX
  8
0
 10
237.148217
 20
294.000000
 42
0.000000
  0
VERTEX
  8
0
 10
249.000000
 20
294.000000
 42
0.000000
  0
SEQEND
  0
POLYLINE
  8
0
 66
1
 70
1
  0
VERTEX
  8
0
 10
193.470833
 20
230.250000
 42
-0.000992
  0
VERTEX
  8
0
 10
193.156534
 20
226.844743
 42
-0.000697
  0
VERTEX
  8
0
 10
192.789913
 20
223.014063
 42
-0.000703
  0
VERTEX
  8
0
 10
192.428746
 20
219.348682
 42
-0.001475
  0
VERTEX
  8
0
 10
192.135513
 20
216.500000
 42
0.000000
  0
VERTEX
  8
0
 10
191.500000
 20
210.500000
 42
0.000000
  0
VERTEX
  8
0
 10
180.564265
 20
210.214284
 42
-0.003867
  0
VERTEX
  8
0
 10
176.293747
 20
210.135753
 42
-0.005574
  0
VERTEX
  8
0
 10
172.514837
 20
210.137621
 42
-0.003064
  0
VERTEX
  8
0
 10
169.329425
 20
210.194229
 42
-0.085837
  0
VERTEX
  8
0
 10
168.518521
 20
210.354519
 42
-0.298592
  0
VERTEX
  8
0
 10
168.021158
 20
211.045248
 42
-0.017072
  0
VERTEX
  8
0
 10
167.994795
 20
213.794285
 42
-0.016079
  0
VERTEX
  8
0
 10
168.228702
 20
217.914779
 42
-0.004405
  0
VERTEX
  8
0
 10
168.863180
 20
224.390235
 42
0.000000
  0
VERTEX
  8
0
 10
170.317850
 20
238.000000
 42
0.000000
  0
VERTEX
  8
0
 10
182.244245
 20
238.000000
 42
0.000000
  0
VERTEX
  8
0
 10
194.170640
 20
238.000000
 42
0.000000
  0
SEQEND
  0
POLYLINE
  8
0
 66
1
 70
1
  0
VERTEX
  8
0
 10
246.589417
 20
230.250000
 42
-0.000714
  0
VERTEX
  8
0
 10
246.299363
 20
226.826942
 42
-0.000488
  0
VERTEX
  8
0
 10
245.960642
 20
222.940625
 42
-0.000492
  0
VERTEX
  8
0
 10
245.626889
 20
219.196224
 42
-0.000997
  0
VERTEX
  8
0
 10
245.355433
 20
216.250000
 42
0.000000
  0
VERTEX
  8
0
 10
244.767006
 20
210.000000
 42
0.000000
  0
VERTEX
  8
0
 10
231.745822
 20
210.000000
 42
0.000000
  0
VERTEX
  8
0
 10
218.724637
 20
210.000000
 42
0.000000
  0
VERTEX
  8
0
 10
219.315677
 20
215.250000
 42
0.003861
  0
VERTEX
  8
0
 10
219.589722
 20
217.865791
 42
0.001457
  0
VERTEX
  8
0
 10
219.934071
 20
221.528125
 42
0.001443
  0
VERTEX
  8
0
 10
220.285642
 20
225.515250
 42
0.001758
  0
VERTEX
  8
0
 10
220.590878
 20
229.250000
 42
0.000000
  0
VERTEX
  8
0
 10
221.275039
 20
238.000000
 42
0.000000
  0
VERTEX
  8
0
 10
234.255007
 20
238.000000
 42
0.000000
  0
VERTEX
  8
0
 10
247.234975
 20
238.000000
 42
0.000000
  0
SEQEND
  0
POLYLINE
  8
0
 66
1
 70
1
  0
VERTEX
  8
0
 10
67.483025
 20
386.750000
 42
0.000022
  0
VERTEX
  8
0
 10
64.424297
 20
382.738799
 42
0.000031
  0
VERTEX
  8
0
 10
61.703752
 20
379.170311
 42
0.000017
  0
VERTEX
  8
0
 10
59.405055
 20
376.154549
 42
0.000449
  0
VERTEX
  8
0
 10
58.785705
 20
375.340421
 42
0.370491
  0
VERTEX
  8
0
 10
58.833425
 20
374.548348
 42
0.037839
  0
VERTEX
  8
0
 10
60.353945
 20
373.200271
 42
0.026283
  0
VERTEX
  8
0
 10
63.002250
 20
371.399482
 42
0.007944
  0
VERTEX
  8
0
 10
67.202598
 20
368.945645
 42
-0.009015
  0
VERTEX
  8
0
 10
75.322371
 20
364.178743
 42
-0.009452
  0
VERTEX
  8
0
 10
83.136348
 20
359.194537
 42
-0.009955
  0
VERTEX
  8
0
 10
90.291958
 20
354.229431
 42
-0.014254
  0
VERTEX
  8
0
 10
96.416141
 20
349.525101
 42
0.000000
  0
VERTEX
  8
0
 10
101.849770
 20
345.099350
 42
0.000000
  0
VERTEX
  8
0
 10
111.347906
 20
357.789965
 42
0.004205
  0
VERTEX
  8
0
 10
116.288290
 20
364.507928
 42
0.023258
  0
VERTEX
  8
0
 10
118.743662
 20
368.262392
 42
0.042761
  0
VERTEX
  8
0
 10
119.882056
 20
370.636016
 42
0.268206
  0
VERTEX
  8
0
 10
119.673021
 20
371.912225
 42
0.085570
  0
VERTEX
  8
0
 10
114.866915
 20
376.073748
 42
0.004966
  0
VERTEX
  8
0
 10
98.065255
 20
385.985688
 42
0.003755
  0
VERTEX
  8
0
 10
80.710736
 20
395.819879
 42
0.127697
  0
VERTEX
  8
0
 10
76.165295
 20
397.000000
 42
0.217304
  0
VERTEX
  8
0
 10
75.630625
 20
396.756111
 42
0.003027
  0
VERTEX
  8
0
 10
73.257877
 20
393.989062
 42
0.007822
  0
VERTEX
  8
0
 10
70.541729
 20
390.678837
 42
0.004992
  0
SEQEND
  0
POLYLINE
  8
0
 66
1
 70
1
  0
VERTEX
  8
0
 10
519.499381
 20
383.920849
 42
-0.090652
  0
VERTEX
  8
0
 10
517.849411
 20
383.601352
 42
-0.000206
  0
VERTEX
  8
0
 10
492.751381
 20
383.349131
 42
-0.001361
  0
VERTEX
  8
0
 10
464.459549
 20
383.153460
 42
-0.000845
  0
VERTEX
  8
0
 10
431.250000
 20
383.070285
 42
0.000000
  0
VERTEX
  8
0
 10
345.000000
 20
383.000000
 42
0.000000
  0
VERTEX
  8
0
 10
345.000000
 20
367.006989
 42
0.000000
  0
VERTEX
  8
0
 10
345.000000
 20
351.013977
 42
0.000000
  0
VERTEX
  8
0
 10
412.471034
 20
350.756989
 42
0.000000
  0
VERTEX
  8
0
 10
479.942069
 20
350.500000
 42
0.000000
  0
VERTEX
  8
0
 10
473.721034
 20
345.515855
 42
-0.010377
  0
VERTEX
  8
0
 10
470.463138
 20
343.014921
 42
-0.003299
  0
VERTEX
  8
0
 10
465.508679
 20
339.422609
 42
-0.003291
  0
VERTEX
  8
0
 10
459.933356
 20
335.491194
 42
-0.003661
  0
VERTEX
  8
0
 10
454.500000
 20
331.771901
 42
0.000000
  0
VERTEX
  8
0
 10
441.500000
 20
323.012091
 42
0.000000
  0
VERTEX
  8
0
 10
433.250000
 20
323.006046
 42
0.000000
  0
VERTEX
  8
0
 10
425.000000
 20
323.000000
 42
0.000000
  0
VERTEX
  8
0
 10
425.000000
 20
301.500000
 42
0.000000
  0
VERTEX
  8
0
 10
425.000000
 20
280.000000
 42
0.000000
  0
VERTEX
  8
0
 10
371.000000
 20
280.000000
 42
0.000000
  0
VERTEX
  8
0
 10
317.000000
 20
280.000000
 42
0.000000
  0
VERTEX
  8
0
 10
317.000000
 20
264.000000
 42
0.000000
  0
VERTEX
  8
0
 10
317.000000
 20
248.000000
 42
0.000000
  0
VERTEX
  8
0
 10
371.000000
 20
248.000000
 42
0.000000
  0
VERTEX
  8
0
 10
425.000000
 20
248.000000
 42
0.000000
  0
VERTEX
  8
0
 10
425.000000
 20
213.571429
 42
-0.001186
  0
VERTEX
  8
0
 10
424.952351
 20
193.489517
 42
-0.010300
  0
VERTEX
  8
0
 10
424.725905
 20
184.556516
 42
-0.018492
  0
VERTEX
  8
0
 10
424.302387
 20
179.460822
 42
-0.167926
  0
VERTEX
  8
0
 10
423.340873
 20
177.483730
 42
-0.156107
  0
VERTEX
  8
0
 10
421.549264
 20
176.560804
 42
-0.029045
  0
VERTEX
  8
0
 10
417.821947
 20
176.157070
 42
-0.014140
  0
VERTEX
  8
0
 10
411.261932
 20
176.015717
 42
-0.001715
  0
VERTEX
  8
0
 10
396.840299
 20
176.162302
 42
0.000392
  0
VERTEX
  8
0
 10
387.314858
 20
176.284325
 42
0.000654
  0
VERTEX
  8
0
 10
379.296195
 20
176.370273
 42
0.000017
  0
VERTEX
  8
0
 10
372.041805
 20
176.438292
 42
0.418575
  0
VERTEX
  8
0
 10
371.999426
 20
176.396073
 42
0.106901
  0
VERTEX
  8
0
 10
372.017336
 20
176.315419
 42
0.000040
  0
VERTEX
  8
0
 10
373.285163
 20
173.562578
 42
0.000644
  0
VERTEX
  8
0
 10
374.697875
 20
170.506167
 42
0.000392
  0
VERTEX
  8
0
 10
376.375596
 20
166.896073
 42
-0.007819
  0
VERTEX
  8
0
 10
378.223759
 20
162.759543
 42
-0.005645
  0
VERTEX
  8
0
 10
380.159883
 20
158.092656
 42
-0.005703
  0
VERTEX
  8
0
 10
381.899976
 20
153.613723
 42
-0.012317
  0
VERTEX
  8
0
 10
383.113822
 20
150.121479
 42
0.000000
  0
VERTEX
  8
0
 10
385.476453
 20
142.742957
 42
0.000000
  0
VERTEX
  8
0
 10
402.488226
 20
143.461457
 42
0.018317
  0
VERTEX
  8
0
 10
425.946307
 20
145.314723
 42
0.060363
  0
VERTEX
  8
0
 10
441.008385
 20
148.937638
 42
0.096972
  0
VERTEX
  8
0
 10
450.638531
 20
154.841489
 42
0.117108
  0
VERTEX
  8
0
 10
456.563012
 20
163.607414
 42
0.058891
  0
VERTEX
  8
0
 10
457.606882
 20
167.808664
 42
0.019137
  0
VERTEX
  8
0
 10
458.167633
 20
174.192184
 42
0.008963
  0
VERTEX
  8
0
 10
458.506250
 20
184.964805
 42
0.001131
  0
VERTEX
  8
0
 10
458.767863
 20
208.250000
 42
0.000000
  0
VERTEX
  8
0
 10
459.124529
 20
248.000000
 42
0.000000
  0
VERTEX
  8
0
 10
513.062265
 20
248.000000
 42
0.000000
  0
VERTEX
  8
0
 10
567.000000
 20
248.000000
 42
0.000000
  0
VERTEX
  8
0
 10
567.000000
 20
264.000000
 42
0.000000
  0
VERTEX
  8
0
 10
567.000000
 20
280.000000
 42
0.000000
  0
VERTEX
  8
0
 10
513.000000
 20
280.000000
 42
0.000000
  0
VERTEX
  8
0
 10
459.000000
 20
280.000000
 42
0.000000
  0
VERTEX
  8
0
 10
459.000000
 20
288.799253
 42
0.000000
  0
VERTEX
  8
0
 10
459.000000
 20
297.598506
 42
0.000000
  0
VERTEX
  8
0
 10
471.503107
 20
305.521892
 42
0.013444
  0
VERTEX
  8
0
 10
487.439214
 20
316.231907
 42
0.010305
  0
VERTEX
  8
0
 10
504.281379
 20
328.751316
 42
0.010252
  0
VERTEX
  8
0
 10
520.711899
 20
342.047184
 42
0.012732
  0
VERTEX
  8
0
 10
535.410994
 20
355.104060
 42
-0.011173
  0
VERTEX
  8
0
 10
538.660771
 20
358.008938
 42
-0.012958
  0
VERTEX
  8
0
 10
541.883465
 20
360.621193
 42
-0.012027
  0
VERTEX
  8
0
 10
544.708339
 20
362.686013
 42
-0.071816
  0
VERTEX
  8
0
 10
546.335885
 20
363.500000
 42
0.027357
  0
VERTEX
  8
0
 10
547.516244
 20
363.964712
 42
0.032415
  0
VERTEX
  8
0
 10
548.571152
 20
364.533603
 42
0.034235
  0
VERTEX
  8
0
 10
549.378013
 20
365.119216
 42
0.140777
  0
VERTEX
  8
0
 10
549.713023
 20
365.614394
 42
0.288672
  0
VERTEX
  8
0
 10
549.554269
 20
366.244076
 42
0.016045
  0
VERTEX
  8
0
 10
547.975547
 20
367.655979
 42
0.020724
  0
VERTEX
  8
0
 10
545.863499
 20
369.282146
 42
0.013281
  0
VERTEX
  8
0
 10
543.288131
 20
370.999577
 42
0.000030
  0
VERTEX
  8
0
 10
540.149371
 20
372.974083
 42
0.000016
  0
VERTEX
  8
0
 10
536.290707
 20
375.400965
 42
0.000016
  0
VERTEX
  8
0
 10
532.364420
 20
377.870023
 42
0.000026
  0
VERTEX
  8
0
 10
528.999381
 20
379.985747
 42
0.009666
  0
VERTEX
  8
0
 10
525.266102
 20
382.233235
 42
0.032477
  0
VERTEX
  8
0
 10
522.707984
 20
383.493131
 42
0.051555
  0
VERTEX
  8
0
 10
520.851336
 20
384.046545
 42
0.140603
  0
SEQEND
  0
POLYLINE
  8
0
 66
1
 70
1
  0
VERTEX
  8
0
 10
777.000000
 20
364.503981
 42
0.037279
  0
VERTEX
  8
0
 10
764.368174
 20
360.965614
 42
0.038025
  0
VERTEX
  8
0
 10
752.488922
 20
355.608537
 42
0.037032
  0
VERTEX
  8
0
 10
741.282095
 20
348.366746
 42
0.031877
  0
VERTEX
  8
0
 10
730.655631
 20
339.206035
 42
0.076476
  0
VERTEX
  8
0
 10
713.580582
 20
316.413233
 42
0.076343
  0
VERTEX
  8
0
 10
704.133702
 20
289.528490
 42
0.076389
  0
VERTEX
  8
0
 10
703.192947
 20
261.062536
 42
0.076713
  0
VERTEX
  8
0
 10
710.849382
 20
233.671908
 42
0.043797
  0
VERTEX
  8
0
 10
718.979261
 20
219.247314
 42
0.044249
  0
VERTEX
  8
0
 10
729.472698
 20
206.512788
 42
0.044207
  0
VERTEX
  8
0
 10
742.053561
 20
195.812732
 42
0.043537
  0
VERTEX
  8
0
 10
756.381542
 20
187.429071
 42
0.031968
  0
VERTEX
  8
0
 10
768.314245
 20
182.684068
 42
0.036617
  0
VERTEX
  8
0
 10
780.229264
 20
179.751090
 42
0.036427
  0
VERTEX
  8
0
 10
792.498848
 20
178.577801
 42
0.031047
  0
VERTEX
  8
0
 10
805.491827
 20
179.092078
 42
0.077300
  0
VERTEX
  8
0
 10
832.484612
 20
186.155159
 42
0.075669
  0
VERTEX
  8
0
 10
856.277380
 20
201.114125
 42
0.074876
  0
VERTEX
  8
0
 10
874.740152
 20
222.637552
 42
0.073250
  0
VERTEX
  8
0
 10
886.214399
 20
248.801534
 42
0.045614
  0
VERTEX
  8
0
 10
888.015479
 20
258.935559
 42
0.021210
  0
VERTEX
  8
0
 10
888.580924
 20
272.291669
 42
0.021215
  0
VERTEX
  8
0
 10
888.012090
 20
285.659290
 42
0.045204
  0
VERTEX
  8
0
 10
886.209529
 20
295.836628
 42
0.066998
  0
VERTEX
  8
0
 10
875.973456
 20
320.085074
 42
0.068783
  0
VERTEX
  8
0
 10
859.761671
 20
340.523335
 42
0.069256
  0
VERTEX
  8
0
 10
838.724321
 20
355.687720
 42
0.069487
  0
VERTEX
  8
0
 10
814.368968
 20
364.509974
 42
0.037823
  0
VERTEX
  8
0
 10
806.674186
 20
365.540772
 42
0.014430
  0
VERTEX
  8
0
 10
795.856989
 20
365.851293
 42
0.014513
  0
VERTEX
  8
0
 10
784.974706
 20
365.533603
 42
0.035110
  0
SEQEND
  0
POLYLINE
  8
0
 66
1
 70
1
  0
VERTEX
  8
0
 10
813.000000
 20
337.543380
 42
-0.059176
  0
VERTEX
  8
0
 10
826.068218
 20
332.314091
 42
-0.049738
  0
VERTEX
  8
0
 10
838.400645
 20
323.908710
 42
-0.049934
  0
VERTEX
  8
0
 10
848.781744
 20
313.274792
 42
-0.060942
  0
VERTEX
  8
0
 10
856.066548
 20
301.442150
 42
-0.056732
  0
VERTEX
  8
0
 10
860.968747
 20
286.487898
 42
-0.055622
  0
VERTEX
  8
0
 10
862.428933
 20
270.713005
 42
-0.056357
  0
VERTEX
  8
0
 10
860.378373
 20
255.200258
 42
-0.061496
  0
VERTEX
  8
0
 10
854.928653
 20
241.017518
 42
-0.067935
  0
VERTEX
  8
0
 10
844.392005
 20
226.424288
 42
-0.065043
  0
VERTEX
  8
0
 10
830.187157
 20
214.940217
 42
-0.065606
  0
VERTEX
  8
0
 10
813.631725
 20
207.567805
 42
-0.071413
  0
VERTEX
  8
0
 10
796.207842
 20
205.017364
 42
-0.079707
  0
VERTEX
  8
0
 10
775.513683
 20
208.278838
 42
-0.080890
  0
VERTEX
  8
0
 10
756.994098
 20
217.845715
 42
-0.078722
  0
VERTEX
  8
0
 10
742.076822
 20
233.063608
 42
-0.070044
  0
VERTEX
  8
0
 10
731.868676
 20
252.746326
 42
-0.048022
  0
VERTEX
  8
0
 10
730.094814
 20
259.913748
 42
-0.025782
  0
VERTEX
  8
0
 10
729.228964
 20
268.991748
 42
-0.025610
  0
VERTEX
  8
0
 10
729.300392
 20
278.303908
 42
-0.040030
  0
VERTEX
  8
0
 10
730.409569
 20
286.238128
 42
-0.033325
  0
VERTEX
  8
0
 10
732.580867
 20
293.634522
 42
-0.024265
  0
VERTEX
  8
0
 10
735.925273
 20
301.529669
 42
-0.024344
  0
VERTEX
  8
0
 10
739.999129
 20
309.024429
 42
-0.034688
  0
VERTEX
  8
0
 10
744.374652
 20
315.206668
 42
-0.046385
  0
VERTEX
  8
0
 10
752.115818
 20
323.063782
 42
-0.038155
  0
VERTEX
  8
0
 10
761.674911
 20
329.943890
 42
-0.038246
  0
VERTEX
  8
0
 10
772.140030
 20
335.274656
 42
-0.047328
  0
VERTEX
  8
0
 10
782.584840
 20
338.506600
 42
-0.037936
  0
VERTEX
  8
0
 10
789.403441
 20
339.395721
 42
-0.021375
  0
VERTEX
  8
0
 10
797.751782
 20
339.488267
 42
-0.021349
  0
VERTEX
  8
0
 10
806.117429
 20
338.865130
 42
-0.036361
  0
SEQEND
  0
POLYLINE
  8
0
 66
1
 70
1
  0
VERTEX
  8
0
 10
980.678629
 20
365.003389
 42
0.062466
  0
VERTEX
  8
0
 10
959.273564
 20
359.560108
 42
0.064227
  0
VERTEX
  8
0
 10
940.093942
 20
349.030632
 42
0.063753
  0
VERTEX
  8
0
 10
924.097985
 20
333.897644
 42
0.060029
  0
VERTEX
  8
0
 10
912.049664
 20
314.928376
 42
0.021758
  0
VERTEX
  8
0
 10
907.644353
 20
304.579368
 42
0.041242
  0
VERTEX
  8
0
 10
905.172769
 20
295.869397
 42
0.035842
  0
VERTEX
  8
0
 10
903.970690
 20
286.098122
 42
0.012689
  0
VERTEX
  8
0
 10
903.612843
 20
272.000000
 42
0.003909
  0
VERTEX
  8
0
 10
903.694507
 20
261.554288
 42
0.016835
  0
VERTEX
  8
0
 10
904.000731
 20
255.348149
 42
0.025649
  0
VERTEX
  8
0
 10
904.648256
 20
250.554114
 42
0.020817
  0
VERTEX
  8
0
 10
905.816576
 20
245.500000
 42
0.033694
  0
VERTEX
  8
0
 10
910.124077
 20
233.172581
 42
0.033608
  0
VERTEX
  8
0
 10
916.051392
 20
221.524462
 42
0.034180
  0
VERTEX
  8
0
 10
923.372013
 20
210.965891
 42
0.037905
  0
VERTEX
  8
0
 10
931.834761
 20
201.888080
 42
0.046037
  0
VERTEX
  8
0
 10
944.873825
 20
191.920788
 42
0.048982
  0
VERTEX
  8
0
 10
959.257166
 20
184.744919
 42
0.048442
  0
VERTEX
  8
0
 10
974.907771
 20
180.445920
 42
0.043246
  0
VERTEX
  8
0
 10
991.707842
 20
179.017364
 42
0.042535
  0
VERTEX
  8
0
 10
1007.859197
 20
180.420033
 42
0.047128
  0
VERTEX
  8
0
 10
1022.972604
 20
184.535065
 42
0.046262
  0
VERTEX
  8
0
 10
1037.282209
 20
191.491141
 42
0.038461
  0
VERTEX
  8
0
 10
1051.042013
 20
201.352186
 42
0.047692
  0
VERTEX
  8
0
 10
1062.893997
 20
213.410139
 42
0.056187
  0
VERTEX
  8
0
 10
1071.517344
 20
226.886987
 42
0.053156
  0
VERTEX
  8
0
 10
1077.255989
 20
242.571647
 42
0.036514
  0
VERTEX
  8
0
 10
1080.491862
 20
261.250000
 42
0.000000
  0
VERTEX
  8
0
 10
1081.159188
 20
268.000000
 42
0.000000
  0
VERTEX
  8
0
 10
1031.549717
 20
268.000000
 42
0.000000
  0
VERTEX
  8
0
 10
981.940246
 20
268.000000
 42
0.000000
  0
VERTEX
  8
0
 10
982.220123
 20
255.250000
 42
0.000000
  0
VERTEX
  8
0
 10
982.500000
 20
242.500000
 42
0.000000
  0
VERTEX
  8
0
 10
1016.250000
 20
242.236698
 42
-0.001657
  0
VERTEX
  8
0
 10
1029.191413
 20
242.092854
 42
-0.002762
  0
VERTEX
  8
0
 10
1040.085938
 20
241.875455
 42
-0.000308
  0
VERTEX
  8
0
 10
1049.760188
 20
241.622980
 42
-0.406413
  0
VERTEX
  8
0
 10
1050.000000
 20
241.376676
 42
-0.131740
  0
VERTEX
  8
0
 10
1049.412391
 20
239.185197
 42
-0.008815
  0
VERTEX
  8
0
 10
1046.033425
 20
233.568287
 42
-0.013793
  0
VERTEX
  8
0
 10
1042.277150
 20
227.919023
 42
-0.028409
  0
VERTEX
  8
0
 10
1038.976995
 20
223.763549
 42
-0.074249
  0
VERTEX
  8
0
 10
1027.024158
 20
213.805857
 42
-0.062343
  0
VERTEX
  8
0
 10
1011.964521
 20
207.047404
 42
-0.061105
  0
VERTEX
  8
0
 10
995.392607
 20
204.112993
 42
-0.065469
  0
VERTEX
  8
0
 10
979.000000
 20
205.386877
 42
-0.092476
  0
VERTEX
  8
0
 10
959.049095
 20
213.651630
 42
-0.087660
  0
VERTEX
  8
0
 10
942.986628
 20
228.676569
 42
-0.084276
  0
VERTEX
  8
0
 10
932.586488
 20
248.863250
 42
-0.077046
  0
VERTEX
  8
0
 10
929.000000
 20
272.000000
 42
-0.075170
  0
VERTEX
  8
0
 10
932.434897
 20
294.718321
 42
-0.084788
  0
VERTEX
  8
0
 10
942.408412
 20
314.387198
 42
-0.087771
  0
VERTEX
  8
0
 10
957.998914
 20
329.123606
 42
-0.087950
  0
VERTEX
  8
0
 10
977.688197
 20
337.604052
 42
-0.044784
  0
VERTEX
  8
0
 10
986.116673
 20
338.806805
 42
-0.025723
  0
VERTEX
  8
0
 10
996.387526
 20
338.815040
 42
-0.025700
  0
VERTEX
  8
0
 10
1006.635238
 20
337.765911
 42
-0.043643
  0
VERTEX
  8
0
 10
1015.000000
 20
335.713227
 42
-0.035878
  0
VERTEX
  8
0
 10
1025.884947
 20
331.116297
 42
-0.052453
  0
VERTEX
  8
0
 10
1034.602274
 20
325.453032
 42
-0.056208
  0
VERTEX
  8
0
 10
1041.509885
 20
318.436217
 42
-0.050342
  0
VERTEX
  8
0
 10
1046.978139
 20
309.803842
 42
-0.006389
  0
VERTEX
  8
0
 10
1048.518703
 20
306.625041
 42
-0.008743
  0
VERTEX
  8
0
 10
1049.818578
 20
303.722208
 42
-0.006096
  0
VERTEX
  8
0
 10
1050.829700
 20
301.271744
 42
-0.095072
  0
VERTEX
  8
0
 10
1051.000000
 20
300.384205
 42
0.343328
  0
VERTEX
  8
0
 10
1051.561668
 20
299.662648
 42
0.037360
  0
VERTEX
  8
0
 10
1053.778528
 20
299.274718
 42
0.020956
  0
VERTEX
  8
0
 10
1057.670702
 20
299.054011
 42
0.003685
  0
VERTEX
  8
0
 10
1065.000000
 20
299.000000
 42
0.005408
  0
VERTEX
  8
0
 10
1075.943419
 20
299.118363
 42
0.181153
  0
VERTEX
  8
0
 10
1078.332891
 20
300.072889
 42
0.284008
  0
VERTEX
  8
0
 10
1078.938669
 20
302.188444
 42
0.013323
  0
VERTEX
  8
0
 10
1076.638082
 20
309.594023
 42
0.049769
  0
VERTEX
  8
0
 10
1069.289422
 20
325.732127
 42
0.058895
  0
VERTEX
  8
0
 10
1059.224589
 20
339.126438
 42
0.058464
  0
VERTEX
  8
0
 10
1046.246739
 20
349.879783
 42
0.047968
  0
VERTEX
  8
0
 10
1030.260462
 20
358.187731
 42
0.032732
  0
VERTEX
  8
0
 10
1018.354636
 20
362.106455
 42
0.028990
  0
VERTEX
  8
0
 10
1005.547236
 20
364.630329
 42
0.029316
  0
VERTEX
  8
0
 10
992.700162
 20
365.634333
 42
0.035922
  0
SEQEND
  0
POLYLINE
  8
0
 66
1
 70
1
  0
VERTEX
  8
0
 10
53.412084
 20
312.525109
 42
0.003415
  0
VERTEX
  8
0
 10
50.106358
 20
308.060881
 42
0.005660
  0
VERTEX
  8
0
 10
47.386357
 20
304.244733
 42
0.001291
  0
VERTEX
  8
0
 10
45.073171
 20
300.901981
 42
0.374516
  0
VERTEX
  8
0
 10
45.108654
 20
300.591905
 42
0.064108
  0
VERTEX
  8
0
 10
45.432290
 20
300.364684
 42
0.000879
  0
VERTEX
  8
0
 10
47.573804
 20
299.243451
 42
0.002465
  0
VERTEX
  8
0
 10
50.067173
 20
297.959168
 42
0.001617
  0
VERTEX
  8
0
 10
52.951105
 20
296.503379
 42
-0.013205
  0
VERTEX
  8
0
 10
60.568545
 20
292.433980
 42
-0.010242
  0
VERTEX
  8
0
 10
68.644397
 20
287.620029
 42
-0.010406
  0
VERTEX
  8
0
 10
76.294514
 20
282.620633
 42
-0.016596
  0
VERTEX
  8
0
 10
82.593402
 20
278.000609
 42
0.000000
  0
VERTEX
  8
0
 10
88.686803
 20
273.212391
 42
0.000000
  0
VERTEX
  8
0
 10
98.308897
 20
286.049495
 42
0.000000
  0
VERTEX
  8
0
 10
107.930990
 20
298.886599
 42
0.000000
  0
VERTEX
  8
0
 10
104.215495
 20
301.785729
 42
0.023606
  0
VERTEX
  8
0
 10
98.860022
 20
305.571964
 42
0.009973
  0
VERTEX
  8
0
 10
91.342664
 20
310.162819
 42
0.009872
  0
VERTEX
  8
0
 10
83.140655
 20
314.735219
 42
0.013121
  0
VERTEX
  8
0
 10
75.500000
 20
318.545342
 42
0.008767
  0
VERTEX
  8
0
 10
66.017805
 20
322.766235
 42
0.168407
  0
VERTEX
  8
0
 10
62.843740
 20
322.981091
 42
0.158866
  0
VERTEX
  8
0
 10
60.139508
 20
321.204748
 42
0.007572
  0
SEQEND
  0
POLYLINE
  8
0
 66
1
 70
1
  0
VERTEX
  8
0
 10
88.167564
 20
247.718309
 42
-0.011100
  0
VERTEX
  8
0
 10
83.460034
 20
235.939771
 42
-0.003832
  0
VERTEX
  8
0
 10
76.152534
 20
219.130587
 42
-0.003908
  0
VERTEX
  8
0
 10
68.141472
 20
201.456454
 42
-0.006063
  0
VERTEX
  8
0
 10
60.925882
 20
186.346088
 42
0.001043
  0
VERTEX
  8
0
 10
57.120602
 20
178.578859
 42
0.001681
  0
VERTEX
  8
0
 10
53.915728
 20
171.945931
 42
0.000258
  0
VERTEX
  8
0
 10
51.097177
 20
166.054332
 42
0.111890
  0
VERTEX
  8
0
 10
51.000000
 20
165.625516
 42
0.262663
  0
VERTEX
  8
0
 10
51.343003
 20
165.017629
 42
0.000207
  0
VERTEX
  8
0
 10
66.936860
 20
155.607796
 42
0.000343
  0
VERTEX
  8
0
 10
82.338445
 20
146.337081
 42
0.136120
  0
VERTEX
  8
0
 10
83.553679
 20
146.000000
 42
0.409527
  0
VERTEX
  8
0
 10
84.040417
 20
146.478999
 42
0.023297
  0
VERTEX
  8
0
 10
83.969587
 20
148.796078
 42
0.030030
  0
VERTEX
  8
0
 10
83.629815
 20
151.257215
 42
0.073674
  0
VERTEX
  8
0
 10
83.014719
 20
152.972498
 42
-0.153462
  0
VERTEX
  8
0
 10
82.752258
 20
154.360778
 42
-0.045610
  0
VERTEX
  8
0
 10
83.205286
 20
156.498251
 42
-0.027419
  0
VERTEX
  8
0
 10
84.373938
 20
159.652351
 42
-0.006873
  0
VERTEX
  8
0
 10
86.629240
 20
164.656756
 42
0.003425
  0
VERTEX
  8
0
 10
91.575460
 20
175.433175
 42
0.004664
  0
VERTEX
  8
0
 10
95.878648
 20
185.223338
 42
0.003783
  0
VERTEX
  8
0
 10
100.620829
 20
196.526849
 42
0.001404
  0
VERTEX
  8
0
 10
107.128041
 20
212.500000
 42
0.000000
  0
VERTEX
  8
0
 10
116.018552
 20
234.500000
 42
0.000000
  0
VERTEX
  8
0
 10
113.302883
 20
236.702136
 42
0.013112
  0
VERTEX
  8
0
 10
111.672413
 20
237.954875
 42
0.002051
  0
VERTEX
  8
0
 10
108.382287
 20
240.327667
 42
0.002281
  0
VERTEX
  8
0
 10
104.478038
 20
243.092253
 42
0.001987
  0
VERTEX
  8
0
 10
100.365408
 20
245.952008
 42
0.000000
  0
VERTEX
  8
0
 10
90.143602
 20
252.999744
 42
0.000000
  0
SEQEND
  0
POLYLINE
  8
0
 66
1
 70
1
  0
VERTEX
  8
0
 10
964.256600
 20
146.750000
 42
0.000267
  0
VERTEX
  8
0
 10
960.740442
 20
137.797171
 42
0.000182
  0
VERTEX
  8
0
 10
956.752249
 20
127.615530
 42
0.000184
  0
VERTEX
  8
0
 10
952.913008
 20
117.792982
 42
0.000371
  0
VERTEX
  8
0
 10
949.895528
 20
110.047549
 42
-0.001275
  0
VERTEX
  8
0
 10
945.581567
 20
99.033164
 42
-0.036442
  0
VERTEX
  8
0
 10
944.258808
 20
96.285750
 42
-0.591225
  0
VERTEX
  8
0
 10
943.537090
 20
96.299207
 42
-0.093380
  0
VERTEX
  8
0
 10
943.000000
 20
98.047549
 42
0.000000
  0
VERTEX
  8
0
 10
942.500000
 20
102.500000
 42
0.000000
  0
VERTEX
  8
0
 10
925.250000
 20
102.773614
 42
0.000000
  0
VERTEX
  8
0
 10
908.000000
 20
103.047228
 42
0.000000
  0
VERTEX
  8
0
 10
908.000000
 20
134.523614
 42
0.000000
  0
VERTEX
  8
0
 10
908.000000
 20
166.000000
 42
0.000000
  0
VERTEX
  8
0
 10
903.000000
 20
166.000000
 42
0.000000
  0
VERTEX
  8
0
 10
898.000000
 20
166.000000
 42
0.000000
  0
VERTEX
  8
0
 10
898.000000
 20
128.986770
 42
0.000000
  0
VERTEX
  8
0
 10
898.000000
 20
91.973540
 42
0.000000
  0
VERTEX
  8
0
 10
925.930049
 20
92.032498
 42
0.000000
  0
VERTEX
  8
0
 10
953.860098
 20
92.091457
 42
0.000000
  0
VERTEX
  8
0
 10
956.576933
 20
99.295728
 42
-0.004842
  0
VERTEX
  8
0
 10
957.754462
 20
102.328907
 42
-0.004205
  0
VERTEX
  8
0
 10
959.046020
 20
105.485308
 42
-0.004233
  0
VERTEX
  8
0
 10
960.263462
 20
108.322978
 42
-0.012393
  0
VERTEX
  8
0
 10
961.167208
 20
110.250000
 42
0.000000
  0
VERTEX
  8
0
 10
963.040648
 20
114.000000
 42
0.000000
  0
VERTEX
  8
0
 10
976.270324
 20
113.996387
 42
0.000000
  0
VERTEX
  8
0
 10
989.500000
 20
113.992774
 42
0.000000
  0
VERTEX
  8
0
 10
992.874825
 20
105.246387
 42
0.006652
  0
VERTEX
  8
0
 10
996.173967
 20
97.023554
 42
0.068743
  0
VERTEX
  8
0
 10
998.022847
 20
93.883367
 42
0.154260
  0
VERTEX
  8
0
 10
1000.104655
 20
92.473475
 42
0.072422
  0
VERTEX
  8
0
 10
1003.356386
 20
92.000000
 42
0.011778
  0
VERTEX
  8
0
 10
1005.047248
 20
92.039836
 42
0.016246
  0
VERTEX
  8
0
 10
1006.561116
 20
92.160595
 42
0.012849
  0
VERTEX
  8
0
 10
1007.794592
 20
92.331634
 42
0.156744
  0
VERTEX
  8
0
 10
1008.213371
 20
92.546705
 42
0.280565
  0
VERTEX
  8
0
 10
1008.331022
 20
93.030962
 42
0.002857
  0
VERTEX
  8
0
 10
1007.197057
 20
96.517533
 42
0.008129
  0
VERTEX
  8
0
 10
1005.776678
 20
100.579078
 42
0.005060
  0
VERTEX
  8
0
 10
1003.985866
 20
105.296705
 42
0.000209
  0
VERTEX
  8
0
 10
996.366750
 20
124.747835
 42
0.000302
  0
VERTEX
  8
0
 10
989.610135
 20
141.945285
 42
0.000243
  0
VERTEX
  8
0
 10
984.061963
 20
156.021833
 42
0.002573
  0
VERTEX
  8
0
 10
981.766887
 20
161.750000
 42
0.012668
  0
VERTEX
  8
0
 10
980.366382
 20
164.958572
 42
0.100748
  0
VERTEX
  8
0
 10
979.408189
 20
166.251681
 42
0.147144
  0
VERTEX
  8
0
 10
978.172139
 20
166.833696
 42
0.036987
  0
VERTEX
  8
0
 10
975.927058
 20
167.000000
 42
0.000000
  0
VERTEX
  8
0
 10
972.222143
 20
167.000000
 42
0.000000
  0
SEQEND
  0
POLYLINE
  8
0
 66
1
 70
1
  0
VERTEX
  8
0
 10
980.147245
 20
138.737803
 42
-0.002238
  0
VERTEX
  8
0
 10
984.201218
 20
127.195154
 42
-0.151992
  0
VERTEX
  8
0
 10
984.266081
 20
125.143745
 42
-0.325733
  0
VERTEX
  8
0
 10
983.005072
 20
124.142772
 42
-0.010289
  0
VERTEX
  8
0
 10
976.067388
 20
124.000000
 42
-0.007710
  0
VERTEX
  8
0
 10
972.590710
 20
124.053615
 42
-0.012799
  0
VERTEX
  8
0
 10
969.663545
 20
124.218991
 42
-0.006410
  0
VERTEX
  8
0
 10
967.268072
 20
124.446892
 42
-0.383017
  0
VERTEX
  8
0
 10
967.000000
 20
124.745501
 42
-0.087985
  0
VERTEX
  8
0
 10
967.321806
 20
126.560095
 42
-0.001156
  0
VERTEX
  8
0
 10
971.309490
 20
137.371840
 42
-0.000443
  0
VERTEX
  8
0
 10
975.501937
 20
148.627772
 42
-0.312312
  0
VERTEX
  8
0
 10
976.000000
 20
148.974351
 42
-0.304131
  0
VERTEX
  8
0
 10
976.266119
 20
148.796949
 42
-0.001851
  0
VERTEX
  8
0
 10
977.424503
 20
145.967883
 42
-0.006612
  0
VERTEX
  8
0
 10
978.712927
 20
142.662772
 42
-0.004062
  0
SEQEND
  0
POLYLINE
  8
0
 66
1
 70
1
  0
VERTEX
  8
0
 10
724.000000
 20
129.000000
 42
0.000000
  0
VERTEX
  8
0
 10
724.000000
 20
92.000000
 42
0.000000
  0
VERTEX
  8
0
 10
729.000000
 20
92.000000
 42
0.000000
  0
VERTEX
  8
0
 10
734.000000
 20
92.000000
 42
0.000000
  0
VERTEX
  8
0
 10
734.000000
 20
129.000000
 42
0.000000
  0
VERTEX
  8
0
 10
734.000000
 20
166.000000
 42
0.000000
  0
VERTEX
  8
0
 10
729.000000
 20
166.000000
 42
0.000000
  0
VERTEX
  8
0
 10
724.000000
 20
166.000000
 42
0.000000
  0
SEQEND
  0
POLYLINE
  8
0
 66
1
 70
1
  0
VERTEX
  8
0
 10
749.611287
 20
149.148702
 42
0.003685
  0
VERTEX
  8
0
 10
743.110069
 20
140.326934
 42
0.016714
  0
VERTEX
  8
0
 10
739.534038
 20
135.035426
 42
0.027162
  0
VERTEX
  8
0
 10
737.548617
 20
131.457199
 42
0.113549
  0
VERTEX
  8
0
 10
737.000000
 20
129.072569
 42
0.109585
  0
VERTEX
  8
0
 10
737.504766
 20
126.797137
 42
0.036838
  0
VERTEX
  8
0
 10
739.175628
 20
123.811705
 42
0.020865
  0
VERTEX
  8
0
 10
742.303938
 20
119.481283
 42
0.004357
  0
VERTEX
  8
0
 10
748.165462
 20
112.173867
 42
0.002020
  0
VERTEX
  8
0
 10
759.665288
 20
98.206062
 42
0.039669
  0
VERTEX
  8
0
 10
763.547870
 20
94.219050
 42
0.118817
  0
VERTEX
  8
0
 10
766.725073
 20
92.553459
 42
0.061658
  0
VERTEX
  8
0
 10
771.196167
 20
92.000000
 42
0.012502
  0
VERTEX
  8
0
 10
773.421285
 20
92.055647
 42
0.020591
  0
VERTEX
  8
0
 10
775.295124
 20
92.226986
 42
0.015768
  0
VERTEX
  8
0
 10
776.749252
 20
92.467467
 42
0.358065
  0
VERTEX
  8
0
 10
777.000000
 20
92.772718
 42
0.170001
  0
VERTEX
  8
0
 10
776.810530
 20
93.313873
 42
0.000640
  0
VERTEX
  8
0
 10
772.609962
 20
98.563465
 42
0.003199
  0
VERTEX
  8
0
 10
767.784414
 20
104.500092
 42
0.001993
  0
VERTEX
  8
0
 10
762.055189
 20
111.400809
 42
0.000000
  0
VERTEX
  8
0
 10
747.110378
 20
129.256182
 42
0.000000
  0
VERTEX
  8
0
 10
760.555189
 20
146.927891
 42
0.001787
  0
VERTEX
  8
0
 10
765.709396
 20
153.752994
 42
0.002869
  0
VERTEX
  8
0
 10
770.050587
 20
159.614219
 42
0.000546
  0
VERTEX
  8
0
 10
773.837532
 20
164.800842
 42
0.158706
  0
VERTEX
  8
0
 10
774.000000
 20
165.299800
 42
0.365336
  0
VERTEX
  8
0
 10
773.765938
 20
165.577382
 42
0.012841
  0
VERTEX
  8
0
 10
772.270191
 20
165.794316
 42
0.018429
  0
VERTEX
  8
0
 10
770.369021
 20
165.949597
 42
0.011161
  0
VERTEX
  8
0
 10
768.111287
 20
166.000000
 42
0.000000
  0
VERTEX
  8
0
 10
762.222574
 20
166.000000
 42
0.000000
  0
SEQEND
  0
POLYLINE
  8
0
 66
1
 70
1
  0
VERTEX
  8
0
 10
824.323745
 20
164.598718
 42
0.043698
  0
VERTEX
  8
0
 10
824.850228
 20
163.519163
 42
0.000706
  0
VERTEX
  8
0
 10
828.345354
 20
157.721304
 42
0.001842
  0
VERTEX
  8
0
 10
832.446241
 20
150.996314
 42
0.001220
  0
VERTEX
  8
0
 10
837.201344
 20
143.304850
 42
0.000000
  0
VERTEX
  8
0
 10
849.500000
 20
123.519685
 42
0.000000
  0
VERTEX
  8
0
 10
850.000000
 20
108.009843
 42
0.000000
  0
VERTEX
  8
0
 10
850.500000
 20
92.500000
 42
0.000000
  0
VERTEX
  8
0
 10
855.500000
 20
92.500000
 42
0.000000
  0
VERTEX
  8
0
 10
860.500000
 20
92.500000
 42
0.000000
  0
VERTEX
  8
0
 10
861.000000
 20
108.000000
 42
0.000000
  0
VERTEX
  8
0
 10
861.500000
 20
123.500000
 42
0.000000
  0
VERTEX
  8
0
 10
874.250000
 20
143.745337
 42
0.002196
  0
VERTEX
  8
0
 10
879.137322
 20
151.581889
 42
0.003464
  0
VERTEX
  8
0
 10
883.254688
 20
158.353385
 42
0.000899
  0
VERTEX
  8
0
 10
886.791728
 20
164.286487
 42
0.134754
  0
VERTEX
  8
0
 10
887.000000
 20
165.045241
 42
0.329646
  0
VERTEX
  8
0
 10
886.683194
 20
165.473548
 42
0.041094
  0
VERTEX
  8
0
 10
885.481847
 20
165.735818
 42
0.032210
  0
VERTEX
  8
0
 10
883.703999
 20
165.857613
 42
0.014261
  0
VERTEX
  8
0
 10
881.350688
 20
165.799904
 42
0.000000
  0
VERTEX
  8
0
 10
875.701375
 20
165.500000
 42
0.000000
  0
VERTEX
  8
0
 10
866.026411
 20
150.000000
 42
-0.003666
  0
VERTEX
  8
0
 10
862.256614
 20
144.057942
 42
-0.005888
  0
VERTEX
  8
0
 10
858.945642
 20
139.053125
 42
-0.001631
  0
VERTEX
  8
0
 10
856.017011
 20
134.767715
 42
-0.246848
  0
VERTEX
  8
0
 10
855.507787
 20
134.500000
 42
-0.247404
  0
VERTEX
  8
0
 10
854.999177
 20
134.768072
 42
-0.001638
  0
VERTEX
  8
0
 10
852.084028
 20
139.053125
 42
-0.005905
  0
VERTEX
  8
0
 10
848.788553
 20
144.057940
 42
-0.003676
  0
VERTEX
  8
0
 10
845.037152
 20
150.000000
 42
0.000000
  0
VERTEX
  8
0
 10
835.410177
 20
165.500000
 42
0.000000
  0
VERTEX
  8
0
 10
829.577489
 20
165.803711
 42
0.007872
  0
VERTEX
  8
0
 10
826.409936
 20
165.918680
 42
0.061577
  0
VERTEX
  8
0
 10
824.945264
 20
165.768080
 42
0.217635
  0
VERTEX
  8
0
 10
824.368049
 20
165.325581
 42
0.216953
  0
SEQEND
  0
POLYLINE
  8
0
 66
1
 70
1
  0
VERTEX
  8
0
 10
778.000000
 20
128.480868
 42
0.000000
  0
VERTEX
  8
0
 10
778.000000
 20
91.961737
 42
0.000000
  0
VERTEX
  8
0
 10
800.250000
 20
92.230868
 42
0.000000
  0
VERTEX
  8
0
 10
822.500000
 20
92.500000
 42
0.000000
  0
VERTEX
  8
0
 10
822.500000
 20
97.500000
 42
0.000000
  0
VERTEX
  8
0
 10
822.500000
 20
102.500000
 42
0.000000
  0
VERTEX
  8
0
 10
805.750000
 20
102.774179
 42
0.000000
  0
VERTEX
  8
0
 10
789.000000
 20
103.048358
 42
0.000000
  0
VERTEX
  8
0
 10
789.000000
 20
113.524179
 42
0.000000
  0
VERTEX
  8
0
 10
789.000000
 20
124.000000
 42
0.000000
  0
VERTEX
  8
0
 10
805.500000
 20
124.000000
 42
0.000000
  0
VERTEX
  8
0
 10
822.000000
 20
124.000000
 42
0.000000
  0
VERTEX
  8
0
 10
822.000000
 20
129.000000
 42
0.000000
  0
VERTEX
  8
0
 10
822.000000
 20
134.000000
 42
0.000000
  0
VERTEX
  8
0
 10
805.500000
 20
134.000000
 42
0.000000
  0
VERTEX
  8
0
 10
789.000000
 20
134.000000
 42
0.000000
  0
VERTEX
  8
0
 10
789.000000
 20
144.500000
 42
0.000000
  0
VERTEX
  8
0
 10
789.000000
 20
155.000000
 42
0.000000
  0
VERTEX
  8
0
 10
806.000000
 20
155.000000
 42
0.000000
  0
VERTEX
  8
0
 10
823.000000
 20
155.000000
 42
0.000000
  0
VERTEX
  8
0
 10
823.000000
 20
160.000000
 42
0.000000
  0
VERTEX
  8
0
 10
823.000000
 20
165.000000
 42
0.000000
  0
VERTEX
  8
0
 10
800.500000
 20
165.000000
 42
0.000000
  0
VERTEX
  8
0
 10
778.000000
 20
165.000000
 42
0.000000
  0
SEQEND
  0
POLYLINE
  8
0
 66
1
 70
1
  0
VERTEX
  8
0
 10
1010.237462
 20
128.810737
 42
0.000000
  0
VERTEX
  8
0
 10
1010.500000
 20
92.500000
 42
0.000000
  0
VERTEX
  8
0
 10
1029.500000
 20
92.500000
 42
0.002317
  0
VERTEX
  8
0
 10
1041.571611
 20
92.555948
 42
0.024233
  0
VERTEX
  8
0
 10
1046.513112
 20
92.841521
 42
0.056125
  0
VERTEX
  8
0
 10
1049.725904
 20
93.554284
 42
0.045249
  0
VERTEX
  8
0
 10
1052.955595
 20
95.000000
 42
0.056348
  0
VERTEX
  8
0
 10
1057.447644
 20
98.233405
 42
0.072071
  0
VERTEX
  8
0
 10
1060.690661
 20
102.159277
 42
0.070246
  0
VERTEX
  8
0
 10
1062.742007
 20
106.927494
 42
0.050279
  0
VERTEX
  8
0
 10
1063.699977
 20
112.661390
 42
0.014396
  0
VERTEX
  8
0
 10
1063.838191
 20
116.469308
 42
0.042916
  0
VERTEX
  8
0
 10
1063.634319
 20
119.068102
 42
0.050846
  0
VERTEX
  8
0
 10
1063.015210
 20
121.343361
 42
0.027314
  0
VERTEX
  8
0
 10
1061.822797
 20
124.000000
 42
0.030510
  0
VERTEX
  8
0
 10
1060.709081
 20
125.868509
 42
0.023608
  0
VERTEX
  8
0
 10
1059.282657
 20
127.761662
 42
0.024131
  0
VERTEX
  8
0
 10
1057.777076
 20
129.406666
 42
0.051538
  0
VERTEX
  8
0
 10
1056.437314
 20
130.486507
 42
0.000000
  0
VERTEX
  8
0
 10
1053.374627
 20
132.473015
 42
0.000000
  0
VERTEX
  8
0
 10
1056.379621
 20
136.736234
 42
0.105899
  0
VERTEX
  8
0
 10
1058.998627
 20
142.879798
 42
0.098115
  0
VERTEX
  8
0
 10
1058.973644
 20
149.736674
 42
0.093634
  0
VERTEX
  8
0
 10
1056.295533
 20
156.327291
 42
0.086733
  0
VERTEX
  8
0
 10
1051.340379
 20
161.692068
 42
0.000000
  0
VERTEX
  8
0
 10
1047.662297
 20
164.500000
 42
0.000000
  0
VERTEX
  8
0
 10
1028.818610
 20
164.810737
 42
0.000000
  0
VERTEX
  8
0
 10
1009.974924
 20
165.121475
 42
0.000000
  0
SEQEND
  0
POLYLINE
  8
0
 66
1
 70
1
  0
VERTEX
  8
0
 10
1047.091713
 20
152.139216
 42
-0.101245
  0
VERTEX
  8
0
 10
1048.580946
 20
149.264611
 42
-0.079027
  0
VERTEX
  8
0
 10
1048.997540
 20
145.764479
 42
-0.077492
  0
VERTEX
  8
0
 10
1048.305784
 20
142.242386
 42
-0.090634
  0
VERTEX
  8
0
 10
1046.587592
 20
139.305764
 42
-0.058957
  0
VERTEX
  8
0
 10
1044.785508
 20
137.650824
 42
-0.108086
  0
VERTEX
  8
0
 10
1042.965181
 20
136.860203
 42
-0.045029
  0
VERTEX
  8
0
 10
1040.059010
 20
136.555656
 42
-0.003604
  0
VERTEX
  8
0
 10
1032.337592
 20
136.500000
 42
0.000000
  0
VERTEX
  8
0
 10
1020.500000
 20
136.500000
 42
0.000000
  0
VERTEX
  8
0
 10
1020.206869
 20
144.916411
 42
-0.004968
  0
VERTEX
  8
0
 10
1020.124678
 20
148.219397
 42
-0.006904
  0
VERTEX
  8
0
 10
1020.121317
 20
151.178805
 42
-0.004468
  0
VERTEX
  8
0
 10
1020.174830
 20
153.654885
 42
-0.083700
  0
VERTEX
  8
0
 10
1020.327261
 20
154.416411
 42
-0.282298
  0
VERTEX
  8
0
 10
1020.965069
 20
154.907295
 42
-0.014881
  0
VERTEX
  8
0
 10
1023.641984
 20
155.110909
 42
-0.016171
  0
VERTEX
  8
0
 10
1027.455881
 20
155.163611
 42
-0.005592
  0
VERTEX
  8
0
 10
1032.962105
 20
155.000000
 42
-0.004071
  0
VERTEX
  8
0
 10
1040.359491
 20
154.637005
 42
-0.035663
  0
VERTEX
  8
0
 10
1043.613205
 20
154.216685
 42
-0.084002
  0
VERTEX
  8
0
 10
1045.552276
 20
153.470436
 42
-0.089239
  0
SEQEND
  0
POLYLINE
  8
0
 66
1
 70
1
  0
VERTEX
  8
0
 10
1050.045967
 20
123.250000
 42
-0.086145
  0
VERTEX
  8
0
 10
1052.404377
 20
120.271184
 42
-0.081485
  0
VERTEX
  8
0
 10
1053.678174
 20
116.614484
 42
-0.079217
  0
VERTEX
  8
0
 10
1053.735605
 20
112.650387
 42
-0.075002
  0
VERTEX
  8
0
 10
1052.567747
 20
108.784008
 42
-0.083210
  0
VERTEX
  8
0
 10
1050.251596
 20
105.463768
 42
-0.121431
  0
VERTEX
  8
0
 10
1047.231829
 20
103.595770
 42
-0.066503
  0
VERTEX
  8
0
 10
1042.386656
 20
102.716666
 42
-0.011669
  0
VERTEX
  8
0
 10
1033.104369
 20
102.500000
 42
0.000000
  0
VERTEX
  8
0
 10
1020.500000
 20
102.500000
 42
0.000000
  0
VERTEX
  8
0
 10
1020.218265
 20
114.250000
 42
0.000000
  0
VERTEX
  8
0
 10
1019.936529
 20
126.000000
 42
0.000000
  0
VERTEX
  8
0
 10
1033.452488
 20
126.000000
 42
-0.003218
  0
VERTEX
  8
0
 10
1042.215695
 20
125.943605
 42
-0.037859
  0
VERTEX
  8
0
 10
1045.610351
 20
125.642210
 42
-0.088558
  0
VERTEX
  8
0
 10
1047.798657
 20
124.865935
 42
-0.052977
  0
SEQEND
  0
POLYLINE
  8
0
 66
1
 70
1
  0
VERTEX
  8
0
 10
881.580032
 20
103.088434
 42
0.118737
  0
VERTEX
  8
0
 10
880.388452
 20
100.903094
 42
0.107093
  0
VERTEX
  8
0
 10
880.260897
 20
98.326097
 42
0.100434
  0
VERTEX
  8
0
 10
881.226031
 20
95.793631
 42
0.092102
  0
VERTEX
  8
0
 10
883.125122
 20
93.746881
 42
0.026642
  0
VERTEX
  8
0
 10
884.632905
 20
92.746386
 42
0.098728
  0
VERTEX
  8
0
 10
885.705221
 20
92.372183
 42
0.114418
  0
VERTEX
  8
0
 10
886.751484
 20
92.465450
 42
0.042103
  0
VERTEX
  8
0
 10
888.125122
 20
93.047688
 42
0.037536
  0
VERTEX
  8
0
 10
890.053229
 20
94.256791
 42
0.092160
  0
VERTEX
  8
0
 10
891.191359
 20
95.473956
 42
0.096695
  0
VERTEX
  8
0
 10
891.784971
 20
96.980850
 42
0.044172
  0
VERTEX
  8
0
 10
891.984687
 20
99.095012
 42
0.159760
  0
VERTEX
  8
0
 10
890.935236
 20
102.360601
 42
0.145141
  0
VERTEX
  8
0
 10
888.118569
 20
104.522995
 42
0.144529
  0
VERTEX
  8
0
 10
884.568806
 20
104.805450
 42
0.158191
  0
SEQEND
  0
POLYLINE
  8
0
 66
1
 70
1
  0
VERTEX
  8
0
 10
839.000000
 20
421.500000
 42
-0.200296
  0
VERTEX
  8
0
 10
838.704941
 20
420.792990
 42
-0.122766
  0
VERTEX
  8
0
 10
837.916667
 20
420.325000
 42
-0.058865
  0
VERTEX
  8
0
 10
836.460489
 20
420.069243
 42
-0.014068
  0
VERTEX
  8
0
 10
834.000000
 20
420.000000
 42
0.014068
  0
VERTEX
  8
0
 10
831.539511
 20
419.930757
 42
0.058865
  0
VERTEX
  8
0
 10
830.083333
 20
419.675000
 42
0.122766
  0
VERTEX
  8
0
 10
829.295059
 20
419.207010
 42
0.200296
  0
VERTEX
  8
0
 10
829.000000
 20
418.500000
 42
0.202191
  0
VERTEX
  8
0
 10
829.298725
 20
417.791479
 42
0.122064
  0
VERTEX
  8
0
 10
830.097222
 20
417.323770
 42
0.058096
  0
VERTEX
  8
0
 10
831.574984
 20
417.068767
 42
0.013705
  0
VERTEX
  8
0
 10
834.083333
 20
417.000000
 42
-0.028759
  0
VERTEX
  8
0
 10
838.487560
 20
416.746471
 42
-0.569672
  0
VERTEX
  8
0
 10
838.935894
 20
415.742936
 42
-0.208406
  0
VERTEX
  8
0
 10
837.145694
 20
414.659157
 42
-0.021372
  0
VERTEX
  8
0
 10
832.103782
 20
414.200547
 42
0.011485
  0
VERTEX
  8
0
 10
829.277950
 20
413.999743
 42
0.039412
  0
VERTEX
  8
0
 10
827.466672
 20
413.683799
 42
0.076266
  0
VERTEX
  8
0
 10
826.466355
 20
413.256485
 42
0.346923
  0
VERTEX
  8
0
 10
826.265321
 20
412.700547
 42
0.282258
  0
VERTEX
  8
0
 10
826.971066
 20
412.106450
 42
0.013736
  0
VERTEX
  8
0
 10
830.141103
 20
411.717639
 42
0.014670
  0
VERTEX
  8
0
 10
834.775918
 20
411.414857
 42
0.004425
  0
VERTEX
  8
0
 10
841.832170
 20
411.223954
 42
0.002859
  0
VERTEX
  8
0
 10
850.343807
 20
411.117724
 42
0.022251
  0
VERTEX
  8
0
 10
854.310397
 20
411.267460
 42
0.052213
  0
VERTEX
  8
0
 10
856.394685
 20
411.660874
 42
0.331364
  0
VERTEX
  8
0
 10
857.000000
 20
412.473954
 42
0.215932
  0
VERTEX
  8
0
 10
856.664885
 20
413.213746
 42
0.118315
  0
VERTEX
  8
0
 10
855.767068
 20
413.686415
 42
0.051854
  0
VERTEX
  8
0
 10
854.063809
 20
413.935909
 42
0.010458
  0
VERTEX
  8
0
 10
851.000000
 20
414.000000
 42
-0.010614
  0
VERTEX
  8
0
 10
847.964058
 20
414.064452
 42
-0.050675
  0
VERTEX
  8
0
 10
846.250000
 20
414.312500
 42
-0.113455
  0
VERTEX
  8
0
 10
845.337712
 20
414.776970
 42
-0.222027
  0
VERTEX
  8
0
 10
845.000000
 20
415.500000
 42
-0.200296
  0
VERTEX
  8
0
 10
845.295059
 20
416.207010
 42
-0.122766
  0
VERTEX
  8
0
 10
846.083333
 20
416.675000
 42
-0.058865
  0
VERTEX
  8
0
 10
847.539511
 20
416.930757
 42
-0.014068
  0
VERTEX
  8
0
 10
850.000000
 20
417.000000
 42
0.014068
  0
VERTEX
  8
0
 10
852.460489
 20
417.069243
 42
0.058865
  0
VERTEX
  8
0
 10
853.916667
 20
417.325000
 42
0.122766
  0
VERTEX
  8
0
 10
854.704941
 20
417.792990
 42
0.200296
  0
VERTEX
  8
0
 10
855.000000
 20
418.500000
 42
0.200296
  0
VERTEX
  8
0
 10
854.704941
 20
419.207010
 42
0.122766
  0
VERTEX
  8
0
 10
853.916667
 20
419.675000
 42
0.058865
  0
VERTEX
  8
0
 10
852.460489
 20
419.930757
 42
0.014068
  0
VERTEX
  8
0
 10
850.000000
 20
420.000000
 42
-0.014068
  0
VERTEX
  8
0
 10
847.539511
 20
420.069243
 42
-0.058865
  0
VERTEX
  8
0
 10
846.083333
 20
420.325000
 42
-0.122766
  0
VERTEX
  8
0
 10
845.295059
 20
420.792990
 42
-0.200296
  0
VERTEX
  8
0
 10
845.000000
 20
421.500000
 42
0.152103
  0
VERTEX
  8
0
 10
844.797909
 20
422.148955
 42
0.126510
  0
VERTEX
  8
0
 10
844.250000
 20
422.625000
 42
0.082504
  0
VERTEX
  8
0
 10
843.322075
 20
422.911037
 42
0.033607
  0
VERTEX
  8
0
 10
842.000000
 20
423.000000
 42
0.033607
  0
VERTEX
  8
0
 10
840.677925
 20
422.911037
 42
0.082504
  0
VERTEX
  8
0
 10
839.750000
 20
422.625000
 42
0.126510
  0
VERTEX
  8
0
 10
839.202091
 20
422.148955
 42
0.152103
  0
SEQEND
  0
POLYLINE
  8
0
 66
1
 70
1
  0
VERTEX
  8
0
 10
830.000000
 20
404.500000
 42
0.012019
  0
VERTEX
  8
0
 10
830.070142
 20
401.582500
 42
0.154453
  0
VERTEX
  8
0
 10
830.444444
 20
400.571429
 42
0.206324
  0
VERTEX
  8
0
 10
831.290758
 20
400.105988
 42
0.023974
  0
VERTEX
  8
0
 10
833.500000
 20
400.000000
 42
-0.043765
  0
VERTEX
  8
0
 10
836.345918
 20
399.750418
 42
-0.522430
  0
VERTEX
  8
0
 10
836.736116
 20
398.906273
 42
-0.154832
  0
VERTEX
  8
0
 10
835.365489
 20
397.670519
 42
-0.014142
  0
VERTEX
  8
0
 10
831.079408
 20
395.867526
 42
0.009076
  0
VERTEX
  8
0
 10
827.789511
 20
394.522647
 42
0.070584
  0
VERTEX
  8
0
 10
826.376865
 20
393.662083
 42
0.194514
  0
VERTEX
  8
0
 10
825.917567
 20
392.818311
 42
0.152581
  0
VERTEX
  8
0
 10
826.114592
 20
391.785883
 42
0.121190
  0
VERTEX
  8
0
 10
827.240804
 20
390.533997
 42
0.157935
  0
VERTEX
  8
0
 10
828.711613
 20
390.105147
 42
0.089029
  0
VERTEX
  8
0
 10
830.811147
 20
390.546421
 42
0.021752
  0
VERTEX
  8
0
 10
834.039838
 20
392.020324
 42
0.000000
  0
VERTEX
  8
0
 10
838.000000
 20
394.040648
 42
0.000000
  0
VERTEX
  8
0
 10
838.000000
 20
390.953902
 42
0.024466
  0
VERTEX
  8
0
 10
838.086521
 20
389.186796
 42
0.172653
  0
VERTEX
  8
0
 10
838.447099
 20
388.420447
 42
0.195631
  0
VERTEX
  8
0
 10
839.183904
 20
388.106586
 42
0.032730
  0
VERTEX
  8
0
 10
840.750000
 20
388.183578
 42
0.046722
  0
VERTEX
  8
0
 10
842.120015
 20
388.472628
 42
0.118171
  0
VERTEX
  8
0
 10
842.989460
 20
388.989743
 42
0.121151
  0
VERTEX
  8
0
 10
843.517302
 20
389.835685
 42
0.050429
  0
VERTEX
  8
0
 10
843.807667
 20
391.159266
 42
0.000000
  0
VERTEX
  8
0
 10
844.115334
 20
393.818532
 42
0.000000
  0
VERTEX
  8
0
 10
848.307667
 20
391.421311
 42
0.023029
  0
VERTEX
  8
0
 10
851.566191
 20
389.752198
 42
0.080833
  0
VERTEX
  8
0
 10
853.833471
 20
389.134421
 42
0.131563
  0
VERTEX
  8
0
 10
855.552939
 20
389.406482
 42
0.115389
  0
VERTEX
  8
0
 10
857.006009
 20
390.507240
 42
0.075335
  0
VERTEX
  8
0
 10
857.510165
 20
391.343857
 42
0.265003
  0
VERTEX
  8
0
 10
857.434013
 20
391.944343
 42
0.131910
  0
VERTEX
  8
0
 10
856.762803
 20
392.469856
 42
0.016630
  0
VERTEX
  8
0
 10
855.028442
 20
393.139930
 42
0.000000
  0
VERTEX
  8
0
 10
851.799977
 20
394.265379
 42
0.000000
  0
VERTEX
  8
0
 10
854.594315
 20
396.493505
 42
0.000000
  0
VERTEX
  8
0
 10
857.388652
 20
398.721632
 42
0.000000
  0
VERTEX
  8
0
 10
855.194326
 20
399.896000
 42
-0.071566
  0
VERTEX
  8
0
 10
854.130819
 20
400.678420
 42
-0.097830
  0
VERTEX
  8
0
 10
853.462412
 20
401.658400
 42
-0.074449
  0
VERTEX
  8
0
 10
853.107109
 20
403.021846
 42
-0.026581
  0
VERTEX
  8
0
 10
853.000000
 20
405.035184
 42
0.000000
  0
VERTEX
  8
0
 10
853.000000
 20
409.000000
 42
0.000000
  0
VERTEX
  8
0
 10
841.500000
 20
409.000000
 42
0.000000
  0
VERTEX
  8
0
 10
830.000000
 20
409.000000
 42
0.000000
  0
SEQEND
  0
POLYLINE
  8
0
 66
1
 70
1
  0
VERTEX
  8
0
 10
847.000000
 20
404.500000
 42
-0.222027
  0
VERTEX
  8
0
 10
846.662288
 20
403.776970
 42
-0.113455
  0
VERTEX
  8
0
 10
845.750000
 20
403.312500
 42
-0.050675
  0
VERTEX
  8
0
 10
844.035942
 20
403.064452
 42
-0.010614
  0
VERTEX
  8
0
 10
841.000000
 20
403.000000
 42
-0.010614
  0
VERTEX
  8
0
 10
837.964058
 20
403.064452
 42
-0.050675
  0
VERTEX
  8
0
 10
836.250000
 20
403.312500
 42
-0.113455
  0
VERTEX
  8
0
 10
835.337712
 20
403.776970
 42
-0.222027
  0
VERTEX
  8
0
 10
835.000000
 20
404.500000
 42
-0.222027
  0
VERTEX
  8
0
 10
835.337712
 20
405.223030
 42
-0.113455
  0
VERTEX
  8
0
 10
836.250000
 20
405.687500
 42
-0.050675
  0
VERTEX
  8
0
 10
837.964058
 20
405.935548
 42
-0.010614
  0
VERTEX
  8
0
 10
841.000000
 20
406.000000
 42
-0.010614
  0
VERTEX
  8
0
 10
844.035942
 20
405.935548
 42
-0.050675
  0
VERTEX
  8
0
 10
845.750000
 20
405.687500
 42
-0.113455
  0
VERTEX
  8
0
 10
846.662288
 20
405.223030
 42
-0.222027
  0
SEQEND
  0
POLYLINE
  8
0
 66
1
 70
1
  0
VERTEX
  8
0
 10
849.891827
 20
398.463256
 42
-0.066469
  0
VERTEX
  8
0
 10
849.171894
 20
397.912936
 42
-0.062035
  0
VERTEX
  8
0
 10
848.316108
 20
397.555142
 42
-0.065364
  0
VERTEX
  8
0
 10
847.445718
 20
397.431111
 42
-0.094634
  0
VERTEX
  8
0
 10
846.683285
 20
397.568041
 42
-0.128145
  0
VERTEX
  8
0
 10
845.650985
 20
398.307049
 42
-0.366308
  0
VERTEX
  8
0
 10
845.657258
 20
399.125139
 42
-0.164975
  0
VERTEX
  8
0
 10
846.788762
 20
399.794000
 42
-0.051762
  0
VERTEX
  8
0
 10
848.773303
 20
400.000000
 42
-0.010881
  0
VERTEX
  8
0
 10
850.344509
 20
399.965804
 42
-0.228375
  0
VERTEX
  8
0
 10
850.746608
 20
399.750000
 42
-0.346737
  0
VERTEX
  8
0
 10
850.732149
 20
399.373198
 42
-0.019881
  0
SEQEND
  0
ENDSEC
  0
EOF
